<?xml version="1.0" encoding="iso-8859-1"?>
<!-- Generator: Adobe Illustrator 19.0.0, SVG Export Plug-In . SVG Version: 6.00 Build 0)  -->
<svg version="1.1" id="Capa_1" xmlns="http://www.w3.org/2000/svg" xmlns:xlink="http://www.w3.org/1999/xlink" x="0px" y="0px"
	 viewBox="0 0 512 512" style="enable-background:new 0 0 512 512;" xml:space="preserve">
<circle style="fill:#FAC149;" cx="256" cy="256" r="256"/>
<path style="fill:#DDDDDD;" d="M439.103,156.433l-355.77-114.7c-7.781-2.509-16.123,1.766-18.632,9.547l-5.444,16.887
	c-0.32,0.994,0.176,2.043,1.123,2.486c6.497,3.04,9.871,10.512,7.612,17.518s-9.361,11.1-16.411,9.773
	c-1.027-0.193-2.043,0.368-2.364,1.362l-7.66,23.761c-0.321,0.994,0.176,2.043,1.123,2.486c6.497,3.04,9.871,10.511,7.612,17.518
	c-2.259,7.006-9.361,11.1-16.41,9.772c-1.027-0.193-2.043,0.368-2.363,1.362l-0.718,2.227L439.103,156.433L439.103,156.433z"/>
<path style="fill:#EFEFEF;" d="M30.142,155.358c-8.176,0-14.803,6.628-14.803,14.803v17.743c0,1.045,0.795,1.891,1.832,2.022
	c7.117,0.9,12.62,6.976,12.62,14.337c0,7.361-5.503,13.436-12.62,14.337c-1.036,0.131-1.832,0.977-1.832,2.022v24.965
	c0,1.045,0.795,1.891,1.832,2.022c7.117,0.9,12.62,6.976,12.62,14.337c0,7.361-5.503,13.437-12.62,14.337
	c-1.036,0.131-1.832,0.977-1.832,2.022v24.965c0,1.045,0.795,1.891,1.832,2.022c7.117,0.9,12.62,6.976,12.62,14.336
	c0,7.361-5.503,13.437-12.62,14.337c-1.036,0.131-1.832,0.977-1.832,2.022v24.965c0,1.045,0.795,1.891,1.832,2.022
	c7.117,0.9,12.62,6.976,12.62,14.337s-5.503,13.437-12.62,14.337c-1.036,0.131-1.832,0.977-1.832,2.022v17.743
	c0,8.176,6.628,14.803,14.803,14.803h334.645V155.358H30.142z"/>
<path style="fill:#FC5B6F;" d="M362.786,426.215h84.407C487.497,380.977,512,321.354,512,256c0-35.731-7.33-69.748-20.553-100.642
	h-128.66L362.786,426.215L362.786,426.215z"/>
<rect x="362.79" y="155.36" style="fill:#F74352;" width="35.38" height="270.86"/>
<path style="fill:#68C4FC;" d="M137.289,279.005l90.139-29.576v-29.143c0-1.38-1.349-2.357-2.66-1.927l-85.812,28.156
	c-0.994,0.326-1.667,1.254-1.667,2.301V279.005z"/>
<path style="fill:#48AEF9;" d="M168.725,237.48c0-0.264,0.043-0.52,0.108-0.767l-29.877,9.803c-0.994,0.326-1.667,1.254-1.667,2.301
	v30.188l31.436-10.315V237.48z"/>
<path style="fill:#68C4FC;" d="M219.367,333.403c-4.452,0-8.061-3.609-8.061-8.061v-77.096c0-4.453,3.609-8.061,8.061-8.061
	c4.453,0,8.061,3.609,8.061,8.061v77.096C227.428,329.794,223.819,333.403,219.367,333.403z"/>
<circle style="fill:#48AEF9;" cx="134.25" cy="356.1" r="19.17"/>
<circle style="fill:#68C4FC;" cx="208.26" cy="325.34" r="19.17"/>
<path style="fill:#2D9EEA;" d="M134.24,356.103c-3.546-6.141-3.29-13.422,0.01-19.155c-3.26-0.004-6.563,0.806-9.589,2.553
	c-9.167,5.293-12.308,17.015-7.016,26.183c5.293,9.168,17.015,12.308,26.183,7.016c3.026-1.747,5.379-4.203,7.005-7.028
	C144.218,365.664,137.786,362.245,134.24,356.103z"/>
<g>
	<path style="fill:#48AEF9;" d="M208.256,325.344c-3.546-6.141-3.29-13.422,0.01-19.155c-3.26-0.004-6.563,0.806-9.589,2.553
		c-9.167,5.293-12.308,17.015-7.015,26.182c5.293,9.168,17.015,12.309,26.182,7.016c3.026-1.747,5.379-4.203,7.005-7.027
		C218.234,334.904,211.802,331.486,208.256,325.344z"/>
	<path style="fill:#48AEF9;" d="M145.351,364.161c-4.453,0-8.061-3.609-8.061-8.061v-87.79c0-4.453,3.609-8.061,8.061-8.061
		c4.452,0,8.061,3.609,8.061,8.061v87.79C153.412,360.553,149.803,364.161,145.351,364.161z"/>
</g>
<path style="fill:#CECCCA;" d="M313.066,226.319h-34.187c-4.453,0-8.061-3.609-8.061-8.061c0-4.453,3.609-8.061,8.061-8.061h34.187
	c4.453,0,8.061,3.609,8.061,8.061S317.519,226.319,313.066,226.319z"/>
<g>
	<path style="fill:#F991A2;" d="M471.978,333.668h-65.749c-4.453,0-8.061-3.609-8.061-8.061s3.609-8.061,8.061-8.061h65.749
		c4.453,0,8.061,3.609,8.061,8.061C480.039,330.06,476.431,333.668,471.978,333.668z"/>
	<path style="fill:#F991A2;" d="M471.978,298.848h-65.749c-4.453,0-8.061-3.609-8.061-8.061s3.609-8.061,8.061-8.061h65.749
		c4.453,0,8.061,3.609,8.061,8.061S476.431,298.848,471.978,298.848z"/>
	<path style="fill:#F991A2;" d="M471.978,368.489h-65.749c-4.453,0-8.061-3.609-8.061-8.061s3.609-8.061,8.061-8.061h65.749
		c4.453,0,8.061,3.609,8.061,8.061S476.431,368.489,471.978,368.489z"/>
	<path style="fill:#F991A2;" d="M471.978,264.027h-65.749c-4.453,0-8.061-3.609-8.061-8.061c0-4.453,3.609-8.061,8.061-8.061h65.749
		c4.453,0,8.061,3.609,8.061,8.061C480.039,260.418,476.431,264.027,471.978,264.027z"/>
	<path style="fill:#F991A2;" d="M471.978,229.206h-65.749c-4.453,0-8.061-3.609-8.061-8.061c0-4.453,3.609-8.061,8.061-8.061h65.749
		c4.453,0,8.061,3.609,8.061,8.061C480.039,225.598,476.431,229.206,471.978,229.206z"/>
</g>
<path style="fill:#DDDDDD;" d="M82.718,410.509V170.41c0-5.472,1.48-10.612,4.049-15.052H30.142
	c-8.176,0-14.803,6.628-14.803,14.803v17.743c0,1.045,0.795,1.891,1.832,2.022c7.117,0.9,12.62,6.976,12.62,14.337
	c0,7.361-5.503,13.436-12.62,14.337c-1.036,0.131-1.832,0.977-1.832,2.022v24.965c0,1.045,0.795,1.891,1.832,2.022
	c7.117,0.9,12.62,6.976,12.62,14.337c0,7.361-5.503,13.437-12.62,14.337c-1.036,0.131-1.832,0.977-1.832,2.022v24.965
	c0,1.045,0.795,1.891,1.832,2.022c7.117,0.9,12.62,6.976,12.62,14.336c0,7.361-5.503,13.437-12.62,14.337
	c-1.036,0.131-1.832,0.977-1.832,2.022v24.965c0,1.045,0.795,1.891,1.832,2.022c7.117,0.9,12.62,6.976,12.62,14.337
	s-5.503,13.437-12.62,14.337c-1.036,0.131-1.832,0.977-1.832,2.022v17.743c0,8.176,6.628,14.803,14.803,14.803h57.006
	C84.341,421.63,82.718,416.25,82.718,410.509z"/>
<path style="fill:#CECCCA;" d="M94.539,135.966c0-35.09,24.357-64.473,57.081-72.217L83.333,41.734
	c-7.781-2.509-16.123,1.765-18.632,9.547l-5.444,16.887c-0.32,0.994,0.176,2.043,1.123,2.486c6.497,3.04,9.871,10.511,7.612,17.518
	c-2.259,7.006-9.361,11.1-16.411,9.772c-1.027-0.193-2.043,0.368-2.363,1.362l-7.661,23.761c-0.321,0.994,0.176,2.043,1.123,2.486
	c6.497,3.04,9.871,10.511,7.612,17.518c-2.259,7.006-9.361,11.1-16.41,9.772c-1.027-0.193-2.043,0.368-2.364,1.363l-0.718,2.227
	h66.62C95.558,149.929,94.539,143.068,94.539,135.966z"/>
<g>
</g>
<g>
</g>
<g>
</g>
<g>
</g>
<g>
</g>
<g>
</g>
<g>
</g>
<g>
</g>
<g>
</g>
<g>
</g>
<g>
</g>
<g>
</g>
<g>
</g>
<g>
</g>
<g>
</g>
</svg>
