<?xml version="1.0" encoding="utf-8"?>
<!-- Generator: Adobe Illustrator 24.0.1, SVG Export Plug-In . SVG Version: 6.00 Build 0)  -->
<svg version="1.1" id="balloon" xmlns="http://www.w3.org/2000/svg" xmlns:xlink="http://www.w3.org/1999/xlink" x="0px" y="0px"
	 viewBox="0 0 446 445" style="enable-background:new 0 0 446 445;" xml:space="preserve">
<style type="text/css">
	.st0{fill:#D6E8F2;}
	.st1{fill:#9BBDCE;}
	.st2{fill:#CBE9F4;}
	.st3{fill:#E6F5FF;}
	.st4{fill:none;stroke:#000000;stroke-width:2.5168;stroke-miterlimit:10;}
	.st5{fill:#FFFAB9;}
	.st6{fill:none;}
	.st7{fill:#E86474;}
	.st8{fill:#FFFFFF;}
	.st9{fill:none;stroke:#FFFFFF;stroke-linecap:round;stroke-miterlimit:10;stroke-dasharray:1,2;}
	.st10{fill:none;stroke:#FFFFFF;stroke-width:0.994;stroke-linecap:round;stroke-miterlimit:10;stroke-dasharray:1,2;}
	.st11{fill:#EDE6B9;}
	.st12{fill:#FF767D;}
	.st13{fill:#896B43;}
	.st14{fill:#406AA8;}
	.st15{fill:#3A6393;}
	.st16{fill:#EA717D;}
	.st17{fill:#A08133;}
	.st18{fill:#896D2F;}
	.st19{fill:#999433;}
	.st20{fill:#BFBF3A;}
	.st21{fill:#DBD749;}
	.st22{fill:#9B9635;}
	.st23{fill:#A3A034;}
	.st24{fill:#C1BB44;}
	.st25{fill:#7F792E;}
</style>
<g id="cloud">
	<path class="st0" d="M206.2,163h13.6c-1.8-4.4-2.8-9.1-2.8-14c0-27.6,31.3-50,70-50c3.2,0,6.3,0.2,9.3,0.5
		C282.2,70.2,252.2,50,217.5,50c-32.2,0-60.3,17.4-75.5,43.3C176.2,104.9,201.4,131.3,206.2,163z"/>
	<path class="st1" d="M295.3,99.5c-3.1-0.3-6.2-0.5-9.3-0.5c-38.7,0-70,22.4-70,50c0,4.9,1,9.6,2.8,14h67.5
		c-0.2-0.8-0.3-1.7-0.3-2.5c0-7.3,6.7-14,17.9-19.3c11.7-5.5,28.2-9.4,47.1-10.7C341.8,114,320.7,101.9,295.3,99.5z"/>
	<path class="st2" d="M364.5,130c-4.9,0-9.8,0.2-14.5,0.5c-18.9,1.3-35.4,5.2-47.1,10.7c-11.2,5.3-17.9,12-17.9,19.3
		c0,0.8,0.1,1.7,0.3,2.5h13.9h53h91.5c0.2-0.8,0.3-1.7,0.3-2.5C444,143.7,408.4,130,364.5,130z"/>
	<path class="st3" d="M143,93.3c-12-4.1-25.2-6.3-39-6.3C51,87,7.3,120.1,0.8,163h134h72.4C202.4,131.3,177.2,104.9,143,93.3z"/>
</g>
<g id="balloon_x5F_man">
	<g id="coin_x5F_ropes">
		<line class="st4" x1="345.1" y1="77" x2="387" y2="202"/>
		<line class="st4" x1="428.9" y1="77" x2="387" y2="202"/>
	</g>
	<path class="st5" d="M389.1,266h-4.2c-3.3,0-5.9-2.6-5.9-5.9v-54.2c0-3.3,2.6-5.9,5.9-5.9h4.2c3.3,0,5.9,2.6,5.9,5.9v54.2
		C395,263.4,392.4,266,389.1,266z"/>
	<path class="st5" d="M402.7,432.6l-15.9-2c-1.3-0.2-2.2-1.3-2-2.6l10.3-80c0.2-1.3,1.3-2.2,2.6-2l15.9,2c1.3,0.2,2.2,1.3,2,2.6
		l-10.3,80C405.1,431.8,403.9,432.7,402.7,432.6z"/>
	<path class="st6" d="M343.4,264.5c-0.1,0.2-0.1,0.3-0.2,0.5l1.3-0.3C344.1,264.6,343.7,264.5,343.4,264.5z"/>
	<path class="st5" d="M363.1,244.3c-3.8-4.4-2.2-7.5-4.7-10.3c-0.4-0.5-0.9-0.8-1.5-1.1c-7.9,17.6-9.1,19.7-10.9,24.1
		c-0.4,0.9-1.4,3.6-2.6,7.5c0.4,0.1,0.8,0.1,1.1,0.2l18.9-4.8c3.3-2.5,6.2-5.9,8.1-10.5c0.2-0.4,0.4-0.9,0.5-1.4
		c-0.3,0.2-0.7,0.3-1,0.4C367.5,249.4,363.8,245.1,363.1,244.3z"/>
	<g>
		<g>
			<g>
				<path class="st7" d="M301,294.7c-0.2,0-0.4,0-0.5-0.1l-7.7-4.6c-0.2-0.1-0.4-0.4-0.5-0.6c-0.1-0.3,0-0.5,0.1-0.8L301,274
					c0.2-0.3,0.5-0.5,0.9-0.5c0.2,0,0.4,0,0.5,0.1l7.7,4.6c0.2,0.1,0.4,0.4,0.5,0.6c0.1,0.3,0,0.5-0.1,0.8l-8.6,14.6
					C301.7,294.5,301.4,294.7,301,294.7z"/>
				<path class="st8" d="M301.9,273.9c0.1,0,0.2,0,0.3,0.1l7.7,4.6c0.1,0.1,0.2,0.2,0.3,0.4s0,0.3-0.1,0.5l-8.6,14.6
					c-0.1,0.2-0.3,0.3-0.5,0.3c-0.1,0-0.2,0-0.3-0.1l-7.7-4.6c-0.1-0.1-0.2-0.2-0.3-0.4c0-0.2,0-0.3,0.1-0.5l8.6-14.6
					C301.4,274,301.6,273.9,301.9,273.9 M301.9,273.2c-0.5,0-0.9,0.2-1.2,0.7l-8.6,14.6c-0.4,0.7-0.2,1.5,0.5,1.9l7.7,4.6
					c0.2,0.1,0.5,0.2,0.7,0.2c0.5,0,0.9-0.2,1.2-0.7l8.6-14.6c0.4-0.7,0.2-1.5-0.5-1.9l-7.7-4.6
					C302.3,273.2,302.1,273.2,301.9,273.2L301.9,273.2z"/>
			</g>
			<line class="st9" x1="299.3" y1="276.2" x2="309.4" y2="282.2"/>
		</g>
		<g>
			<g>
				<path class="st7" d="M291.9,292.3c-0.6,0-1-0.4-1-1v-16.9c0-0.6,0.4-1,1-1h9c0.6,0,1,0.4,1,1v16.9c0,0.6-0.4,1-1,1H291.9z"/>
				<path class="st8" d="M300.9,273.8c0.3,0,0.6,0.3,0.6,0.6v16.9c0,0.3-0.3,0.6-0.6,0.6h-9c-0.3,0-0.6-0.3-0.6-0.6v-16.9
					c0-0.3,0.3-0.6,0.6-0.6H300.9 M300.9,273h-9c-0.8,0-1.4,0.6-1.4,1.4v16.9c0,0.8,0.6,1.4,1.4,1.4h9c0.8,0,1.4-0.6,1.4-1.4v-16.9
					C302.2,273.6,301.6,273,300.9,273L300.9,273z"/>
			</g>
			<line class="st10" x1="290.6" y1="278.1" x2="302.2" y2="278.1"/>
		</g>
	</g>
	<path class="st11" d="M329.9,300.8l-12.7-6.1l8.1-16.9c0,0.1-0.1,0.1-0.1,0.2L315.2,299l-7.8-8.5l-2.2-2.4c-0.4-0.4-0.8-0.7-1.3-1
		c-1.8-0.9-4-0.7-5.5,0.7l-4.7,4.3c-1.1,1-1.6,2.4-1.5,3.7c0,0.2,0,0.3,0,0.5c0.1,1,0.5,1.9,1.2,2.6l16.4,17.9l1.9,2
		c0.3,0.2,0.6,0.4,0.9,0.5l2.8,1.3l1.1,0.5c2.6,1.3,5.8,0.2,7-2.5l7.2-15L329.9,300.8z"/>
	<path class="st5" d="M311.5,318.6c0.1,0.1,0.1,0.1,0.2,0.2l-1.9-2L311.5,318.6z"/>
	<path class="st12" d="M378,256.4c7.5-1.9,15.1,2.7,17,10.2l18,71.9l0.2,0l-18-71.6c-1.9-7.8-9.8-12.5-17.6-10.5l-14.2,3.6
		c-0.1,0.1-0.3,0.2-0.4,0.3L378,256.4z"/>
	<path class="st12" d="M345,264.7c-0.2,0-0.3,0-0.5-0.1l-1.3,0.3c0,0.1,0,0.1-0.1,0.2L345,264.7z"/>
	<path class="st12" d="M345,264.7l18.1-4.5c0.1-0.1,0.3-0.2,0.4-0.3l-18.9,4.8C344.6,264.7,344.8,264.7,345,264.7z"/>
	<path class="st13" d="M349.1,437.6c-1,4.1-5.1,6.6-9.2,5.6l-5.3-1.3c-4.1-1-6.6-5.1-5.6-9.2l1.3-5.4l-0.4-0.1l-2.5,10.3
		c-0.4,1.5,0.6,3.1,2.1,3.5l15.4,3.7c1.5,0.4,3.1-0.6,3.5-2.1l2.5-10.3l-0.5-0.1L349.1,437.6z"/>
	<path class="st13" d="M329,432.7c-1,4.1,1.5,8.2,5.6,9.2l5.3,1.3c4.1,1,8.2-1.5,9.2-5.6l1.3-5.4l-20.1-4.9L329,432.7z M334.6,432.5
		l4.9,3l5.7-0.3l-5.7,0.3l4.9,3l-4.9-3l-5.7,0.3l5.7-0.3L334.6,432.5z"/>
	
		<rect x="413.1" y="338.4" transform="matrix(0.9699 -0.2435 0.2435 0.9699 -70.118 110.8358)" class="st14" width="0.2" height="1.2"/>
	<path class="st15" d="M353.5,359.2c0-0.1,0-0.2,0-0.3c-0.2-1.6-0.4-2.9-0.5-3.9c0-0.1,0-0.2,0-0.3c-0.1-0.4-0.1-0.8-0.2-1.2
		l-8.6,2.2l-0.4,0.1l0.3,1.1l1,4l-14.9,61.5c0.6-0.5,1.2-1,1.8-1.6c3.5-3.2,6.6-6.6,9.1-9.9c8.6-11.4,11.8-23.9,12.7-34.4
		c0.1-1.3,0.2-2.6,0.3-3.8C354.2,367.3,353.9,362.6,353.5,359.2z"/>
	<path class="st14" d="M415.6,347l-2.2-8.7l-0.3,0.1l0.3,1.1l-0.2,0l-0.3-1.1l-60.2,15.1c0.1,0.4,0.1,0.8,0.2,1.2c0,0.1,0,0.2,0,0.3
		c0.1,0.9,0.3,2.2,0.5,3.9c0,0.1,0,0.2,0,0.3c0.4,3.4,0.7,8.2,0.5,13.6c-0.1,1.2-0.1,2.5-0.3,3.8c-1,10.5-4.2,23-12.7,34.4
		c-2.5,3.3-5.6,6.7-9.1,9.9c-0.6,0.5-1.2,1-1.8,1.6L329,427l0.9,0.2l0.4,0.1l20.1,4.9l0.5,0.1l0,0l14.2-58.6l26.2-6.6L384,424
		l22.2,2.8l9.4-73C416.1,351.7,416.2,349.3,415.6,347z"/>
	<path class="st16" d="M352.8,353.6c-3.1-19-10.6-18.4-13.8-39.6c-1.5-9.5-1.3-18.7-0.4-26.8c0,0,0,0,0-0.1c0.2-1.6,0.4-3.1,0.6-4.6
		c0.1-0.7,0.2-1.5,0.4-2.2c1-6,2.4-11.2,3.6-15.2c0-0.1,0-0.1,0.1-0.2l-6.9,1.7c-5.2,1.3-9,5.3-10.4,10l-0.5,1.1l-8.1,16.9l12.7,6.1
		l0.7,2.9L344,357l0,0l-0.3-1.1l0.4-0.1L352.8,353.6z"/>
	<path class="st12" d="M395,266.8V246h-16v10.2c-0.3,0.1-0.7,0.1-1,0.2l-14.9,3.7l-18.1,4.5l-1.8,0.5c-1.2,4-2.6,9.1-3.6,15.2
		c-0.1,0.7-0.2,1.5-0.4,2.2c-0.2,1.5-0.4,3.1-0.6,4.6c0,0,0,0,0,0.1c-0.9,8.1-1,17.2,0.4,26.8c3.2,21.1,10.7,20.6,13.8,39.6
		l60.2-15.1L395,266.8z"/>
	<path class="st11" d="M330,232c-1.2-0.6-4.2-2.3-6.3-3.4c-1.2,2.4-3,6.9-2.7,12.3V251h3c1,1.7,2.2,3.3,3.6,4.8
		c3.9-1.2,7.4-2.5,10.4-3.9c0.6,2.2-2.3,5-6.9,7c3.4,2.6,7.1,4.4,10.5,5.2c0.6,0.1,1.2,0.3,1.8,0.4c1.2-3.9,2.3-6.5,2.6-7.5
		c1.8-4.3,3-6.5,10.9-24.1C351.8,231,340.7,237.3,330,232z"/>
	<path class="st17" d="M351.6,211.8c1.1,0,2.3,0.1,3.4,0.2C353.9,211.9,352.8,211.8,351.6,211.8z"/>
	<path class="st17" d="M368.4,219.3c-1.3-1.2-2.7-2.3-4.1-3.3c-1.2,2.8-2.6,6.1-4.4,10c-1.1,2.5-2.2,4.8-3.1,6.9
		c0.6,0.2,1.1,0.6,1.5,1.1c2.4,2.8,0.9,5.9,4.7,10.3c0.7,0.8,4.4,5.1,7.9,4.2c0.4-0.1,0.7-0.2,1-0.4c3.1-1.8,4.7-7.8,4.7-12.2
		C376.6,229.6,373.1,223.7,368.4,219.3z"/>
	<path class="st18" d="M358.8,213c-1.2-0.5-2.5-0.8-3.8-1c-1.1-0.1-2.2-0.2-3.4-0.2c-8,0.2-16.2,4.8-22,8.9c-4.8,3.4-8,6.6-8,6.6
		c0,0,0.9,0.5,2.1,1.2c2.1,1.2,5,2.8,6.3,3.4c10.6,5.3,21.8-1,26.9,0.9c0.9-2.1,2-4.4,3.1-6.9c1.7-3.9,3.2-7.1,4.4-10
		C362.5,214.8,360.7,213.8,358.8,213z"/>
	<path class="st19" d="M443,50.5C443,22.6,420.4,0,392.5,0c-1.6,0-3.3,0.1-4.9,0.2c0.1,0.3,0.3,0.5,0.4,0.8
		c27.7,0.3,50,22.8,50,50.5c0,23.6-16.2,43.4-38,48.9C424.3,96.8,443,75.9,443,50.5z"/>
	<path class="st20" d="M380.7,99.6c-0.3,0.6-0.7,1.2-1.1,1.8c2.6,0.4,5.2,0.6,7.8,0.6c4.3,0,8.5-0.5,12.5-1.6
		c-2.4,0.4-4.9,0.6-7.5,0.6C388.4,101,384.5,100.5,380.7,99.6z"/>
	<path class="st20" d="M438,51.5c0-27.7-22.3-50.2-50-50.5c0.9,1.9,1.7,4,2.4,6.1C413.6,8.6,432,27.9,432,51.5
		c0,24.6-19.9,44.5-44.5,44.5c-1.6,0-3.2-0.1-4.8-0.3c-0.6,1.3-1.3,2.6-2,3.9c3.8,0.9,7.7,1.4,11.8,1.4c2.5,0,5-0.2,7.5-0.6
		C421.8,94.9,438,75.1,438,51.5z"/>
	<path class="st21" d="M394.8,21.4c-0.1,2.3-0.2,5.5-0.2,9.6v30.1c0,1.4,0.1,2.4,0.2,3.2c0.2,0.7,0.4,1.3,0.8,1.7
		c0.4,0.4,1,0.8,1.7,1c0.7,0.3,1.7,0.4,2.8,0.6c1.1,0.1,2.6,0.2,4.5,0.3v3.3h-14.4c-1.5,8.2-3.8,16.8-7.5,24.5
		c1.6,0.2,3.1,0.3,4.8,0.3c24.6,0,44.5-19.9,44.5-44.5c0-23.6-18.4-42.9-41.6-44.4c1.4,4.6,2.1,9.5,2.5,14.3H394.8z"/>
	<path class="st22" d="M404.6,68c-1.9,0-3.3-0.1-4.5-0.3c-1.1-0.1-2.1-0.3-2.8-0.6c-0.7-0.3-1.3-0.6-1.7-1c-0.4-0.4-0.7-1-0.8-1.7
		c-0.2-0.7-0.2-1.8-0.2-3.2V31c0-4.1,0.1-7.3,0.2-9.6h-1.8c0.7,8.1,0.3,16,0.1,21.6c-0.3,6.6-0.8,17.1-2.8,28.2h14.4V68z"/>
	<path class="st23" d="M387.5,7c1,0,1.9,0,2.9,0.1C389.7,5,388.9,2.9,388,1c-0.2,0-0.3,0-0.5,0c-2.5,0-5,0.2-7.5,0.6
		c-24.4,3.6-43,24.6-43,49.9c0,25.2,18.5,46.1,42.7,49.9c0.4-0.6,0.7-1.2,1.1-1.8c0.7-1.3,1.4-2.5,2-3.9
		C360.4,93.4,343,74.5,343,51.5C343,26.9,362.9,7,387.5,7z"/>
	<path class="st24" d="M343,51.5c0,23,17.4,41.9,39.7,44.2c3.7-7.7,6-16.3,7.5-24.5h-16.7V68c2.7-0.1,4.6-0.3,5.7-0.5
		c1.1-0.2,2-0.5,2.6-0.9c0.6-0.4,1-1,1.3-1.7c0.3-0.7,0.4-2,0.4-3.6V35.1c0-1-0.2-1.7-0.6-2.1c-0.4-0.4-0.9-0.6-1.5-0.6
		c-0.6,0-1.4,0.3-2.5,0.8s-2.9,1.7-5.4,3.4l-2.2-3.8l18.8-11.3h2.8c-0.4-4.9-1.2-9.8-2.5-14.3c-1-0.1-1.9-0.1-2.9-0.1
		C362.9,7,343,26.9,343,51.5z"/>
	<path class="st25" d="M392.9,21.4h-2.8l-18.8,11.3l2.2,3.8c2.5-1.7,4.3-2.8,5.4-3.4s1.9-0.8,2.5-0.8c0.6,0,1.2,0.2,1.5,0.6
		c0.4,0.4,0.6,1.1,0.6,2.1v26.1c0,1.7-0.1,2.9-0.4,3.6c-0.3,0.7-0.7,1.3-1.3,1.7c-0.6,0.4-1.5,0.7-2.6,0.9c-1.1,0.2-3,0.4-5.7,0.5
		v3.3h16.7c2-11.2,2.5-21.6,2.8-28.2C393.2,37.5,393.6,29.6,392.9,21.4z"/>
</g>
</svg>
