<?xml version="1.0" encoding="iso-8859-1"?>
<!-- Generator: Adobe Illustrator 19.0.0, SVG Export Plug-In . SVG Version: 6.00 Build 0)  -->
<svg version="1.1" id="Capa_1" xmlns="http://www.w3.org/2000/svg" xmlns:xlink="http://www.w3.org/1999/xlink" x="0px" y="0px"
	 viewBox="0 0 512 512" style="enable-background:new 0 0 512 512;" xml:space="preserve">
<circle style="fill:#647892;" cx="256" cy="256" r="256"/>
<path style="fill:#F4C48B;" d="M248.903,126.408h-0.001c-11.124,0-20.586,9.062-20.588,20.585v-27.609
	c0-10.947-8.511-20.292-19.452-20.657c-11.439-0.382-20.831,8.777-20.831,20.13V91.305c0-11.447-9.368-21.169-20.813-20.955
	c-10.794,0.203-20.613,9.223-20.613,20.419v27.827c-0.408-10.691-8.885-19.63-19.635-19.876c-11.328-0.26-20.742,8.957-20.621,20.35
	v168.197c0,0.521-0.659,0.747-0.979,0.337l-45.746-58.676c-2.706-3.448-6.345-6.122-10.55-7.36
	c-6.839-2.014-14.487-0.527-19.851,4.753c-2.516,2.477-4.19,5.295-5.073,8.285c-1.943,6.578-0.059,13.994,5.107,20.468
	c18.088,25.196,29.847,33.623,37.534,58.008c1.561,4.953,2.839,11.537,7.57,20.709c5.829,11.309,12.037,17.676,19.736,24.79
	c9.544,8.839,15.011,18.938,15.148,32.051l0.001,0.05v0.001c0.058,90.844,0.046,72.66,0.048,75.119
	c39.38,27.587,86.878,44.366,138.202,46.042c0-9.996,0-83.454,0-92.786c0.018-0.004,0.036-0.007,0.054-0.01
	c-0.012-4.461,0.038,14.628-0.105-39.818c-0.037-3.417,1.005-6.743,2.899-9.588c5.86-8.807,10.419-18.338,13.627-28.296v-0.002
	c3.832-11.889,5.643-24.345,5.519-36.265l0,0V146.997v-0.001C269.491,135.626,260.274,126.408,248.903,126.408z"/>
<g>
	<path style="fill:#EDB87E;" d="M129.706,478.702c-0.001-2.089,0.009,16.002-0.052-90.425v-0.001l-0.001-0.054
		c-0.17-16.29-7.648-26.955-18.677-36.839c-19.897-17.848-24.118-36.857-27.441-47.404c-8.403-26.66-21.655-36.383-40.773-63.014
		c-4.823-6.045-7.004-12.844-6.183-19.174c-2.686,0.916-5.206,2.413-7.356,4.529c-2.516,2.477-4.19,5.295-5.073,8.285
		c-1.943,6.578-0.059,13.994,5.107,20.468c18.088,25.196,29.847,33.623,37.534,58.008c1.561,4.953,2.839,11.537,7.57,20.709
		c5.829,11.309,12.037,17.676,19.736,24.79c9.544,8.839,15.011,18.938,15.148,32.051l0.001,0.05v0.001
		c0.058,90.844,0.046,72.66,0.048,75.119C115.877,470.414,122.691,474.715,129.706,478.702z"/>
	<path style="fill:#EDB87E;" d="M470.978,395.031V255.745c0-11.371-9.217-20.589-20.588-20.589c-11.37,0-20.587,9.217-20.588,20.587
		v-27.611c0-10.947-8.511-20.292-19.452-20.657c-11.438-0.382-20.831,8.777-20.831,20.13v-27.577
		c0-10.438-7.625-19.578-17.992-20.791c-12.265-1.436-23.4,8.197-23.4,20.281v28.403c-0.116-10.946-8.725-20.202-19.669-20.453
		c-11.442-0.262-20.741,8.997-20.62,20.35v168.215c0,0.515-0.651,0.739-0.968,0.333l-45.757-58.691
		c-2.706-3.448-6.345-6.122-10.55-7.36c-6.839-2.014-14.487-0.527-19.851,4.753c-8.051,7.927-7.479,19.336,0.034,28.752
		l22.949,29.69c7.493,9.695,12.707,20.887,15.867,32.726c4.035,15.118,12.329,28.781,23.98,39.23
		c1.337,1.199,2.712,2.466,4.109,3.797c15.908,15.153,12.66,33.818,13.175,36.829C377.749,491.491,434.888,450.722,470.978,395.031z
		"/>
</g>
<path style="fill:#EFEFEF;" d="M28.731,227.969l-0.602-0.477c-1.91,2.181-3.23,4.584-3.977,7.114
	c-1.944,6.579-0.059,13.994,5.106,20.468l10.509,13.596l0,0c0,0,14.325-6.38,8.372-18.292C44.407,242.907,35,233.65,28.731,227.969z
	"/>
<path style="fill:#E4A970;" d="M308.529,380.103c-0.233-0.021-0.463-0.027-0.692-0.028v15.986
	c6.008,0.723,45.81,6.918,68.234,45.929c2.186,3.805,7.058,5.139,10.883,2.938c3.817-2.194,5.132-7.066,2.938-10.883
	C361.863,385.284,310.693,380.292,308.529,380.103z"/>
<path style="fill:#EFEFEF;" d="M230.217,336.717l-0.593-0.471c-6.876,7.852-6.031,18.613,1.121,27.576l10.509,13.596
	c0.001,0,14.324-6.38,8.372-18.292C245.894,351.655,236.487,342.398,230.217,336.717z"/>
<path id="SVGCleanerId_0" style="fill:#68C4FC;" d="M331.67,61.292l80.1-26.282V2.388c0-1.227-1.199-2.095-2.364-1.712
	l-76.255,25.021c-0.884,0.29-1.481,1.115-1.481,2.045V61.292z"/>
<g>
	<path id="SVGCleanerId_0_1_" style="fill:#68C4FC;" d="M331.67,61.292l80.1-26.282V2.388c0-1.227-1.199-2.095-2.364-1.712
		l-76.255,25.021c-0.884,0.29-1.481,1.115-1.481,2.045V61.292z"/>
</g>
<g>
	<path style="fill:#48AEF9;" d="M363.729,15.766c0-0.036,0.007-0.07,0.009-0.106l-30.587,10.036
		c-0.884,0.29-1.481,1.115-1.481,2.045v33.551l32.06-10.519V15.766H363.729z"/>
	<path style="fill:#48AEF9;" d="M339.641,131.048c-4.403,0-7.971-3.568-7.971-7.971V54.568c0-4.403,3.568-7.971,7.971-7.971
		s7.971,3.568,7.971,7.971v68.509C347.612,127.479,344.044,131.048,339.641,131.048z"/>
</g>
<path style="fill:#68C4FC;" d="M403.799,103.714c-4.403,0-7.971-3.568-7.971-7.971V27.234c0-4.403,3.568-7.971,7.971-7.971
	s7.971,3.568,7.971,7.971v68.509C411.77,100.146,408.202,103.714,403.799,103.714z"/>
<circle style="fill:#48AEF9;" cx="330.58" cy="123.08" r="17.03"/>
<circle style="fill:#68C4FC;" cx="394.74" cy="95.74" r="17.03"/>
<path style="fill:#2D9EEA;" d="M330.58,123.077c-3.15-5.456-2.924-11.924,0.008-17.019c-2.898-0.004-5.834,0.716-8.524,2.269
	c-8.147,4.703-10.938,15.12-6.234,23.267c4.703,8.146,15.12,10.938,23.266,6.234c2.69-1.553,4.781-3.736,6.227-6.247
	C339.445,131.571,333.73,128.533,330.58,123.077z"/>
<path style="fill:#48AEF9;" d="M394.738,95.743c-3.15-5.457-2.924-11.924,0.008-17.019c-2.897-0.004-5.834,0.716-8.524,2.269
	c-8.146,4.703-10.938,15.12-6.234,23.267c4.703,8.146,15.12,10.938,23.266,6.234c2.69-1.553,4.782-3.736,6.227-6.248
	C403.603,104.237,397.888,101.2,394.738,95.743z"/>
<path style="fill:#EFEFEF;" d="M457.197,145.836h-5.727v-5.727c0-4.403-3.568-7.971-7.971-7.971c-4.403,0-7.971,3.568-7.971,7.971
	v5.727h-5.726c-4.403,0-7.971,3.568-7.971,7.971s3.568,7.971,7.971,7.971h5.726v5.726c0,4.403,3.568,7.971,7.971,7.971
	c4.403,0,7.971-3.568,7.971-7.971v-5.726h5.727c4.403,0,7.971-3.568,7.971-7.971S461.6,145.836,457.197,145.836z"/>
<path style="fill:#FAC149;" d="M237.705,16.513l13.874,9.265c0.763,0.509,1.728,0.611,2.58,0.271l15.498-6.177
	c2.146-0.855,4.342,1.121,3.715,3.345l-4.523,16.058c-0.249,0.883-0.047,1.832,0.539,2.538l10.664,12.83
	c1.477,1.777,0.275,4.476-2.033,4.567l-16.67,0.66c-0.917,0.036-1.757,0.521-2.247,1.297l-8.907,14.107
	c-1.233,1.954-4.172,1.645-4.972-0.523l-5.779-15.65c-0.318-0.861-1.039-1.51-1.928-1.736l-16.169-4.112
	c-2.239-0.569-2.854-3.459-1.039-4.89l13.098-10.333c0.72-0.568,1.115-1.455,1.055-2.37l-1.086-16.648
	C233.225,16.708,235.784,15.231,237.705,16.513z"/>
<path style="fill:#F8A748;" d="M256.723,63.085l-5.779-15.65c-0.318-0.861-1.039-1.51-1.928-1.736l-16.169-4.112
	c-0.926-0.235-1.568-0.869-1.882-1.631l-10.658,8.407c-1.814,1.431-1.2,4.321,1.039,4.89l16.169,4.112
	c0.889,0.226,1.61,0.875,1.928,1.736l5.779,15.65c0.801,2.167,3.739,2.476,4.972,0.523l7.116-11.27
	C257.071,63.745,256.859,63.452,256.723,63.085z"/>
<path style="fill:#E4A970;" d="M290.733,462.807c5.133,5.077,19.707,15.111,19.999,36.431l0.094,6.856
	c17.723-3.867,34.75-9.587,50.891-16.915C334.905,488.203,310.325,478.493,290.733,462.807z"/>
<g>
	<path style="fill:#EDB87E;" d="M126.971,114.831c0,0,0.081-10.165,5.355-15.217c-1.699-0.53-3.49-0.85-5.355-0.893
		c-11.328-0.26-20.742,8.957-20.621,20.35v167.26h20.621V114.831z"/>
	<path style="fill:#EDB87E;" d="M156.761,248.128c5.694,0,10.31-4.616,10.31-10.31V83.628c0,0,0.063-7.71,3.564-13.038
		c-1.113-0.175-2.254-0.261-3.417-0.239c-10.794,0.203-20.613,9.223-20.613,20.419v27.827c-0.023-0.609-0.08-1.209-0.154-1.805
		v121.027C146.451,243.512,151.067,248.128,156.761,248.128z"/>
	<path style="fill:#EDB87E;" d="M198.378,248.128c5.694,0,10.31-4.616,10.31-10.31V113.654c0,0,0.074-9.013,4.487-14.283
		c-1.384-0.364-2.823-0.594-4.313-0.644c-11.198-0.374-20.411,8.403-20.794,19.424v119.667
		C188.068,243.512,192.684,248.128,198.378,248.128z"/>
	<path style="fill:#EDB87E;" d="M248.903,126.408h-0.001c-10.923,0-20.194,8.697-20.563,19.905v91.505
		c0,5.694,4.616,10.31,10.311,10.31l0,0c5.694,0,10.31-4.616,10.31-10.31v-96.504c0,0,0.076-9.109,4.56-14.367
		C252.034,126.605,250.493,126.408,248.903,126.408z"/>
	<path style="fill:#EDB87E;" d="M174.585,333.241c2.181,3.797,7.051,5.143,10.883,2.938c3.817-2.194,5.132-7.066,2.938-10.883
		c-28.03-48.762-79.2-53.754-81.364-53.943c-0.233-0.021-0.463-0.026-0.692-0.027v15.985
		C112.357,288.035,152.159,294.229,174.585,333.241z"/>
</g>
<g>
	<path style="fill:#E4A970;" d="M328.474,223.567c0,0,0.081-10.165,5.356-15.217c-1.699-0.53-3.49-0.85-5.356-0.893
		c-11.328-0.259-20.742,8.957-20.621,20.35v167.26h20.621V223.567z"/>
	<path style="fill:#E4A970;" d="M358.264,356.864c5.694,0,10.311-4.616,10.311-10.31v-154.19c0,0,0.063-7.699,3.556-13.026
		c-0.203-0.03-0.399-0.077-0.604-0.101c-12.265-1.436-23.4,8.197-23.4,20.281v28.403c-0.008-0.799-0.075-1.586-0.172-2.365v120.996
		C347.954,352.248,352.57,356.864,358.264,356.864z"/>
	<path style="fill:#E4A970;" d="M399.881,356.864c5.694,0,10.311-4.616,10.311-10.31V222.39c0,0,0.073-8.998,4.475-14.27
		c-1.386-0.365-2.826-0.595-4.318-0.645c-11.028-0.368-20.128,8.14-20.769,18.925c0,0.077-0.01,0.152-0.009,0.23v119.924
		C389.571,352.248,394.188,356.864,399.881,356.864z"/>
	<path style="fill:#E4A970;" d="M440.153,356.864c5.694,0,10.311-4.616,10.311-10.31V250.05c0,0,0.075-9.094,4.548-14.353
		c-1.488-0.342-3.03-0.54-4.622-0.54c-11.091,0-20.109,8.777-20.547,19.761v91.636C429.843,352.248,434.459,356.864,440.153,356.864
		L440.153,356.864z"/>
</g>
<g>
</g>
<g>
</g>
<g>
</g>
<g>
</g>
<g>
</g>
<g>
</g>
<g>
</g>
<g>
</g>
<g>
</g>
<g>
</g>
<g>
</g>
<g>
</g>
<g>
</g>
<g>
</g>
<g>
</g>
</svg>
