<?xml version="1.0" encoding="utf-8"?>
<!-- Generator: Adobe Illustrator 24.0.1, SVG Export Plug-In . SVG Version: 6.00 Build 0)  -->
<svg version="1.1" id="Capa_1" xmlns="http://www.w3.org/2000/svg" xmlns:xlink="http://www.w3.org/1999/xlink" x="0px" y="0px"
	 viewBox="0 0 1293.3 1069" style="enable-background:new 0 0 1293.3 1069;" xml:space="preserve">
<style type="text/css">
	.st0{fill:#EAF4F4;}
	.st1{fill:#FBDF63;}
	.st2{fill:#ED2061;}
	.st3{fill:#F7B521;}
	.st4{fill:#56788B;}
	.st5{fill:#14BB87;}
	.st6{fill:#304B59;}
	.st7{fill:#FF6B81;}
	.st8{fill:#00C2F3;}
	.st9{fill:#1E90FF;}
</style>
<g>
	<path class="st0" d="M624.3,256c0,20.4-4.5,39.8-12.6,57.2l47.7,57l60.6-6.3c15.5-33.4,23.7-70,23.7-107.9l-60.2-20L624.3,256z"/>
	<g>
		<path class="st0" d="M487.7,119.4l20-59.4l-20-60c-68.4,0-132.7,26.6-181,75s-75,112.6-75,181s26.6,132.7,75,181
			c22.6,22.6,48.8,40.5,77.2,53.1l54.2-44.4l-5.6-64.8c-47.9-21.2-81.4-69.2-81.4-124.9C351.1,180.7,412.4,119.4,487.7,119.4
			L487.7,119.4z"/>
		<g>
			<path class="st1" d="M591.1,256c0,57-46.4,103.4-103.4,103.4S384.3,313,384.3,256s46.4-103.4,103.4-103.4v30
				c-40.5,0-73.4,32.9-73.4,73.4s32.9,73.4,73.4,73.4s73.4-32.9,73.4-73.4H591.1z"/>
			<path class="st1" d="M532.7,256c0,24.8-20.2,45-45,45s-45-20.2-45-45s20.2-45,45-45v30c-8.3,0-15,6.7-15,15c0,8.3,6.7,15,15,15
				c8.3,0,15-6.7,15-15H532.7z"/>
		</g>
		<path class="st2" d="M743.7,256H624.3c0-37.6-15.3-71.8-40-96.5c-5.8-5.8-12.1-11.1-18.9-15.8c-22.1-15.3-48.8-24.3-77.7-24.3V0
			c68.4,0,132.7,26.6,181,75S743.7,187.6,743.7,256z"/>
		<g>
			<path class="st3" d="M487.7,301v-30c8.3,0,15-6.7,15-15h30C532.7,280.8,512.5,301,487.7,301z"/>
			<path class="st3" d="M487.7,359.4v-30c40.5,0,73.4-32.9,73.4-73.4h30C591.1,313,544.7,359.4,487.7,359.4z"/>
		</g>
	</g>
	<path class="st4" d="M487.7,392.6V512c-36.4,0-71.5-7.5-103.8-21.8l48.6-109.2C449.4,388.4,468.1,392.6,487.7,392.6z"/>
	<path class="st5" d="M720,363.9c-12.5,26.9-29.7,51.6-51.3,73.1c-48.4,48.4-112.6,75-181,75V392.6c54.8,0,102.2-32.5,124-79.2
		L720,363.9z"/>
	<path class="st3" d="M743.7,256H624.3c0-37.6-15.3-71.8-40-96.5L668.7,75C717.1,123.3,743.7,187.6,743.7,256z"/>
</g>
<g>
	<path class="st1" d="M1147.6,485.5v321.5h-30V515.5H823.3v-30L1147.6,485.5z"/>
	<path class="st3" d="M1147.6,485.5v321.5h-30V515.5h-80.3v-30L1147.6,485.5z"/>
	<g>
		<path class="st4" d="M1293.3,782.1v30h-30v27h-30v-27h-152.5v27h-30v-27H898.3v27h-30v-27h-60v-60h-27v-30h27V569.6h-27v-30h27
			V387.1h-27v-30h27v-30h30v455H1293.3z"/>
		<path class="st6" d="M1037.3,782.1h256v30h-30v27h-30v-27h-152.5v27h-30v-27h-13.5V782.1z"/>
	</g>
	<path class="st7" d="M1293.3,327.1v15c0,132.6-34.6,234.3-102.7,302.2c-46.3,46.2-101.9,70.6-153.3,83.5
		C983.9,741.1,935,742,905.7,742l-27.4,0v-30l20.5,0c24.8,0.1,71.1,0.2,121.5-11c5.8-1.3,11.5-2.7,17-4.2
		c53.1-14.4,97.5-39.2,132.1-73.7c62.3-62.1,93.9-156.6,93.9-281v-15H1293.3z"/>
	<path class="st2" d="M1293.3,327.1v15c0,132.6-34.6,234.3-102.7,302.2c-46.3,46.2-101.9,70.6-153.3,83.5v-31
		c53.1-14.4,97.5-39.2,132.1-73.7c62.3-62.1,93.9-156.6,93.9-281v-15H1293.3z"/>
	<path class="st8" d="M1178.4,405.2l-2.6,14.8c-16.1,91.6-63.5,155.1-138.5,187.1c-21,8.9-44,15.4-69.2,19.3l-14.8,2.3l-4.6-29.6
		l14.8-2.3c27.6-4.3,52.2-11.8,73.8-22.6c58.9-29.3,95.4-82.7,108.9-159.3l2.6-14.8L1178.4,405.2z"/>
	<path class="st9" d="M1178.4,405.2l-2.6,14.8c-16.1,91.6-63.5,155.1-138.5,187.1v-33c58.9-29.3,95.4-82.7,108.9-159.3l2.6-14.8
		L1178.4,405.2z"/>
</g>
<g>
	<path class="st4" d="M512,1012v30h-30v27h-30v-27H299.5v27h-30v-27H117v27H87v-27H27v-60H0v-30h27V799.5H0v-30h27V617H0v-30h27v-30
		h30v455H512z"/>
	<g>
		<g>
			<path class="st1" d="M140,747.6l113.5-132.7l22.8,19.5L162.8,767.1L140,747.6z"/>
			<path class="st3" d="M307.2,627l10.8-28l126.4,48.6l-10.8,28L307.2,627z"/>
		</g>
		<g>
			<circle class="st7" cx="131.9" cy="780.2" r="45"/>
			<circle class="st7" cx="284.5" cy="602" r="45"/>
			<circle class="st2" cx="467" cy="672.2" r="45"/>
		</g>
		<path class="st1" d="M443.4,844.5l-158.9,53.8l-43.1,14.6l-9.6-28.4l52.7-17.8l149.3-50.5L443.4,844.5z"/>
		<path class="st3" d="M443.4,844.5l-158.9,53.8v-31.7l149.3-50.5L443.4,844.5z"/>
		<g>
			<circle class="st2" cx="467" cy="820.7" r="45"/>
			<circle class="st7" cx="208.2" cy="908.2" r="45"/>
		</g>
	</g>
	<path class="st2" d="M284.5,647v-90c24.8,0,45,20.2,45,45S309.3,647,284.5,647z"/>
	<path class="st6" d="M512,1012v30h-30v27h-30v-27H299.5v27h-15v-57H512z"/>
</g>
</svg>
