<?xml version="1.0" encoding="utf-8"?>
<!-- Generator: Adobe Illustrator 24.0.1, SVG Export Plug-In . SVG Version: 6.00 Build 0)  -->
<svg version="1.1" id="Capa_1" xmlns="http://www.w3.org/2000/svg" xmlns:xlink="http://www.w3.org/1999/xlink" x="0px" y="0px"
	 viewBox="0 0 472.4 472.4" style="enable-background:new 0 0 472.4 472.4;" xml:space="preserve">
<style type="text/css">
	.st0{fill:#FDC9A6;}
	.st1{fill:#F6BB92;}
	.st2{fill:#E77474;}
	.st3{fill:#5B3726;}
	.st4{fill:#4799CF;}
	.st5{fill:#1F6C8C;}
	.st6{fill:#255C89;}
	.st7{fill:#2583D0;}
	.st8{fill:#4097DD;}
	.st9{fill:#EA8585;}
	.st10{fill:#6CBAE5;}
</style>
<path class="st0" d="M180.2,120.4l-32-32l53.3-60c6-6.7,5.7-17-0.7-23.4L200.8,5c-6.7-6.6-17.5-6.6-24.1,0c-0.2,0.2-0.3,0.3-0.5,0.5
	l-60.4,65.9c-8.7,9.5-8.4,24.1,0.7,33.2l41.3,39.8L180.2,120.4z"/>
<path class="st1" d="M296.4,124.6l79.9-87c6.3-6.9,17-7.4,23.9-1.1c0.2,0.2,0.4,0.4,0.6,0.6c6.4,6.4,6.6,16.7,0.6,23.4L322,146.6
	L296.4,124.6z"/>
<g id="XMLID_5_">
	<g>
		<polygon class="st2" points="324.2,144.4 292.2,176.4 292.2,272.4 196.2,272.4 196.2,176.4 148.2,136.4 172.2,112.4 212.2,144.4 
			268.2,144.4 300.2,120.4 		"/>
	</g>
	<g>
	</g>
</g>
<path class="st0" d="M236.2,136.4c-13.3,0-24-10.7-24-24l-1.2-48h48l1.2,48C260.2,125.6,249.5,136.4,236.2,136.4z"/>
<path class="st3" d="M210.9,95.6l16-24l4.2,3.2c16.4,11.9,39,10.4,53.5-3.7l7.5-7.5l-21.3-16c-12.2-9.7-28.9-11.5-42.9-4.5l-9.1,4.6
	l-0.5,0.3c-13.4,9-18.1,26.5-10.9,40.9L210.9,95.6z"/>
<path class="st4" d="M292.2,264.4l5.5,27.5c1.6,8,0.1,16.3-4.2,23.2l-33.3,53.2l40,72v16h-40v-16l-40-72l16-48l-48,48l32,72v16h-40
	v-16l-32-72l48-80v-24H292.2z"/>
<g>
	<path class="st5" d="M220.2,472.4h-64v-8c0-13.3,10.7-24,24-24l0,0h40V472.4z"/>
	<path class="st5" d="M300.2,472.4h-64v-8c0-13.3,10.7-24,24-24l0,0h40V472.4z"/>
</g>
<g>
	<g id="XMLID_1_">
		<g>
			<polygon class="st6" points="468.2,176.4 433.9,190.1 420.2,224.4 406.5,190.1 372.2,176.4 406.5,162.7 420.2,128.4 433.9,162.7 
							"/>
			<polygon class="st6" points="100.2,376.4 65.9,390.1 52.2,424.4 38.5,390.1 4.2,376.4 38.5,362.7 52.2,328.4 65.9,362.7 			"/>
		</g>
		<g>
		</g>
	</g>
</g>
<g>
	<g id="XMLID_2_">
		<g>
			<rect x="444.2" y="408.4" class="st7" width="16" height="16"/>
			<rect x="420.2" y="432.4" class="st7" width="16" height="16"/>
			<rect x="420.2" y="384.4" class="st7" width="16" height="16"/>
			<rect x="396.2" y="408.4" class="st7" width="16" height="16"/>
			<rect x="84.2" y="184.4" class="st7" width="16" height="16"/>
			<rect x="68.2" y="200.4" class="st7" width="16" height="16"/>
			<rect x="68.2" y="168.4" class="st7" width="16" height="16"/>
			<rect x="52.2" y="184.4" class="st7" width="16" height="16"/>
		</g>
		<g>
		</g>
	</g>
</g>
<g>
	<g id="XMLID_3_">
		<g>
			<path class="st8" d="M393.9,298.7c3.1,3.1,3.1,8.2,0,11.3l-16,16c-1.5,1.5-3.5,2.3-5.6,2.3c-4.4,0-8-3.6-8-8
				c0-2.1,0.8-4.2,2.3-5.7l10.3-10.3L366.5,294c-3.1-3.2-3-8.2,0.2-11.3c3.1-3,8-3,11.1,0L393.9,298.7z"/>
			<path class="st8" d="M353.9,298.7c3.1,3.1,3.1,8.2,0,11.3l-16,16c-1.5,1.5-3.5,2.3-5.6,2.3c-4.4,0-8-3.6-8-8
				c0-2.1,0.8-4.2,2.3-5.7l10.3-10.3L326.5,294c-3.1-3.2-3-8.2,0.2-11.3c3.1-3,8-3,11.1,0L353.9,298.7z"/>
			<path class="st8" d="M81.8,90.7c3.1,3.1,3.1,8.2,0,11.3c-1.5,1.5-3.5,2.3-5.7,2.3c-2.1,0-4.2-0.8-5.7-2.3l-16-16
				c-3.1-3.1-3.1-8.2,0-11.3l16-16c3.2-3.1,8.2-3,11.3,0.2c3,3.1,3,8,0,11.1L71.5,80.4L81.8,90.7z"/>
			<path class="st8" d="M41.8,90.7c3.1,3.1,3.1,8.2,0,11.3c-1.5,1.5-3.5,2.3-5.6,2.3c-2.1,0-4.2-0.8-5.7-2.3l-16-16
				c-3.1-3.1-3.1-8.2,0-11.3l16-16c3.2-3.1,8.2-3,11.3,0.2c3,3.1,3,8,0,11.1L31.5,80.4L41.8,90.7z"/>
		</g>
		<g>
		</g>
	</g>
</g>
<g id="XMLID_4_">
	<g>
		<path class="st9" d="M268.2,144.4l22.8-17.1c-2.9,28.1-12.7,90.5-43.5,137.1h-51.3v-88l-48-40l24-24l40,32H268.2z"/>
	</g>
	<g>
	</g>
</g>
<path class="st10" d="M247.5,264.4h-51.3v24l-17.4,28.9C207.5,308.8,231.9,289.9,247.5,264.4z"/>
</svg>
