<svg xmlns="http://www.w3.org/2000/svg" preserveAspectRatio="none" viewBox="0 0 1926.193 1037">
	<defs>
		<linearGradient id="linear-gradient" x1="1" x2="0" y2="0.878"
			gradientUnits="objectBoundingBox">
			<stop offset="0" stop-color="#24cbcb" />
			<stop offset="1" stop-color="#321cff" />
		</linearGradient>
	</defs>
	<g id="Group_439" data-name="Group 439" transform="translate(4.671)">
		<g id="Group_441" data-name="Group 441">
			<g id="Group_438" data-name="Group 438" transform="translate(-4.671)">
				<path id="Path_1785" data-name="Path 1785"
					d="M8905.549-179S8892.466-44.311,8720.926-29.552s-292.2,95.115-396.868,154.152-322.729,52.477-322.729,52.477V719.889s229.689,6.56,299.469,50.837S8485.42,869.121,8638.063,856s133.743-206.629,393.961-288.625,300.923,4.92,533.52-78.716,361.979-191.87,361.979-191.87V-179Z"
					transform="translate(-8001.329 179)" fill="url(#linear-gradient)" />
			</g>
			<path id="Intersection_1" data-name="Intersection 1"
				d="M-8001.329,875.724c-1.563-.171-3.136-.344-4.669-.516V741.959c2.994-.94,4.669-1.441,4.669-1.441s314.9,73.4,378.64-176.411c14.083-55.194,30.456-100.512,47.424-137.635,80.229-43.968,172.917-84.734,288.863-94.919q14.859-1.305,28.16-3.783c-24.493,54.059-80.092,206.349,78.378,192.556,192.34-16.739,366.787-5.15,455.129-270.412,9.429-28.314,21.185-51.7,34.672-70.912H-6392c-98.493,64.308-291.334,232.893-33.042,448.2,144.47,120.428,260.383,73.462,345.238-18.051v45.64s-129.383,108.234-361.979,191.87c-116.859,42.017-185.282,40.987-257.442,39.956-42.751-.611-86.809-1.221-143.034,7.121-21.2-56.119-116.968-273.329-307.41-204.728-218.057,78.547-35.785,334.794-325.411,378.575-28.373,4.29-53.05,6.243-74.788,6.243C-7750.029,1073.833-7701.339,908.245-8001.329,875.724Z"
				transform="translate(8001.329 -179.001)" fill="rgba(0,229,255,0.1)" />
		</g>
	</g>
</svg>