<svg xmlns="http://www.w3.org/2000/svg" xmlns:xlink="http://www.w3.org/1999/xlink" preserveAspectRatio="none" viewBox="0 0 376.359 1214.262">
  <defs>
    <linearGradient id="linear-gradient" x1="0.5" x2="0.5" y2="1" gradientUnits="objectBoundingBox">
      <stop offset="0" stop-color="#24cbcc"/>
      <stop offset="1" stop-color="#321efe"/>
    </linearGradient>
  </defs>
  <g id="Group_447" data-name="Group 447" transform="translate(0 0)">
    <path id="Path_1862" data-name="Path 1862" d="M9996-179V335.811s89.975,79.955,69.622,270.394,98.441,336.569,203.386,337.429,102.017,91.628,102.017,91.628l1.335-639.847V-179Z" transform="translate(-9996 179)" fill="url(#linear-gradient)"/>
    <path id="Intersection_2" data-name="Intersection 2" d="M-9635.117,1347.609c-1.172-.01-2.341-.037-3.517-.083-.577-79.323,30.854-44.958-42.863-157.085-78.74-119.766-26.669-110.222,16.341-232.633s-122.414-62.86-122.414-62.86l-49.22,26.4c-3.436-44.818-13.353-80.636-24.741-108.216a81.834,81.834,0,0,0,57.922,9.516c88.677-17.444,147.175-123.565,138.453-247.133-4.248-60.177-80.571-183.826-138.453-190.438-61.458-7.02-104.516,104.668-104.516,104.668V309.352c117.719-1.575,156.527-47.486,168.659-84.378h207.7v28.584c-15.3,23.823-37.82,48.707-70.53,66.1-83.373,44.331-45.657,122.693,22.5,190.846,20.684,20.682,36.3,28.811,48.034,30.1V644.083c-31.959,15-72.55,43.132-70.53,88.751,3.31,74.771,46.319,53.6,5.293,192.551-26.35,89.247,24.812,94.425,64.794,86.707l-.17,81.394c-15.357,11.419-24.536,37.129-15,89.958,25.806,142.924-19.189,181.964-19.189,181.964s-.393.614-1.12,1.7C-9582.708,1355.9-9604.244,1347.862-9635.117,1347.609Z" transform="translate(9908.125 -224.974)" fill="rgba(255,255,255,0.1)"/>
  </g>
</svg>
