<?xml version="1.0" encoding="utf-8"?>
<!-- Generator: Adobe Illustrator 24.0.1, SVG Export Plug-In . SVG Version: 6.00 Build 0)  -->
<svg version="1.1" xmlns="http://www.w3.org/2000/svg" xmlns:xlink="http://www.w3.org/1999/xlink" x="0px" y="0px"
	 viewBox="0 0 310.1 364.8" style="enable-background:new 0 0 310.1 364.8;" xml:space="preserve">
<style type="text/css">
	.st0{opacity:0.32;}
	.st1{fill:url(#SVGID_1_);}
	.st2{fill:#1AE5FF;}
	.st3{opacity:0.53;}
	.st4{opacity:0.37;}
	.st5{fill:#8ED2FF;}
	.st6{opacity:0.47;}
	.st7{fill:#7974F5;}
	.st8{fill:url(#SVGID_2_);}
	.st9{fill:url(#SVGID_3_);}
	.st10{fill:url(#SVGID_4_);}
	.st11{fill:url(#SVGID_5_);}
	.st12{fill:url(#SVGID_6_);}
	.st13{fill:#F9FBFC;}
	.st14{fill:#113C7A;}
	.st15{fill:#FFFFFF;}
	.st16{fill:#CFE3FF;}
	.st17{fill:url(#SVGID_7_);}
	.st18{fill:none;}
	.st19{fill:url(#SVGID_8_);}
	.st20{opacity:0.32;fill:url(#SVGID_9_);}
	.st21{fill:#FF9D6F;}
	.st22{fill:url(#SVGID_10_);}
	.st23{fill:url(#SVGID_11_);}
	.st24{fill:#FF7C40;}
	.st25{fill:#843837;}
	.st26{opacity:0.32;fill:url(#SVGID_12_);}
	.st27{fill:#F5B697;}
	.st28{fill:#5167B0;}
	.st29{fill:url(#SVGID_13_);}
	.st30{fill:url(#SVGID_14_);}
	.st31{opacity:0.43;fill:url(#SVGID_15_);}
	.st32{fill:url(#SVGID_16_);}
	.st33{opacity:0.57;}
	.st34{fill:#A0A9B0;}
</style>
<g id="BACKGROUND">
</g>
<g id="OBJECTS">
	<g>
		<g>
			<g class="st0">
				
					<linearGradient id="SVGID_1_" gradientUnits="userSpaceOnUse" x1="-233.7832" y1="306.9908" x2="-111.2992" y2="306.9908" gradientTransform="matrix(-1 0 0 1 13.0348 0)">
					<stop  offset="0" style="stop-color:#5155D4"/>
					<stop  offset="1" style="stop-color:#45F7FF"/>
				</linearGradient>
				<path class="st1" d="M126.3,283.4c-2.7,1.5-2.7,4,0,5.5l88.2,51.3c2.6,1.5,6.9,1.5,9.6,0l20.7-9.7c2.7-1.5,2.7-4,0-5.5
					l-88.2-51.3c-2.6-1.5-6.9-1.5-9.6,0L126.3,283.4z"/>
			</g>
			<g>
				<g>
					<path class="st2" d="M102,69.1l0,2.2c0,1.3,1.4,2.1,2.5,1.5l10.4-6c0.5-0.3,0.8-0.9,0.8-1.5l0-2.2c0-1.3-1.4-2.1-2.5-1.5
						l-10.4,6C102.4,68,102,68.5,102,69.1z"/>
				</g>
				<g>
					<path class="st2" d="M69.2,99.1l0,2.2c0,1.3,1.4,2.1,2.5,1.5l43.3-25c0.5-0.3,0.8-0.9,0.8-1.5l0-2.2c0-1.3-1.4-2.1-2.5-1.5
						L70,97.6C69.5,97.9,69.2,98.4,69.2,99.1z"/>
				</g>
				<g class="st3">
					<path class="st2" d="M87.1,110.7l0,2.2c0,1.3,1.4,2.1,2.5,1.5l25.4-14.7c0.5-0.3,0.8-0.9,0.8-1.5l0-2.2c0-1.3-1.4-2.1-2.5-1.5
						l-25.4,14.7C87.4,109.5,87.1,110.1,87.1,110.7z"/>
				</g>
				<g>
					<path class="st2" d="M75.9,106.1l0,2.2c0,1.3,1.4,2.1,2.5,1.5L115,88.7c0.5-0.3,0.8-0.9,0.8-1.5l0-2.2c0-1.3-1.4-2.1-2.5-1.5
						l-36.6,21.1C76.2,105,75.9,105.5,75.9,106.1z"/>
				</g>
			</g>
			<g>
				<g class="st4">
					<g>
						<path class="st5" d="M302.3,102.5c0.5,0.3,0.9,0.9,0.9,1.5l0,15c0,0.5-0.4,0.8-0.9,0.5l-19-11c-0.5-0.3-0.9-0.9-0.9-1.5l0-15
							c0-0.5,0.4-0.8,0.9-0.5L302.3,102.5z"/>
					</g>
				</g>
				<g class="st6">
					<g>
						<path class="st7" d="M309.2,129.2c0.5,0.3,0.9,0.9,0.9,1.5l0,15c0,0.5-0.4,0.8-0.9,0.5l-19-11c-0.5-0.3-0.9-0.9-0.9-1.5l0-15
							c0-0.5,0.4-0.8,0.9-0.5L309.2,129.2z"/>
					</g>
				</g>
			</g>
			<g>
				<g class="st4">
					<g>
						<path class="st5" d="M116.1,143.3c0.3,0.2,0.6,0.6,0.6,1l0,9.7c0,0.4-0.3,0.5-0.6,0.3l-12.3-7.1c-0.3-0.2-0.6-0.6-0.6-1l0-9.7
							c0-0.4,0.3-0.5,0.6-0.3L116.1,143.3z"/>
					</g>
				</g>
				<g class="st6">
					<g>
						<path class="st7" d="M120.6,160.6c0.3,0.2,0.6,0.6,0.6,1l0,9.7c0,0.4-0.3,0.5-0.6,0.3l-12.3-7.1c-0.3-0.2-0.6-0.6-0.6-1l0-9.7
							c0-0.4,0.3-0.5,0.6-0.3L120.6,160.6z"/>
					</g>
				</g>
			</g>
			<g>
				<g>
					<linearGradient id="SVGID_2_" gradientUnits="userSpaceOnUse" x1="140.5103" y1="46.68" x2="271.2356" y2="46.68">
						<stop  offset="0" style="stop-color:#7F5EFF"/>
						<stop  offset="0.2423" style="stop-color:#8665FF"/>
						<stop  offset="0.5952" style="stop-color:#9978FF"/>
						<stop  offset="0.94" style="stop-color:#B391FF"/>
					</linearGradient>
					<path class="st8" d="M245.9,61c0.1,0.1,0.1,0.1,0.2,0.2c0.6,0.5,1.2,1,1.7,1.5c0.1,0.1,0.1,0.1,0.2,0.2
						c0.6,0.5,1.1,1.1,1.7,1.7c0,0,0.1,0.1,0.1,0.1c0.6,0.6,1.2,1.3,1.7,1.9c0,0,0,0,0,0c0.6,0.7,1.1,1.4,1.7,2.1c0,0,0,0,0,0
						c0.5,0.7,1,1.3,1.4,2c0.3,0.4,0.6,0.9,0.8,1.3c0.2,0.4,0.5,0.7,0.7,1.1c0.1,0.2,0.2,0.4,0.3,0.5c0.4,0.6,0.7,1.3,1,1.9
						c0,0.1,0.1,0.1,0.1,0.2c0.4,0.8,0.8,1.6,1.1,2.4c0,0,0,0.1,0.1,0.1c2.2,5,3.4,10.2,3.4,15l9.1-5.3c0-4.3-1-8.8-2.7-13.3l0,0
						c-0.1-0.3-0.3-0.7-0.4-1c-0.1-0.2-0.2-0.5-0.3-0.7c0,0,0-0.1-0.1-0.1c0,0,0-0.1-0.1-0.1c-0.1-0.3-0.3-0.7-0.4-1
						c-0.2-0.4-0.3-0.7-0.5-1.1c0-0.1-0.1-0.1-0.1-0.2c0-0.1-0.1-0.1-0.1-0.2c-0.1-0.3-0.3-0.6-0.4-0.9c-0.2-0.4-0.4-0.7-0.6-1
						c-0.1-0.2-0.2-0.4-0.3-0.5c0-0.1-0.1-0.1-0.1-0.2c-0.2-0.3-0.4-0.6-0.6-0.9c-0.3-0.4-0.5-0.9-0.8-1.3c0-0.1-0.1-0.1-0.1-0.2
						c-0.4-0.6-0.8-1.2-1.3-1.8c0,0,0,0,0,0c0,0,0,0,0,0c-0.3-0.4-0.6-0.8-0.9-1.2c-0.2-0.3-0.5-0.6-0.8-0.9c0,0,0,0,0,0
						c0,0,0,0,0,0c-0.3-0.3-0.5-0.6-0.8-0.9c-0.3-0.3-0.5-0.6-0.8-0.9c0,0-0.1-0.1-0.1-0.1c0-0.1-0.1-0.1-0.1-0.1
						c-0.2-0.2-0.4-0.4-0.6-0.6c-0.3-0.3-0.6-0.6-0.9-0.8c-0.1-0.1-0.2-0.2-0.3-0.3c-0.1-0.1-0.1-0.1-0.2-0.2
						c-0.1-0.1-0.3-0.3-0.4-0.4c-0.3-0.3-0.6-0.5-0.9-0.8c-0.1-0.1-0.3-0.2-0.4-0.3c-0.1-0.1-0.1-0.1-0.2-0.2
						c-0.1-0.1-0.2-0.2-0.3-0.2c-0.3-0.2-0.6-0.5-0.9-0.7c-0.2-0.2-0.4-0.3-0.7-0.5c0,0-0.1-0.1-0.1-0.1c0,0-0.1-0.1-0.1-0.1
						c-0.3-0.2-0.6-0.4-0.9-0.6c-0.3-0.2-0.6-0.4-0.9-0.5c-0.1,0-0.1-0.1-0.2-0.1L164.1,2.8c-0.2-0.1-0.4-0.2-0.6-0.4
						c-0.3-0.2-0.6-0.3-0.8-0.4c-0.2-0.1-0.4-0.2-0.5-0.3c0,0-0.1,0-0.1-0.1c-0.1,0-0.1-0.1-0.2-0.1c-0.3-0.1-0.5-0.2-0.8-0.3
						c-0.3-0.1-0.5-0.2-0.8-0.3c0,0-0.1,0-0.1,0c0,0-0.1,0-0.1,0c-0.2-0.1-0.4-0.1-0.6-0.2c-0.3-0.1-0.6-0.2-0.8-0.2
						c-0.1,0-0.3-0.1-0.4-0.1c-0.1,0-0.1,0-0.2,0c-0.1,0-0.2,0-0.3-0.1c-0.3-0.1-0.6-0.1-0.9-0.1c-0.2,0-0.4,0-0.5-0.1
						c-0.1,0-0.1,0-0.2,0c-0.1,0-0.1,0-0.2,0c-0.3,0-0.6,0-1,0c-0.1,0-0.3,0-0.4,0c-0.1,0-0.2,0-0.3,0c-0.1,0-0.2,0-0.3,0
						c-0.4,0-0.8,0.1-1.2,0.2c0,0,0,0,0,0c-0.1,0-0.2,0-0.2,0.1c-0.4,0.1-0.8,0.2-1.2,0.3c0,0-0.1,0-0.1,0.1c-0.1,0-0.1,0.1-0.2,0.1
						c-0.5,0.2-0.9,0.4-1.3,0.6l-9.1,5.3c0.4-0.2,0.9-0.5,1.3-0.6C141.9,6,142,6,142,6c0.4-0.2,0.8-0.3,1.3-0.4
						c0.1,0,0.2-0.1,0.2-0.1c0.5-0.1,1-0.2,1.5-0.2c0.1,0,0.2,0,0.3,0c0.5,0,1,0,1.5,0c0.1,0,0.1,0,0.2,0c0.6,0.1,1.1,0.1,1.7,0.3
						c0.1,0,0.1,0,0.2,0c0.6,0.1,1.2,0.3,1.8,0.5c0,0,0.1,0,0.1,0c0.6,0.2,1.3,0.5,1.9,0.8c0,0,0.1,0,0.1,0.1c0.7,0.3,1.3,0.7,2,1
						l86.9,50.2c0.7,0.4,1.4,0.8,2,1.3c0,0,0.1,0.1,0.1,0.1C244.6,60,245.3,60.5,245.9,61z"/>
					<linearGradient id="SVGID_3_" gradientUnits="userSpaceOnUse" x1="263.4225" y1="325.8206" x2="263.4225" y2="101.124">
						<stop  offset="0" style="stop-color:#5745FF"/>
						<stop  offset="0.1858" style="stop-color:#5E49FF"/>
						<stop  offset="0.4571" style="stop-color:#7253FF"/>
						<stop  offset="0.7793" style="stop-color:#9164FF"/>
						<stop  offset="0.94" style="stop-color:#A46EFF"/>
					</linearGradient>
					<path class="st9" d="M271.2,87.2c0-0.3,0-0.7,0-1c0-0.3,0-0.7-0.1-1c0-0.3-0.1-0.7-0.1-1c0-0.3-0.1-0.7-0.1-1
						c-0.1-0.3-0.1-0.7-0.2-1c-0.1-0.4-0.1-0.7-0.2-1.1c-0.1-0.4-0.2-0.7-0.2-1.1c-0.1-0.4-0.2-0.7-0.3-1.1
						c-0.1-0.4-0.2-0.7-0.3-1.1c-0.1-0.4-0.2-0.7-0.3-1.1c-0.1-0.3-0.2-0.7-0.4-1c-0.1-0.3-0.2-0.7-0.4-1l-9.1,5.3
						c0.1,0.3,0.3,0.7,0.4,1c0.1,0.3,0.2,0.7,0.4,1c0.1,0.4,0.2,0.7,0.3,1.1c0.1,0.4,0.2,0.7,0.3,1.1c0.1,0.4,0.2,0.7,0.3,1.1
						c0.1,0.4,0.2,0.7,0.2,1.1c0.1,0.4,0.1,0.7,0.2,1.1c0.1,0.3,0.1,0.7,0.2,1c0.1,0.3,0.1,0.7,0.1,1c0,0.3,0.1,0.7,0.1,1
						c0,0.3,0.1,0.7,0.1,1c0,0.3,0,0.7,0,1c0,0.3,0,0.6,0,0.9l-0.6,208.4c0,0.8,0,1.5-0.1,2.2c0,0.1,0,0.1,0,0.2
						c-0.1,0.7-0.2,1.3-0.3,1.9c0,0.1,0,0.2,0,0.2c-0.1,0.6-0.3,1.2-0.4,1.7c0,0.1-0.1,0.2-0.1,0.3c-0.2,0.5-0.4,1-0.6,1.5
						c0,0.1,0,0.1-0.1,0.2c-0.2,0.5-0.5,1-0.8,1.5c0,0.1-0.1,0.1-0.1,0.2c-0.2,0.4-0.5,0.7-0.8,1c-0.1,0.1-0.2,0.2-0.3,0.3
						c-0.2,0.3-0.5,0.5-0.8,0.7c-0.1,0.1-0.2,0.2-0.3,0.3c-0.4,0.3-0.8,0.6-1.2,0.8l9.1-5.3c0.4-0.2,0.8-0.5,1.2-0.8
						c0.1-0.1,0.2-0.2,0.3-0.3c0.3-0.2,0.5-0.5,0.8-0.7c0.1-0.1,0.2-0.2,0.3-0.3c0.3-0.3,0.5-0.7,0.8-1c0-0.1,0.1-0.1,0.1-0.2
						c0,0,0,0,0,0c0.3-0.4,0.5-0.9,0.8-1.4c0,0,0,0,0,0c0-0.1,0-0.1,0.1-0.2c0.1-0.3,0.3-0.6,0.4-1c0.1-0.2,0.1-0.3,0.2-0.5
						c0-0.1,0.1-0.2,0.1-0.3c0-0.1,0.1-0.2,0.1-0.3c0.1-0.3,0.2-0.7,0.3-1c0-0.1,0.1-0.3,0.1-0.4c0-0.1,0-0.2,0-0.2
						c0-0.1,0.1-0.2,0.1-0.4c0.1-0.3,0.1-0.6,0.1-1c0-0.2,0-0.4,0.1-0.6c0-0.1,0-0.1,0-0.2c0-0.1,0-0.2,0-0.2c0-0.3,0-0.6,0.1-1
						c0-0.3,0-0.6,0-1c0,0,0,0,0-0.1l0.6-208.4C271.2,87.8,271.2,87.5,271.2,87.2z"/>
					<g>
						<linearGradient id="SVGID_4_" gradientUnits="userSpaceOnUse" x1="237.9469" y1="389.7507" x2="188.0346" y2="103.1845">
							<stop  offset="0" style="stop-color:#7F5EFF"/>
							<stop  offset="0.2423" style="stop-color:#8665FF"/>
							<stop  offset="0.5952" style="stop-color:#9978FF"/>
							<stop  offset="0.94" style="stop-color:#B391FF"/>
						</linearGradient>
						<path class="st10" d="M241.9,58.2c11.2,6.5,20.3,22.2,20.3,35.1l-0.6,208.4c0,12.9-9.2,18.1-20.4,11.6l-86.9-50.2
							c-11.2-6.5-20.3-22.2-20.3-35.1l0.6-208.4c0-12.9,9.2-18.1,20.4-11.6L241.9,58.2z"/>
					</g>
					<g>
						<g>
							<linearGradient id="SVGID_5_" gradientUnits="userSpaceOnUse" x1="198.6129" y1="71.3102" x2="198.6129" y2="87.6509">
								<stop  offset="0" style="stop-color:#7F5EFF"/>
								<stop  offset="0.2423" style="stop-color:#8665FF"/>
								<stop  offset="0.5952" style="stop-color:#9978FF"/>
								<stop  offset="0.94" style="stop-color:#B391FF"/>
							</linearGradient>
							<path class="st11" d="M209.8,59.8c1.4,0.8,2.5,2.7,2.5,4.3c0,1.6-1.1,2.2-2.5,1.4l-22.4-12.9c-1.4-0.8-2.5-2.7-2.5-4.3
								c0-1.6,1.1-2.2,2.5-1.4L209.8,59.8z"/>
						</g>
						<g>
							<linearGradient id="SVGID_6_" gradientUnits="userSpaceOnUse" x1="198.018" y1="308.6094" x2="198.018" y2="240.2606">
								<stop  offset="0" style="stop-color:#9A79FF"/>
								<stop  offset="0.94" style="stop-color:#B391FF"/>
							</linearGradient>
							<path class="st12" d="M198,258.3c3.7,2.1,6.6,7.3,6.6,11.5c0,4.2-3,5.9-6.7,3.8c-3.7-2.1-6.6-7.3-6.6-11.5
								C191.4,257.9,194.4,256.2,198,258.3z"/>
						</g>
						<g>
							<path class="st13" d="M253.2,103.2c1.1,0.7,2,2.2,2,3.5l-0.5,174.2c0,1.3-0.9,1.8-2.1,1.2l-109.3-63.1c-1.1-0.7-2-2.2-2-3.5
								l0.5-174.2c0-1.3,0.9-1.8,2.1-1.2L253.2,103.2z"/>
						</g>
					</g>
					<path class="st13" d="M266.9,163.6L266.9,163.6c-0.7,0-1.3-0.6-1.3-1.3v-38.7c0-0.7,0.6-1.3,1.3-1.3l0,0c0.7,0,1.3,0.6,1.3,1.3
						v38.7C268.2,163,267.6,163.6,266.9,163.6z"/>
					<path class="st13" d="M266.9,211.8L266.9,211.8c-0.7,0-1.3-0.6-1.3-1.3v-38.7c0-0.7,0.6-1.3,1.3-1.3l0,0c0.7,0,1.3,0.6,1.3,1.3
						v38.7C268.2,211.2,267.6,211.8,266.9,211.8z"/>
					<path class="st14" d="M266.9,271L266.9,271c-0.7,0-1.3-0.6-1.3-1.3v-20.1c0-0.7,0.6-1.3,1.3-1.3l0,0c0.7,0,1.3,0.6,1.3,1.3
						v20.1C268.2,270.4,267.6,271,266.9,271z"/>
				</g>
				<g>
					<path class="st15" d="M197.3,115.4c5.6,3.2,10.1,11,10.2,17.5c0,0.1,0,0.1,0,0.2c-0.2,0.1-4.7,1.9-10.4-1.3
						c-0.1,0-0.1-0.1-0.2-0.1c-4.4-2.6-8.1-7.6-9.4-9.6c-0.3-0.5-0.5-0.8-0.5-0.8C187.1,114.7,191.6,112.1,197.3,115.4z"/>
				</g>
				<g>
					<path class="st16" d="M243.3,171.6c1.3,0.7,2.3,2.6,2.3,4l0,9.8c0,1.5-1.1,2.1-2.3,1.3l-89.8-51.9c-1.3-0.7-2.3-2.6-2.3-4
						l0-9.8c0-1.5,1.1-2.1,2.3-1.3L243.3,171.6z"/>
				</g>
				<linearGradient id="SVGID_7_" gradientUnits="userSpaceOnUse" x1="182.6254" y1="81.9746" x2="211.6693" y2="141.3531">
					<stop  offset="0" style="stop-color:#9A79FF"/>
					<stop  offset="0.3403" style="stop-color:#BA76E8"/>
					<stop  offset="0.94" style="stop-color:#FB6FB9"/>
				</linearGradient>
				<path class="st17" d="M212.6,113.1c0.5,1.7,0.9,3.5,1.1,5.2c0.1,1,0.2,2,0.2,3c0,0.3,0,0.6,0,0.9c0,0,0,0.1,0,0.1
					c0,0.3,0,0.6-0.1,0.8c0,0.1,0,0.1,0,0.2c0,0.3-0.1,0.5-0.1,0.8c-0.1,0.4-0.1,0.6-0.1,0.8c-0.1,0.3-0.1,0.6-0.2,0.8
					c0,0,0,0.1,0,0.1c-0.1,0.2-0.1,0.5-0.2,0.7c0,0,0,0.1,0,0.1c-0.1,0.2-0.2,0.4-0.2,0.7c-0.1,0.3-0.2,0.5-0.3,0.7
					c-0.1,0.3-0.2,0.5-0.3,0.7c0,0,0,0.1-0.1,0.1c-0.1,0.2-0.2,0.4-0.3,0.5c0,0,0,0.1-0.1,0.1c-0.1,0.2-0.2,0.4-0.4,0.5
					c-0.1,0.2-0.3,0.3-0.4,0.5c0,0,0,0-0.1,0.1c-0.1,0.1-0.3,0.3-0.4,0.4c0,0-0.1,0.1-0.1,0.1c-0.1,0.1-0.3,0.3-0.4,0.4
					c0,0,0,0-0.1,0.1c-0.1,0.1-0.3,0.2-0.5,0.3c-0.2,0.1-0.4,0.2-0.5,0.3c0,0-0.1,0-0.1,0.1c-0.2,0.1-0.3,0.2-0.5,0.3
					c0,0-0.1,0-0.1,0c-0.2,0.1-0.4,0.2-0.5,0.2c-0.1,0.1-0.2,0.1-0.3,0.1c-0.1-6.4-4.6-14.2-10.2-17.5c-5.6-3.3-10.2-0.6-10.3,5.8
					c0,0,0.2,0.3,0.5,0.7c-0.1-0.2-0.3-0.4-0.4-0.6c-0.3-0.4-0.4-0.6-0.6-0.9c0,0-0.1-0.1-0.1-0.1c-0.2-0.3-0.4-0.6-0.5-0.8
					c0-0.1-0.1-0.1-0.1-0.2c-0.2-0.3-0.3-0.6-0.5-0.9c-0.2-0.3-0.3-0.6-0.5-0.9c0-0.1-0.1-0.1-0.1-0.2c-0.2-0.3-0.3-0.6-0.5-0.9
					c0-0.1-0.1-0.1-0.1-0.2c-0.1-0.3-0.3-0.6-0.4-0.9c-0.2-0.4-0.3-0.7-0.5-1c0-0.1-0.1-0.1-0.1-0.2c-0.1-0.3-0.3-0.6-0.4-0.9
					c-0.2-0.4-0.3-0.7-0.4-1c0,0,0-0.1-0.1-0.1c-0.1-0.3-0.2-0.6-0.3-0.9c0-0.1,0-0.1-0.1-0.2c-0.2-0.6-0.4-1.3-0.6-1.9
					c0-0.1,0-0.1-0.1-0.2c-0.1-0.3-0.2-0.6-0.2-0.9c0-0.1,0-0.1,0-0.2c-0.1-0.3-0.1-0.6-0.2-0.9c-0.1-0.4-0.1-0.7-0.2-1
					c0-0.1,0-0.1,0-0.2c0-0.3-0.1-0.6-0.1-0.9c0-0.4-0.1-0.7-0.1-1c0-0.1,0-0.1,0-0.2c0-0.3,0-0.6-0.1-0.9c0-0.1,0-0.1,0-0.2
					c0-0.3,0-0.6,0-0.9c0-1,0.1-1.9,0.2-2.8c0.2-1.5,0.6-2.8,1.1-3.9c0.1-0.2,0.2-0.4,0.3-0.7c2.7-4.9,8.5-6,15.1-2.2
					c6,3.5,11.2,10.1,14.2,17.2c0.2,0.5,0.4,0.9,0.6,1.4C212.2,111.7,212.4,112.4,212.6,113.1z M197.5,113.6c3.4,2,6.2,0.4,6.3-3.6
					c0-4-2.8-8.8-6.2-10.8c-3.4-2-6.2-0.4-6.3,3.6C191.3,106.8,194.1,111.6,197.5,113.6"/>
				<path class="st18" d="M212.6,113.1c0.5,1.7,0.9,3.5,1.1,5.2c0.1,1,0.2,2,0.2,3c0,0.3,0,0.6,0,0.9c0,0,0,0.1,0,0.1
					c0,0.3,0,0.6-0.1,0.8c0,0.1,0,0.1,0,0.2c0,0.3-0.1,0.5-0.1,0.8c-0.1,0.4-0.1,0.6-0.1,0.8c-0.1,0.3-0.1,0.6-0.2,0.8
					c0,0,0,0.1,0,0.1c-0.1,0.2-0.1,0.5-0.2,0.7c0,0,0,0.1,0,0.1c-0.1,0.2-0.2,0.4-0.2,0.7c-0.1,0.3-0.2,0.5-0.3,0.7
					c-0.1,0.3-0.2,0.5-0.3,0.7c0,0,0,0.1-0.1,0.1c-0.1,0.2-0.2,0.4-0.3,0.5c0,0,0,0.1-0.1,0.1c-0.1,0.2-0.2,0.4-0.4,0.5
					c-0.1,0.2-0.3,0.3-0.4,0.5c0,0,0,0-0.1,0.1c-0.1,0.1-0.3,0.3-0.4,0.4c0,0-0.1,0.1-0.1,0.1c-0.1,0.1-0.3,0.3-0.4,0.4
					c0,0,0,0-0.1,0.1c-0.1,0.1-0.3,0.2-0.5,0.3c-0.2,0.1-0.4,0.2-0.5,0.3c0,0-0.1,0-0.1,0.1c-0.2,0.1-0.3,0.2-0.5,0.3
					c0,0-0.1,0-0.1,0c-0.2,0.1-0.4,0.2-0.5,0.2c-0.1,0.1-0.2,0.1-0.3,0.1c-0.1-6.4-4.6-14.2-10.2-17.5c-5.6-3.3-10.2-0.6-10.3,5.8
					c0,0,0.2,0.3,0.5,0.7c-0.1-0.2-0.3-0.4-0.4-0.6c-0.3-0.4-0.4-0.6-0.6-0.9c0,0-0.1-0.1-0.1-0.1c-0.2-0.3-0.4-0.6-0.5-0.8
					c0-0.1-0.1-0.1-0.1-0.2c-0.2-0.3-0.3-0.6-0.5-0.9c-0.2-0.3-0.3-0.6-0.5-0.9c0-0.1-0.1-0.1-0.1-0.2c-0.2-0.3-0.3-0.6-0.5-0.9
					c0-0.1-0.1-0.1-0.1-0.2c-0.1-0.3-0.3-0.6-0.4-0.9c-0.2-0.4-0.3-0.7-0.5-1c0-0.1-0.1-0.1-0.1-0.2c-0.1-0.3-0.3-0.6-0.4-0.9
					c-0.2-0.4-0.3-0.7-0.4-1c0,0,0-0.1-0.1-0.1c-0.1-0.3-0.2-0.6-0.3-0.9c0-0.1,0-0.1-0.1-0.2c-0.2-0.6-0.4-1.3-0.6-1.9
					c0-0.1,0-0.1-0.1-0.2c-0.1-0.3-0.2-0.6-0.2-0.9c0-0.1,0-0.1,0-0.2c-0.1-0.3-0.1-0.6-0.2-0.9c-0.1-0.4-0.1-0.7-0.2-1
					c0-0.1,0-0.1,0-0.2c0-0.3-0.1-0.6-0.1-0.9c0-0.4-0.1-0.7-0.1-1c0-0.1,0-0.1,0-0.2c0-0.3,0-0.6-0.1-0.9c0-0.1,0-0.1,0-0.2
					c0-0.3,0-0.6,0-0.9c0-1,0.1-1.9,0.2-2.8c0.2-1.5,0.6-2.8,1.1-3.9c0.1-0.2,0.2-0.4,0.3-0.7c2.7-4.9,8.5-6,15.1-2.2
					c6,3.5,11.2,10.1,14.2,17.2c0.2,0.5,0.4,0.9,0.6,1.4C212.2,111.7,212.4,112.4,212.6,113.1z M197.5,113.6c3.4,2,6.2,0.4,6.3-3.6
					c0-4-2.8-8.8-6.2-10.8c-3.4-2-6.2-0.4-6.3,3.6C191.3,106.8,194.1,111.6,197.5,113.6"/>
				<g>
					<path class="st15" d="M197.6,99.3c3.4,2,6.2,6.8,6.2,10.8c0,3.9-2.8,5.6-6.3,3.6c-3.4-2-6.2-6.8-6.2-10.8
						C191.3,98.9,194.1,97.3,197.6,99.3z"/>
				</g>
				<g>
					<path class="st16" d="M243.2,192.9c1.3,0.7,2.3,2.6,2.3,4l0,9.8c0,1.5-1.1,2.1-2.3,1.3l-89.8-51.9c-1.3-0.7-2.3-2.5-2.3-4
						l0-9.8c0-1.5,1.1-2.1,2.3-1.3L243.2,192.9z"/>
				</g>
				<linearGradient id="SVGID_8_" gradientUnits="userSpaceOnUse" x1="193.6298" y1="176.9438" x2="193.6298" y2="238.9581">
					<stop  offset="0" style="stop-color:#5155D4"/>
					<stop  offset="1" style="stop-color:#45F7FF"/>
				</linearGradient>
				<path class="st19" d="M208.2,208.8c3.1,1.8,5.5,6.1,5.5,9.6l0,2.3c0,3.5-2.5,4.9-5.6,3.2l-29.1-16.8c-3.1-1.8-5.5-6.1-5.5-9.6
					l0-2.3c0-3.5,2.5-4.9,5.6-3.2L208.2,208.8z"/>
			</g>
			<linearGradient id="SVGID_9_" gradientUnits="userSpaceOnUse" x1="112.5172" y1="345.2141" x2="178.5393" y2="345.2141">
				<stop  offset="0" style="stop-color:#5155D4"/>
				<stop  offset="1" style="stop-color:#45F7FF"/>
			</linearGradient>
			<ellipse class="st20" cx="145.5" cy="345.2" rx="33" ry="19.6"/>
			<g>
				<path class="st21" d="M179,211.9c0,0,2-1.3,2.5-2c0.5-0.7,1.2-4.4,0.5-4.6c-0.7-0.2-1.2,2.5-1.2,2.5s-0.2-6.9-1-7.9
					c-0.8-1-3.5,3.9-3.6,4.8c-0.2,0.8-0.8,4.3-0.8,4.3S176.4,211.9,179,211.9z"/>
				<path class="st14" d="M128.8,231.7c0,0-5.2,5.2-1.5,11.4c3.6,6.2,28.3-9.2,30.9-11.5c2.6-2.3,19.9-17.7,20.9-19.7
					c1-2-1.2-3.9-3.8-3.6c-2.6,0.3-13.1,11.5-21.4,16.8C153.9,225.1,134.3,229.5,128.8,231.7z"/>
				<path class="st14" d="M131.8,341c0,0-0.4,3.1,0.1,4.4c0.6,1.1,2.8,2,4.4,0.8c1.6-1.1,4.2-4,4.2-4s4.5-2.4,4.9-3.7
					c0.4-1.3-1.1-2.4-2.4-2.1c-1.3,0.3-4.9,2.5-6.6,2.5C134.8,339,132.4,339.4,131.8,341z"/>
				<linearGradient id="SVGID_10_" gradientUnits="userSpaceOnUse" x1="136.5635" y1="278.2988" x2="128.1645" y2="343.6652">
					<stop  offset="0" style="stop-color:#6851F5"/>
					<stop  offset="1" style="stop-color:#00CFFF"/>
				</linearGradient>
				<path class="st22" d="M127.2,274.8c0,0,4,65.3,4.4,67.2c0.5,1.9,5.6,3,6.6,0c0.6-1.9,2.1-62.3,2.1-62.3L127.2,274.8z"/>
				<path class="st14" d="M144.9,344.9c-0.2,0.2-0.3,0.5-0.3,0.8c0,0.9,0,2.9,0.5,3.7c0.7,1,2.7,2.1,4.9,0.9c1.8-1,7.5-5.2,8.6-6.1
					c0.7-0.6,1-1.3,1.1-1.8c0.1-0.5-0.1-1-0.6-1.2c-0.8-0.4-2.2-0.8-3.4-0.4c-1.9,0.6-4.2,2.6-6.8,2.5
					C147.1,343.2,145.6,344.3,144.9,344.9z"/>
				<linearGradient id="SVGID_11_" gradientUnits="userSpaceOnUse" x1="132.2343" y1="309.9675" x2="153.6585" y2="309.9675">
					<stop  offset="0" style="stop-color:#6851F5"/>
					<stop  offset="1" style="stop-color:#00CFFF"/>
				</linearGradient>
				<path class="st23" d="M153.7,275.5c-0.3-2.7-3.5-3.6-6.5-2.7c-5.7-0.3-14.5-0.1-14.9,4.4c-0.5,6.6,2.6,11.2,5.6,14.4
					c2.2,2.4,3.7,6.9,4.3,9c0.5,17.3,1.7,41.7,2.4,44.1c1.2,3.8,6.8,3.6,7.1-0.1C152.8,332.3,153.7,275.5,153.7,275.5z"/>
				<path class="st14" d="M153.7,277.5c-0.7,3.4-10.2,5-15.8,4.1c-5.6-0.9-11.6-3.6-11.4-10.1c0,0,1.1-15.5,0.6-18.2
					c-0.4-2.8-1.5-7.6-1.5-12.7c0-5.1,3.2-8.9,3.2-8.9s3.1-3.6,13-1.6c0,0,8,1.7,11.7,7.7c0,0,2.5,6.5,1.7,20.1
					C154.3,271.5,153.7,277.5,153.7,277.5z"/>
				<path class="st24" d="M134.1,223c0,0,0.8,4.9,0,7.2c-0.1,1.1,4.8,4.9,9.2,4c2.5-0.6,2.4-1.8,2.4-1.8s-2.1-3.5-1.8-6.9
					C144.1,222,137.1,222.3,134.1,223z"/>
				<g>
					<path class="st21" d="M150.6,213c0,6.4-5.2,11.7-11.7,11.7c-6.4,0-11.7-5.2-11.7-11.7c0-6.4,5.2-11.7,11.7-11.7
						C145.4,201.4,150.6,206.6,150.6,213z"/>
					<path class="st21" d="M150.6,213.8c0,0,0.1,11.7-2.4,14c-2.5,2.4-6.5-2.2-12.7-3.7c-6.2-1.6,5.1-13.8,5.1-13.8L150.6,213.8z"/>
				</g>
				<path class="st21" d="M176.5,231.1c0,0-1.1-4.6-0.7-4.9c0.4-0.4,1.8,1.6,1.8,1.6s0.7-4.7,1.4-5.2c0.6-0.5,3.1,2,3.5,3.3
					c0.4,1.4-1.5,6.8-2.2,6.9C179.5,232.9,176.9,233.3,176.5,231.1z"/>
				<path class="st14" d="M150,236.5c0,0-5.2,2.5-3,8.9c2.2,6.4,18.7,8.9,20.7,6.9c2-2,10.6-12.1,13.1-19.7c0,0-1-3-4.9-1.7
					c0,0-9.4,11.8-10.8,13.1C163.6,245.1,152.5,236,150,236.5z"/>
				<path class="st25" d="M129,204.1c0,0,3.6-4.4,9.9-4.8c6.3-0.4,9.3,1.6,11.7,1.4c2.4-0.2,4.6,1.8,3.8,4.8c-0.8,3-2.6,6.1-6.7,6.1
					c-4,0-5-0.6-5-0.6s3.2,1.4,3.6,4.2c0.4,2.8,0.4,7.1,0.4,7.1h-1c0,0-0.8-4.6-2.4-4.6c-1.6,0-1.6,5-0.2,5.9
					c1.4,0.8,1.4,0.8,1.4,0.8s-2.7,5-4.2,5.2c-1.5,0.2-6.3-3.4-6.3-3.4s-8.1-3.8-8.9-10.1C124.4,209.8,129,204.1,129,204.1z"/>
			</g>
			<g>
				<g>
					<linearGradient id="SVGID_12_" gradientUnits="userSpaceOnUse" x1="8.4423" y1="312.7135" x2="74.4643" y2="312.7135">
						<stop  offset="0" style="stop-color:#5155D4"/>
						<stop  offset="1" style="stop-color:#45F7FF"/>
					</linearGradient>
					<ellipse class="st26" cx="41.5" cy="312.7" rx="33" ry="19.6"/>
					<g>
						<g>
							<path class="st27" d="M24.7,259.1c0,0,2.2,14,4.1,21.8c0,0,0.4,12.9,0.7,17.4c0.4,4.4,1.5,14,1.5,14s1.3,1.1,2.8,0.4
								c0,0,1.8-27.5,2.2-32c0.4-4.4,1.7-24.4,1.7-24.4S33.4,252.4,24.7,259.1z"/>
							<path class="st27" d="M38.6,253.5c0,0,2.2,14,4.1,21.8c0,0,0.4,12.9,0.7,17.4c0.4,4.4,1.5,14,1.5,14s1.3,1.1,2.8,0.4
								c0,0,1.8-27.5,2.2-32c0.4-4.4,0.6-24.2,0.6-24.2S47.3,246.9,38.6,253.5z"/>
							<path class="st14" d="M27.5,240.1c0,0-5.2,5.7-2.2,25.1c0.2,2.8,2,9.9,2,9.9s6.8,1.1,15-2c8.1-3.1,8.3-4.8,8.3-4.8
								s0.4-24.3-1.5-30.6C47.3,231.4,27.5,240.1,27.5,240.1z"/>
							<path class="st28" d="M47.7,305.8c0,0-0.2,1.4,1.3,2.5c1.5,1.1,4.3,3.1,4.7,4.3c0,0.9-3.5-0.1-5.1-0.9c-1.6-0.8-3-2.8-3-2.8
								l0.1,0.8c0,0-0.6,0-1-0.5c-0.5-0.5,0.1-3.3,0.1-3.3L47.7,305.8z"/>
							<path class="st28" d="M33.9,312.2c0,0-0.2,1.4,1.3,2.5c1.5,1.1,4.3,3.1,4.7,4.3c0,0.9-3.5-0.1-5.1-0.9c-1.6-0.8-3-2.8-3-2.8
								l0.1,0.8c0,0-0.6,0-1-0.5c-0.5-0.5,0.1-3.3,0.1-3.3L33.9,312.2z"/>
						</g>
						
							<linearGradient id="SVGID_13_" gradientUnits="userSpaceOnUse" x1="529.6948" y1="251.0778" x2="543.4938" y2="177.4838" gradientTransform="matrix(-1 0 0 1 597.413 0)">
							<stop  offset="0" style="stop-color:#7F5EFF"/>
							<stop  offset="0.2423" style="stop-color:#8665FF"/>
							<stop  offset="0.5952" style="stop-color:#9978FF"/>
							<stop  offset="0.94" style="stop-color:#B391FF"/>
						</linearGradient>
						<path class="st29" d="M47.4,203.4c0,0,4.8,0.8,7.9,11.2c1.9,6.9,4.6,7.5,7.7,8.1c3.1,0.6,16.2,0,17.2,0c1,0,2.3,2.3,0.8,3.9
							c-1.5,1.7-19.5,3.3-23.1,3.3c-3.5,0-11.6-6.6-15-12.1C39.7,212.5,43.1,202.9,47.4,203.4z"/>
						<path class="st14" d="M45.2,177.4c0,0,4.8,6.1,3.7,13c-1,6.9-7.1,6.5-8.1,10.3c-1,3.7,2.9,9.1-2.5,12.7
							c-5.4,3.5-7.9,2.7-9.4,10.2s-6.6,11.4-15.6,12.3c-8.9,0.8-15.2-10-12.9-17.9c2.3-7.9,10.2-5.4,11.8-11.8
							c1.7-6.4,1-11.5,6.6-14c5.6-2.5,3.5-11.9,9.1-14.9C33.8,174.2,41,172.6,45.2,177.4z"/>
						<g>
							
								<linearGradient id="SVGID_14_" gradientUnits="userSpaceOnUse" x1="551.0173" y1="242.7098" x2="578.9688" y2="187.1605" gradientTransform="matrix(-1 0 0 1 597.413 0)">
								<stop  offset="0" style="stop-color:#7F5EFF"/>
								<stop  offset="0.2423" style="stop-color:#8665FF"/>
								<stop  offset="0.5952" style="stop-color:#9978FF"/>
								<stop  offset="0.94" style="stop-color:#B391FF"/>
							</linearGradient>
							<path class="st30" d="M32.7,201.3c0,0-10.3,7.3-11.3,9.8c-1,2.4-2.5,10,0.9,13.8c5.8,6.5,2.3,17.5,3.1,20.8
								c0.8,3.3,8.6,3.7,14,2.6c5.4-1.1,10.5-3.8,10.3-10.2c-0.2-6.3,1.5-15.1,1.8-17.9c0.3-2.9,0-10-1.4-14.9
								c-0.3-1-3.7-2.1-3.7-2.1S42.8,200.8,32.7,201.3z"/>
							<path class="st24" d="M41.6,199.9c0,0,0,0.1,0,0.3c0.1,0.8,0.5,2.7,0.6,3.5c0.1,0.8-0.8,2.1-2.9,2.1c-2.1,0-5.6-0.9-6.8-3.4
								c0.1-0.4-0.1-5-0.3-7.3L41.6,199.9z"/>
							<path class="st21" d="M47.4,186c-1.1-6-5.8-9.3-11.2-8.1c0,0-5.8,0.6-8.4,5.7c-2.6,5.1,1.2,9.4,3.6,12.1c1,1.1,1.8,2,2.3,2.5
								c0.2,0.2,0.3,0.4,0.5,0.6c0,0,0.1,0.1,0.1,0.1l0,0c1.7,1.7,3.5,2.6,4.9,3c2.3,0.7,5.1,0.3,6.6-1.3
								C47.4,198.9,48.5,192,47.4,186z"/>
						</g>
						<path class="st14" d="M48.4,190.1c0,0-4.3,0.4-6.8-2.5c-2.5-2.9-6,0-8.9-2.5c0,0,1.2,3.1,0,6.2c-1.2,3.1-1.7,7.9-1.7,7.9
							l-5.4-8.5v-7.5l6.9-6.4l9.1-0.4l4.4,4.2C46,180.5,48.8,186.9,48.4,190.1z"/>
						
							<linearGradient id="SVGID_15_" gradientUnits="userSpaceOnUse" x1="547.8195" y1="232.8407" x2="573.0612" y2="232.8407" gradientTransform="matrix(-1 0 0 1 597.413 0)">
							<stop  offset="0" style="stop-color:#FF4F00"/>
							<stop  offset="1" style="stop-color:#FF3D9D"/>
						</linearGradient>
						<path class="st31" d="M24.6,226.4l12.9,4.1l12-3.4c-0.2,0.5-3.4,10.3-10.3,12c-5,1.3-10.8-3.1-13.7-5.7
							c-0.2-1.8-0.5-3.6-1.3-5.3L24.6,226.4z"/>
						<g>
							
								<linearGradient id="SVGID_16_" gradientUnits="userSpaceOnUse" x1="559.0145" y1="190.1944" x2="559.7221" y2="235.8369" gradientTransform="matrix(-1 0 0 1 597.413 0)">
								<stop  offset="0" style="stop-color:#7F5EFF"/>
								<stop  offset="0.2423" style="stop-color:#8665FF"/>
								<stop  offset="0.5952" style="stop-color:#9978FF"/>
								<stop  offset="0.94" style="stop-color:#B391FF"/>
							</linearGradient>
							<path class="st32" d="M25.2,214.2c0,0-6.9-1.7-3.9,7.7c2.9,9.4,12.7,16.2,16.2,15.8c3.5-0.4,17.9-15.6,17.9-17.5
								c0-1.9-1.7-3.1-3.3-2.7c-1.7,0.4-12.7,12.3-13.7,11.8C37.3,228.9,30.8,218.1,25.2,214.2z"/>
							<path class="st21" d="M53.4,220.9c0,0-1.9-0.6-1.4-2.6c0.6-2.1,4.3-3.7,4.9-3.8c0.6-0.1,6.2,1,6.4,1.7c0.2,0.7-1,1-2.4,0.7
								c-1.4-0.3-3.4-0.5-3.4-0.5s1.5,1.6,1.4,2.3c-0.1,0.7-0.9,2.1-2.1,2.6c-1.1,0.6-2.5-0.7-2.5-0.7L53.4,220.9z"/>
						</g>
						<path class="st21" d="M78.5,223c0,0,4.5-3.9,4.8-3.2c0.3,0.7-1.5,2.6-1.5,2.6s6.1-2.3,6.1-1.5c0.1,0.8-3.2,3.3-4.1,3.8
							c-0.9,0.6-4,1.4-4,1.4S78.2,223.9,78.5,223z"/>
					</g>
				</g>
				<g class="st33">
					<path class="st2" d="M58,188.6c-1.5,0.9-2.7,3-2.7,4.7l0.2,63.7c0,4.1,2.9,5.7,6.4,3.7l37.9-21.9c1.5-0.9,2.7-3,2.7-4.7
						l-0.2-63.7c0-4.1-2.9-5.7-6.4-3.7L58,188.6z"/>
				</g>
				<g>
					<g>
						<g>
							<path class="st15" d="M63.8,211.6c-0.4,0.3-0.8,0.9-0.8,1.4l0,3.4c0,0.5,0.4,0.7,0.8,0.5L94.8,199c0.4-0.3,0.8-0.9,0.8-1.4
								l0-3.4c0-0.5-0.4-0.7-0.8-0.5L63.8,211.6z"/>
						</g>
						<g>
							<path class="st15" d="M63.8,219c-0.4,0.3-0.8,0.9-0.8,1.4l0,3.4c0,0.5,0.4,0.7,0.8,0.5l30.9-17.9c0.4-0.3,0.8-0.9,0.8-1.4
								l0-3.4c0-0.5-0.4-0.7-0.8-0.5L63.8,219z"/>
						</g>
					</g>
					<path class="st15" d="M75.9,224.5c-1.1,0.6-1.9,2.1-1.9,3.3l0,0.8c0,1.2,0.9,1.7,1.9,1.1l10-5.8c1.1-0.6,1.9-2.1,1.9-3.3l0-0.8
						c0-1.2-0.9-1.7-1.9-1.1L75.9,224.5z"/>
				</g>
			</g>
		</g>
		<g>
			<g>
				<g>
					<polygon class="st34" points="64.6,55.9 64.6,66.4 67.4,64.8 67.4,66.5 63,69.1 62.9,56.9 					"/>
				</g>
				<g>
					<polygon class="st34" points="74.6,50.1 74.6,51.9 71.7,53.6 71.7,56.8 74,55.5 74,57.2 71.7,58.6 71.7,62.3 74.6,60.6 
						74.6,62.4 70,65 70,52.8 					"/>
				</g>
				<g>
					<polygon class="st34" points="82.1,45.8 82.1,47.6 80.3,48.6 80.4,59.1 78.7,60 78.7,49.5 76.9,50.5 76.9,48.8 					"/>
				</g>
				<g>
					<polygon class="st34" points="86.3,43.4 86.3,45 85.4,47.8 84.6,48.3 85.3,45.8 84.7,46.1 84.7,44.3 					"/>
				</g>
				<g>
					<path class="st34" d="M98,63.9c0,0.2,0.1,0.4,0.2,0.5l-1.7,1c-0.1-0.2-0.1-0.3-0.1-0.5c0-0.2,0-0.5,0-0.9l0-2.2
						c0-0.6-0.1-0.9-0.2-1c-0.2-0.1-0.4-0.1-0.8,0.1l-0.6,0.3l0,5.2l-1.7,1l0-12.2l2.5-1.4c0.9-0.5,1.5-0.6,1.9-0.4
						c0.4,0.2,0.6,0.8,0.6,1.8l0,0.7c0,1.3-0.4,2.3-1.1,3l0,0c0.4-0.1,0.7,0,0.9,0.4c0.2,0.3,0.3,0.9,0.3,1.6l0,2.1
						C98,63.4,98,63.7,98,63.9z M96.3,57.2l0-0.9c0-0.4-0.1-0.7-0.2-0.8c-0.1-0.1-0.4-0.1-0.6,0.1l-0.8,0.4l0,3.5l0.6-0.4
						c0.3-0.2,0.6-0.4,0.8-0.7C96.2,58.1,96.3,57.7,96.3,57.2"/>
				</g>
				<g>
					<path class="st34" d="M91.6,40.1c0.8-0.5,1.4-0.6,1.8-0.3c0.4,0.3,0.6,0.9,0.6,1.9l0,0.5l-1.6,0.9l0-0.6c0-0.4-0.1-0.7-0.2-0.8
						c-0.1-0.1-0.4-0.1-0.6,0.1c-0.6,0.3-0.8,0.9-0.8,1.7c0,0.4,0.1,0.8,0.3,1.1c0.2,0.3,0.6,0.5,1.1,0.7c0.7,0.3,1.2,0.7,1.4,1.1
						c0.3,0.4,0.4,1,0.4,1.8c0,1-0.2,1.9-0.6,2.7c-0.4,0.8-1.1,1.4-1.9,1.9c-0.8,0.5-1.4,0.6-1.8,0.3c-0.4-0.3-0.6-0.9-0.6-1.9
						l0-0.7l1.6-0.9l0,0.8c0,0.8,0.3,1,0.9,0.7c0.3-0.2,0.5-0.4,0.6-0.7c0.1-0.3,0.2-0.6,0.2-1.1c0-0.5-0.1-0.9-0.3-1.2
						c-0.2-0.3-0.6-0.5-1.1-0.8c-0.7-0.3-1.2-0.6-1.4-1.1c-0.3-0.4-0.4-1-0.4-1.7c0-1,0.2-1.8,0.6-2.6
						C90.2,41.2,90.8,40.6,91.6,40.1z"/>
				</g>
				<g>
					<path class="st34" d="M103.5,33.2c0.8-0.5,1.4-0.6,1.9-0.3c0.4,0.3,0.6,0.9,0.6,1.9l0,1l-1.6,0.9l0-1.2c0-0.8-0.3-1-0.9-0.7
						c-0.6,0.3-0.9,0.9-0.9,1.7l0,6.7c0,0.8,0.3,1,0.9,0.7c0.6-0.3,0.9-0.9,0.9-1.7l0-2.4l-0.8,0.5l0-1.7l2.4-1.4l0,4
						c0,1-0.2,1.9-0.6,2.7c-0.4,0.8-1,1.4-1.9,1.9c-0.8,0.5-1.4,0.6-1.9,0.3c-0.4-0.3-0.6-0.9-0.6-1.9l0-6.4c0-1,0.2-1.9,0.6-2.7
						C102.1,34.3,102.7,33.7,103.5,33.2z"/>
				</g>
				<g>
					<polygon class="st34" points="113.5,27.7 113.5,29.4 110.6,31.1 110.6,34.3 112.9,33 112.9,34.7 110.6,36.1 110.6,39.8 
						113.5,38.2 113.5,39.9 109,42.5 108.9,30.3 					"/>
				</g>
				<g>
					<polygon class="st34" points="121,23.3 121,25.1 119.3,26.1 119.3,36.6 117.6,37.5 117.6,27.1 115.8,28.1 115.8,26.3 					"/>
				</g>
				<g>
					<path class="st34" d="M72.5,66.8c0.8-0.5,1.4-0.6,1.8-0.3c0.4,0.3,0.6,0.9,0.6,1.9l0,0.5l-1.6,0.9l0-0.6c0-0.4-0.1-0.7-0.2-0.8
						c-0.1-0.1-0.4-0.1-0.6,0.1c-0.6,0.3-0.8,0.9-0.8,1.6c0,0.4,0.1,0.8,0.3,1.1c0.2,0.3,0.6,0.5,1.1,0.7c0.7,0.3,1.2,0.7,1.5,1.1
						c0.3,0.4,0.4,1,0.4,1.8c0,1-0.2,1.9-0.6,2.7c-0.4,0.8-1.1,1.4-1.9,1.9c-0.8,0.5-1.4,0.6-1.8,0.3c-0.4-0.3-0.6-0.9-0.6-1.9
						l0-0.7l1.6-0.9l0,0.8c0,0.8,0.3,1,0.9,0.7c0.3-0.2,0.5-0.4,0.6-0.7c0.1-0.3,0.2-0.6,0.2-1.1c0-0.5-0.1-0.9-0.3-1.2
						c-0.2-0.3-0.6-0.5-1.1-0.8c-0.7-0.3-1.2-0.7-1.4-1.1c-0.3-0.4-0.4-1-0.4-1.7c0-1,0.2-1.8,0.6-2.6C71,67.9,71.6,67.3,72.5,66.8z
						"/>
				</g>
				<g>
					<polygon class="st34" points="82.4,61.3 82.4,63 80.7,64 80.7,74.5 79.1,75.5 79,65 77.3,66 77.3,64.2 					"/>
				</g>
				<g>
					<path class="st34" d="M88.6,57.7l1.8,11.2l-1.7,1l-0.3-2.3l0,0l-1.9,1.1l-0.3,2.6l-1.6,0.9L86.4,59L88.6,57.7z M86.7,67
						l1.5-0.9l-0.8-5.6l0,0L86.7,67"/>
				</g>
				<g>
					<polygon class="st34" points="105.7,47.8 105.7,49.6 103.9,50.6 104,61.1 102.3,62 102.3,51.5 100.5,52.6 100.5,50.8 					"/>
				</g>
				<g>
					<polygon class="st34" points="112.9,43.7 112.9,45.4 110,47.1 110,50.3 112.3,49 112.3,50.7 110,52.1 110,55.8 112.9,54.2 
						112.9,55.9 108.4,58.5 108.3,46.3 					"/>
				</g>
				<g>
					<path class="st34" d="M120.1,40.3c0.4,0.3,0.6,0.9,0.6,1.9l0,6.2c0,1-0.2,1.9-0.6,2.6c-0.4,0.8-1,1.4-1.9,1.9l-2.6,1.5l0-12.2
						l2.6-1.5C119.1,40.1,119.7,40,120.1,40.3z M119.1,49.4l0-6.4c0-0.4-0.1-0.7-0.2-0.8c-0.1-0.1-0.4-0.1-0.6,0.1l-0.8,0.5l0,8.7
						l0.8-0.5c0.3-0.2,0.5-0.4,0.6-0.6C119,50.2,119.1,49.8,119.1,49.4"/>
				</g>
			</g>
		</g>
	</g>
</g>
<g id="DESIGNED_BY_FREEPIK">
</g>
</svg>
