<?xml version="1.0" encoding="utf-8"?>
<!-- Generator: Adobe Illustrator 24.0.1, SVG Export Plug-In . SVG Version: 6.00 Build 0)  -->
<svg version="1.1" id="Laag_1" xmlns="http://www.w3.org/2000/svg" xmlns:xlink="http://www.w3.org/1999/xlink" x="0px" y="0px"
	 viewBox="0 0 128 22.7" style="enable-background:new 0 0 128 22.7;" xml:space="preserve">
<style type="text/css">
	.st0{enable-background:new    ;}
	.st1{fill:#ED8074;}
	.st2{display:none;fill:#ED8074;}
</style>
<g class="st0">
	<path class="st1" d="M6.2,17.3H4.5V6.9H0.1V5.1h10.4v1.8H6.2C6.2,6.9,6.2,17.3,6.2,17.3z"/>
</g>
<g class="st0">
	<path class="st1" d="M12.3,8.9H14v8.5h-1.7V8.9L12.3,8.9z"/>
</g>
<g class="st0">
	<path class="st1" d="M23.7,17.3c-0.6,0.2-1.2,0.3-1.9,0.3c-0.9,0-1.7-0.2-2.5-0.6s-1.4-0.9-1.8-1.6c-0.5-0.7-0.7-1.5-0.7-2.4
		s0.2-1.7,0.7-2.4s1.1-1.2,1.9-1.6c0.8-0.4,1.6-0.5,2.5-0.5c0.6,0,1.2,0.1,1.8,0.3c0.6,0.2,1.1,0.5,1.6,0.8l-1.1,1.3
		c-0.3-0.2-0.7-0.4-1.1-0.5s-0.8-0.2-1.2-0.2c-0.6,0-1.1,0.1-1.6,0.3s-0.9,0.5-1.2,0.9c-0.3,0.4-0.5,0.9-0.5,1.6s0.2,1.1,0.5,1.6
		c0.3,0.4,0.7,0.7,1.2,0.9s1,0.3,1.6,0.3c0.5,0,0.9-0.1,1.3-0.2s0.8-0.4,1.1-0.7l1,1.4C24.8,16.8,24.3,17.1,23.7,17.3z"/>
	<path class="st1" d="M28.2,17.3V8.9H30v5.4l3.9-5.4h2.2l-2.8,3.8l1.2,2.1c0.2,0.3,0.5,0.5,0.7,0.6s0.5,0.1,0.7,0.1h0.6v1.8h-0.7
		c-0.3,0-0.6,0-0.9-0.1s-0.5-0.2-0.7-0.4s-0.5-0.5-0.9-0.9L32.1,14L30,17.3H28.2L28.2,17.3z"/>
	<path class="st1" d="M46.6,15.6v1.7h-7V8.9h6.7v1.7h-5v2.1c0.3-0.2,0.7-0.3,1.1-0.4s0.9-0.1,1.5-0.1h1.2v1.7h-1.2
		c-0.8,0-1.3,0-1.6,0.1s-0.7,0.2-1,0.4v1.3L46.6,15.6L46.6,15.6z"/>
	<path class="st1" d="M52.2,17.3l-3.7-8.5h1.9l2.9,6.8l2.9-6.8h1.9l-3.7,8.5H52.2z"/>
</g>
<g class="st0">
	<path class="st1" d="M67.7,15.6v1.7h-7V8.9h6.7v1.7h-5v2.1c0.3-0.2,0.7-0.3,1.1-0.4s0.9-0.1,1.5-0.1h1.2v1.7H65
		c-0.8,0-1.3,0-1.6,0.1s-0.7,0.2-1,0.4v1.3L67.7,15.6L67.7,15.6z"/>
</g>
<g class="st0">
	<path class="st1" d="M77.2,14.8V8.9h1.7v8.5h-1.7l-4.7-5.5v5.5h-1.7v-7.2L70,8.9h2.1L77.2,14.8z"/>
</g>
<g class="st0">
	<path class="st1" d="M85.8,17.3h-1.7v-6.8H81V8.9h7.9v1.7h-3.2C85.8,10.5,85.8,17.3,85.8,17.3z"/>
	<path class="st1" d="M94.4,10.2c-0.4,0-0.8,0.1-1.2,0.3s-0.5,0.4-0.5,0.6c0,0.2,0.1,0.3,0.1,0.5c0.1,0.1,0.3,0.2,0.5,0.3
		C93.6,12,94,12,94.5,12c1.1,0,2,0.1,2.6,0.3s1,0.5,1.2,0.9s0.3,0.8,0.3,1.3c0,1-0.4,1.7-1.2,2.2c-0.8,0.5-1.8,0.8-3.1,0.8
		c-0.7,0-1.4-0.2-2.1-0.5s-1.3-0.8-1.7-1.3l1.2-1.2c0.1,0.1,0.2,0.2,0.4,0.5s0.6,0.5,0.9,0.7c0.4,0.2,0.8,0.2,1.3,0.2
		c0.8,0,1.4-0.1,1.9-0.4c0.5-0.2,0.7-0.6,0.7-1s-0.2-0.6-0.6-0.7c-0.4-0.1-1.1-0.2-2-0.2c-1.1,0-1.9-0.2-2.6-0.6
		c-0.6-0.4-0.9-1-0.9-1.9c0-0.5,0.2-0.9,0.5-1.3c0.3-0.4,0.7-0.7,1.3-0.9s1.1-0.3,1.8-0.3c0.7,0,1.3,0.1,1.9,0.2
		C96.9,9,97.5,9.2,98,9.6L96.9,11C96.3,10.5,95.5,10.2,94.4,10.2z"/>
</g>
<g>
	<g>
		<path class="st1" d="M110,22.7c-0.1,0-0.3,0-0.4,0c0,0-0.1,0-0.1-0.1c-0.2-0.1-0.3-0.2-0.4-0.3c-0.8-0.8-1.5-1.5-2.3-2.3l0,0
			c-0.2-0.2-0.2-0.5-0.1-0.7s0.2-0.4,0.1-0.7c-0.1-0.3-0.2-0.6-0.5-0.8c-0.2-0.1-0.3-0.1-0.6-0.1c-0.2,0-0.4,0.1-0.5,0.2
			c-0.2,0.1-0.5,0.1-0.6-0.1c-0.3-0.3-0.6-0.6-0.9-0.9c-0.5-0.5-1-1-1.4-1.4c-0.2-0.2-0.3-0.4-0.3-0.6c0,0,0,0,0-0.1l0,0v-0.1l0,0
			c0,0,0,0,0-0.1c0-0.3,0.2-0.5,0.3-0.6c4.4-4.4,8.7-8.7,13.1-13.1c0.1,0,0.1-0.1,0.2-0.1c0.2-0.2,0.4-0.2,0.7-0.2
			c0.3,0,0.5,0.1,0.7,0.3s0.4,0.4,0.6,0.6c0.1,0.1,0.2,0.2,0.3,0.4l0.1-0.1c0.5-0.5,0.9-0.9,1.4-1.4c0.1-0.1,0.3-0.2,0.4-0.3
			c0.1,0,0.2,0,0.3-0.1c0.1,0,0.1,0,0.2,0l0,0c0.2,0,0.4,0.1,0.6,0.3c0.8,0.8,1.6,1.6,2.4,2.4l0,0c0.1,0.1,0.2,0.3,0.1,0.5
			c0,0.1-0.1,0.2-0.1,0.3c-0.1,0.2-0.1,0.4-0.1,0.6c0,0.3,0.2,0.5,0.4,0.7c0.3,0.2,0.8,0.3,1.1,0c0.2-0.1,0.5-0.1,0.7,0
			c0.3,0.3,0.7,0.6,1,1c0.5,0.5,0.9,0.9,1.4,1.4c0.1,0.1,0.2,0.3,0.3,0.5c0,0,0,0,0,0.1c0,0.2,0,0.3,0,0.5l0,0
			c-0.1,0.2-0.2,0.4-0.3,0.5c-4.4,4.4-8.7,8.7-13.1,13.1l-0.1,0.1c-0.4,0.3-1.1,0.3-1.4-0.1c-0.3-0.3-0.6-0.6-0.8-0.8
			c0,0,0,0-0.1-0.1c-0.1,0.1-0.2,0.2-0.3,0.3c-0.4,0.4-0.8,0.8-1.2,1.2c-0.1,0.1-0.2,0.1-0.3,0.2C110.2,22.7,110.1,22.7,110,22.7z
			 M109.9,21.6L109.9,21.6c0.6-0.6,1-1,1.5-1.5c0.1-0.1,0.2-0.2,0.2-0.3c0,0,0-0.1,0.1-0.1c0.1-0.1,0.2-0.1,0.3-0.2
			c0.3-0.3,0.6-0.6,0.9-0.9c1.9-1.9,3.8-3.8,5.7-5.7c0.6-0.6,1.2-1.2,1.8-1.8c0.5-0.5,1.1-1.1,1.6-1.6c0.3-0.3,0.7-0.7,1-1
			c0.1,0,0.1-0.1,0-0.1c0,0,0,0-0.1,0c-0.7-0.7-1.3-1.3-1.9-1.9c0,0-0.1-0.1-0.1,0c-0.1,0-0.1,0-0.2,0c-0.3,0.1-0.6,0.1-0.9,0
			c-0.5-0.1-0.9-0.3-1.2-0.7c-0.3-0.3-0.4-0.7-0.4-1.1c0-0.3,0-0.6,0.1-0.9V3.7c-0.2-0.2-0.4-0.4-0.6-0.6c0,0-0.1,0-0.1-0.1
			c-0.1-0.1-0.2-0.2-0.3-0.3c0,0,0-0.1-0.1-0.1c-0.3-0.3-0.7-0.7-1-1c-0.1,0-0.1-0.1-0.1,0c-0.2,0.2-0.3,0.3-0.5,0.5
			c-0.5,0.5-0.9,1-1.4,1.4c-0.1,0-0.1,0.1,0,0.1c0,0,0.1,0.1,0.1,0.2c0,0.1,0,0.2,0,0.3s0,0.1-0.1,0.2s-0.2,0.2-0.3,0.2h-0.1
			c-0.1,0-0.2-0.1-0.3-0.1c-0.1,0-0.1,0-0.1,0c-3.4,3.4-6.8,6.8-10.2,10.2c-0.1,0.1-0.1,0.1,0,0.1c0.7,0.7,1.4,1.3,2,2l0,0
			c0.4-0.1,0.8-0.2,1.2-0.1c0.3,0.1,0.6,0.2,0.9,0.4c0.3,0.3,0.6,0.7,0.6,1.2c0,0.3,0,0.6-0.1,0.9c0,0.1,0,0.1,0.1,0.2
			c0.7,0.7,1.3,1.3,2,2C109.8,21.6,109.8,21.6,109.9,21.6z M113.7,21.1c4.4-4.4,8.8-8.8,13.1-13.1l0,0c-0.7-0.7-1.4-1.4-2.1-2l0,0
			h-0.1c-0.3,0.1-0.7,0.1-1,0.1c-0.5-0.1-0.9-0.3-1.2-0.7c-0.3-0.3-0.4-0.7-0.4-1.2c0-0.3,0-0.5,0.1-0.8V3.3
			c-0.3-0.3-0.6-0.6-0.9-0.9c-0.4-0.4-0.8-0.8-1.1-1.1c0,0,0,0-0.1-0.1c-0.5,0.5-0.9,1-1.4,1.4l0,0c0.2,0.2,0.4,0.4,0.6,0.6l0.1,0.1
			c0.1,0.2,0.1,0.4,0,0.6s-0.2,0.4-0.1,0.7c0,0.2,0.1,0.4,0.3,0.6c0.3,0.4,0.9,0.5,1.3,0.2c0.2-0.1,0.5-0.1,0.7,0.1
			c0.3,0.3,0.6,0.6,0.9,0.9c0.5,0.5,1,1,1.4,1.4c0.1,0.1,0.2,0.3,0.3,0.5c0.1,0.3,0.1,0.7-0.2,1c-0.2,0.2-0.4,0.4-0.6,0.6
			c-0.1,0.1-0.2,0.2-0.4,0.4c0.1,0.1,0.1,0.1,0.2,0.1c0.1,0.1,0.2,0.3,0.2,0.4c0,0.4-0.4,0.7-0.7,0.5c-0.1,0-0.1-0.1-0.2-0.1
			c-0.1-0.1-0.1-0.2-0.2-0.2s-0.1,0.1-0.2,0.2c-3,3-6,6-9,9l-0.1,0.1C113.2,20.5,113.5,20.8,113.7,21.1z"/>
		<path class="st2" d="M120,0c-0.1,0-0.2,0-0.3,0.1c-0.2,0-0.3,0.1-0.4,0.3c-0.5,0.5-0.9,0.9-1.4,1.4c0,0,0,0-0.1,0.1
			c-0.1-0.1-0.2-0.3-0.3-0.4c-0.2-0.2-0.4-0.4-0.6-0.6s-0.4-0.3-0.7-0.3c-0.3,0-0.5,0-0.7,0.2c-0.1,0-0.1,0.1-0.2,0.1
			c-4.4,4.4-8.8,8.7-13.1,13.1c-0.2,0.2-0.3,0.4-0.3,0.6c0,0,0,0,0,0.1c0-4.9,0-9.8,0-14.7C107.9,0,113.9,0,120,0z"/>
		<path class="st2" d="M110,22.7c0.1,0,0.2,0,0.3-0.1c0.1-0.1,0.2-0.1,0.3-0.2c0.4-0.4,0.8-0.8,1.2-1.2c0.1-0.1,0.2-0.2,0.3-0.3
			l0.1,0.1c0.3,0.3,0.6,0.6,0.8,0.8c0.4,0.4,1,0.4,1.4,0.1l0.1-0.1c4.4-4.4,8.7-8.7,13.1-13.1c0.2-0.2,0.3-0.3,0.3-0.5l0,0
			c0,4.8,0,9.7,0,14.6C122,22.7,116,22.7,110,22.7z"/>
		<path class="st2" d="M101.9,14.9L101.9,14.9c0,0.3,0.2,0.5,0.3,0.6c0.5,0.5,1,1,1.4,1.4c0.3,0.3,0.6,0.6,0.9,0.9
			c0.2,0.2,0.4,0.2,0.6,0.1s0.3-0.2,0.5-0.2s0.4,0,0.6,0.1c0.3,0.2,0.5,0.4,0.5,0.8c0,0.2,0,0.4-0.1,0.7c-0.1,0.2-0.1,0.5,0.1,0.7
			l0,0c0.8,0.8,1.5,1.5,2.3,2.3c0.1,0.1,0.3,0.2,0.4,0.3c0,0,0.1,0,0.1,0.1c-2.6,0-5.2,0-7.7,0C101.9,20.1,101.9,17.5,101.9,14.9z"
			/>
		<path class="st2" d="M128,7.7L128,7.7c-0.1-0.2-0.2-0.4-0.3-0.5c-0.5-0.5-0.9-0.9-1.4-1.4c-0.3-0.3-0.7-0.6-1-1
			c-0.2-0.2-0.5-0.2-0.7,0c-0.3,0.2-0.8,0.2-1.1,0c-0.2-0.2-0.4-0.4-0.4-0.7c0-0.2,0-0.4,0.1-0.6c0.1-0.1,0.1-0.2,0.1-0.3
			c0-0.2,0-0.3-0.1-0.5l0,0c-0.8-0.8-1.6-1.6-2.4-2.4c-0.2-0.2-0.4-0.2-0.6-0.3l0,0c2.6,0,5.2,0,7.8,0C128,2.5,128,5.1,128,7.7z"/>
		<path class="st2" d="M101.9,14.7v0.1C101.9,14.8,101.9,14.8,101.9,14.7z"/>
		<path class="st2" d="M109.9,21.6C109.8,21.6,109.8,21.6,109.9,21.6c-0.7-0.7-1.4-1.4-2-2.1c-0.1-0.1-0.1-0.1-0.1-0.2
			c0.1-0.3,0.1-0.6,0.1-0.9c-0.1-0.5-0.3-0.9-0.6-1.2c-0.3-0.2-0.6-0.4-0.9-0.4c-0.4-0.1-0.8,0-1.2,0.1l0,0c-0.7-0.7-1.4-1.3-2-2
			c-0.1-0.1-0.1-0.1,0-0.1c3.4-3.4,6.8-6.8,10.2-10.2h0.1c0.1,0,0.2,0.1,0.3,0.1h0.1c0.1-0.1,0.2-0.1,0.3-0.2c0.1,0,0.1-0.1,0.1-0.2
			s0-0.2,0-0.3c0,0,0-0.1-0.1-0.2c-0.1-0.1,0-0.1,0-0.1c0.5-0.5,0.9-1,1.4-1.4c0.2-0.2,0.3-0.3,0.5-0.5c0.1-0.1,0.1,0,0.1,0
			c0.3,0.3,0.7,0.7,1,1c0,0,0,0.1,0.1,0.1c0.1,0.1,0.2,0.3,0.3,0.3c0,0,0.1,0,0.1,0.1c0.2,0.2,0.4,0.4,0.6,0.6V4
			c-0.1,0.3-0.1,0.6-0.1,0.9c0,0.4,0.2,0.8,0.4,1.1c0.3,0.4,0.7,0.6,1.2,0.7c0.3,0,0.6,0,0.9,0c0.1,0,0.1,0,0.2,0s0.1,0,0.1,0
			c0.7,0.7,1.3,1.3,1.9,1.9c0,0,0,0,0.1,0s0.1,0.1,0,0.1c-0.3,0.3-0.7,0.7-1,1c-0.5,0.5-1.1,1.1-1.6,1.6c-0.6,0.6-1.2,1.2-1.8,1.8
			c-1.9,1.9-3.8,3.8-5.7,5.7c-0.3,0.3-0.6,0.6-0.9,0.9c-0.1,0.1-0.2,0.1-0.3,0.2l-0.1,0.1c0,0.1-0.1,0.2-0.2,0.3
			C110.9,20.8,110.5,21.2,109.9,21.6C109.9,21.6,109.9,21.6,109.9,21.6z M120.5,10.3c0-0.1,0-0.1,0-0.1c0-0.1-0.1-0.2-0.1-0.3
			c-0.1-0.1-0.2-0.2-0.3-0.3c0,0-0.1,0-0.1-0.1c-0.1,0-0.2-0.1-0.4-0.1h-0.1c-0.1,0.1-0.2,0.1-0.3,0.2c-0.1,0-0.1,0.1-0.1,0.2
			c0,0.1,0,0.2,0,0.3s0,0.1,0.1,0.2c0.1,0.1,0.1,0.1,0.1,0.2c0.2,0.2,0.3,0.3,0.5,0.4c0.2,0.1,0.3,0.1,0.5-0.1l0,0
			C120.5,10.7,120.6,10.6,120.5,10.3z M116,6.9L116,6.9c0,0.1,0,0.1,0,0.2c0.2,0.2,0.3,0.3,0.5,0.5l0,0c0.1,0,0.3,0.1,0.4,0.1h0.1
			c0.1-0.1,0.2-0.2,0.3-0.2c0.1,0,0.1-0.1,0.1-0.2s0-0.1,0-0.2s0-0.2,0-0.2c-0.1-0.2-0.3-0.3-0.5-0.5c0,0,0,0-0.1,0
			s-0.3-0.1-0.4-0.1h-0.1c-0.1,0.1-0.2,0.1-0.3,0.2c0,0,0,0,0,0.1C116,6.7,116,6.8,116,6.9z M119,8.7c0-0.2-0.1-0.3-0.2-0.4
			c-0.1,0-0.1-0.1-0.1-0.1c-0.1-0.1-0.3-0.2-0.4-0.3c-0.1,0-0.1,0-0.2-0.1H118c-0.1,0.1-0.2,0.1-0.3,0.2l-0.1,0.1c0,0.1,0,0.3,0,0.4
			v0.1c0.2,0.2,0.3,0.3,0.5,0.5c0,0,0,0,0.1,0s0.3,0.1,0.4,0.1h0.1c0.1-0.1,0.2-0.1,0.3-0.2c0,0,0-0.1,0.1-0.1
			C119,8.9,119,8.8,119,8.7z M114.4,5.3c0,0.2,0.1,0.3,0.2,0.4l0.1,0.1c0.1,0.2,0.3,0.3,0.5,0.3c0.1,0,0.1,0,0.1,0h0.1
			c0.1-0.1,0.2-0.1,0.3-0.2l0.1-0.1c0-0.1,0-0.3,0-0.4V5.3c-0.2-0.3-0.4-0.5-0.8-0.6c-0.1,0-0.1,0-0.2,0h-0.1
			c-0.1,0.1-0.2,0.2-0.3,0.2c0,0,0,0,0,0.1C114.4,5.1,114.4,5.2,114.4,5.3z"/>
		<path class="st2" d="M113.7,21.1c-0.3-0.3-0.6-0.6-0.9-0.9l0.1-0.1c3-3,6-6,9-9c0.1-0.1,0.1-0.2,0.2-0.2s0.1,0.1,0.2,0.2
			s0.1,0.1,0.2,0.1c0.3,0.1,0.7-0.2,0.7-0.5c0-0.2-0.1-0.3-0.2-0.4c0-0.1-0.1-0.1-0.2-0.1c0.1-0.1,0.3-0.2,0.4-0.4
			c0.2-0.2,0.4-0.4,0.6-0.6c0.2-0.3,0.3-0.6,0.2-1c-0.1-0.2-0.1-0.3-0.3-0.5c-0.5-0.5-1-1-1.4-1.4c-0.3-0.3-0.6-0.6-0.9-0.9
			c-0.2-0.2-0.4-0.2-0.7-0.1c-0.4,0.3-1,0.2-1.3-0.2c-0.2-0.2-0.2-0.4-0.3-0.6c0-0.2,0-0.5,0.1-0.7s0.1-0.4,0-0.6c0,0,0-0.1-0.1-0.1
			c-0.2-0.2-0.4-0.4-0.6-0.6l0,0c0.5-0.5,0.9-1,1.4-1.4c0,0,0.1,0,0.1,0.1c0.4,0.4,0.8,0.8,1.1,1.1c0.3,0.3,0.6,0.6,0.9,0.9v0.1
			c-0.1,0.3-0.1,0.5-0.1,0.8c0,0.4,0.2,0.8,0.4,1.2c0.3,0.4,0.7,0.6,1.2,0.7c0.3,0,0.7,0,1-0.1h0.1l0,0c0.7,0.7,1.4,1.4,2.1,2l0,0
			C122.5,12.3,118.1,16.7,113.7,21.1z"/>
		<path class="st1" d="M120.5,10.3c0.1,0.2-0.1,0.3-0.2,0.4l0,0c-0.1,0.2-0.3,0.1-0.5,0.1c-0.2-0.1-0.4-0.2-0.5-0.4
			c-0.1-0.1-0.1-0.1-0.1-0.2c-0.1-0.1-0.1-0.1-0.1-0.2c0-0.1,0-0.2,0-0.3s0-0.1,0.1-0.2c0.1-0.1,0.2-0.1,0.3-0.2h0.1
			c0.1,0,0.2,0.1,0.4,0.1c0,0,0.1,0,0.1,0.1c0.1,0.1,0.2,0.2,0.3,0.3c0.1,0.1,0.2,0.2,0.1,0.3C120.5,10.3,120.5,10.3,120.5,10.3z"/>
		<path class="st1" d="M116,6.9c0-0.1,0-0.2,0-0.3c0,0,0,0,0-0.1c0.1-0.1,0.2-0.2,0.3-0.2h0.1c0.1,0,0.3,0.1,0.4,0.1c0,0,0,0,0.1,0
			c0.2,0.2,0.3,0.3,0.5,0.5c0,0,0,0.1,0,0.2s0,0.1,0,0.2s0,0.1-0.1,0.2s-0.2,0.2-0.3,0.2h-0.1c-0.1,0-0.3-0.1-0.4-0.1l0,0
			c-0.2-0.2-0.3-0.3-0.5-0.5C116,7,116,7,116,6.9L116,6.9z"/>
		<path class="st1" d="M119,8.7c0,0.1,0,0.2,0,0.3c0,0,0,0.1-0.1,0.1c-0.1,0.1-0.2,0.2-0.3,0.2h-0.1c-0.1,0-0.3-0.1-0.4-0.1
			c0,0,0,0-0.1,0c-0.2-0.2-0.3-0.3-0.5-0.5V8.6c0-0.1,0-0.3,0-0.4c0,0,0-0.1,0.1-0.1c0.1-0.1,0.2-0.2,0.3-0.2h0.1
			c0.1,0,0.1,0,0.2,0.1c0.2,0,0.3,0.1,0.4,0.3l0.1,0.1C118.9,8.4,119,8.5,119,8.7z"/>
		<path class="st1" d="M114.4,5.3c0-0.1,0-0.2,0-0.3c0,0,0,0,0-0.1c0.1-0.1,0.2-0.2,0.3-0.2h0.1c0.1,0,0.1,0,0.2,0
			c0.4,0.1,0.6,0.4,0.8,0.6c0,0,0,0,0,0.1s0,0.3,0,0.4c0,0,0,0.1-0.1,0.1c-0.1,0.1-0.2,0.1-0.3,0.2h-0.1c-0.1,0-0.1,0-0.1,0
			c-0.2,0-0.3-0.1-0.5-0.3l-0.1-0.1C114.5,5.6,114.4,5.5,114.4,5.3z"/>
	</g>
	<g class="st0">
		<path class="st1" d="M112.4,15.5l-0.6,0.6l-3-3l-1.4,1.5l-0.5-0.5l3.5-3.5l0.5,0.5l-1.4,1.4L112.4,15.5z"/>
		<path class="st1" d="M117.2,9.7l0.5,0.5l-3.1,3.1l-3.5-3.5L114,7l0.5,0.5l-2.3,2.3l1.1,1c0.1-0.2,0.1-0.3,0.2-0.5
			c0.1-0.1,0.2-0.3,0.4-0.4l0.9-0.9l0.5,0.5l-0.9,0.9c-0.1,0.1-0.3,0.3-0.4,0.4s-0.2,0.3-0.2,0.5l0.9,0.9L117.2,9.7z"/>
	</g>
</g>
</svg>
