<?xml version="1.0" encoding="utf-8"?>
<!-- Generator: Adobe Illustrator 24.0.1, SVG Export Plug-In . SVG Version: 6.00 Build 0)  -->
<svg version="1.1" id="Laag_1" xmlns="http://www.w3.org/2000/svg" xmlns:xlink="http://www.w3.org/1999/xlink" x="0px" y="0px"
	 viewBox="0 0 128 22.7" style="enable-background:new 0 0 128 22.7;" xml:space="preserve">
<g>
	<polygon points="0.1,6.9 4.5,6.9 4.5,17.3 6.2,17.3 6.2,6.9 10.5,6.9 10.5,5.1 0.1,5.1 	"/>
	<rect x="12.3" y="8.9" width="1.7" height="8.5"/>
	<path d="M20.3,10.5c0.5-0.2,1-0.3,1.6-0.3c0.4,0,0.8,0.1,1.2,0.2c0.4,0.1,0.8,0.3,1.1,0.5l1.1-1.3c-0.5-0.3-1-0.6-1.6-0.8
		c-0.6-0.2-1.2-0.3-1.8-0.3c-0.9,0-1.7,0.1-2.5,0.5c-0.8,0.4-1.4,0.9-1.9,1.6c-0.5,0.7-0.7,1.5-0.7,2.4c0,0.9,0.2,1.7,0.7,2.4
		c0.4,0.7,1,1.2,1.8,1.6c0.8,0.4,1.6,0.6,2.5,0.6c0.7,0,1.3-0.1,1.9-0.3c0.6-0.2,1.1-0.5,1.6-1l-1-1.4c-0.3,0.3-0.7,0.6-1.1,0.7
		c-0.4,0.1-0.8,0.2-1.3,0.2c-0.6,0-1.1-0.1-1.6-0.3s-0.9-0.5-1.2-0.9c-0.3-0.5-0.5-0.9-0.5-1.6s0.2-1.2,0.5-1.6
		C19.4,11,19.8,10.7,20.3,10.5z"/>
	<path d="M35.2,15.4c-0.2-0.1-0.5-0.3-0.7-0.6l-1.2-2.1l2.8-3.8h-2.2L30,14.3V8.9h-1.8v8.4H30l2.1-3.3l1.2,1.9
		c0.4,0.4,0.7,0.7,0.9,0.9c0.2,0.2,0.4,0.3,0.7,0.4c0.3,0.1,0.6,0.1,0.9,0.1h0.7v-1.8h-0.6C35.7,15.5,35.4,15.5,35.2,15.4z"/>
	<path d="M41.3,14.4c0.3-0.2,0.7-0.3,1-0.4c0.3-0.1,0.8-0.1,1.6-0.1h1.2v-1.7h-1.2c-0.6,0-1.1,0-1.5,0.1c-0.4,0.1-0.8,0.2-1.1,0.4
		v-2.1h5V8.9h-6.7v8.4h7v-1.7l-5.3,0.1V14.4z"/>
	<polygon points="53.3,15.6 50.4,8.8 48.5,8.8 52.2,17.3 54.4,17.3 58.1,8.8 56.2,8.8 	"/>
	<path d="M62.4,14.4c0.3-0.2,0.7-0.3,1-0.4c0.3-0.1,0.8-0.1,1.6-0.1h1.2v-1.7H65c-0.6,0-1.1,0-1.5,0.1c-0.4,0.1-0.8,0.2-1.1,0.4
		v-2.1h5V8.9h-6.7v8.4h7v-1.7l-5.3,0.1V14.4z"/>
	<polygon points="77.2,14.8 72.1,8.9 70,8.9 70.8,10.2 70.8,17.4 72.5,17.4 72.5,11.9 77.2,17.4 78.9,17.4 78.9,8.9 77.2,8.9 	"/>
	<path d="M81,10.5h3.1v6.8h1.7c0,0,0-6.8-0.1-6.7h3.2V8.9H81V10.5z"/>
	<path d="M97.1,12.3c-0.6-0.2-1.5-0.3-2.6-0.3c-0.5,0-0.9,0-1.2-0.1c-0.2-0.1-0.4-0.2-0.5-0.3c0-0.2-0.1-0.3-0.1-0.5
		c0-0.2,0.1-0.4,0.5-0.6c0.4-0.2,0.8-0.3,1.2-0.3c1.1,0,1.9,0.3,2.5,0.8L98,9.6c-0.5-0.4-1.1-0.6-1.7-0.8c-0.6-0.1-1.2-0.2-1.9-0.2
		s-1.2,0.1-1.8,0.3c-0.6,0.2-1,0.5-1.3,0.9c-0.3,0.4-0.5,0.8-0.5,1.3c0,0.9,0.3,1.5,0.9,1.9c0.7,0.4,1.5,0.6,2.6,0.6
		c0.9,0,1.6,0.1,2,0.2c0.4,0.1,0.6,0.3,0.6,0.7c0,0.4-0.2,0.8-0.7,1c-0.5,0.3-1.1,0.4-1.9,0.4c-0.5,0-0.9,0-1.3-0.2
		c-0.3-0.2-0.7-0.4-0.9-0.7c-0.2-0.3-0.3-0.4-0.4-0.5l-1.2,1.2c0.4,0.5,1,1,1.7,1.3s1.4,0.5,2.1,0.5c1.3,0,2.3-0.3,3.1-0.8
		c0.8-0.5,1.2-1.2,1.2-2.2c0-0.5-0.1-0.9-0.3-1.3S97.7,12.5,97.1,12.3z"/>
	<path d="M127.8,7.2c-0.5-0.5-0.9-0.9-1.4-1.4c-0.3-0.4-0.7-0.7-1-1c-0.2-0.1-0.5-0.1-0.7,0c-0.3,0.3-0.8,0.2-1.1,0
		c-0.2-0.2-0.4-0.4-0.4-0.7c0-0.2,0-0.4,0.1-0.6c0-0.1,0.1-0.2,0.1-0.3c0.1-0.2,0-0.4-0.1-0.5c-0.8-0.8-1.6-1.6-2.4-2.4
		c-0.2-0.2-0.4-0.3-0.6-0.3c-0.1,0-0.1,0-0.2,0c-0.1,0.1-0.2,0.1-0.3,0.1c-0.1,0.1-0.3,0.2-0.4,0.3c-0.5,0.5-0.9,0.9-1.4,1.4
		l-0.1,0.1c-0.1-0.2-0.2-0.3-0.3-0.4c-0.2-0.2-0.4-0.4-0.6-0.6s-0.4-0.3-0.7-0.3s-0.5,0-0.7,0.2c-0.1,0-0.1,0.1-0.2,0.1
		c-4.4,4.4-8.7,8.7-13.1,13.1c-0.1,0.1-0.3,0.3-0.3,0.6c0,0.1,0,0.1,0,0.1v0.1c0,0.1,0,0.1,0,0.1c0,0.2,0.1,0.4,0.3,0.6
		c0.4,0.4,0.9,0.9,1.4,1.4c0.3,0.3,0.6,0.6,0.9,0.9c0.1,0.2,0.4,0.2,0.6,0.1c0.1-0.1,0.3-0.2,0.5-0.2c0.3,0,0.4,0,0.6,0.1
		c0.3,0.2,0.4,0.5,0.5,0.8c0.1,0.3,0,0.5-0.1,0.7c-0.1,0.2-0.1,0.5,0.1,0.7c0.8,0.8,1.5,1.5,2.3,2.3c0.1,0.1,0.2,0.2,0.4,0.3
		c0,0.1,0.1,0.1,0.1,0.1c0.1,0,0.3,0,0.4,0s0.2,0,0.5,0c0.1-0.1,0.2-0.1,0.3-0.2c0.4-0.4,0.8-0.8,1.2-1.2c0.1-0.1,0.2-0.2,0.3-0.3
		c0.1,0.1,0.1,0.1,0.1,0.1c0.2,0.2,0.5,0.5,0.8,0.8c0.3,0.4,1,0.4,1.4,0.1l0.1-0.1c4.4-4.4,8.7-8.7,13.1-13.1
		c0.1-0.1,0.2-0.3,0.3-0.5c0-0.2,0-0.3,0-0.5c0-0.1,0-0.1,0-0.1C128,7.5,127.9,7.3,127.8,7.2z M112,19.5c-0.1,0.1-0.2,0.1-0.3,0.2
		c-0.1,0-0.1,0.1-0.1,0.1c0,0.1-0.1,0.2-0.2,0.3c-0.5,0.5-0.9,0.9-1.5,1.5c-0.1,0-0.1,0,0-0.3c-0.7-0.7-1.3-1.3-2-2
		c-0.1-0.1-0.1-0.1-0.1-0.2c0.1-0.3,0.1-0.6,0.1-0.9c0-0.5-0.3-0.9-0.6-1.2c-0.3-0.2-0.6-0.3-0.9-0.4c-0.4-0.1-0.8,0-1.2,0.1
		c-0.6-0.7-1.3-1.3-2-2c-0.1,0-0.1,0,0-0.1c3.4-3.4,6.8-6.8,10.2-10.2c0,0,0,0,0.1,0c0.1,0,0.2,0.1,0.3,0.1h0.1
		c0.1,0,0.2-0.1,0.3-0.2c0.1-0.1,0.1-0.1,0.1-0.2c0-0.1,0-0.2,0-0.3c0-0.1-0.1-0.2-0.1-0.2c-0.1,0-0.1-0.1,0-0.1
		c0.5-0.4,0.9-0.9,1.4-1.4c0.2-0.2,0.3-0.3,0.5-0.5c0-0.1,0,0,0.1,0c0.3,0.3,0.7,0.7,1,1c0.1,0,0.1,0.1,0.1,0.1
		c0.1,0.1,0.2,0.2,0.3,0.3c0,0.1,0.1,0.1,0.1,0.1c0.2,0.2,0.4,0.4,0.6,0.6v0.1c-0.1,0.3-0.1,0.6-0.1,0.9c0,0.4,0.1,0.8,0.4,1.1
		c0.3,0.4,0.7,0.6,1.2,0.7c0.3,0.1,0.6,0.1,0.9,0c0.1,0,0.1,0,0.2,0c0-0.1,0.1,0,0.1,0c0.6,0.6,1.2,1.2,1.9,1.9c0.1,0,0.1,0,0.1,0
		c0.1,0,0.1,0.1,0,0.1c-0.3,0.3-0.7,0.7-1,1c-0.5,0.5-1.1,1.1-1.6,1.6c-0.6,0.6-1.2,1.2-1.8,1.8c-1.9,1.9-3.8,3.8-5.7,5.7
		C112.6,18.9,112.3,19.2,112,19.5z M113.7,21.1c-0.2-0.3-0.5-0.6-0.8-0.8l0.1-0.1c3-3,6-6,9-9c0.1-0.1,0.1-0.2,0.2-0.2
		s0.1,0.1,0.2,0.2c0.1,0,0.1,0.1,0.2,0.1c0.3,0.2,0.7-0.1,0.7-0.5c0-0.1-0.1-0.3-0.2-0.4c-0.1,0-0.1,0-0.2-0.1
		c0.2-0.2,0.3-0.3,0.4-0.4c0.2-0.2,0.4-0.4,0.6-0.6c0.3-0.3,0.3-0.7,0.2-1c-0.1-0.2-0.2-0.4-0.3-0.5c-0.4-0.4-0.9-0.9-1.4-1.4
		c-0.3-0.3-0.6-0.6-0.9-0.9c-0.2-0.2-0.5-0.2-0.7-0.1c-0.4,0.3-1,0.2-1.3-0.2c-0.2-0.2-0.3-0.4-0.3-0.6c-0.1-0.3,0-0.5,0.1-0.7
		c0.1-0.2,0.1-0.4,0-0.6l-0.1-0.1c-0.2-0.2-0.4-0.4-0.6-0.6c0.5-0.4,0.9-0.9,1.4-1.4c0.1,0.1,0.1,0.1,0.1,0.1
		c0.3,0.3,0.7,0.7,1.1,1.1c0.3,0.3,0.6,0.6,0.9,0.9v0.1C122,3.7,122,3.9,122,4.2c0,0.5,0.1,0.9,0.4,1.2c0.3,0.4,0.7,0.6,1.2,0.7
		c0.3,0,0.7,0,1-0.1h0.1c0.7,0.6,1.4,1.3,2.1,2C122.5,12.3,118.1,16.7,113.7,21.1z"/>
	<path d="M119.3,10.4c0.1,0.2,0.3,0.3,0.5,0.4c0.2,0,0.4,0.1,0.5-0.1c0.1-0.1,0.3-0.2,0.2-0.4c0,0,0,0,0-0.2c0.1-0.1,0-0.2-0.1-0.3
		c-0.1-0.1-0.2-0.2-0.3-0.3c0-0.1-0.1-0.1-0.1-0.1c-0.2,0-0.3-0.1-0.4-0.1h-0.1c-0.1,0.1-0.2,0.1-0.3,0.2c-0.1,0.1-0.1,0.1-0.1,0.2
		s0,0.2,0,0.3c0,0.1,0,0.1,0.1,0.2C119.2,10.3,119.2,10.3,119.3,10.4z"/>
	<path d="M116.9,7.7L116.9,7.7c0.2,0,0.3-0.1,0.4-0.2c0.1-0.1,0.1-0.1,0.1-0.2c0-0.1,0-0.1,0-0.2c0-0.1,0-0.2,0-0.2
		c-0.2-0.2-0.3-0.3-0.5-0.5c-0.1,0-0.1,0-0.1,0c-0.1,0-0.3-0.1-0.4-0.1h-0.1c-0.1,0-0.2,0.1-0.3,0.2c0,0.1,0,0.1,0,0.1
		c0,0.1,0,0.2,0,0.3c0,0.1,0,0.1,0,0.2c0.2,0.2,0.3,0.3,0.5,0.5C116.6,7.6,116.8,7.7,116.9,7.7z"/>
	<path d="M118.1,9.2c0.1,0,0.3,0.1,0.4,0.1h0.1c0.1,0,0.2-0.1,0.3-0.2C119,9.1,119,9,119,9c0-0.1,0-0.2,0-0.3c0-0.2-0.1-0.3-0.3-0.3
		l-0.1-0.1c-0.1-0.2-0.2-0.3-0.4-0.3c-0.1-0.1-0.1-0.1-0.2-0.1h-0.1c-0.1,0-0.2,0.1-0.3,0.2c-0.1,0-0.1,0.1-0.1,0.1
		c0,0.1,0,0.3,0,0.4v0.1C117.7,8.9,117.8,9,118.1,9.2C118.1,9.2,118.1,9.2,118.1,9.2z"/>
	<path d="M114.7,5.8c0.2,0.2,0.3,0.3,0.5,0.3c0,0,0,0,0.1,0h0.1c0.1-0.1,0.2-0.1,0.3-0.2c0.1,0,0.1-0.1,0.1-0.1c0-0.1,0-0.3,0-0.4
		c0-0.1,0-0.1,0-0.1c-0.2-0.2-0.4-0.5-0.8-0.6c-0.1,0-0.1,0-0.2,0h-0.1c-0.1,0-0.2,0.1-0.3,0.2c0,0.1,0,0.1,0,0.1c0,0.1,0,0.2,0,0.3
		C114.4,5.5,114.5,5.6,114.7,5.8L114.7,5.8z"/>
	<polygon points="110.9,11.1 110.4,10.6 106.9,14.1 107.4,14.6 108.8,13.1 111.8,16.1 112.4,15.5 109.5,12.5 	"/>
	<path d="M117.7,10.2l-0.5-0.5l-2.5,2.5l-0.9-0.9c0-0.2,0.1-0.4,0.2-0.5c0.1-0.1,0.3-0.3,0.4-0.4l0.9-0.9L114.8,9l-0.9,0.9
		c-0.2,0.1-0.3,0.3-0.4,0.4c-0.1,0.2-0.1,0.3-0.2,0.5l-1.1-1l2.3-2.3L114,7l-2.9,2.8l3.5,3.5L117.7,10.2z"/>
</g>
</svg>
