<svg height="512" viewBox="0 0 512 512" width="512" xmlns="http://www.w3.org/2000/svg"><path d="m328 456v8h-144v-8l4.8-6.4a96.029 96.029 0 0 0 19.2-57.6v-8h96v8a96.051 96.051 0 0 0 19.2 57.6z" fill="#e4e4e2"/><path d="m328 456h-32l-4.8-6.4a96.029 96.029 0 0 1 -19.2-57.6h32a96.051 96.051 0 0 0 19.2 57.6z" fill="#dbdbdb"/><path d="m176 456h160a8 8 0 0 1 8 8v24a0 0 0 0 1 0 0h-176a0 0 0 0 1 0 0v-24a8 8 0 0 1 8-8z" fill="#eaeae8"/><path d="m472 392h-432a16 16 0 0 1 -16-16v-40h464v40a16 16 0 0 1 -16 16z" fill="#eaeae8"/><path d="m24 344v-272a16 16 0 0 1 16-16h432a16 16 0 0 1 16 16v272z" fill="#3bd6d0"/><path d="m256 24a176.02 176.02 0 0 0 -147.53 272h40.21a143.992 143.992 0 0 1 213.059-193.739l22.639-22.639a175.5 175.5 0 0 0 -128.378-55.622z" fill="#428dc5"/><path d="m384.378 79.622-22.639 22.639a143.968 143.968 0 0 1 1.581 193.739h40.21a176.013 176.013 0 0 0 -19.152-216.378z" fill="#3775a4"/><path d="m400 200a143.485 143.485 0 0 1 -36.67 96h-214.66a144 144 0 1 1 251.33-96z" fill="#ea9d2d"/><path d="m384 200a127.668 127.668 0 0 1 -43.34 96h-169.32a128 128 0 1 1 212.66-96z" fill="#fbb540"/><path d="m347.08 139.55-50.17 55.18-26.61 29.27-28.44-32 27.4-24.91 55.19-50.17z" fill="#428dc5"/><path d="m296.91 194.73-26.61 29.27-28.44-32 27.4-24.91a43.077 43.077 0 0 1 27.65 27.64z" fill="#3775a4"/><circle cx="256" cy="208" fill="#dbdbdb" r="32"/></svg>