<svg id="Laag_1" data-name="Laag 1" xmlns="http://www.w3.org/2000/svg" width="464" height="464" viewBox="0 0 464 464"><title>monitor</title><path d="M337.8,102.3,384,56H16A16,16,0,0,0,0,72V344H96S96.38,344.41,337.8,102.3Z" transform="translate(0 -24)" style="fill:#efa0a0"/><path d="M448.31,56H414.94l-31,0L337.8,102.3C96.38,344.41,96,344,96,344H464V72A16,16,0,0,0,448.31,56Z" transform="translate(0 -24)" style="fill:#ed9696"/><path d="M304,456v8H160v-8l4.8-6.4A95.66,95.66,0,0,0,184,392v-8h96v8a95.66,95.66,0,0,0,19.2,57.6Z" transform="translate(0 -24)" style="fill:#e4e4e2"/><path d="M304,456H272l-4.8-6.4A95.66,95.66,0,0,1,248,392h32a95.66,95.66,0,0,0,19.2,57.6Z" transform="translate(0 -24)" style="fill:#dbdbdb"/><path d="M152,456H312a8,8,0,0,1,8,8v24H144V464A8,8,0,0,1,152,456Z" transform="translate(0 -24)" style="fill:#eaeae8"/><path d="M448,392H16A16,16,0,0,1,0,376V336H464v40A16,16,0,0,1,448,392Z" transform="translate(0 -24)" style="fill:#eaeae8"/><path d="M232,24A176,176,0,0,0,84.5,296h40.2A144,144,0,0,1,337.8,102.3l22.6-22.6A175.24,175.24,0,0,0,232,24Z" transform="translate(0 -24)" style="fill:#1e70ae"/><path d="M360.4,79.7l-22.6,22.6A143.93,143.93,0,0,1,339.4,296h40.2A176.1,176.1,0,0,0,360.4,79.7Z" transform="translate(0 -24)" style="fill:#154e7a"/><path d="M376,200a143.64,143.64,0,0,1-36.7,96H124.7A144,144,0,1,1,376,200Z" transform="translate(0 -24)" style="fill:#dbdbdb"/><path d="M360,200a128.21,128.21,0,0,1-43.3,96H147.3A128,128,0,1,1,360,200Z" transform="translate(0 -24)" style="fill:#fff"/><g id="gauge"><path d="M323.1,139.6l-50.2,55.2L246.3,224l-28.4-32,27.4-24.9,55.2-50.2Z" transform="translate(0 -24)" style="fill:#1e70ae"/><path d="M272.9,194.7,246.3,224l-28.4-32,27.4-24.9a42.92,42.92,0,0,1,27.6,27.6Z" transform="translate(0 -24)" style="fill:#154e7a"/><circle cx="232" cy="184" r="32" style="fill:#dbdbdb"/></g><path d="M448.31,56,448,56H384l31,0Z" transform="translate(0 -24)" style="fill:#efa0a0"/></svg>