<?xml version="1.0" encoding="utf-8"?>
<!-- Generator: Adobe Illustrator 24.0.1, SVG Export Plug-In . SVG Version: 6.00 Build 0)  -->
<svg version="1.1" id="Laag_1" xmlns="http://www.w3.org/2000/svg" xmlns:xlink="http://www.w3.org/1999/xlink" x="0px" y="0px"
	 viewBox="0 0 512 512" style="enable-background:new 0 0 512 512;" xml:space="preserve">
<style type="text/css">
	.st0{fill:#E4E4E2;}
	.st1{fill:#DBDBDB;}
	.st2{fill:#EAEAE8;}
	.st3{fill:#EFA0A0;}
	.st4{fill:#1E70AE;}
	.st5{fill:#154E7A;}
	.st6{fill:#FFFFFF;}
</style>
<path class="st0" d="M328,456v8H184v-8l4.8-6.4C201.3,433,208,412.8,208,392v-8h96v8c0,20.8,6.7,41,19.2,57.6L328,456z"/>
<path class="st1" d="M328,456h-32l-4.8-6.4C278.7,433,272,412.8,272,392h32c0,20.8,6.7,41,19.2,57.6L328,456z"/>
<path class="st2" d="M176,456h160c4.4,0,8,3.6,8,8v24l0,0H168l0,0v-24C168,459.6,171.6,456,176,456z"/>
<path class="st2" d="M472,392H40c-8.8,0-16-7.2-16-16v-40h464v40C488,384.8,480.8,392,472,392z"/>
<path class="st3" d="M24,344V72c0-8.8,7.2-16,16-16h432c8.8,0,16,7.2,16,16v272H24z"/>
<path class="st4" d="M256,24c-97.2,0-176,78.8-176,176c0,34.1,9.9,67.4,28.5,96h40.2c-53-59.3-47.9-150.3,11.4-203.3
	c58.6-52.4,148.3-48.1,201.7,9.6l22.6-22.6C351.1,44.1,304.7,23.9,256,24z"/>
<path class="st5" d="M384.4,79.6l-22.6,22.6c50.4,54.5,51.1,138.4,1.6,193.7h40.2C447.7,228.1,439.8,138.7,384.4,79.6L384.4,79.6z"
	/>
<path class="st1" d="M400,200c0,35.4-13,69.6-36.7,96H148.7c-53-59.3-47.9-150.3,11.3-203.3S310.3,44.7,363.3,104
	C386.9,130.4,400,164.6,400,200z"/>
<path class="st6" d="M384,200c0,36.7-15.8,71.7-43.3,96H171.3c-53-46.8-58.1-127.6-11.3-180.7S287.6,57.2,340.7,104
	C368.2,128.3,384,163.3,384,200z"/>
<path class="st4" d="M347.1,139.6l-50.2,55.2L270.3,224l-28.4-32l27.4-24.9l55.2-50.2L347.1,139.6z"/>
<path class="st5" d="M296.9,194.7L270.3,224l-28.4-32l27.4-24.9C282.4,171.3,292.6,181.6,296.9,194.7L296.9,194.7z"/>
<circle class="st1" cx="256" cy="208" r="32"/>
</svg>
