<?xml version="1.0" encoding="utf-8"?>
<!-- Generator: Adobe Illustrator 24.0.1, SVG Export Plug-In . SVG Version: 6.00 Build 0)  -->
<svg version="1.1" id="Laag_1" xmlns="http://www.w3.org/2000/svg" xmlns:xlink="http://www.w3.org/1999/xlink" x="0px" y="0px"
	 width="429px" height="267.65px" viewBox="0 0 429 267.65" enable-background="new 0 0 429 267.65" xml:space="preserve">
<title>new-start-selfiestick</title>
<g>
	<g>
		<defs>
			<rect id="SVGID_1_" x="100" width="329" height="132"/>
		</defs>
		<clipPath id="SVGID_2_">
			<use xlink:href="#SVGID_1_"  overflow="visible"/>
		</clipPath>
		<g id="Repeat_Grid_4" transform="translate(100)" opacity="0.66" clip-path="url(#SVGID_2_)">
			<g transform="translate(-81 -1427)">
				<g id="Ellipse_8" transform="translate(81 1427)">
					<circle fill="none" cx="3" cy="3" r="3"/>
					<circle fill="none" stroke="#D5D5D5" cx="3" cy="3" r="2.5"/>
				</g>
			</g>
			<g transform="translate(-64 -1427)">
				<g id="Ellipse_8-2" transform="translate(81 1427)">
					<circle fill="none" cx="3" cy="3" r="3"/>
					<circle fill="none" stroke="#D5D5D5" cx="3" cy="3" r="2.5"/>
				</g>
			</g>
			<g transform="translate(-47 -1427)">
				<g id="Ellipse_8-3" transform="translate(81 1427)">
					<circle fill="none" cx="3" cy="3" r="3"/>
					<circle fill="none" stroke="#D5D5D5" cx="3" cy="3" r="2.5"/>
				</g>
			</g>
			<g transform="translate(-30 -1427)">
				<g id="Ellipse_8-4" transform="translate(81 1427)">
					<circle fill="none" cx="3" cy="3" r="3"/>
					<circle fill="none" stroke="#D5D5D5" cx="3" cy="3" r="2.5"/>
				</g>
			</g>
			<g transform="translate(-13 -1427)">
				<g id="Ellipse_8-5" transform="translate(81 1427)">
					<circle fill="none" cx="3" cy="3" r="3"/>
					<circle fill="none" stroke="#D5D5D5" cx="3" cy="3" r="2.5"/>
				</g>
			</g>
			<g transform="translate(4 -1427)">
				<g id="Ellipse_8-6" transform="translate(81 1427)">
					<circle fill="none" cx="3" cy="3" r="3"/>
					<circle fill="none" stroke="#D5D5D5" cx="3" cy="3" r="2.5"/>
				</g>
			</g>
			<g transform="translate(21 -1427)">
				<g id="Ellipse_8-7" transform="translate(81 1427)">
					<circle fill="none" cx="3" cy="3" r="3"/>
					<circle fill="none" stroke="#D5D5D5" cx="3" cy="3" r="2.5"/>
				</g>
			</g>
			<g transform="translate(38 -1427)">
				<g id="Ellipse_8-8" transform="translate(81 1427)">
					<circle fill="none" cx="3" cy="3" r="3"/>
					<circle fill="none" stroke="#D5D5D5" cx="3" cy="3" r="2.5"/>
				</g>
			</g>
			<g transform="translate(55 -1427)">
				<g id="Ellipse_8-9" transform="translate(81 1427)">
					<circle fill="none" cx="3" cy="3" r="3"/>
					<circle fill="none" stroke="#D5D5D5" cx="3" cy="3" r="2.5"/>
				</g>
			</g>
			<g transform="translate(72 -1427)">
				<g id="Ellipse_8-10" transform="translate(81 1427)">
					<circle fill="none" cx="3" cy="3" r="3"/>
					<circle fill="none" stroke="#D5D5D5" cx="3" cy="3" r="2.5"/>
				</g>
			</g>
			<g transform="translate(89 -1427)">
				<g id="Ellipse_8-11" transform="translate(81 1427)">
					<circle fill="none" cx="3" cy="3" r="3"/>
					<circle fill="none" stroke="#D5D5D5" cx="3" cy="3" r="2.5"/>
				</g>
			</g>
			<g transform="translate(106 -1427)">
				<g id="Ellipse_8-12" transform="translate(81 1427)">
					<circle fill="none" cx="3" cy="3" r="3"/>
					<circle fill="none" stroke="#D5D5D5" cx="3" cy="3" r="2.5"/>
				</g>
			</g>
			<g transform="translate(123 -1427)">
				<g id="Ellipse_8-13" transform="translate(81 1427)">
					<circle fill="none" cx="3" cy="3" r="3"/>
					<circle fill="none" stroke="#D5D5D5" cx="3" cy="3" r="2.5"/>
				</g>
			</g>
			<g transform="translate(140 -1427)">
				<g id="Ellipse_8-14" transform="translate(81 1427)">
					<circle fill="none" cx="3" cy="3" r="3"/>
					<circle fill="none" stroke="#D5D5D5" cx="3" cy="3" r="2.5"/>
				</g>
			</g>
			<g transform="translate(157 -1427)">
				<g id="Ellipse_8-15" transform="translate(81 1427)">
					<circle fill="none" cx="3" cy="3" r="3"/>
					<circle fill="none" stroke="#D5D5D5" cx="3" cy="3" r="2.5"/>
				</g>
			</g>
			<g transform="translate(174 -1427)">
				<g id="Ellipse_8-16" transform="translate(81 1427)">
					<circle fill="none" cx="3" cy="3" r="3"/>
					<circle fill="none" stroke="#D5D5D5" cx="3" cy="3" r="2.5"/>
				</g>
			</g>
			<g transform="translate(191 -1427)">
				<g id="Ellipse_8-17" transform="translate(81 1427)">
					<circle fill="none" cx="3" cy="3" r="3"/>
					<circle fill="none" stroke="#D5D5D5" cx="3" cy="3" r="2.5"/>
				</g>
			</g>
			<g transform="translate(208 -1427)">
				<g id="Ellipse_8-18" transform="translate(81 1427)">
					<circle fill="none" cx="3" cy="3" r="3"/>
					<circle fill="none" stroke="#D5D5D5" cx="3" cy="3" r="2.5"/>
				</g>
			</g>
			<g transform="translate(225 -1427)">
				<g id="Ellipse_8-19" transform="translate(81 1427)">
					<circle fill="none" cx="3" cy="3" r="3"/>
					<circle fill="none" stroke="#D5D5D5" cx="3" cy="3" r="2.5"/>
				</g>
			</g>
			<g transform="translate(242 -1427)">
				<g id="Ellipse_8-20" transform="translate(81 1427)">
					<circle fill="none" cx="3" cy="3" r="3"/>
					<circle fill="none" stroke="#D5D5D5" cx="3" cy="3" r="2.5"/>
				</g>
			</g>
			<g transform="translate(-81 -1410)">
				<g id="Ellipse_8-21" transform="translate(81 1427)">
					<circle fill="none" cx="3" cy="3" r="3"/>
					<circle fill="none" stroke="#D5D5D5" cx="3" cy="3" r="2.5"/>
				</g>
			</g>
			<g transform="translate(-64 -1410)">
				<g id="Ellipse_8-22" transform="translate(81 1427)">
					<circle fill="none" cx="3" cy="3" r="3"/>
					<circle fill="none" stroke="#D5D5D5" cx="3" cy="3" r="2.5"/>
				</g>
			</g>
			<g transform="translate(-47 -1410)">
				<g id="Ellipse_8-23" transform="translate(81 1427)">
					<circle fill="none" cx="3" cy="3" r="3"/>
					<circle fill="none" stroke="#D5D5D5" cx="3" cy="3" r="2.5"/>
				</g>
			</g>
			<g transform="translate(-30 -1410)">
				<g id="Ellipse_8-24" transform="translate(81 1427)">
					<circle fill="none" cx="3" cy="3" r="3"/>
					<circle fill="none" stroke="#D5D5D5" cx="3" cy="3" r="2.5"/>
				</g>
			</g>
			<g transform="translate(-13 -1410)">
				<g id="Ellipse_8-25" transform="translate(81 1427)">
					<circle fill="none" cx="3" cy="3" r="3"/>
					<circle fill="none" stroke="#D5D5D5" cx="3" cy="3" r="2.5"/>
				</g>
			</g>
			<g transform="translate(4 -1410)">
				<g id="Ellipse_8-26" transform="translate(81 1427)">
					<circle fill="none" cx="3" cy="3" r="3"/>
					<circle fill="none" stroke="#D5D5D5" cx="3" cy="3" r="2.5"/>
				</g>
			</g>
			<g transform="translate(21 -1410)">
				<g id="Ellipse_8-27" transform="translate(81 1427)">
					<circle fill="none" cx="3" cy="3" r="3"/>
					<circle fill="none" stroke="#D5D5D5" cx="3" cy="3" r="2.5"/>
				</g>
			</g>
			<g transform="translate(38 -1410)">
				<g id="Ellipse_8-28" transform="translate(81 1427)">
					<circle fill="none" cx="3" cy="3" r="3"/>
					<circle fill="none" stroke="#D5D5D5" cx="3" cy="3" r="2.5"/>
				</g>
			</g>
			<g transform="translate(55 -1410)">
				<g id="Ellipse_8-29" transform="translate(81 1427)">
					<circle fill="none" cx="3" cy="3" r="3"/>
					<circle fill="none" stroke="#D5D5D5" cx="3" cy="3" r="2.5"/>
				</g>
			</g>
			<g transform="translate(72 -1410)">
				<g id="Ellipse_8-30" transform="translate(81 1427)">
					<circle fill="none" cx="3" cy="3" r="3"/>
					<circle fill="none" stroke="#D5D5D5" cx="3" cy="3" r="2.5"/>
				</g>
			</g>
			<g transform="translate(89 -1410)">
				<g id="Ellipse_8-31" transform="translate(81 1427)">
					<circle fill="none" cx="3" cy="3" r="3"/>
					<circle fill="none" stroke="#D5D5D5" cx="3" cy="3" r="2.5"/>
				</g>
			</g>
			<g transform="translate(106 -1410)">
				<g id="Ellipse_8-32" transform="translate(81 1427)">
					<circle fill="none" cx="3" cy="3" r="3"/>
					<circle fill="none" stroke="#D5D5D5" cx="3" cy="3" r="2.5"/>
				</g>
			</g>
			<g transform="translate(123 -1410)">
				<g id="Ellipse_8-33" transform="translate(81 1427)">
					<circle fill="none" cx="3" cy="3" r="3"/>
					<circle fill="none" stroke="#D5D5D5" cx="3" cy="3" r="2.5"/>
				</g>
			</g>
			<g transform="translate(140 -1410)">
				<g id="Ellipse_8-34" transform="translate(81 1427)">
					<circle fill="none" cx="3" cy="3" r="3"/>
					<circle fill="none" stroke="#D5D5D5" cx="3" cy="3" r="2.5"/>
				</g>
			</g>
			<g transform="translate(157 -1410)">
				<g id="Ellipse_8-35" transform="translate(81 1427)">
					<circle fill="none" cx="3" cy="3" r="3"/>
					<circle fill="none" stroke="#D5D5D5" cx="3" cy="3" r="2.5"/>
				</g>
			</g>
			<g transform="translate(174 -1410)">
				<g id="Ellipse_8-36" transform="translate(81 1427)">
					<circle fill="none" cx="3" cy="3" r="3"/>
					<circle fill="none" stroke="#D5D5D5" cx="3" cy="3" r="2.5"/>
				</g>
			</g>
			<g transform="translate(191 -1410)">
				<g id="Ellipse_8-37" transform="translate(81 1427)">
					<circle fill="none" cx="3" cy="3" r="3"/>
					<circle fill="none" stroke="#D5D5D5" cx="3" cy="3" r="2.5"/>
				</g>
			</g>
			<g transform="translate(208 -1410)">
				<g id="Ellipse_8-38" transform="translate(81 1427)">
					<circle fill="none" cx="3" cy="3" r="3"/>
					<circle fill="none" stroke="#D5D5D5" cx="3" cy="3" r="2.5"/>
				</g>
			</g>
			<g transform="translate(225 -1410)">
				<g id="Ellipse_8-39" transform="translate(81 1427)">
					<circle fill="none" cx="3" cy="3" r="3"/>
					<circle fill="none" stroke="#D5D5D5" cx="3" cy="3" r="2.5"/>
				</g>
			</g>
			<g transform="translate(242 -1410)">
				<g id="Ellipse_8-40" transform="translate(81 1427)">
					<circle fill="none" cx="3" cy="3" r="3"/>
					<circle fill="none" stroke="#D5D5D5" cx="3" cy="3" r="2.5"/>
				</g>
			</g>
			<g transform="translate(-81 -1393)">
				<g id="Ellipse_8-41" transform="translate(81 1427)">
					<circle fill="none" cx="3" cy="3" r="3"/>
					<circle fill="none" stroke="#D5D5D5" cx="3" cy="3" r="2.5"/>
				</g>
			</g>
			<g transform="translate(-64 -1393)">
				<g id="Ellipse_8-42" transform="translate(81 1427)">
					<circle fill="none" cx="3" cy="3" r="3"/>
					<circle fill="none" stroke="#D5D5D5" cx="3" cy="3" r="2.5"/>
				</g>
			</g>
			<g transform="translate(-47 -1393)">
				<g id="Ellipse_8-43" transform="translate(81 1427)">
					<circle fill="none" cx="3" cy="3" r="3"/>
					<circle fill="none" stroke="#D5D5D5" cx="3" cy="3" r="2.5"/>
				</g>
			</g>
			<g transform="translate(-30 -1393)">
				<g id="Ellipse_8-44" transform="translate(81 1427)">
					<circle fill="none" cx="3" cy="3" r="3"/>
					<circle fill="none" stroke="#D5D5D5" cx="3" cy="3" r="2.5"/>
				</g>
			</g>
			<g transform="translate(-13 -1393)">
				<g id="Ellipse_8-45" transform="translate(81 1427)">
					<circle fill="none" cx="3" cy="3" r="3"/>
					<circle fill="none" stroke="#D5D5D5" cx="3" cy="3" r="2.5"/>
				</g>
			</g>
			<g transform="translate(4 -1393)">
				<g id="Ellipse_8-46" transform="translate(81 1427)">
					<circle fill="none" cx="3" cy="3" r="3"/>
					<circle fill="none" stroke="#D5D5D5" cx="3" cy="3" r="2.5"/>
				</g>
			</g>
			<g transform="translate(21 -1393)">
				<g id="Ellipse_8-47" transform="translate(81 1427)">
					<circle fill="none" cx="3" cy="3" r="3"/>
					<circle fill="none" stroke="#D5D5D5" cx="3" cy="3" r="2.5"/>
				</g>
			</g>
			<g transform="translate(38 -1393)">
				<g id="Ellipse_8-48" transform="translate(81 1427)">
					<circle fill="none" cx="3" cy="3" r="3"/>
					<circle fill="none" stroke="#D5D5D5" cx="3" cy="3" r="2.5"/>
				</g>
			</g>
			<g transform="translate(55 -1393)">
				<g id="Ellipse_8-49" transform="translate(81 1427)">
					<circle fill="none" cx="3" cy="3" r="3"/>
					<circle fill="none" stroke="#D5D5D5" cx="3" cy="3" r="2.5"/>
				</g>
			</g>
			<g transform="translate(72 -1393)">
				<g id="Ellipse_8-50" transform="translate(81 1427)">
					<circle fill="none" cx="3" cy="3" r="3"/>
					<circle fill="none" stroke="#D5D5D5" cx="3" cy="3" r="2.5"/>
				</g>
			</g>
			<g transform="translate(89 -1393)">
				<g id="Ellipse_8-51" transform="translate(81 1427)">
					<circle fill="none" cx="3" cy="3" r="3"/>
					<circle fill="none" stroke="#D5D5D5" cx="3" cy="3" r="2.5"/>
				</g>
			</g>
			<g transform="translate(106 -1393)">
				<g id="Ellipse_8-52" transform="translate(81 1427)">
					<circle fill="none" cx="3" cy="3" r="3"/>
					<circle fill="none" stroke="#D5D5D5" cx="3" cy="3" r="2.5"/>
				</g>
			</g>
			<g transform="translate(123 -1393)">
				<g id="Ellipse_8-53" transform="translate(81 1427)">
					<circle fill="none" cx="3" cy="3" r="3"/>
					<circle fill="none" stroke="#D5D5D5" cx="3" cy="3" r="2.5"/>
				</g>
			</g>
			<g transform="translate(140 -1393)">
				<g id="Ellipse_8-54" transform="translate(81 1427)">
					<circle fill="none" cx="3" cy="3" r="3"/>
					<circle fill="none" stroke="#D5D5D5" cx="3" cy="3" r="2.5"/>
				</g>
			</g>
			<g transform="translate(157 -1393)">
				<g id="Ellipse_8-55" transform="translate(81 1427)">
					<circle fill="none" cx="3" cy="3" r="3"/>
					<circle fill="none" stroke="#D5D5D5" cx="3" cy="3" r="2.5"/>
				</g>
			</g>
			<g transform="translate(174 -1393)">
				<g id="Ellipse_8-56" transform="translate(81 1427)">
					<circle fill="none" cx="3" cy="3" r="3"/>
					<circle fill="none" stroke="#D5D5D5" cx="3" cy="3" r="2.5"/>
				</g>
			</g>
			<g transform="translate(191 -1393)">
				<g id="Ellipse_8-57" transform="translate(81 1427)">
					<circle fill="none" cx="3" cy="3" r="3"/>
					<circle fill="none" stroke="#D5D5D5" cx="3" cy="3" r="2.5"/>
				</g>
			</g>
			<g transform="translate(208 -1393)">
				<g id="Ellipse_8-58" transform="translate(81 1427)">
					<circle fill="none" cx="3" cy="3" r="3"/>
					<circle fill="none" stroke="#D5D5D5" cx="3" cy="3" r="2.5"/>
				</g>
			</g>
			<g transform="translate(225 -1393)">
				<g id="Ellipse_8-59" transform="translate(81 1427)">
					<circle fill="none" cx="3" cy="3" r="3"/>
					<circle fill="none" stroke="#D5D5D5" cx="3" cy="3" r="2.5"/>
				</g>
			</g>
			<g transform="translate(242 -1393)">
				<g id="Ellipse_8-60" transform="translate(81 1427)">
					<circle fill="none" cx="3" cy="3" r="3"/>
					<circle fill="none" stroke="#D5D5D5" cx="3" cy="3" r="2.5"/>
				</g>
			</g>
			<g transform="translate(-81 -1376)">
				<g id="Ellipse_8-61" transform="translate(81 1427)">
					<circle fill="none" cx="3" cy="3" r="3"/>
					<circle fill="none" stroke="#D5D5D5" cx="3" cy="3" r="2.5"/>
				</g>
			</g>
			<g transform="translate(-64 -1376)">
				<g id="Ellipse_8-62" transform="translate(81 1427)">
					<circle fill="none" cx="3" cy="3" r="3"/>
					<circle fill="none" stroke="#D5D5D5" cx="3" cy="3" r="2.5"/>
				</g>
			</g>
			<g transform="translate(-47 -1376)">
				<g id="Ellipse_8-63" transform="translate(81 1427)">
					<circle fill="none" cx="3" cy="3" r="3"/>
					<circle fill="none" stroke="#D5D5D5" cx="3" cy="3" r="2.5"/>
				</g>
			</g>
			<g transform="translate(-30 -1376)">
				<g id="Ellipse_8-64" transform="translate(81 1427)">
					<circle fill="none" cx="3" cy="3" r="3"/>
					<circle fill="none" stroke="#D5D5D5" cx="3" cy="3" r="2.5"/>
				</g>
			</g>
			<g transform="translate(-13 -1376)">
				<g id="Ellipse_8-65" transform="translate(81 1427)">
					<circle fill="none" cx="3" cy="3" r="3"/>
					<circle fill="none" stroke="#D5D5D5" cx="3" cy="3" r="2.5"/>
				</g>
			</g>
			<g transform="translate(4 -1376)">
				<g id="Ellipse_8-66" transform="translate(81 1427)">
					<circle fill="none" cx="3" cy="3" r="3"/>
					<circle fill="none" stroke="#D5D5D5" cx="3" cy="3" r="2.5"/>
				</g>
			</g>
			<g transform="translate(21 -1376)">
				<g id="Ellipse_8-67" transform="translate(81 1427)">
					<circle fill="none" cx="3" cy="3" r="3"/>
					<circle fill="none" stroke="#D5D5D5" cx="3" cy="3" r="2.5"/>
				</g>
			</g>
			<g transform="translate(38 -1376)">
				<g id="Ellipse_8-68" transform="translate(81 1427)">
					<circle fill="none" cx="3" cy="3" r="3"/>
					<circle fill="none" stroke="#D5D5D5" cx="3" cy="3" r="2.5"/>
				</g>
			</g>
			<g transform="translate(55 -1376)">
				<g id="Ellipse_8-69" transform="translate(81 1427)">
					<circle fill="none" cx="3" cy="3" r="3"/>
					<circle fill="none" stroke="#D5D5D5" cx="3" cy="3" r="2.5"/>
				</g>
			</g>
			<g transform="translate(72 -1376)">
				<g id="Ellipse_8-70" transform="translate(81 1427)">
					<circle fill="none" cx="3" cy="3" r="3"/>
					<circle fill="none" stroke="#D5D5D5" cx="3" cy="3" r="2.5"/>
				</g>
			</g>
			<g transform="translate(89 -1376)">
				<g id="Ellipse_8-71" transform="translate(81 1427)">
					<circle fill="none" cx="3" cy="3" r="3"/>
					<circle fill="none" stroke="#D5D5D5" cx="3" cy="3" r="2.5"/>
				</g>
			</g>
			<g transform="translate(106 -1376)">
				<g id="Ellipse_8-72" transform="translate(81 1427)">
					<circle fill="none" cx="3" cy="3" r="3"/>
					<circle fill="none" stroke="#D5D5D5" cx="3" cy="3" r="2.5"/>
				</g>
			</g>
			<g transform="translate(123 -1376)">
				<g id="Ellipse_8-73" transform="translate(81 1427)">
					<circle fill="none" cx="3" cy="3" r="3"/>
					<circle fill="none" stroke="#D5D5D5" cx="3" cy="3" r="2.5"/>
				</g>
			</g>
			<g transform="translate(140 -1376)">
				<g id="Ellipse_8-74" transform="translate(81 1427)">
					<circle fill="none" cx="3" cy="3" r="3"/>
					<circle fill="none" stroke="#D5D5D5" cx="3" cy="3" r="2.5"/>
				</g>
			</g>
			<g transform="translate(157 -1376)">
				<g id="Ellipse_8-75" transform="translate(81 1427)">
					<circle fill="none" cx="3" cy="3" r="3"/>
					<circle fill="none" stroke="#D5D5D5" cx="3" cy="3" r="2.5"/>
				</g>
			</g>
			<g transform="translate(174 -1376)">
				<g id="Ellipse_8-76" transform="translate(81 1427)">
					<circle fill="none" cx="3" cy="3" r="3"/>
					<circle fill="none" stroke="#D5D5D5" cx="3" cy="3" r="2.5"/>
				</g>
			</g>
			<g transform="translate(191 -1376)">
				<g id="Ellipse_8-77" transform="translate(81 1427)">
					<circle fill="none" cx="3" cy="3" r="3"/>
					<circle fill="none" stroke="#D5D5D5" cx="3" cy="3" r="2.5"/>
				</g>
			</g>
			<g transform="translate(208 -1376)">
				<g id="Ellipse_8-78" transform="translate(81 1427)">
					<circle fill="none" cx="3" cy="3" r="3"/>
					<circle fill="none" stroke="#D5D5D5" cx="3" cy="3" r="2.5"/>
				</g>
			</g>
			<g transform="translate(225 -1376)">
				<g id="Ellipse_8-79" transform="translate(81 1427)">
					<circle fill="none" cx="3" cy="3" r="3"/>
					<circle fill="none" stroke="#D5D5D5" cx="3" cy="3" r="2.5"/>
				</g>
			</g>
			<g transform="translate(242 -1376)">
				<g id="Ellipse_8-80" transform="translate(81 1427)">
					<circle fill="none" cx="3" cy="3" r="3"/>
					<circle fill="none" stroke="#D5D5D5" cx="3" cy="3" r="2.5"/>
				</g>
			</g>
			<g transform="translate(-81 -1359)">
				<g id="Ellipse_8-81" transform="translate(81 1427)">
					<circle fill="none" cx="3" cy="3" r="3"/>
					<circle fill="none" stroke="#D5D5D5" cx="3" cy="3" r="2.5"/>
				</g>
			</g>
			<g transform="translate(-64 -1359)">
				<g id="Ellipse_8-82" transform="translate(81 1427)">
					<circle fill="none" cx="3" cy="3" r="3"/>
					<circle fill="none" stroke="#D5D5D5" cx="3" cy="3" r="2.5"/>
				</g>
			</g>
			<g transform="translate(-47 -1359)">
				<g id="Ellipse_8-83" transform="translate(81 1427)">
					<circle fill="none" cx="3" cy="3" r="3"/>
					<circle fill="none" stroke="#D5D5D5" cx="3" cy="3" r="2.5"/>
				</g>
			</g>
			<g transform="translate(-30 -1359)">
				<g id="Ellipse_8-84" transform="translate(81 1427)">
					<circle fill="none" cx="3" cy="3" r="3"/>
					<circle fill="none" stroke="#D5D5D5" cx="3" cy="3" r="2.5"/>
				</g>
			</g>
			<g transform="translate(-13 -1359)">
				<g id="Ellipse_8-85" transform="translate(81 1427)">
					<circle fill="none" cx="3" cy="3" r="3"/>
					<circle fill="none" stroke="#D5D5D5" cx="3" cy="3" r="2.5"/>
				</g>
			</g>
			<g transform="translate(4 -1359)">
				<g id="Ellipse_8-86" transform="translate(81 1427)">
					<circle fill="none" cx="3" cy="3" r="3"/>
					<circle fill="none" stroke="#D5D5D5" cx="3" cy="3" r="2.5"/>
				</g>
			</g>
			<g transform="translate(21 -1359)">
				<g id="Ellipse_8-87" transform="translate(81 1427)">
					<circle fill="none" cx="3" cy="3" r="3"/>
					<circle fill="none" stroke="#D5D5D5" cx="3" cy="3" r="2.5"/>
				</g>
			</g>
			<g transform="translate(38 -1359)">
				<g id="Ellipse_8-88" transform="translate(81 1427)">
					<circle fill="none" cx="3" cy="3" r="3"/>
					<circle fill="none" stroke="#D5D5D5" cx="3" cy="3" r="2.5"/>
				</g>
			</g>
			<g transform="translate(55 -1359)">
				<g id="Ellipse_8-89" transform="translate(81 1427)">
					<circle fill="none" cx="3" cy="3" r="3"/>
					<circle fill="none" stroke="#D5D5D5" cx="3" cy="3" r="2.5"/>
				</g>
			</g>
			<g transform="translate(72 -1359)">
				<g id="Ellipse_8-90" transform="translate(81 1427)">
					<circle fill="none" cx="3" cy="3" r="3"/>
					<circle fill="none" stroke="#D5D5D5" cx="3" cy="3" r="2.5"/>
				</g>
			</g>
			<g transform="translate(89 -1359)">
				<g id="Ellipse_8-91" transform="translate(81 1427)">
					<circle fill="none" cx="3" cy="3" r="3"/>
					<circle fill="none" stroke="#D5D5D5" cx="3" cy="3" r="2.5"/>
				</g>
			</g>
			<g transform="translate(106 -1359)">
				<g id="Ellipse_8-92" transform="translate(81 1427)">
					<circle fill="none" cx="3" cy="3" r="3"/>
					<circle fill="none" stroke="#D5D5D5" cx="3" cy="3" r="2.5"/>
				</g>
			</g>
			<g transform="translate(123 -1359)">
				<g id="Ellipse_8-93" transform="translate(81 1427)">
					<circle fill="none" cx="3" cy="3" r="3"/>
					<circle fill="none" stroke="#D5D5D5" cx="3" cy="3" r="2.5"/>
				</g>
			</g>
			<g transform="translate(140 -1359)">
				<g id="Ellipse_8-94" transform="translate(81 1427)">
					<circle fill="none" cx="3" cy="3" r="3"/>
					<circle fill="none" stroke="#D5D5D5" cx="3" cy="3" r="2.5"/>
				</g>
			</g>
			<g transform="translate(157 -1359)">
				<g id="Ellipse_8-95" transform="translate(81 1427)">
					<circle fill="none" cx="3" cy="3" r="3"/>
					<circle fill="none" stroke="#D5D5D5" cx="3" cy="3" r="2.5"/>
				</g>
			</g>
			<g transform="translate(174 -1359)">
				<g id="Ellipse_8-96" transform="translate(81 1427)">
					<circle fill="none" cx="3" cy="3" r="3"/>
					<circle fill="none" stroke="#D5D5D5" cx="3" cy="3" r="2.5"/>
				</g>
			</g>
			<g transform="translate(191 -1359)">
				<g id="Ellipse_8-97" transform="translate(81 1427)">
					<circle fill="none" cx="3" cy="3" r="3"/>
					<circle fill="none" stroke="#D5D5D5" cx="3" cy="3" r="2.5"/>
				</g>
			</g>
			<g transform="translate(208 -1359)">
				<g id="Ellipse_8-98" transform="translate(81 1427)">
					<circle fill="none" cx="3" cy="3" r="3"/>
					<circle fill="none" stroke="#D5D5D5" cx="3" cy="3" r="2.5"/>
				</g>
			</g>
			<g transform="translate(225 -1359)">
				<g id="Ellipse_8-99" transform="translate(81 1427)">
					<circle fill="none" cx="3" cy="3" r="3"/>
					<circle fill="none" stroke="#D5D5D5" cx="3" cy="3" r="2.5"/>
				</g>
			</g>
			<g transform="translate(242 -1359)">
				<g id="Ellipse_8-100" transform="translate(81 1427)">
					<circle fill="none" cx="3" cy="3" r="3"/>
					<circle fill="none" stroke="#D5D5D5" cx="3" cy="3" r="2.5"/>
				</g>
			</g>
			<g transform="translate(-81 -1342)">
				<g id="Ellipse_8-101" transform="translate(81 1427)">
					<circle fill="none" cx="3" cy="3" r="3"/>
					<circle fill="none" stroke="#D5D5D5" cx="3" cy="3" r="2.5"/>
				</g>
			</g>
			<g transform="translate(-64 -1342)">
				<g id="Ellipse_8-102" transform="translate(81 1427)">
					<circle fill="none" cx="3" cy="3" r="3"/>
					<circle fill="none" stroke="#D5D5D5" cx="3" cy="3" r="2.5"/>
				</g>
			</g>
			<g transform="translate(-47 -1342)">
				<g id="Ellipse_8-103" transform="translate(81 1427)">
					<circle fill="none" cx="3" cy="3" r="3"/>
					<circle fill="none" stroke="#D5D5D5" cx="3" cy="3" r="2.5"/>
				</g>
			</g>
			<g transform="translate(-30 -1342)">
				<g id="Ellipse_8-104" transform="translate(81 1427)">
					<circle fill="none" cx="3" cy="3" r="3"/>
					<circle fill="none" stroke="#D5D5D5" cx="3" cy="3" r="2.5"/>
				</g>
			</g>
			<g transform="translate(-13 -1342)">
				<g id="Ellipse_8-105" transform="translate(81 1427)">
					<circle fill="none" cx="3" cy="3" r="3"/>
					<circle fill="none" stroke="#D5D5D5" cx="3" cy="3" r="2.5"/>
				</g>
			</g>
			<g transform="translate(4 -1342)">
				<g id="Ellipse_8-106" transform="translate(81 1427)">
					<circle fill="none" cx="3" cy="3" r="3"/>
					<circle fill="none" stroke="#D5D5D5" cx="3" cy="3" r="2.5"/>
				</g>
			</g>
			<g transform="translate(21 -1342)">
				<g id="Ellipse_8-107" transform="translate(81 1427)">
					<circle fill="none" cx="3" cy="3" r="3"/>
					<circle fill="none" stroke="#D5D5D5" cx="3" cy="3" r="2.5"/>
				</g>
			</g>
			<g transform="translate(38 -1342)">
				<g id="Ellipse_8-108" transform="translate(81 1427)">
					<circle fill="none" cx="3" cy="3" r="3"/>
					<circle fill="none" stroke="#D5D5D5" cx="3" cy="3" r="2.5"/>
				</g>
			</g>
			<g transform="translate(55 -1342)">
				<g id="Ellipse_8-109" transform="translate(81 1427)">
					<circle fill="none" cx="3" cy="3" r="3"/>
					<circle fill="none" stroke="#D5D5D5" cx="3" cy="3" r="2.5"/>
				</g>
			</g>
			<g transform="translate(72 -1342)">
				<g id="Ellipse_8-110" transform="translate(81 1427)">
					<circle fill="none" cx="3" cy="3" r="3"/>
					<circle fill="none" stroke="#D5D5D5" cx="3" cy="3" r="2.5"/>
				</g>
			</g>
			<g transform="translate(89 -1342)">
				<g id="Ellipse_8-111" transform="translate(81 1427)">
					<circle fill="none" cx="3" cy="3" r="3"/>
					<circle fill="none" stroke="#D5D5D5" cx="3" cy="3" r="2.5"/>
				</g>
			</g>
			<g transform="translate(106 -1342)">
				<g id="Ellipse_8-112" transform="translate(81 1427)">
					<circle fill="none" cx="3" cy="3" r="3"/>
					<circle fill="none" stroke="#D5D5D5" cx="3" cy="3" r="2.5"/>
				</g>
			</g>
			<g transform="translate(123 -1342)">
				<g id="Ellipse_8-113" transform="translate(81 1427)">
					<circle fill="none" cx="3" cy="3" r="3"/>
					<circle fill="none" stroke="#D5D5D5" cx="3" cy="3" r="2.5"/>
				</g>
			</g>
			<g transform="translate(140 -1342)">
				<g id="Ellipse_8-114" transform="translate(81 1427)">
					<circle fill="none" cx="3" cy="3" r="3"/>
					<circle fill="none" stroke="#D5D5D5" cx="3" cy="3" r="2.5"/>
				</g>
			</g>
			<g transform="translate(157 -1342)">
				<g id="Ellipse_8-115" transform="translate(81 1427)">
					<circle fill="none" cx="3" cy="3" r="3"/>
					<circle fill="none" stroke="#D5D5D5" cx="3" cy="3" r="2.5"/>
				</g>
			</g>
			<g transform="translate(174 -1342)">
				<g id="Ellipse_8-116" transform="translate(81 1427)">
					<circle fill="none" cx="3" cy="3" r="3"/>
					<circle fill="none" stroke="#D5D5D5" cx="3" cy="3" r="2.5"/>
				</g>
			</g>
			<g transform="translate(191 -1342)">
				<g id="Ellipse_8-117" transform="translate(81 1427)">
					<circle fill="none" cx="3" cy="3" r="3"/>
					<circle fill="none" stroke="#D5D5D5" cx="3" cy="3" r="2.5"/>
				</g>
			</g>
			<g transform="translate(208 -1342)">
				<g id="Ellipse_8-118" transform="translate(81 1427)">
					<circle fill="none" cx="3" cy="3" r="3"/>
					<circle fill="none" stroke="#D5D5D5" cx="3" cy="3" r="2.5"/>
				</g>
			</g>
			<g transform="translate(225 -1342)">
				<g id="Ellipse_8-119" transform="translate(81 1427)">
					<circle fill="none" cx="3" cy="3" r="3"/>
					<circle fill="none" stroke="#D5D5D5" cx="3" cy="3" r="2.5"/>
				</g>
			</g>
			<g transform="translate(242 -1342)">
				<g id="Ellipse_8-120" transform="translate(81 1427)">
					<circle fill="none" cx="3" cy="3" r="3"/>
					<circle fill="none" stroke="#D5D5D5" cx="3" cy="3" r="2.5"/>
				</g>
			</g>
			<g transform="translate(-81 -1325)">
				<g id="Ellipse_8-121" transform="translate(81 1427)">
					<circle fill="none" cx="3" cy="3" r="3"/>
					<circle fill="none" stroke="#D5D5D5" cx="3" cy="3" r="2.5"/>
				</g>
			</g>
			<g transform="translate(-64 -1325)">
				<g id="Ellipse_8-122" transform="translate(81 1427)">
					<circle fill="none" cx="3" cy="3" r="3"/>
					<circle fill="none" stroke="#D5D5D5" cx="3" cy="3" r="2.5"/>
				</g>
			</g>
			<g transform="translate(-47 -1325)">
				<g id="Ellipse_8-123" transform="translate(81 1427)">
					<circle fill="none" cx="3" cy="3" r="3"/>
					<circle fill="none" stroke="#D5D5D5" cx="3" cy="3" r="2.5"/>
				</g>
			</g>
			<g transform="translate(-30 -1325)">
				<g id="Ellipse_8-124" transform="translate(81 1427)">
					<circle fill="none" cx="3" cy="3" r="3"/>
					<circle fill="none" stroke="#D5D5D5" cx="3" cy="3" r="2.5"/>
				</g>
			</g>
			<g transform="translate(-13 -1325)">
				<g id="Ellipse_8-125" transform="translate(81 1427)">
					<circle fill="none" cx="3" cy="3" r="3"/>
					<circle fill="none" stroke="#D5D5D5" cx="3" cy="3" r="2.5"/>
				</g>
			</g>
			<g transform="translate(4 -1325)">
				<g id="Ellipse_8-126" transform="translate(81 1427)">
					<circle fill="none" cx="3" cy="3" r="3"/>
					<circle fill="none" stroke="#D5D5D5" cx="3" cy="3" r="2.5"/>
				</g>
			</g>
			<g transform="translate(21 -1325)">
				<g id="Ellipse_8-127" transform="translate(81 1427)">
					<circle fill="none" cx="3" cy="3" r="3"/>
					<circle fill="none" stroke="#D5D5D5" cx="3" cy="3" r="2.5"/>
				</g>
			</g>
			<g transform="translate(38 -1325)">
				<g id="Ellipse_8-128" transform="translate(81 1427)">
					<circle fill="none" cx="3" cy="3" r="3"/>
					<circle fill="none" stroke="#D5D5D5" cx="3" cy="3" r="2.5"/>
				</g>
			</g>
			<g transform="translate(55 -1325)">
				<g id="Ellipse_8-129" transform="translate(81 1427)">
					<circle fill="none" cx="3" cy="3" r="3"/>
					<circle fill="none" stroke="#D5D5D5" cx="3" cy="3" r="2.5"/>
				</g>
			</g>
			<g transform="translate(72 -1325)">
				<g id="Ellipse_8-130" transform="translate(81 1427)">
					<circle fill="none" cx="3" cy="3" r="3"/>
					<circle fill="none" stroke="#D5D5D5" cx="3" cy="3" r="2.5"/>
				</g>
			</g>
			<g transform="translate(89 -1325)">
				<g id="Ellipse_8-131" transform="translate(81 1427)">
					<circle fill="none" cx="3" cy="3" r="3"/>
					<circle fill="none" stroke="#D5D5D5" cx="3" cy="3" r="2.5"/>
				</g>
			</g>
			<g transform="translate(106 -1325)">
				<g id="Ellipse_8-132" transform="translate(81 1427)">
					<circle fill="none" cx="3" cy="3" r="3"/>
					<circle fill="none" stroke="#D5D5D5" cx="3" cy="3" r="2.5"/>
				</g>
			</g>
			<g transform="translate(123 -1325)">
				<g id="Ellipse_8-133" transform="translate(81 1427)">
					<circle fill="none" cx="3" cy="3" r="3"/>
					<circle fill="none" stroke="#D5D5D5" cx="3" cy="3" r="2.5"/>
				</g>
			</g>
			<g transform="translate(140 -1325)">
				<g id="Ellipse_8-134" transform="translate(81 1427)">
					<circle fill="none" cx="3" cy="3" r="3"/>
					<circle fill="none" stroke="#D5D5D5" cx="3" cy="3" r="2.5"/>
				</g>
			</g>
			<g transform="translate(157 -1325)">
				<g id="Ellipse_8-135" transform="translate(81 1427)">
					<circle fill="none" cx="3" cy="3" r="3"/>
					<circle fill="none" stroke="#D5D5D5" cx="3" cy="3" r="2.5"/>
				</g>
			</g>
			<g transform="translate(174 -1325)">
				<g id="Ellipse_8-136" transform="translate(81 1427)">
					<circle fill="none" cx="3" cy="3" r="3"/>
					<circle fill="none" stroke="#D5D5D5" cx="3" cy="3" r="2.5"/>
				</g>
			</g>
			<g transform="translate(191 -1325)">
				<g id="Ellipse_8-137" transform="translate(81 1427)">
					<circle fill="none" cx="3" cy="3" r="3"/>
					<circle fill="none" stroke="#D5D5D5" cx="3" cy="3" r="2.5"/>
				</g>
			</g>
			<g transform="translate(208 -1325)">
				<g id="Ellipse_8-138" transform="translate(81 1427)">
					<circle fill="none" cx="3" cy="3" r="3"/>
					<circle fill="none" stroke="#D5D5D5" cx="3" cy="3" r="2.5"/>
				</g>
			</g>
			<g transform="translate(225 -1325)">
				<g id="Ellipse_8-139" transform="translate(81 1427)">
					<circle fill="none" cx="3" cy="3" r="3"/>
					<circle fill="none" stroke="#D5D5D5" cx="3" cy="3" r="2.5"/>
				</g>
			</g>
			<g transform="translate(242 -1325)">
				<g id="Ellipse_8-140" transform="translate(81 1427)">
					<circle fill="none" cx="3" cy="3" r="3"/>
					<circle fill="none" stroke="#D5D5D5" cx="3" cy="3" r="2.5"/>
				</g>
			</g>
			<g transform="translate(-81 -1308)">
				<g id="Ellipse_8-141" transform="translate(81 1427)">
					<circle fill="none" cx="3" cy="3" r="3"/>
					<circle fill="none" stroke="#D5D5D5" cx="3" cy="3" r="2.5"/>
				</g>
			</g>
			<g transform="translate(-64 -1308)">
				<g id="Ellipse_8-142" transform="translate(81 1427)">
					<circle fill="none" cx="3" cy="3" r="3"/>
					<circle fill="none" stroke="#D5D5D5" cx="3" cy="3" r="2.5"/>
				</g>
			</g>
			<g transform="translate(-47 -1308)">
				<g id="Ellipse_8-143" transform="translate(81 1427)">
					<circle fill="none" cx="3" cy="3" r="3"/>
					<circle fill="none" stroke="#D5D5D5" cx="3" cy="3" r="2.5"/>
				</g>
			</g>
			<g transform="translate(-30 -1308)">
				<g id="Ellipse_8-144" transform="translate(81 1427)">
					<circle fill="none" cx="3" cy="3" r="3"/>
					<circle fill="none" stroke="#D5D5D5" cx="3" cy="3" r="2.5"/>
				</g>
			</g>
			<g transform="translate(-13 -1308)">
				<g id="Ellipse_8-145" transform="translate(81 1427)">
					<circle fill="none" cx="3" cy="3" r="3"/>
					<circle fill="none" stroke="#D5D5D5" cx="3" cy="3" r="2.5"/>
				</g>
			</g>
			<g transform="translate(4 -1308)">
				<g id="Ellipse_8-146" transform="translate(81 1427)">
					<circle fill="none" cx="3" cy="3" r="3"/>
					<circle fill="none" stroke="#D5D5D5" cx="3" cy="3" r="2.5"/>
				</g>
			</g>
			<g transform="translate(21 -1308)">
				<g id="Ellipse_8-147" transform="translate(81 1427)">
					<circle fill="none" cx="3" cy="3" r="3"/>
					<circle fill="none" stroke="#D5D5D5" cx="3" cy="3" r="2.5"/>
				</g>
			</g>
			<g transform="translate(38 -1308)">
				<g id="Ellipse_8-148" transform="translate(81 1427)">
					<circle fill="none" cx="3" cy="3" r="3"/>
					<circle fill="none" stroke="#D5D5D5" cx="3" cy="3" r="2.5"/>
				</g>
			</g>
			<g transform="translate(55 -1308)">
				<g id="Ellipse_8-149" transform="translate(81 1427)">
					<circle fill="none" cx="3" cy="3" r="3"/>
					<circle fill="none" stroke="#D5D5D5" cx="3" cy="3" r="2.5"/>
				</g>
			</g>
			<g transform="translate(72 -1308)">
				<g id="Ellipse_8-150" transform="translate(81 1427)">
					<circle fill="none" cx="3" cy="3" r="3"/>
					<circle fill="none" stroke="#D5D5D5" cx="3" cy="3" r="2.5"/>
				</g>
			</g>
			<g transform="translate(89 -1308)">
				<g id="Ellipse_8-151" transform="translate(81 1427)">
					<circle fill="none" cx="3" cy="3" r="3"/>
					<circle fill="none" stroke="#D5D5D5" cx="3" cy="3" r="2.5"/>
				</g>
			</g>
			<g transform="translate(106 -1308)">
				<g id="Ellipse_8-152" transform="translate(81 1427)">
					<circle fill="none" cx="3" cy="3" r="3"/>
					<circle fill="none" stroke="#D5D5D5" cx="3" cy="3" r="2.5"/>
				</g>
			</g>
			<g transform="translate(123 -1308)">
				<g id="Ellipse_8-153" transform="translate(81 1427)">
					<circle fill="none" cx="3" cy="3" r="3"/>
					<circle fill="none" stroke="#D5D5D5" cx="3" cy="3" r="2.5"/>
				</g>
			</g>
			<g transform="translate(140 -1308)">
				<g id="Ellipse_8-154" transform="translate(81 1427)">
					<circle fill="none" cx="3" cy="3" r="3"/>
					<circle fill="none" stroke="#D5D5D5" cx="3" cy="3" r="2.5"/>
				</g>
			</g>
			<g transform="translate(157 -1308)">
				<g id="Ellipse_8-155" transform="translate(81 1427)">
					<circle fill="none" cx="3" cy="3" r="3"/>
					<circle fill="none" stroke="#D5D5D5" cx="3" cy="3" r="2.5"/>
				</g>
			</g>
			<g transform="translate(174 -1308)">
				<g id="Ellipse_8-156" transform="translate(81 1427)">
					<circle fill="none" cx="3" cy="3" r="3"/>
					<circle fill="none" stroke="#D5D5D5" cx="3" cy="3" r="2.5"/>
				</g>
			</g>
			<g transform="translate(191 -1308)">
				<g id="Ellipse_8-157" transform="translate(81 1427)">
					<circle fill="none" cx="3" cy="3" r="3"/>
					<circle fill="none" stroke="#D5D5D5" cx="3" cy="3" r="2.5"/>
				</g>
			</g>
			<g transform="translate(208 -1308)">
				<g id="Ellipse_8-158" transform="translate(81 1427)">
					<circle fill="none" cx="3" cy="3" r="3"/>
					<circle fill="none" stroke="#D5D5D5" cx="3" cy="3" r="2.5"/>
				</g>
			</g>
			<g transform="translate(225 -1308)">
				<g id="Ellipse_8-159" transform="translate(81 1427)">
					<circle fill="none" cx="3" cy="3" r="3"/>
					<circle fill="none" stroke="#D5D5D5" cx="3" cy="3" r="2.5"/>
				</g>
			</g>
			<g transform="translate(242 -1308)">
				<g id="Ellipse_8-160" transform="translate(81 1427)">
					<circle fill="none" cx="3" cy="3" r="3"/>
					<circle fill="none" stroke="#D5D5D5" cx="3" cy="3" r="2.5"/>
				</g>
			</g>
		</g>
	</g>
	<g id="Group_319" transform="translate(0 16.773)">
		
			<ellipse id="Ellipse_20" opacity="0.75" fill="#D1D1D1" enable-background="new    " cx="189.4" cy="229.42" rx="132.54" ry="21.45"/>
		<g id="Group_318" transform="translate(0 0)">
			<g id="Group_282" transform="translate(247.963 53.991)">
				<path id="Path_1699" fill="#DBDFF0" d="M4.17,0.02c1.12-0.2,4.05,0.83,7.15,5.63c2.04,3,3.38,6.42,3.93,10
					c0.35,1.59,3.01,11.9,3.96,12.92c2.47,2.66,8.85,9.81,9.43,10.28c0.99,0.8,11.29,10.95,11.29,10.95l-4.43,6.52
					c0,0-12.06-11.05-15.87-14.23c-3.28-2.75-6.21-5.89-8.73-9.35c-3.01-4.3-7.95-15.36-8.19-16.38S-4.12,1.52,4.17,0.02z"/>
			</g>
			<g id="Group_283" transform="translate(213.453 22.783)">
				<path id="Path_1700" fill="#122936" d="M56.64,194.85c0,0,1.01,9.03,0.29,11.92s-1.65,6.3-4.43,6.65s-4.64-2.98-4.47-6
					c0.21-2.5,0.93-4.92,2.13-7.13c0.68-1.58,1.15-3.25,1.39-4.95L56.64,194.85z"/>
				<path id="Path_1701" fill="#122936" d="M71.7,196.82c0,0,2.03,5.39,3.3,6.26s6.81,1.85,6.97,3.13s-0.54,3.36-3.49,3.53
					s-7.18,0.46-8.92-1.1s-2.66-6.66-4-6.89c-0.9,1.26-1.44,2.74-1.56,4.29c0,0-0.75,0.35-0.93-0.35s0.41-9.61,3.77-14.25
					S71.7,196.82,71.7,196.82z"/>
				<path id="Path_1702" fill="#EEA987" d="M67.53,118.45c0,0-4.97,13.55-4.61,16.25c0.25,5.22-0.18,10.45-1.29,15.55
					c-1.13,4.08,0.35,12.16-1.56,19.2s-3.47,24.41-3.47,26.67s-4.78,3.82-5.04-0.78s-4.52-27.2-3.65-33.28s3.3-13.73,2.09-18.33
					s-2.69-10.34-2.69-13.38S67.53,118.45,67.53,118.45z"/>
				<path id="Path_1703" fill="#EEA987" d="M69.09,118.8c0,0,12.94,19.98,13.9,22.07s0.87,6.52,0,7.99s-9.82,14.08-11.03,18.68
					s-4.17,21.11-4.87,22.85s0.2,5.33,1.59,6.02c0.94,0.42,1.99,0.56,3.01,0.41c0,0,5.32-15.66,8.35-20.88
					c2.45-4.21,12.59-20.74,13.81-21.87s3.56-8.6,3.22-10.08s-4.43-22.59-4.43-22.59S94.2,112.81,69.09,118.8z"/>
				<path id="Path_1704" fill="#1C4054" d="M48.76,89.26c0,0-6.69,12.86-4.78,24.07s2.78,20.07,0.87,23.29
					c0,0,14.42,0.43,27.54-4.78s22.16-8.17,22.16-8.17s-4.95-22.42-7.04-27.8s-3.67-11.44-3.82-13.84S48.76,89.26,48.76,89.26z"/>
				<path id="Path_1705" fill="#EEA987" d="M42.74,47.2c0,0-10.09,6.67-11.24,7.02S15.11,43.68,12.1,42.34s-2.9,4.93-2.9,4.93
					s18.66,15.98,20.57,16.39s3.82-0.23,9.38-3.3s9.27-5.04,9.27-5.04S49.53,48.77,42.74,47.2z"/>
				<path id="Path_1706" fill="#EEA987" d="M89.15,54.82c0,0,9.54,12.38,9.54,13.36S87.86,79.53,86.58,80.51l1.91,4.92
					c0,0,20.62-11.18,21.6-13.9s-6.66-14.5-13.73-23.93S85.81,51.01,89.15,54.82z"/>
				<path id="Path_1707" fill="#1C4054" d="M96.72,47.21c0,0.36-1.12,1.03-1.33,1.19c-0.54,0.42-1.08,0.82-1.63,1.22
					c-1.19,0.87-2.39,1.73-3.59,2.58c-0.43,0.22-0.82,0.5-1.18,0.83c-0.29,0.37-0.08,0.68,0.04,1.22c0.31,0.95,0.5,1.93,0.56,2.93
					c0.27,3.74-1.7,9.17-3.59,12.23c-0.88,1.19-1.61,2.49-2.16,3.86c-0.38,1.75-0.5,3.54-0.35,5.32c0.02,0.85,0.06,1.7,0.12,2.54
					c0.01,0.16,0.16,0.77,0.07,0.89c-0.05,0.06-0.48,0.05-0.56,0.06c-1.32,0.17-2.64,0.43-3.94,0.71
					c-6.36,1.38-12.42,3.81-18.76,5.21c-3.81,0.96-7.74,1.38-11.67,1.25c0.96-1.74,1.7-3.59,2.21-5.51
					c0.88-3.31,1.58-6.68,2.09-10.07c0.5-3.26,0.77-6.8-0.42-9.95c-0.69-1.55-1.55-3.02-2.56-4.38c-0.9-1.46-1.51-3.07-1.81-4.75
					c-0.68-3.3-2.85-6.09-5.88-7.56c0.52-0.55,1.11-1.03,1.76-1.42c0.96-0.68,1.94-1.33,2.92-1.97c0.94-0.74,1.95-1.38,3.03-1.9
					c0.75-0.2,1.52-0.35,2.3-0.44c1.62-0.3,3.24-0.6,4.86-0.88c4.5-0.79,9.02-1.52,13.55-2.11c4.17-0.65,8.38-0.99,12.6-1.02
					c1.63-0.07,3.25,0.28,4.71,1.02C91.68,40.32,94.58,43.79,96.72,47.21z"/>
				<path id="Path_1708" fill="#1C4054" d="M68.58,0c0,0,7.97-0.22,9.9,7.3c1.71,6.67,0.7,12.45,0.64,17.09s4.76,12.15,4.76,12.15
					s-8-0.8-8.76-3.29s-15.29,3.59-15.29,3.59s4.81-3.13,0.35-11.93s-4.5-12.67-4.63-15.52C55.45,7.53,57.4,0.06,68.58,0z"/>
				<path id="Path_1709" fill="#EEA987" d="M13.93,43.61c0,0-2.08-1.27-2.37-2.11s-0.42-3.32-1.31-4.24s-2.58-2.63-3.41-2.67
					s-7.19,2.35-6.64,3.02s3.18,1.12,4.99-0.07S7.21,38,7.21,38s-0.98,7.11-0.12,8.08s4.04,1.82,4.04,1.82S14.78,46.29,13.93,43.61z
					"/>
				<path id="Path_1710" fill="#DB9C7C" d="M0.44,37.81c0,0-1.13,1.35,0.24,3.48s5.08,5.34,6.06,5.1c1.21-0.37,2.29-1.06,3.14-1.98
					c0.2-0.52-1.35-7.36-2.38-7.52S3.86,38.29,0.44,37.81z"/>
				<path id="Path_1711" fill="#EEA987" d="M62.02,2.26c0,0-8.05,5.85-4.52,17.43s5.85,10.89,11.58,8.28s7.7-9.67,7.94-13.21
					S77.37-3.94,62.02,2.26z"/>
				<path id="Path_1712" fill="#EEA987" d="M86.16,37.53c-4.43,3.21-38.35,6.27-36.13,4.23c2-1.83,11.89-6.02,14.48-7.53
					c0.87-0.53,1.52-1.35,1.86-2.31l0,0c0.35-0.96,0.51-1.97,0.47-2.99l0,0c0.06-0.14,6.53-15.78,7.41-5.66
					c0.76,8.75,3.81,10.32,3.81,10.32C80.67,35.09,83.38,36.4,86.16,37.53z"/>
				<path id="Path_1713" fill="#1C4054" d="M60.81,6.66c0,0,1.55-0.2,2.85,5.49c0.57,2.48,2.04,5.91,6.7,9.34
					c5.06,3.72,5.91,4,5.91,4S82.69,2,69.25,0.72S55.93,10.19,56.05,12.8s0.59,2.19,0.59,2.19S56.82,6.99,60.81,6.66z"/>
				<path id="Path_1714" fill="#EEA987" d="M86.58,80.52c-0.41,0.24-0.88,0.35-1.36,0.3c-1.17-0.21-2.28-1.62-3.71-0.75
					s0.26,5.91,1.09,6.6s3.14,0.95,5.89-1.22S86.58,80.52,86.58,80.52z"/>
				<path id="Path_1715" fill="#EEA987" d="M82.08,79.8c0,0-2.52,0.39-5.28,1.11c-2.42,0.64-5.11,1.82-5.17,2.32
					c-0.07,0.57,2.53-0.3,4.97-0.78c2.25-0.45,4.35-0.71,4.35-0.71c-1.6,0.41-3.18,0.91-4.72,1.51c-2.53,1.01-5.02,2.28-5.02,2.89
					c0,0.3,0.96,0.19,2.29-0.11c-1.01,0.37-1.68,0.71-1.59,0.93c0.45,1.14,7.24-0.49,8.82-0.86c-1.21,0.29-4.89,1.33-4.13,1.86
					c0.87,0.61,6.01-0.83,8.09-0.8S82.08,79.8,82.08,79.8z"/>
				<path id="Path_1716" fill="#DB9C7C" d="M7.47,36.56c0.62,0.2,1.07,0.75,1.14,1.4c0.24,1.21,0.17,1.01,0.17,1.01
					s0.55-0.08,0.73,0.72c0.13,0.4,0.09,0.83-0.11,1.2c0,0,0.4,0.12,0.6,0.88c0.14,0.37,0.11,0.79-0.08,1.14
					c0,0,0.26,0.04,0.35,0.55c0.03,0.38-0.03,0.76-0.19,1.11L7.47,36.56z"/>
				<path id="Path_1717" fill="#A87860" d="M72.84,25.17c0,0-0.79,3.87-6.47,6.76c0.35-0.96,0.51-1.97,0.47-2.99l0,0
					C66.92,28.91,71.72,27.07,72.84,25.17z"/>
			</g>
			<path id="Path_1718" fill="#EEA886" d="M195.99,67.9c-0.44-0.14-0.9-0.26-1.36-0.34c-1.86,0.49-3.69,1.11-5.45,1.88
				c-7.54,2.89-20.16,8.11-20.16,8.11s-1.21,5.42-2.49,9.21l0,0c-0.27,0.81-0.62,2.38-0.76,2.51c-0.81,0.73-10.77,3.95-18.23,5.04
				c-7.43,1.08-8.51,2.01-8.51,2.01s-3.15-3.81-0.49-4.37s14.34-4.92,16.76-5.51c1.92-0.47,3.67-0.83,4.23-2.76
				c0.3-1.02,0.88-4.55,1.57-8c0.29-1.45,0.59-2.88,0.9-4.11l0,0c0.23-1.1,0.59-2.17,1.07-3.19c0.89-1.52,4.82-5.22,7.72-7.84
				c0.01,0,0.01-0.01,0.01-0.01c1.56-1.41,2.83-2.51,3.16-2.79c0.95-0.81,8.56-2.98,8.56-2.98s4.88,1.14,7.87,1.79
				c0.73,0.16,1.34,0.29,1.75,0.37c0.65,0.13,2.23,0.64,4.15,1.3l0,0C197.02,59.83,196.61,63.99,195.99,67.9z"/>
			<g id="Group_286" transform="translate(126.41 91.301)">
				<g id="Group_285">
					<g id="Group_284">
						<path id="Path_1719" fill="#EEA886" d="M12.7,0.77c-0.82-0.18-1.66-0.31-2.49-0.4c-0.7-0.05-1.7-0.27-2.33-0.34
							C6.53-0.04,5.19,0.02,3.85,0.2C3.14,0.71,2.39,1.16,1.61,1.55c-0.56,0.1-1.71,0.14-1.6,0.66s1.17,0.79,1.17,0.79
							C0.9,3.06,0.68,3.3,0.65,3.6C1.19,4.2,1.21,5.11,0.71,5.75c0.04,0.46,0.26,0.89,0.61,1.19c-0.1,0.34-0.08,0.71,0.06,1.04
							c0.17,0.43,0.55,0.75,1,0.83c0,0,0.16,1,0.67,1.12c0.45,0.05,0.91,0.02,1.35-0.09c2.18-0.58,4.19-1.67,5.87-3.18
							c1.39-1.18,2.98-2.09,4.7-2.7L12.7,0.77z"/>
					</g>
				</g>
			</g>
			<g id="Group_287" transform="translate(161.392 82.695)">
				<path id="Path_1720" fill="#EEA886" d="M10.2,0c0,0-8.12,0.95-8.58,1.47s-0.35,0.96,0.42,0.9s7.89-0.69,7.89-0.69
					S0.61,4.43,0.14,4.77c-0.28,0.2-0.12,1.06,0.3,1.07s9.84-2.18,9.84-2.18S1.59,6.24,1.28,6.65C1.11,6.98,1.23,7.39,1.56,7.56
					c0.14,0.08,0.31,0.1,0.47,0.06c0.66-0.15,8.89-2.08,8.89-2.08S4.74,7.83,4.7,8.35C4.67,8.66,4.77,9.41,6.35,8.77
					s5.47-1.75,5.47-1.75L10.2,0z"/>
			</g>
			<g id="Group_289" transform="translate(170.669 77.412)">
				<g id="Group_288">
					<path id="Path_1721" fill="#EEA886" d="M10.53,5.67c0,0-2.7,0.14-3.53-1.23c-0.8-1.04-1.8-1.9-2.95-2.54
						C3.34,1.46,1.61-0.65,1.12,0.2S3.8,3.8,4.36,4.5S1.02,4.95,0.31,5.46s-0.32,6.96,2.35,6.83s5.32-2.04,5.8-1.97
						c0.65,0.03,1.3,0.03,1.95-0.02L10.53,5.67z"/>
				</g>
			</g>
			<g id="Group_290" transform="translate(178.469 50.793)">
				<path id="Path_1722" fill="#DBDFF0" d="M1.6,38.66c0,0,19.93-2.79,24.35-3.88c2.04-0.5,4.74-3.33,7.3-6.64
					c0.84-1.09,1.67-2.24,2.46-3.38l0,0c3.14-4.53,5.6-8.88,5.6-8.88s9.28-10.88,1.83-15.72c-1.23-0.21-2.49-0.2-3.71,0.04
					c-4.6,1.32-8.37,10.62-9.02,12.04s-7.51,14.09-7.98,14.39s-6.2,1.55-9.34,2.21C8.54,29.78,0,31.55,0,31.55L1.6,38.66z"/>
			</g>
			<g id="Group_291" transform="translate(235.724 222.959)">
				<path id="Path_1723" fill="#202338" d="M8.32,0c0.79,1.49,1.7,2.92,2.71,4.27c1.07,1.21,5.17,3.38,5.2,6.99
					c0.02,3.91-6.91,2.82-9.63,2.68S3.68,11.71,2.54,9.5S0.24,7.66,0.03,5.88S1.14,0,1.14,0L8.32,0z"/>
			</g>
			<g id="Group_292" transform="translate(190.198 221.943)">
				<path id="Path_1724" fill="#202338" d="M12.53,0.66c0,0-3.34,3.73-6.74,4.52S0.02,6.96-0.01,9.1s9.77,3.55,13.66,1.39
					c5.8-3.22,6.39-2.25,7.03-3.86s-0.77-5.92-0.73-6.43C20.01-0.44,12.53,0.66,12.53,0.66z"/>
			</g>
			<g id="Group_293" transform="translate(202.725 219.764)">
				<path id="Path_1725" fill="#81807E" d="M0.38,1.05C0.22,1.64,0.1,2.24,0.01,2.84c0.07,0.04,7.65,0.94,7.42-0.46
					C7.24,1.24,6.98,0,6.98,0L0.38,1.05z"/>
			</g>
			<g id="Group_294" transform="translate(236.684 221.121)">
				<path id="Path_1726" fill="#81807E" d="M0.26,0.66c-0.12,0.56-0.2,1.13-0.26,1.71c0.06,0.04,7.69,1.4,7.65,0.02
					C7.57,1.55,7.34,0.74,6.96,0L0.26,0.66z"/>
			</g>
			<g id="Group_295" transform="translate(201.971 108.07)">
				<path id="Path_1727" fill="#292C47" d="M8.03,8.05c0,0-2.76,26.79-4.19,35.96C2.16,54.73,1.6,63.58,1.13,69.13
					c-0.59,6.98-0.7,41.31-1.11,43.35s9.14,0.56,9.14,0.56s4.7-44.86,6.45-52.29c1.63-6.92,7.69-36.72,9.18-34.83
					s3.34,34.77,4.44,40.23s4.46,48.19,4.46,48.19s7.6,1.51,9.62-0.2c0,0,0.92-36.83,0.22-47.06c-0.27-3.9,4.57-46.76-1.63-64.02
					C38.59-6.05,8.03,8.05,8.03,8.05z"/>
			</g>
			<g id="Group_296" transform="translate(209.858 111.605)">
				<path id="Path_1728" fill="#DBDFF0" d="M0.54,0L0,4.92c0,0,10.35,4.81,36.76,7.65l0.07-4.45L0.54,0z"/>
			</g>
			<g id="Group_297" transform="translate(209.451 49.825)">
				<path id="Path_1729" fill="#DBDFF0" d="M20,0c0,0-3.23,0.41-10.83,1.02C7.84,1.95,3.63,12.88,3.2,15.74S2.53,29.86,3.26,34.46
					s-4.77,24.99-2.86,28.37c0,0,18.68,7.74,37.59,7.32c0,0-0.21-18.65,1.2-24.7c1.8-7.75,6.04-25.59,6.04-25.59
					s1.53-14.02-0.41-15.03c-4.38-2.27-15.09-4.11-15.09-4.11L20,0z"/>
			</g>
			<g id="Group_298" transform="translate(224.501 20.166)">
				<path id="Path_1730" fill="#EEA987" d="M11.97,0.94c0,0-10.89-5.41-11.79,9.73s1.59,16.96,9.27,15.65s9.33-10.74,10.79-15.21
					S15.6,1.99,11.97,0.94z"/>
			</g>
			<g id="Group_299" transform="translate(227.328 37.528)">
				<path id="Path_1731" fill="#EEA987" d="M0,14.48c0,0,2.59,1.49,11.85-1.46c0.34-3.97,1.26-7.87,2.74-11.57
					C16.93-4.02,1.91,7.73,1.91,7.73c0.13,0.12,0.1,0.68-0.07,1.47c-0.17,0.78-0.4,1.55-0.69,2.29C0.46,13.33,0.61,13.01,0,14.48z"
					/>
			</g>
			<g id="Group_300" transform="translate(224.834 17.189)">
				<path id="Path_1732" fill="#FCCCA2" d="M17.52,21.38c0,0,0.46-4.02-1.17-4.57s-2.74,1.68-2.74,1.68l-1.34-0.22
					c0,0,1.64-3.95,0.15-5.05S1.29,11.92,0.24,10.42S1.8,0.95,4.49,0.43s9.98-1.38,14.06,3.13c0,0,3.7,2.09,3.51,5.31
					S19.12,19.35,17.52,21.38z"/>
			</g>
			<g id="Group_301" transform="translate(228.488 43.554)">
				<path id="Path_1733" fill="#A77860" d="M0,5.47C8.94,4.93,10.79,0.08,10.82,0C6.93,4.04,0.69,3.17,0.69,3.17
					C0.52,3.95,0.29,4.72,0,5.47z"/>
			</g>
			<g id="Group_302" transform="translate(238.025 31.389)">
				<path id="Path_1734" fill="#EEA987" d="M1.45,0.71C2.09-0.57,4.9-0.1,4.39,1.98s-3.2,5.06-4.07,4.35S0.56,2.46,1.45,0.71z"/>
			</g>
			<g id="Group_307">
				<path id="Path_1735" fill="#EEA987" d="M174.38,19.39c0,0-0.11-3.01-1.18-4.22c-1.2-1.26-2.53-2.38-3.99-3.33
					c-0.58-0.29-2.87-1.96-1.73-2.2s6.36,1.81,7.02,2.63s1.5-3.33,2.31-3.9s8.28,2.01,7.34,4.76s-3.7,4.96-4.01,5.39
					c-0.27,0.37-0.49,0.78-0.66,1.21L174.38,19.39z"/>
				<path id="Path_1736" fill="#EEA987" d="M176.42,8.94c0,0,3.48-8.15,4.23-8.46s1.23-0.04,0.94,0.74s-3.11,8-3.11,8
					s5.95-8.79,6.49-9.17c0.31-0.22,1.28,0.23,1.17,0.67s-5.43,9.53-5.43,9.53s5.57-8.19,6.14-8.37c0.5-0.16,1.3,0.46,0.93,1.1
					s-5.04,8.58-5.04,8.58s4.48-5.56,5.1-5.55c0.54,0.01,1.22,0.44,0.01,1.86s-3.66,5.11-3.66,5.11L176.42,8.94z"/>
				<path id="Path_1737" fill="#B3C2B6" d="M59.4,73.63c0,0-0.38-0.25,0.68-1.27s4.29-4.61,4.57-3.97S65.28,73.22,59.4,73.63z"/>
				<path id="Rectangle_12" fill="#3D74A1" d="M4.81,9.91h9.56c2.66,0,4.81,2.15,4.81,4.81c0,0,0,0,0,0v0.64
					c0,2.66-2.15,4.81-4.81,4.81H4.81C2.15,20.17,0,18.01,0,15.36v-0.64C0,12.06,2.15,9.91,4.81,9.91z"/>
				<path id="Path_1738" fill="#5E5C5A" d="M55.67,61.33L8.43,20.7h2.17l46.37,40.05L55.67,61.33z"/>
				<path id="Path_1739" fill="#EEA987" d="M64.98,69.73c0,0-1.66-1.14-1.78-2.03s0.24-3.32-0.44-4.41s-2-3.08-2.8-3.28
					s-7.49,0.88-7.09,1.64s2.88,1.72,4.89,0.92s1.88,0.84,1.88,0.84s-2.36,6.75-1.72,7.88s3.59,2.57,3.59,2.57
					S65.28,72.52,64.98,69.73z"/>
				<path id="Path_1740" fill="#3D74A1" d="M82.5,222.94c-1.84,0.88-3.61,1.91-5.29,3.08c-1.54,1.25-8.43,0.61-9.9,3.93
					s5.04,5,12.08,3.22s8.24-3.04,10.61-4.04c2.49-1.05-0.15-6.58-0.15-6.58L82.5,222.94z"/>
				<path id="Path_1741" fill="#3D74A1" d="M154.07,214.18c-0.93,1.16-1.55,2.55-1.79,4.02c-0.44,2.52-6.75,8.42-6.48,10.44
					s1.48,4.57,7.79,1.28s7.18-9.87,8.29-11.55s0.88-5.41-1.69-7.79S154.07,214.18,154.07,214.18z"/>
				<path id="Path_1742" fill="#3C3F66" d="M102.26,128.34c0,0-18.58,30.57-19.23,34.85s-1.36,50.24-2.14,53.25
					c-0.55,1.58-0.09,3.33,1.16,4.43c0,0,6.2,2.14,8.06-0.29s1.29-3.86,1.29-3.86s6.14-36.95,6.93-43.03s20.58-32.02,22.37-29.66
					s5.08,24.66,6.58,27.87s23.8,40.88,25.52,40.88s8.15-0.86,7.15-5.29s-15.51-37.09-15.51-40.81s-4.54-38.42-5.7-43.08
					S102.26,128.34,102.26,128.34z"/>
				<path id="Path_1743" fill="#4183BA" d="M118.67,60.39c0,0-12.42,3.23-15,5.09s-19.2,16.44-20.39,16.49S64.65,68.39,64.65,68.39
					s0.04,3.71-5.25,5.23c0,0,19.35,20.29,23.07,20.1s21.01-13.29,21.01-13.29s-0.29,7.72,1.29,12.15s1.64,12.86,0.57,16.8
					s-5.22,18.8-5.22,18.8s30.47,7.23,39.55,0.72c0,0-0.74-22.31-0.96-25.95s5.58-23.8,7.08-26.23s25.19-28.04,25.04-31.76
					s9.08-25.72,9.08-25.72s-3.31-2.44-6.07-1.98c0,0-15.14,23.67-16.24,26.87s-13.77,15.91-16.11,17.01s-10.67,0.67-10.67,0.67
					L118.67,60.39z"/>
				<path id="Path_1744" fill="#EEA987" d="M130.83,61.8c0,0-10.15,11.82-11.39,11.34s-0.77-12.76-0.77-12.76
					c0.15-0.59,0.26-1.19,0.34-1.8c0.18-1.21,0.21-2.44,0.09-3.66c-0.07-0.56,0.6-1.29,1.69-2.07c3.96-2.86,13.49-6.57,13.49-6.57
					S129.84,55.93,130.83,61.8z"/>
				<path id="Path_1745" fill="#DB9C7C" d="M82.53,223.31l-0.16-1.91l7.64-0.53l-0.19,1.98c0,0-0.18,1.08-3.81,1.3
					S82.53,223.31,82.53,223.31z"/>
				<path id="Path_1746" fill="#DB9C7C" d="M152.79,212.8c0,0,0.61,2.25,0.76,2.72s3.89,0.88,5.21-1.2s1.42-2.49,1.28-3.44
					c-0.09-0.48-0.26-0.94-0.5-1.36L152.79,212.8z"/>
				<path id="Path_1747" fill="#DB9C7C" d="M53.05,61.9c0,0-1.37,1.1-0.45,3.44s3.91,6.22,4.91,6.18c1.25-0.13,2.45-0.58,3.46-1.32
					c0.3-0.47,0.14-7.46-0.84-7.82S56.3,63.04,53.05,61.9z"/>
				<path id="Path_1748" fill="#585D96" d="M80.41,220.88c3.45,1.26,7.19,1.46,10.75,0.57c0.6-1.5,0.69-3.16,0.24-4.72
					c0,0-4.22,1.87-10.41-0.91C80.34,217.42,80.13,219.17,80.41,220.88z"/>
				<rect id="Rectangle_13" x="5.75" y="16.59" fill="#5E5C5A" width="7.68" height="4.11"/>
				<g id="Group_306" transform="translate(133.736 130.981)">
					<g id="Group_303">
						<path id="Path_1749" fill="#59A9EB" d="M0.15,1.67C0.04,0.49,0,0.1,0,0.1L0.52,0c0,0,0.06,0.44,0.17,1.61L0.15,1.67z"/>
					</g>
					<g id="Group_304" transform="translate(0.524 5.374)">
						<path id="Path_1750" fill="#59A9EB" d="M21.74,67.74c-0.54-1-1.14-2.13-1.78-3.34l0.48-0.26c0.65,1.21,1.25,2.34,1.78,3.34
							L21.74,67.74z M18.18,61.05c-0.57-1.08-1.17-2.21-1.77-3.35l0.48-0.26c0.6,1.14,1.19,2.27,1.77,3.35L18.18,61.05z
							 M14.65,54.35c-0.58-1.12-1.17-2.25-1.75-3.36l0.49-0.25c0.58,1.11,1.16,2.24,1.75,3.36L14.65,54.35z M11.17,47.62
							c-0.61-1.2-1.19-2.34-1.71-3.38l0.49-0.24c0.52,1.04,1.1,2.18,1.71,3.38L11.17,47.62z M7.78,40.84
							c-0.65-1.34-1.2-2.5-1.62-3.44l0.5-0.22c0.42,0.93,0.96,2.08,1.61,3.42L7.78,40.84z M4.84,33.81C4.57,32.81,4.29,31.56,4,30.1
							l0.54-0.11c0.29,1.44,0.57,2.68,0.83,3.67L4.84,33.81z M3.32,26.37c-0.19-1.15-0.39-2.41-0.59-3.74l0.54-0.08
							c0.2,1.33,0.39,2.58,0.59,3.74L3.32,26.37z M2.2,18.87c-0.16-1.19-0.33-2.46-0.49-3.76l0.54-0.07
							c0.16,1.3,0.33,2.56,0.49,3.75L2.2,18.87z M1.25,11.35C1.1,10.14,0.95,8.87,0.81,7.59l0.54-0.06
							c0.14,1.28,0.29,2.55,0.44,3.76L1.25,11.35z M0.39,3.82C0.26,2.58,0.13,1.31,0,0.06L0.54,0c0.13,1.26,0.26,2.53,0.4,3.77
							L0.39,3.82z"/>
					</g>
					<g id="Group_305" transform="translate(24 76.099)">
						<path id="Path_1751" fill="#59A9EB" d="M0.88,1.89c0,0-0.32-0.59-0.88-1.63L0.48,0c0.56,1.03,0.88,1.63,0.88,1.63L0.88,1.89z"
							/>
					</g>
				</g>
				<path id="Path_1752" fill="#585D96" d="M151.26,213.01c0,0,8.43,0.07,9.72-4.93c0,0-1.03-2.7-1.98-3.42c0,0-1.42,4.07-9.19,4.46
					C150.09,210.49,150.58,211.8,151.26,213.01z"/>
				<path id="Path_1753" fill="#A87860" d="M129.79,53.06c-2.93,2.92-6.7,4.86-10.79,5.53c0.18-1.21,0.21-2.44,0.09-3.66
					c-0.07-0.56,0.6-1.29,1.69-2.07L129.79,53.06z"/>
				<path id="Path_1754" fill="#EEA987" d="M119.3,31.26c-1.56,2.63-2.62,5.52-3.14,8.53c-0.95,5.19-0.52,15.03,3.62,15.27
					s9.29-0.74,10.72-2.69s6.67-9.91,7.15-15.3S126.3,21.21,119.3,31.26z"/>
				<path id="Path_1755" fill="#323657" d="M134.61,45.66c0,0,3.4-4.75,4.25-8.92c0.5-2.48,1.01-5.03-0.75-6.41
					c-0.87-0.79-2.04-1.18-3.22-1.07c0,0-6.52-6.46-11.76-3.36s-4.81,7.16-4.81,7.16s4.69-3.61,11.7-0.04c0,0,2.03,3.18-0.78,7.85
					l3.54-0.56C132.78,40.31,135.3,42.76,134.61,45.66z"/>
				<path id="Path_1756" fill="#EEA987" d="M131.16,40.72c0.33-1.48,3.67-2.38,3.91-0.62s-1.71,5.91-3.43,5.77
					S131.16,40.72,131.16,40.72z"/>
				<path id="Path_1757" fill="#DB9C7C" d="M60.23,62.45c0.52,0.32,0.81,0.91,0.74,1.52c-0.04,1.15-0.06,0.95-0.06,0.95
					s0.51,0.05,0.51,0.81c0.03,0.39-0.1,0.78-0.36,1.07c0,0,0.34,0.19,0.36,0.93c0.05,0.37-0.07,0.75-0.32,1.02
					c0,0,0.22,0.1,0.2,0.57c-0.05,0.35-0.19,0.69-0.41,0.97L60.23,62.45z"/>
			</g>
			<path id="Path_1758" fill="#D6BAB0" d="M183.19,199.47c0,0,2.72,7.52,4.42,8.33s4.28,5.11,2.78,7.22s-10.26,7.3-10.94,8.77
				S176.65,202.81,183.19,199.47z"/>
			<path id="Path_1759" fill="#DE9D7D" d="M180.6,191.19l-2.96,11.87c0,0-2.76-5.68-5.58-11.27c-0.71-1.4-1.42-2.79-2.09-4.09
				c-1.06-2.15-2.23-4.25-3.51-6.29c-2.05-2.81-8.77-13.95-11.31-17.01s-0.61-6.31-0.24-10.77s6.04-20.27,7.04-25.05
				s5.53-21.99,5.53-21.99C175.64,110.29,180.6,191.19,180.6,191.19z"/>
			<path id="Path_1760" fill="#EEA886" d="M168.5,107.32c0,0,0.36,8.83,0.07,11.13s-0.67,15.42-0.84,21.76s-2.05,18.58-1.28,21.16
				s3.81,17.26,4.73,22.06s2.71,35.46,2.71,35.46c2.55,0.55,5.21,0.1,7.45-1.25c0,0,0.45-13.36,2.34-20.21s1.83-19.22-0.61-27.03
				s2.07-19.15,5.18-25.42s8.05-31.08,7.74-34.29s-2.55-9.82-6.91-14.94S168.5,107.32,168.5,107.32z"/>
			<path id="Path_1761" fill="#D6BAB0" d="M181.34,217.63c-1.63,0.38-3.3,0.51-4.97,0.41c-0.96-0.19-1.96-0.12-2.88,0.22
				c0,0-3.5,6.23-6.83,7.86s-11.46,4.23-10.51,7.5s10.36,2.32,13.8,0.67s12.07-1.86,12.98-5.17S180.99,219.27,181.34,217.63z"/>
			<path id="Path_1762" fill="#FCCCA2" d="M166.09,109.47c0,0-1.43,7.98-1.96,10.12s-8.04,23.07-8.04,23.07s21.3,15.47,41.85,12.17
				c0,0,0.35-28.37-0.71-41.08c-0.54-6.34-2.85-12.39-6.66-17.48C188.78,93.69,166.09,109.47,166.09,109.47z"/>
			<path id="Path_1763" fill="#C78564" d="M172.07,191.79L172.07,191.79c-0.71-1.4-1.42-2.79-2.09-4.09
				c0.21-1.66-0.88-14.6-0.88-14.6C171.39,180.05,172.07,191.79,172.07,191.79z"/>
			<g id="Group_308" transform="translate(176.788 21.009)">
				<path id="Path_1764" fill="#323657" d="M4.79,0.76c0,0,3.95-2.62,7.61,1.88s2.88,8.98,1.74,12.97
					c-2.42,8.46-5.72,17.53-4.13,21.58c1.6,4.06,1.21,2.05,1.21,2.05S-1.09,42.58,0.08,23.98S4.79,0.76,4.79,0.76z"/>
			</g>
			<g id="Group_309" transform="translate(161.822 43.926)">
				<path id="Path_1765" fill="#FCCCA2" d="M23.24,6.48c0,0,0.25,2.24,1.12,3.09s8.07,2.16,9.88,4.35s-0.83,14.31-1.45,17.58
					s-3.85,10.22-3.64,12.57c0.44,3.47,1.17,6.9,2.19,10.25c0.69,1.78,2.86,9.39,3.36,10.84c0,0-18.13,5.77-30.77,2.29
					c0,0,0.79-11.75,0.41-14.23S2.89,41.62,2.86,39.08s-4.04-4.86-2.51-9.47C1.68,25.57,8.24,17.57,9.45,16s4.23-4.66,4.23-4.66
					s1.57-4.15,0.98-6.7L22.99,0C22.94,2.16,23.02,4.33,23.24,6.48z"/>
			</g>
			<g id="Group_310" transform="translate(186.494 56.411)">
				<path id="Path_1766" fill="#EEA987" d="M3.9,0.39C3.08,0.7-0.65,0.65,0.1,5.1s3.58,8.65,5.01,10.53s7.47,11.48,8.37,13.16
					s0.62,3.08,0.32,6.19s-0.22,21.92-0.43,23.26l4.5-0.37c0,0,4.95-22.47,4.74-25.39s-0.86-5.36-3.07-9.98S12.66,5.98,11.57,4.4
					S8.21-1.27,3.9,0.39z"/>
			</g>
			<g id="Group_311" transform="translate(186.182 55.702)">
				<path id="Path_1767" fill="#FCCCA2" d="M5.68,18.99c0,0,5.99-4.67,10.86-5.62c0,0-4.69-15.54-13.47-13.12
					C-4.11,2.23,3.22,13.9,5.68,18.99z"/>
			</g>
			<g id="Group_312" transform="translate(172.489 42.517)">
				<path id="Path_1768" fill="#EEA987" d="M13.69,10.98c0,0-4.88,8.45-11.04,8.84s0.36-7.07,0.36-7.07
					c0.27-0.69,0.49-1.41,0.65-2.14C3.81,9.98,3.92,9.34,3.99,8.7l0,0c0.1-0.88,0.1-1.76,0-2.64L12.49,0
					C12.49,0,12.05,9.09,13.69,10.98z"/>
			</g>
			<g id="Group_313" transform="translate(167.326 21.692)">
				<path id="Path_1769" fill="#EEA987" d="M8.52,29.26c-1.48-0.03-5.63-0.46-7.81-9.96C-1.96,7.68,3.46,1.56,8.17,0.37
					s9.08,0.39,11.59,6.44c0,0,1.84,4.72-0.91,13.22S10.11,29.29,8.52,29.26z"/>
			</g>
			<g id="Group_314" transform="translate(166.633 21.053)">
				<path id="Path_1770" fill="#323657" d="M12.69,8.51c0,0-6.33,0.49-12.1,9.43c0,0-2.91-10.61,4.23-15.58s12.25-0.86,14.04,1.23
					c0,0,2.53,0.54,2.68,5.33s3.43,11.83-3.58,15.36c0,0,0.64-5.34-0.01-6.58S15.16,17.32,12.69,8.51z"/>
			</g>
			<g id="Group_315" transform="translate(183.672 35.817)">
				<path id="Path_1771" fill="#EEA987" d="M0.53,0.82C0.84-0.02,1.7-0.36,2.2,0.51S2.17,4.85,0.9,5.24S-0.09,2.5,0.53,0.82z"/>
			</g>
			<g id="Group_316" transform="translate(176.17 46.994)">
				<path id="Path_1772" fill="#A77860" d="M6.98,0c0,0-1.81,5.75-6.98,6.06c0.14-0.7,0.23-1.41,0.29-2.12l0,0
					C2.88,3.37,5.23,1.99,6.98,0z"/>
			</g>
			<path id="Path_1773" fill="#FCCCA2" d="M173.91,56.92c0,0-9.93,3.15-12.05,11.93l3.83,1.42L173.91,56.92z"/>
			<g id="Group_317" transform="translate(195.981 108.726)">
				<path id="Path_1774" fill="#EEA886" d="M4.01,1.17c0,0,0.32,3.27-0.2,3.94c-0.53,0.77-0.99,1.57-1.4,2.41
					c-0.37,0.68-1.94,2.21-2.09,3.03c0.1,1.04,0.14,2.09,0.1,3.14c-0.19,0.67-0.72,1.99-0.2,2.1s1.27-0.96,1.27-0.96
					s-0.14,0.62,0.27,0.87c0.38,0.3,0.9,0.35,1.32,0.11c0,0,0.22,0.7,0.61,0.8c0.45,0.16,0.95,0.1,1.35-0.15
					C5.3,16.73,5.64,16.88,6,16.88c0.51-0.03,0.97-0.31,1.23-0.75c0,0,0.96,0.27,1.32-0.25c0.29-0.49,0.49-1.04,0.58-1.6
					C9.56,11.57,9.51,8.8,8.97,6.1c-0.5-2-0.62-4.07-0.34-6.11L4.01,1.17z"/>
			</g>
		</g>
	</g>
</g>
</svg>
