<?xml version="1.0" encoding="utf-8"?>
<!-- Generator: Adobe Illustrator 24.0.1, SVG Export Plug-In . SVG Version: 6.00 Build 0)  -->
<svg version="1.1" id="Laag_1" xmlns="http://www.w3.org/2000/svg" xmlns:xlink="http://www.w3.org/1999/xlink" x="0px" y="0px"
	 viewBox="0 0 2857.4 1084.6" style="enable-background:new 0 0 2857.4 1084.6;" xml:space="preserve">
<style type="text/css">
	.st0{fill:url(#Path_1668-2_1_);}
	.st1{fill:url(#Subtraction_5_1_);}
	.st2{fill:url(#Subtraction_6_1_);}
	.st3{fill:url(#Subtraction_3-2_1_);}
</style>
<g transform="matrix(1, 0, 0, 1, 0, 0)">
	
		<linearGradient id="Path_1668-2_1_" gradientUnits="userSpaceOnUse" x1="912.541" y1="1019.5977" x2="913.144" y2="1018.3616" gradientTransform="matrix(2857.3755 0 0 -1052.8735 -2606823.5 1073435.625)">
		<stop  offset="0" style="stop-color:#EA00FB"/>
		<stop  offset="1" style="stop-color:#211FFF"/>
	</linearGradient>
	<path id="Path_1668-2" class="st0" d="M1473.2,76.9c-151.9,1.7-161.4-68.1-317.6-64.4S1021.1,129,817.9,120.4S433.8-55.2,246.7,65
		S-94.5,400.1,69.3,601.2c71,87.1-25.8,323.3,177.3,407.3s318.7,27.3,543.3,3.7s191-32.6,378.5-35.4s190.1,76.3,354.7,60.6
		s198.1-90.7,412-111.6c213.9-20.9,190.2,24.7,443.6,28.1s340,87.7,440-79.7s-24-526.2-40-590.1c-1.2-4.7-1.8-7.2-1.8-7.2
		S2745.8,73.6,2599.4,18s-318.3,36.3-484.1,30.7S1936.6-0.3,1763.5,5.7S1625.2,75.2,1473.2,76.9z"/>
</g>
<g id="Group_357" transform="translate(1065.147 -4274.357)">
	
		<linearGradient id="Subtraction_5_1_" gradientUnits="userSpaceOnUse" x1="-156.1542" y1="5294.2021" x2="-156.1542" y2="5293.2021" gradientTransform="matrix(268.001 0 0 -268.0005 41828.4844 1423211.75)">
		<stop  offset="0" style="stop-color:#5400FF;stop-opacity:0.302"/>
		<stop  offset="1" style="stop-color:#BD00FF;stop-opacity:0.502"/>
	</linearGradient>
	<path id="Subtraction_5" class="st1" d="M-21,4631c-9.1,0-18.1-0.9-27-2.7c-17.1-3.5-33.4-10.4-47.9-20.2
		c-21.5-14.5-38.4-35-48.5-59c-3.4-8.1-6-16.5-7.8-25.2c-3.6-17.8-3.6-36.2,0-54c3.5-17.1,10.4-33.4,20.2-47.9
		c14.5-21.5,35-38.4,59-48.5c8.1-3.4,16.5-6,25.2-7.8c17.8-3.6,36.2-3.6,54,0c17.1,3.5,33.4,10.4,47.9,20.2
		c21.5,14.5,38.4,35,48.5,59c3.4,8.1,6,16.5,7.8,25.2c3.6,17.8,3.6,36.2,0,54c-3.5,17.1-10.4,33.4-20.2,47.9
		c-14.5,21.5-35,38.4-59,48.5c-8.1,3.4-16.5,6-25.2,7.8C-2.9,4630.1-11.9,4631-21,4631z M-21,4396c-55.8,0-101,45.2-101,101
		s45.2,101,101,101s101-45.2,101-101C79.9,4441.2,34.8,4396.1-21,4396z"/>
	
		<linearGradient id="Subtraction_6_1_" gradientUnits="userSpaceOnUse" x1="-148.5412" y1="5291.2441" x2="-148.5412" y2="5290.2441" gradientTransform="matrix(-229.7217 138.0307 138.0305 229.7213 -764293.9375 -1190322.125)">
		<stop  offset="0" style="stop-color:#5400FF;stop-opacity:0.302"/>
		<stop  offset="1" style="stop-color:#BD00FF;stop-opacity:0.502"/>
	</linearGradient>
	<path id="Subtraction_6" class="st2" d="M44,4456.1c7.8-4.7,16-8.6,24.6-11.6c16.5-5.8,34-8.3,51.5-7.4c26,1.4,51,10.2,72,25.5
		c7.1,5.2,13.7,11.1,19.6,17.5c12.3,13.4,21.8,29.2,27.8,46.3c5.8,16.5,8.3,34,7.4,51.5c-1.4,26-10.2,51-25.5,72
		c-5.2,7.1-11.1,13.7-17.5,19.6c-13.4,12.3-29.2,21.8-46.3,27.8c-16.5,5.8-34,8.3-51.5,7.4c-26-1.4-51-10.2-72-25.5
		c-7.1-5.2-13.7-11.1-19.6-17.5c-12.3-13.4-21.8-29.2-27.8-46.3c-5.8-16.5-8.3-34-7.4-51.5c1.4-26,10.2-51,25.5-72
		c5.2-7.1,11.1-13.7,17.5-19.6C28.9,4466.3,36.2,4460.8,44,4456.1z M165,4657.6c47.8-28.7,63.3-90.8,34.6-138.6
		s-90.8-63.3-138.6-34.6c-47.8,28.7-63.3,90.8-34.6,138.6C55.2,4670.8,117.2,4686.2,165,4657.6z"/>
</g>
<g transform="matrix(1, 0, 0, 1, 0, 0)">
	
		<linearGradient id="Subtraction_3-2_1_" gradientUnits="userSpaceOnUse" x1="911.6414" y1="1019.5088" x2="911.0369" y2="1018.7121" gradientTransform="matrix(604.0063 0 0 -604.0037 -548573.0625 616328.625)">
		<stop  offset="0" style="stop-color:#EF64FF;stop-opacity:0.302"/>
		<stop  offset="1" style="stop-color:#002CA7"/>
	</linearGradient>
	<path id="Subtraction_3-2" class="st3" d="M1881.1,1084.6c-20.4,0-40.8-2.1-60.9-6.1c-38.6-7.9-75.3-23.4-108-45.4
		c-48.6-32.8-86.6-78.9-109.4-132.9c-7.7-18.3-13.6-37.3-17.6-56.7c-8.2-40.2-8.2-81.6,0-121.7c7.9-38.6,23.4-75.3,45.4-108
		c32.8-48.6,78.9-86.6,132.9-109.4c18.3-7.7,37.3-13.6,56.7-17.6c40.2-8.2,81.6-8.2,121.7,0c38.6,7.9,75.3,23.4,108,45.4
		c48.6,32.8,86.6,78.9,109.4,132.9c7.7,18.3,13.6,37.3,17.6,56.7c8.2,40.2,8.2,81.6,0,121.7c-7.9,38.6-23.4,75.3-45.4,108
		c-32.8,48.6-78.9,86.6-132.9,109.4c-18.3,7.7-37.3,13.6-56.7,17.6C1922,1082.6,1901.6,1084.7,1881.1,1084.6z M1881.6,580.6
		c-111.7,0-202.5,90.8-202.5,202.5s90.8,202.5,202.5,202.5c111.7,0,202.5-90.8,202.5-202.5S1993.3,580.6,1881.6,580.6z"/>
</g>
</svg>
