<svg xmlns="http://www.w3.org/2000/svg" width="691.13" height="451.71" viewBox="0 0 691.13 451.71"><title>jumping_people</title><g style="isolation:isolate"><g id="OBJECTS"><g style="opacity:0.75"><path d="M225.35,473.3c-54.56-.47-105.38-28.57-134.12-74.95l-.52-.85c-32.9-53.46-50.82-117.38-43-179.67S90.72,95.72,145.31,64.73s128-29.25,177.22,9.68c26.84,21.21,45.1,51.1,65.85,78.29s46.45,53.34,79.69,61.4c31.07,7.53,63.38-1.92,94.42-9.55s65.25-13.19,93.83,1.13c22.24,11.13,37.77,33.4,43.91,57.5,16.58,65.1-21.86,128-72.5,172.84a159.36,159.36,0,0,1-107,39.83Z" transform="translate(-42.09 -24.14)" style="fill:#f0f7ff"/><path d="M129.7,164.48C170.46,122.72,221.1,92,273.92,67.81c53-24.21,108.19-46,167.63-43.46,54.85,2.37,107.52,25.47,151,59,49.73,38.32,89.15,91.72,104,152.72s3.05,129.45-37,177.79-107.09,49.74-166.94,30.81c-32.62-10.32-62.48-8.79-91.53-26.85s-62.34-33.41-96.29-29.15c-31.72,4-58.57,24.27-84.89,42.42S161,455.21,129.23,452c-24.74-2.53-44.64-6.5-58.93-26.86-55.82-79.53-2.4-195.61,56.19-257.28C127.55,166.7,128.63,165.59,129.7,164.48Z" transform="translate(-42.09 -24.14)" style="fill:#f0f7ff;mix-blend-mode:multiply"/></g><circle cx="186.54" cy="105.09" r="4.19" style="fill:#ff7551"/><circle cx="368.51" cy="212.39" r="4.19" style="fill:#a45ee2"/><path d="M576.65,178.35a4.19,4.19,0,1,1-4.19-4.19A4.18,4.18,0,0,1,576.65,178.35Z" transform="translate(-42.09 -24.14)" style="fill:#a45ee2"/><path d="M150.31,101.91a4.2,4.2,0,1,1-4.2-4.19A4.2,4.2,0,0,1,150.31,101.91Z" transform="translate(-42.09 -24.14)" style="fill:#a45ee2"/><path d="M344.24,179l-2.53-2.54,2.53-2.53a.54.54,0,0,0-.77-.77l-2.53,2.53-2.54-2.53a.54.54,0,0,0-.76,0,.53.53,0,0,0,0,.77l2.53,2.53L337.64,179a.53.53,0,0,0,0,.77.54.54,0,0,0,.76,0l2.54-2.54,2.53,2.54a.54.54,0,0,0,.77-.77Z" transform="translate(-42.09 -24.14)" style="fill:#ffd13d"/><path d="M661.93,115l-2.53-2.53,2.53-2.54a.53.53,0,0,0,0-.77.54.54,0,0,0-.76,0l-2.54,2.54-2.54-2.54a.54.54,0,0,0-.76,0,.55.55,0,0,0,0,.77l2.53,2.54L655.33,115a.55.55,0,0,0,0,.77.54.54,0,0,0,.76,0l2.54-2.54,2.54,2.54a.54.54,0,0,0,.76,0A.53.53,0,0,0,661.93,115Z" transform="translate(-42.09 -24.14)" style="fill:#ffd13d"/><path d="M82.35,210.65l-2.54-2.54,2.54-2.54a.54.54,0,0,0,0-.76.53.53,0,0,0-.77,0l-2.53,2.53-2.54-2.53a.53.53,0,0,0-.77,0,.54.54,0,0,0,0,.76l2.54,2.54-2.54,2.53a.54.54,0,0,0,.77.77l2.54-2.53,2.53,2.53a.55.55,0,0,0,.77,0A.54.54,0,0,0,82.35,210.65Z" transform="translate(-42.09 -24.14)" style="fill:#ffd13d"/><path d="M531.12,253.75l-2.53-2.53,2.53-2.54a.53.53,0,0,0,0-.76.52.52,0,0,0-.76,0l-2.54,2.53-2.54-2.53a.54.54,0,0,0-.76.76l2.53,2.54-2.53,2.53a.53.53,0,0,0,0,.77.54.54,0,0,0,.76,0l2.54-2.53,2.54,2.53a.54.54,0,0,0,.76,0A.55.55,0,0,0,531.12,253.75Z" transform="translate(-42.09 -24.14)" style="fill:#46cff3"/><path d="M312.47,331.86l-2.54-2.54,2.54-2.53a.54.54,0,1,0-.77-.77l-2.54,2.53L306.63,326a.54.54,0,1,0-.77.77l2.54,2.53-2.54,2.54a.54.54,0,0,0,.77.77l2.53-2.54,2.54,2.54a.54.54,0,1,0,.77-.77Z" transform="translate(-42.09 -24.14)" style="fill:#3c3640"/><path d="M497.53,88.87h-3.06l2.17-2.17a.59.59,0,0,0,0-.83.6.6,0,0,0-.84,0L493.64,88V85a.6.6,0,0,0-.59-.59.59.59,0,0,0-.59.59V88l-2.17-2.17a.59.59,0,1,0-.83.83l2.16,2.17h-3.06a.59.59,0,1,0,0,1.18h3.06l-2.16,2.16a.6.6,0,0,0,0,.84.61.61,0,0,0,.42.17.58.58,0,0,0,.41-.17l2.17-2.17v3.06a.58.58,0,0,0,.59.59.59.59,0,0,0,.59-.59V90.88l2.16,2.17a.6.6,0,0,0,.84,0,.6.6,0,0,0,0-.84l-2.17-2.16h3.06a.59.59,0,0,0,0-1.18Z" transform="translate(-42.09 -24.14)" style="fill:#ff7551"/><path d="M670.2,227.71h-3.06l2.16-2.16a.6.6,0,0,0,0-.84.59.59,0,0,0-.83,0l-2.17,2.17v-3.06a.58.58,0,0,0-.59-.59.59.59,0,0,0-.59.59v3.06L663,224.71a.59.59,0,1,0-.84.84l2.17,2.16h-3.06a.59.59,0,0,0-.59.59.58.58,0,0,0,.59.59h3.06l-2.17,2.17a.59.59,0,0,0,.84.83l2.16-2.17v3.07a.6.6,0,0,0,.59.59.59.59,0,0,0,.59-.59v-3.07l2.17,2.17a.54.54,0,0,0,.41.17.57.57,0,0,0,.42-.17.59.59,0,0,0,0-.83l-2.16-2.17h3.06a.59.59,0,0,0,.59-.59A.6.6,0,0,0,670.2,227.71Z" transform="translate(-42.09 -24.14)" style="fill:#ff7551"/><path d="M463.85,324h-3.06l2.17-2.17a.59.59,0,0,0,0-.83.6.6,0,0,0-.84,0L460,323.2v-3.06a.6.6,0,0,0-.59-.59.59.59,0,0,0-.59.59v3.06L456.61,321a.59.59,0,0,0-.83.83L458,324h-3.07a.59.59,0,0,0-.59.59.6.6,0,0,0,.59.59H458l-2.17,2.16a.6.6,0,0,0,0,.84.63.63,0,0,0,.42.17.58.58,0,0,0,.41-.17l2.17-2.17v3.06a.58.58,0,0,0,.59.59.59.59,0,0,0,.59-.59v-3.06l2.16,2.17a.6.6,0,0,0,.84,0,.6.6,0,0,0,0-.84l-2.17-2.16h3.06a.59.59,0,0,0,.59-.59A.58.58,0,0,0,463.85,324Z" transform="translate(-42.09 -24.14)" style="fill:#49434f"/><path d="M577,351.71h-3.07l2.17-2.17a.59.59,0,0,0,0-.83.6.6,0,0,0-.84,0l-2.16,2.16v-3.06a.59.59,0,0,0-1.18,0v3.06l-2.16-2.16a.6.6,0,0,0-.84,0,.59.59,0,0,0,0,.83l2.17,2.17H568a.59.59,0,0,0-.59.59.6.6,0,0,0,.59.59H571l-2.17,2.16a.6.6,0,0,0,0,.84.6.6,0,0,0,.84,0l2.16-2.17v3.06a.59.59,0,0,0,1.18,0v-3.06l2.16,2.17a.6.6,0,0,0,.84,0,.6.6,0,0,0,0-.84l-2.17-2.16H577a.6.6,0,0,0,.59-.59A.59.59,0,0,0,577,351.71Z" transform="translate(-42.09 -24.14)" style="fill:#49434f"/><path d="M153.82,250.7h-3.06l2.17-2.17a.59.59,0,0,0,0-.83.6.6,0,0,0-.84,0l-2.16,2.16V246.8a.6.6,0,0,0-.59-.59.59.59,0,0,0-.59.59v3.06l-2.17-2.16a.59.59,0,0,0-.83.83l2.16,2.17h-3.06a.59.59,0,0,0-.59.59.6.6,0,0,0,.59.59h3.06L145.75,254a.6.6,0,0,0,0,.84.61.61,0,0,0,.42.17.58.58,0,0,0,.41-.17l2.17-2.17v3.06a.58.58,0,0,0,.59.59.59.59,0,0,0,.59-.59v-3.06l2.16,2.17a.6.6,0,0,0,.84,0,.6.6,0,0,0,0-.84l-2.17-2.16h3.06a.59.59,0,0,0,.59-.59A.58.58,0,0,0,153.82,250.7Z" transform="translate(-42.09 -24.14)" style="fill:#49434f"/><path d="M264.25,250.7h-3.07l2.17-2.17a.59.59,0,0,0-.83-.83l-2.17,2.16V246.8a.59.59,0,0,0-.59-.59.6.6,0,0,0-.59.59v3.06L257,247.7a.6.6,0,0,0-.84,0,.59.59,0,0,0,0,.83l2.17,2.17h-3.06a.58.58,0,0,0-.59.59.59.59,0,0,0,.59.59h3.06L256.17,254a.6.6,0,0,0,0,.84.6.6,0,0,0,.84,0l2.16-2.17v3.06a.59.59,0,0,0,.59.59.58.58,0,0,0,.59-.59v-3.06l2.17,2.17a.58.58,0,0,0,.41.17.63.63,0,0,0,.42-.17.6.6,0,0,0,0-.84l-2.17-2.16h3.07a.6.6,0,0,0,.59-.59A.59.59,0,0,0,264.25,250.7Z" transform="translate(-42.09 -24.14)" style="fill:#46cff3"/><path d="M130.24,337.27h-3.06l2.16-2.17a.59.59,0,1,0-.83-.83l-2.17,2.17v-3.07a.59.59,0,0,0-.59-.59.6.6,0,0,0-.59.59v3.07L123,334.27a.6.6,0,0,0-.84,0,.59.59,0,0,0,0,.83l2.17,2.17h-3.06a.59.59,0,0,0,0,1.18h3.06l-2.17,2.16a.6.6,0,0,0,0,.84.6.6,0,0,0,.84,0l2.16-2.17v3.07a.6.6,0,0,0,.59.59.59.59,0,0,0,.59-.59v-3.07l2.17,2.17a.58.58,0,0,0,.41.17.59.59,0,0,0,.42-.17.6.6,0,0,0,0-.84l-2.16-2.16h3.06a.59.59,0,1,0,0-1.18Z" transform="translate(-42.09 -24.14)" style="fill:#46cff3"/><ellipse cx="436.16" cy="349.77" rx="73.69" ry="11.95" style="fill:#0d3d92;opacity:0.2;mix-blend-mode:multiply"/><path d="M406.41,101.91" transform="translate(-42.09 -24.14)" style="fill:#f8edeb"/><path d="M394.38,117.26a6.65,6.65,0,0,0,1.61-.6,7.85,7.85,0,0,0,1.95-1.42,7.31,7.31,0,0,0,1.52-3.14c.29-1.14.45-2.31.77-3.44a12.91,12.91,0,0,1,1.86-3.91,2.3,2.3,0,0,0,.64-1.51,1.32,1.32,0,0,0-1.32-1.06,2.13,2.13,0,0,0-1.59.83,6.3,6.3,0,0,0-.89,1.63c-.29.68-.81,2-1.11,2.72a.77.77,0,0,1-.89.45,2.06,2.06,0,0,1-.73-.3,3.11,3.11,0,0,1-.77-1.15c-2.21-4.81-2.18-8.53-3.66-13.61-.19-.65-.5-1.4-1.17-1.53a1.3,1.3,0,0,0-1.33,1,3.54,3.54,0,0,0,0,1.77,73.54,73.54,0,0,0,1.91,7.57c.08.26-.34.68-.61.64a1.09,1.09,0,0,1-.63-.49c-2.2-2.94-1.66-6.48-3.57-9.63a2.8,2.8,0,0,0-.76-.88,1.19,1.19,0,0,0-1.12-.16,1.24,1.24,0,0,0-.64,1.08,3.62,3.62,0,0,0,.26,1.29c1.16,3.45,4,9.14,4,9.6s-.82.56-1.18.38a2.07,2.07,0,0,1-.77-.88c-1.39-2.41-2.53-4.17-3.92-6.58A4.34,4.34,0,0,0,381,94.31a1.31,1.31,0,0,0-2.11,1.44A4.33,4.33,0,0,0,379.5,97c1.89,2.84,3.51,5,5.4,7.88.2.29.39.69.19,1a.59.59,0,0,1-.72.13,1.73,1.73,0,0,1-.59-.52c-1.55-1.89-2.83-3.13-4.38-5a2.58,2.58,0,0,0-.85-.76.88.88,0,0,0-1.05.17,1.24,1.24,0,0,0,.12,1.3c1.11,2.08,2.84,3.75,4.16,5.7,2.45,3.62,2.79,6.54,5.82,9.69a6.3,6.3,0,0,0,2.31,1.62,3.32,3.32,0,0,0,2.76-.14c.29-.16.54-.38.84-.52A5.44,5.44,0,0,1,394.38,117.26Z" transform="translate(-42.09 -24.14)" style="fill:#f8edeb"/><path d="M379.34,100.58c1.11,2.08,2.84,3.74,4.16,5.69,2.45,3.62,2.79,6.55,5.82,9.69a6.32,6.32,0,0,0,2.31,1.63,3.84,3.84,0,0,0,1.34.22,3.13,3.13,0,0,1-.3.2,3.32,3.32,0,0,1-2.76.14,6.3,6.3,0,0,1-2.31-1.62c-3-3.15-3.37-6.07-5.82-9.69-1.32-2-3-3.62-4.16-5.7a1.24,1.24,0,0,1-.12-1.3.88.88,0,0,1,1.05-.17,2,2,0,0,1,.61.5A3,3,0,0,0,379.34,100.58Z" transform="translate(-42.09 -24.14)" style="fill:#f8edeb;opacity:0.5;mix-blend-mode:multiply"/><path d="M400.54,103.76c-.41.92-.58,1.92-1,2.85a3.25,3.25,0,0,1-2.05,2,1.37,1.37,0,0,1-1.24-.25,1.61,1.61,0,0,1-.4-1.24,1.78,1.78,0,0,0,.32.35,2.06,2.06,0,0,0,.73.3.77.77,0,0,0,.89-.45c.3-.75.82-2,1.11-2.72a6.3,6.3,0,0,1,.89-1.63,2.13,2.13,0,0,1,1.59-.83,1.12,1.12,0,0,1,.32,0A3.93,3.93,0,0,0,400.54,103.76Z" transform="translate(-42.09 -24.14)" style="fill:#f8edeb;opacity:0.5;mix-blend-mode:multiply"/><path d="M391.6,100.61a2,2,0,0,1-.4,1,.3.3,0,0,0,0-.13,73.54,73.54,0,0,1-1.91-7.57,3.54,3.54,0,0,1,0-1.77,1.5,1.5,0,0,1,.74-.86,24.34,24.34,0,0,0,.89,5.43A10.59,10.59,0,0,1,391.6,100.61Z" transform="translate(-42.09 -24.14)" style="fill:#f8edeb;opacity:0.5;mix-blend-mode:multiply"/><path d="M386,95.67a32.47,32.47,0,0,1,2.32,6.15,1.83,1.83,0,0,1,0,.9.86.86,0,0,1-.33.42.48.48,0,0,0,.07-.18c.06-.46-2.79-6.15-4-9.6a3.62,3.62,0,0,1-.26-1.29,1.24,1.24,0,0,1,.64-1.08h.05A26.51,26.51,0,0,0,386,95.67Z" transform="translate(-42.09 -24.14)" style="fill:#f8edeb;opacity:0.5;mix-blend-mode:multiply"/><path d="M385,103.87a2.45,2.45,0,0,1,.37,1.07,1.08,1.08,0,0,1-.2.61,1.38,1.38,0,0,0-.27-.68c-1.89-2.84-3.51-5-5.4-7.88a4.33,4.33,0,0,1-.65-1.24,1.48,1.48,0,0,1,.24-1.34,1,1,0,0,1,.26-.2,19.77,19.77,0,0,0,2.38,4.64C382.83,100.51,384,102.11,385,103.87Z" transform="translate(-42.09 -24.14)" style="fill:#f8edeb;opacity:0.5;mix-blend-mode:multiply"/><path d="M443.42,157c-2.33,1-5.83-.17-8.12-.75a51.17,51.17,0,0,1-10.37-3.61,43.12,43.12,0,0,1-17.49-15.82c-2.45-4-4-8.4-5.79-12.68-1.25-2.93-2.69-5.87-3.71-8.89a7.85,7.85,0,0,1-1.95,1.42,6.65,6.65,0,0,1-1.61.6,5.44,5.44,0,0,0-.87.23c-.3.14-.55.36-.84.52a3.11,3.11,0,0,1-2.12.31l0,0s.44,1.28,1.12,3.2c2.8,7.86,4.48,15.66,8.85,22.91a62.3,62.3,0,0,0,16,17.67,53.55,53.55,0,0,0,28.37,10.41Z" transform="translate(-42.09 -24.14)" style="fill:#f8edeb"/><path d="M498.85,78.1" transform="translate(-42.09 -24.14)" style="fill:#f8edeb"/><path d="M517.43,84a6.28,6.28,0,0,1-1.67.41,7.84,7.84,0,0,1-2.41-.07,7.41,7.41,0,0,1-3-1.74c-.88-.78-1.67-1.65-2.57-2.41A12.8,12.8,0,0,0,504,78a2.38,2.38,0,0,1-1.37-.89,1.32,1.32,0,0,1,.48-1.63,2.16,2.16,0,0,1,1.79-.2,6.12,6.12,0,0,1,1.65.84c.63.4,1.78,1.17,2.45,1.62a.78.78,0,0,0,1-.13,2.18,2.18,0,0,0,.43-.66,3.21,3.21,0,0,0,0-1.38c-.89-5.22-3-8.28-4.66-13.31-.21-.64-.37-1.44.11-1.92a1.3,1.3,0,0,1,1.64,0,3.49,3.49,0,0,1,1,1.47,73.19,73.19,0,0,1,2.69,7.34c.08.26.67.37.86.18a1,1,0,0,0,.25-.75c.16-3.68-2.28-6.29-2.48-10a2.67,2.67,0,0,1,.13-1.16,1.19,1.19,0,0,1,.84-.76,1.24,1.24,0,0,1,1.14.53,3.71,3.71,0,0,1,.51,1.21c1,3.51,1.84,9.81,2.14,10.16s1,0,1.19-.35a2,2,0,0,0,.14-1.16c-.21-2.78-.26-4.87-.47-7.65a4.25,4.25,0,0,1,.17-2,1.48,1.48,0,0,1,1.6-1,1.45,1.45,0,0,1,.94,1,4.05,4.05,0,0,1,.17,1.39c.05,3.41-.06,6.14,0,9.56,0,.35.07.78.39.9a.61.61,0,0,0,.68-.3,1.81,1.81,0,0,0,.18-.76c.22-2.43.58-4.18.8-6.61a2.46,2.46,0,0,1,.27-1.11.87.87,0,0,1,1-.45c.44.14.59.68.64,1.14.25,2.34-.24,4.7-.23,7.05,0,4.37,1.39,7,.66,11.28a6.37,6.37,0,0,1-1,2.65,3.36,3.36,0,0,1-2.36,1.44c-.33,0-.66,0-1,0A7,7,0,0,0,517.43,84Z" transform="translate(-42.09 -24.14)" style="fill:#f8edeb"/><path d="M520.46,61.74c.25,2.34-.24,4.7-.23,7.05,0,4.37,1.39,7,.66,11.29a6.25,6.25,0,0,1-1,2.64,3.65,3.65,0,0,1-1,.94c.12,0,.24,0,.36,0a3.36,3.36,0,0,0,2.36-1.44,6.37,6.37,0,0,0,1-2.65c.73-4.3-.64-6.91-.66-11.28,0-2.35.48-4.71.23-7.05-.05-.46-.2-1-.64-1.14a.87.87,0,0,0-1,.45,2,2,0,0,0-.23.75A3.82,3.82,0,0,1,520.46,61.74Z" transform="translate(-42.09 -24.14)" style="fill:#f8edeb;opacity:0.5;mix-blend-mode:multiply"/><path d="M504.74,76.32c.85.53,1.56,1.26,2.4,1.81a3.27,3.27,0,0,0,2.85.53,1.38,1.38,0,0,0,.89-.9,1.63,1.63,0,0,0-.38-1.26,1.84,1.84,0,0,1-.06.47,2.18,2.18,0,0,1-.43.66.78.78,0,0,1-1,.13c-.67-.45-1.82-1.22-2.45-1.62a6.12,6.12,0,0,0-1.65-.84,2.16,2.16,0,0,0-1.79.2l-.24.22A3.9,3.9,0,0,1,504.74,76.32Z" transform="translate(-42.09 -24.14)" style="fill:#f8edeb;opacity:0.5;mix-blend-mode:multiply"/><path d="M510.35,68.68a2,2,0,0,0,.91.63s-.08-.06-.09-.1a73.19,73.19,0,0,0-2.69-7.34,3.49,3.49,0,0,0-1-1.47,1.52,1.52,0,0,0-1.1-.3,24.09,24.09,0,0,1,2.32,5A10.61,10.61,0,0,0,510.35,68.68Z" transform="translate(-42.09 -24.14)" style="fill:#f8edeb;opacity:0.5;mix-blend-mode:multiply"/><path d="M512.17,61.46a31.37,31.37,0,0,0,1.55,6.39,1.74,1.74,0,0,0,.5.74.85.85,0,0,0,.51.17.62.62,0,0,1-.17-.11c-.3-.35-1.16-6.65-2.14-10.16a3.71,3.71,0,0,0-.51-1.21,1.24,1.24,0,0,0-1.14-.53l0,0A27.65,27.65,0,0,1,512.17,61.46Z" transform="translate(-42.09 -24.14)" style="fill:#f8edeb;opacity:0.5;mix-blend-mode:multiply"/><path d="M517.64,67.65a2.32,2.32,0,0,0,.3,1.1,1,1,0,0,0,.51.39,1.33,1.33,0,0,1-.17-.71c0-3.42.07-6.15,0-9.56a4.05,4.05,0,0,0-.17-1.39,1.45,1.45,0,0,0-.94-1,.92.92,0,0,0-.33,0,19.13,19.13,0,0,1,.64,5.17C517.54,63.66,517.44,65.66,517.64,67.65Z" transform="translate(-42.09 -24.14)" style="fill:#f8edeb;opacity:0.5;mix-blend-mode:multiply"/><path d="M499.32,144.46c2.47-.52,4.72-3.43,6.29-5.19a51.69,51.69,0,0,0,6.53-8.83,43.25,43.25,0,0,0,5.53-22.93c-.22-4.66-1.46-9.17-2.37-13.73-.62-3.13-1.08-6.37-1.95-9.44a7.84,7.84,0,0,0,2.41.07,6.28,6.28,0,0,0,1.67-.41,7,7,0,0,1,.85-.3c.33,0,.66,0,1,0a3.21,3.21,0,0,0,1.93-.94h0s.36,1.3.88,3.28c2.12,8.07,5.12,15.46,5.6,23.91a62,62,0,0,1-3.24,23.6,53.59,53.59,0,0,1-17.56,24.59Z" transform="translate(-42.09 -24.14)" style="fill:#f8edeb"/><path d="M462,158.07s-.42,2.93,5.57,2.8a25,25,0,0,0,10.7-2.81l-.44-19.29-16.24.36Z" transform="translate(-42.09 -24.14)" style="fill:#f8edeb"/><g style="opacity:0.5;mix-blend-mode:multiply"><path d="M461.92,155.5l-.25-11.84,14.71-.32A16.61,16.61,0,0,1,461.92,155.5Z" transform="translate(-42.09 -24.14)" style="fill:#fdc6bf"/></g><path d="M480.5,121s0,.85.22,10.07-2.78,14-2.78,14-9.93,9.9-19.58,5.28c-4.23-2-6.89-6.66-7-11.66l-.37-17a17.66,17.66,0,0,1,1.73-8.08c2.39-4.93,7.08-5.26,12.47-5.38h.54C473.72,108,480.3,112.06,480.5,121Z" transform="translate(-42.09 -24.14)" style="fill:#f8edeb"/><path d="M466.07,141.63a1.88,1.88,0,0,1,1.58,3,6.14,6.14,0,0,1-9.67.21,1.89,1.89,0,0,1,1.45-3Z" transform="translate(-42.09 -24.14)" style="fill:#fff"/><path d="M458.93,162.37a8,8,0,0,0,4.09,5.42c3.28,1.71,7.43.88,10.48-1.19a26.94,26.94,0,0,0,7.69-7.11l-2.94-1.43a25,25,0,0,1-10.7,2.81c-6,.13-5.57-2.8-5.57-2.8l0-1.33a14,14,0,0,1-4.29,1.09C457.13,159.23,458.62,160.9,458.93,162.37Z" transform="translate(-42.09 -24.14)" style="fill:#f8edeb"/><path d="M532.32,275.46a2.78,2.78,0,0,1,1.18-.42c5.22-.78,8.93,4.31,12.7,8,7,6.84,13.06,14,15,23.53.25,1.25.24,2.56-.84,3.24a2,2,0,0,1-1.32.49,3.14,3.14,0,0,0-.23-2.52,87.62,87.62,0,0,0-4.73-9.32,72.36,72.36,0,0,0-13.45-16.66c-1.67-1.56-3.44-3.06-5.28-4.52a10.76,10.76,0,0,0-2.68-1.7,1.5,1.5,0,0,0-.34-.11Z" transform="translate(-42.09 -24.14)" style="fill:#fff"/><path d="M516.23,286.24l6.69-2.54c1.75.49,3.54.57,4.08,2.59.46,1.66-.4,3.74-.78,5.33a7.35,7.35,0,0,0-.2.95l-6.16,2.19h0C519.06,292.27,517.23,288.57,516.23,286.24Z" transform="translate(-42.09 -24.14)" style="fill:#f8edeb"/><path d="M527.24,275.47a9.29,9.29,0,0,1,5.07,0,1.5,1.5,0,0,1,.34.11,10.76,10.76,0,0,1,2.68,1.7c1.84,1.46,3.61,3,5.28,4.52a72.36,72.36,0,0,1,13.45,16.66,87.62,87.62,0,0,1,4.73,9.32,3.14,3.14,0,0,1,.23,2.52c-.7,1.56-3.49,1.35-5.5-.12-1.74-1.27-2.89-3.17-4.22-4.84a24.07,24.07,0,0,0-12.7-8.1c-2.66-.68-5.2-.4-7.86-.73s-3.11-1.84-2.72-3.95a7.35,7.35,0,0,1,.2-.95c.38-1.59,1.24-3.67.78-5.33-.54-2-2.33-2.1-4.08-2.59C516.58,281.92,524.1,276.22,527.24,275.47Z" transform="translate(-42.09 -24.14)" style="fill:#46cff3"/><path d="M485.84,266.39a7.88,7.88,0,0,1,4.36,0,1.11,1.11,0,0,1,.29.1A9,9,0,0,1,492.8,268c1.58,1.26,3.1,2.55,4.54,3.89-5.71.72-9.83,2.92-12.39,8.45.33-1.37,1.07-3.16.68-4.59-.47-1.74-2-1.81-3.52-2.23C476.66,271.94,483.13,267,485.84,266.39Z" transform="translate(-42.09 -24.14)" style="fill:#ffd13d"/><path d="M490.21,266.37a2.3,2.3,0,0,1,1-.35c4.5-.68,7.69,3.7,10.94,6.89,6,5.89,11.24,12,12.9,20.26.21,1.08.21,2.21-.73,2.79a1.73,1.73,0,0,1-1.14.43,2.68,2.68,0,0,0-.2-2.18,71.85,71.85,0,0,0-4.07-8,61.82,61.82,0,0,0-11.58-14.35c-1.44-1.34-3-2.63-4.54-3.89a9,9,0,0,0-2.31-1.46,1.11,1.11,0,0,0-.29-.1Z" transform="translate(-42.09 -24.14)" style="fill:#fff"/><path d="M476.35,275.66l5.76-2.19c1.51.42,3.05.49,3.52,2.23.39,1.43-.35,3.22-.68,4.59-.07.29-.13.56-.17.82l-5.3,1.88h0C478.79,280.85,477.22,277.67,476.35,275.66Z" transform="translate(-42.09 -24.14)" style="fill:#fdc6bf"/><path d="M485,280.29c2.56-5.53,6.68-7.73,12.39-8.45a61.82,61.82,0,0,1,11.58,14.35,71.85,71.85,0,0,1,4.07,8,2.68,2.68,0,0,1,.2,2.18c-.6,1.34-3,1.16-4.73-.11a21.09,21.09,0,0,1-3.64-4.17,20.69,20.69,0,0,0-10.93-7c-2.29-.58-4.48-.33-6.77-.62s-2.67-1.58-2.34-3.4C484.82,280.85,484.88,280.58,485,280.29Z" transform="translate(-42.09 -24.14)" style="fill:#46cff3"/><path d="M439.19,248.85c-8.53,9.08-14.3,17.8-18.75,29.45a34.24,34.24,0,0,0-2.34,8.18,12.46,12.46,0,0,0,1.62,8.23,6.64,6.64,0,0,0,2.21,2.2,9.61,9.61,0,0,0,3.33,1c12.11,1.88,34.71-1.38,34.71-1.38s5.2-.73,7-1.23a183.52,183.52,0,0,1-2-19.41c-3-.15-6.23,0-8.86,0a1.21,1.21,0,0,1-1-1.92c1.84-2.62,5.58-5.59,7.17-7.48.82-1,1.7-1.91,2.59-2.83a93,93,0,0,1,1.23-12.39v-.07a122.54,122.54,0,0,1-25-1.74,8.5,8.5,0,0,1-2-.65Z" transform="translate(-42.09 -24.14)" style="fill:#3c3640"/><path d="M499.81,248.78a1.74,1.74,0,0,1-.51,0c-7.57-.85-15.26.77-22.88,1.66-3.4.41-6.83.66-10.26.77v.07a93,93,0,0,0-1.23,12.39c-.15,3.94-.12,8.05.07,12.22a183.52,183.52,0,0,0,2,19.41,148.53,148.53,0,0,0,3.29,15.84,6,6,0,0,0,1,2.33,5.33,5.33,0,0,0,2.37,1.38c7.78,2.53,16.05-1.37,23.3-5.18L507.8,304c3.86-2,7.89-4.18,10.3-7.82s2.51-9.21-1-11.84c-3.29-2.5-8-1.37-11.9-.13l-8.62,2.71a89.58,89.58,0,0,0,3.21-38.14Z" transform="translate(-42.09 -24.14)" style="fill:#49434f"/><path d="M499.3,248.79a1.74,1.74,0,0,0,.51,0,2.32,2.32,0,0,0,2.09-1.9c2.08-11-6-57.17-5.23-70.3,4.53-5.27,13-13.89,17.51-19.14A2.88,2.88,0,0,0,515,156a2.76,2.76,0,0,0-.4-1.4,33.1,33.1,0,0,0-12.26-13.1,4.23,4.23,0,0,0-2.64-.81,4.42,4.42,0,0,0-2.21,1.32,86.57,86.57,0,0,1-11.23,8.36,21.27,21.27,0,0,0-3.76,2.69c-1.65,1.61-2.65,3.74-4,5.61a14.2,14.2,0,0,1-9.12,6c-3.71.54-7.81-1-9.65-4.3a9.19,9.19,0,0,0-1.82-2.81,5.73,5.73,0,0,0-2.46-1l-18.65-4a22,22,0,0,1-2.72-.73,2.8,2.8,0,0,0-2.95.8c-4.78,5.38-7.92,12.49-6.35,19.42a2,2,0,0,0,1.5,1.48,31.18,31.18,0,0,1,14.34,7.71c1.36,5.73.4,11.71-.42,17.54a346.23,346.23,0,0,0-3.35,47.05,3,3,0,0,0,1.63,2.67c.24.12.48.23.71.32a8.5,8.5,0,0,0,2,.65,122.54,122.54,0,0,0,25,1.74c3.43-.11,6.86-.36,10.26-.77C484,249.56,491.73,247.94,499.3,248.79Z" transform="translate(-42.09 -24.14)" style="fill:#a45ee2"/><path d="M513.11,158.65l1.07-1.21A2.88,2.88,0,0,0,515,156a2.76,2.76,0,0,0-.4-1.4,33.1,33.1,0,0,0-12.26-13.1,4.23,4.23,0,0,0-2.64-.81,4.42,4.42,0,0,0-2.21,1.32c-.19.17-.4.32-.59.49A44.67,44.67,0,0,1,513.11,158.65Z" transform="translate(-42.09 -24.14)" style="fill:#cbb0e2"/><path d="M459.13,134.93a4,4,0,0,1-1.16-.47,2,2,0,0,1-.88-1.07,2.2,2.2,0,0,1,.11-1.44,8.13,8.13,0,0,1,.62-1.11,9.77,9.77,0,0,0,1.5-4.28,4.77,4.77,0,0,1,.24,2.46,5.71,5.71,0,0,1-.9,2.36,3.18,3.18,0,0,0-.81,1.84C457.9,133.8,458.54,134.38,459.13,134.93Z" transform="translate(-42.09 -24.14)" style="fill:#d8afaf"/><path d="M478.91,110.12c-2.24-2.49-5.69-3.54-9-3.81s-6.7.12-10.05,0a8.39,8.39,0,0,1-4-1,3.51,3.51,0,0,1-1.82-3.47c0,.13-2.35,1-2.64,1.19-3.29,2.09-4.54,6.81-3.8,10.47.66,3.27,2.64,6.49,6.24,6.44a72.36,72.36,0,0,0,10.8-1c3-.49,6.07-1.18,9.07-.62,1.87.35,6.84,4.67,6.84,4.67S480.12,111.47,478.91,110.12Z" transform="translate(-42.09 -24.14)" style="fill:#ff7551"/><path d="M469.87,118.22c3.35,3.28,5.06,8.09,5.39,12.82,0,.56.12,1.22.6,1.5a1.87,1.87,0,0,0,1.28.06,8.2,8.2,0,0,1,3.59.08c-.19-8.74-.23-9.41-.23-9.41s0-.18,0-.27c-.35-.3-5-4.31-6.81-4.64A14.23,14.23,0,0,0,469.87,118.22Z" transform="translate(-42.09 -24.14)" style="fill:#ff7551;opacity:0.4"/><path d="M457.63,271.17c1.74-1.75,3.68-3.43,4.71-4.66.82-1,1.7-1.91,2.59-2.83a93,93,0,0,1,1.23-12.39v-.07c-2.2.07-4.39.08-6.59,0A70.65,70.65,0,0,0,457.64,268C457.62,269,457.63,270.1,457.63,271.17Z" transform="translate(-42.09 -24.14)" style="fill:#3c3640;opacity:0.5;mix-blend-mode:multiply"/><path d="M457.7,275.91a168.68,168.68,0,0,0,1.87,20.68l.4,0s5.2-.73,7-1.23a183.52,183.52,0,0,1-2-19.41C462.6,275.77,460,275.88,457.7,275.91Z" transform="translate(-42.09 -24.14)" style="fill:#3c3640;opacity:0.5;mix-blend-mode:multiply"/><path d="M519.73,289a6.93,6.93,0,0,0-2.61-4.68c-3.29-2.5-8-1.37-11.9-.13l-8.62,2.71c.13-.45.25-.9.38-1.35a89.93,89.93,0,0,0-3.93,8.38A140.73,140.73,0,0,1,519.73,289Z" transform="translate(-42.09 -24.14)" style="fill:#49434f;opacity:0.5;mix-blend-mode:multiply"/><path d="M512.52,151.14c-5.81,6.28-12.41,11.88-17.54,18.73a27.06,27.06,0,0,0-4.23,7.58c-2,6-.63,12.58.45,18.84a199.14,199.14,0,0,1,2.07,52.29,43.31,43.31,0,0,1,6,.21,1.74,1.74,0,0,0,.51,0,2.32,2.32,0,0,0,2.09-1.9c2.08-11-6-57.17-5.23-70.3,4.53-5.27,13-13.89,17.51-19.15A2.81,2.81,0,0,0,515,156a2.76,2.76,0,0,0-.4-1.4A33.36,33.36,0,0,0,512.52,151.14Z" transform="translate(-42.09 -24.14)" style="fill:#a45ee2;opacity:0.5;mix-blend-mode:multiply"/><path d="M434.08,151.84a2.8,2.8,0,0,0-2.95.8c-4.78,5.38-7.92,12.49-6.35,19.42a2,2,0,0,0,1.5,1.48c.46.12.92.26,1.37.39a34.11,34.11,0,0,1,8.59-21.49A18.76,18.76,0,0,1,434.08,151.84Z" transform="translate(-42.09 -24.14)" style="fill:#cbb0e2"/><path d="M457.87,161.28a8.72,8.72,0,0,0,3.29,3.68,12.74,12.74,0,0,0,19.75-10c-.84,1.2-1.56,2.5-2.41,3.69a14.2,14.2,0,0,1-9.12,6c-3.71.54-7.81-1-9.65-4.3a9.19,9.19,0,0,0-1.82-2.81,1.75,1.75,0,0,0-.25-.16A5.56,5.56,0,0,0,457.87,161.28Z" transform="translate(-42.09 -24.14)" style="fill:#cbb0e2"/><path d="M491.3,259.25A20.07,20.07,0,0,1,487,249.07c-.76.08-1.52.18-2.29.28a19.7,19.7,0,0,0,15.64,17.27c0-.37.05-.73.07-1.1A20,20,0,0,1,491.3,259.25Z" transform="translate(-42.09 -24.14)" style="fill:#49434f;opacity:0.5;mix-blend-mode:multiply"/><path d="M456.67,198.66a6.66,6.66,0,0,1-2.27-6.35c.82-3.11,4.62-5.36,4-8.53-.35-1.95-2.24-3.15-3.79-4.39s-3-3.27-2.13-5c1-2,4-1.78,5.95-.62s3.63,3,5.87,3.19c2.69.27,5-1.79,7.13-3.4s5.37-2.81,7.4-1c1.55,1.37,1.49,3.91.52,5.74s-2.62,3.19-4.07,4.68-2.78,3.3-2.83,5.37c-.07,3.44,3.4,6.27,3.1,9.69-.23,2.69-2.84,4.68-5.5,5.12C465.65,203.83,459.93,201.7,456.67,198.66Z" transform="translate(-42.09 -24.14)" style="fill:#fff"/><path d="M393.05,119.08c.28-.16.54-.38.84-.52a5.44,5.44,0,0,1,.87-.23,6.65,6.65,0,0,0,1.61-.6,7.85,7.85,0,0,0,1.95-1.42.61.61,0,0,0,.07-.1c-.23-.47-.39-.81-.45-1a7.85,7.85,0,0,1-1.95,1.42,6.65,6.65,0,0,1-1.61.6,5.44,5.44,0,0,0-.87.23c-.3.14-.55.36-.84.52a2.36,2.36,0,0,1-.59.24h0l-.07,0a3.42,3.42,0,0,1-1.46,0l0,0,.35,1h0A3.1,3.1,0,0,0,393.05,119.08Z" transform="translate(-42.09 -24.14)" style="fill:#fdc6bf;opacity:0.5;mix-blend-mode:multiply"/><ellipse cx="76.43" cy="393.14" rx="73.69" ry="11.95" style="fill:#0d3d92;opacity:0.2;mix-blend-mode:multiply"/><path d="M114.76,370.49a1.82,1.82,0,0,1,.18.78c.09,3.41-3.47,5.39-6.14,7.51-4.93,3.91-10,7.26-16.25,7.74-.83.06-1.67,0-2-.79a1.28,1.28,0,0,1-.22-.89,2,2,0,0,0,1.64.05,54.49,54.49,0,0,0,6.34-2.3,46.32,46.32,0,0,0,11.74-7.3c1.13-1,2.23-2,3.32-3a7.12,7.12,0,0,0,1.3-1.59.88.88,0,0,0,.09-.2Z" transform="translate(-42.09 -24.14)" style="fill:#fff"/><path d="M109.13,359.32l1.1,4.49c-.45,1.08-.65,2.22-2,2.41-1.1.17-2.37-.55-3.36-.92a5.88,5.88,0,0,0-.59-.2l-1.48-6.16,0-1.91C104.46,356.73,107.55,359.78,109.13,359.32Z" transform="translate(-42.09 -24.14)" style="fill:#ddbea9"/><path d="M115.16,367.23a6,6,0,0,1-.41,3.25.88.88,0,0,1-.09.2,7.12,7.12,0,0,1-1.3,1.59c-1.09,1.06-2.19,2.07-3.32,3a46.32,46.32,0,0,1-11.74,7.3,54.49,54.49,0,0,1-6.34,2.3,2,2,0,0,1-1.64-.05c-.94-.57-.59-2.35.52-3.52A15.56,15.56,0,0,1,94.27,379a15.51,15.51,0,0,0,6.19-7.49,38,38,0,0,0,1.09-5c.43-1.72,1.42-1.84,2.75-1.42a5.88,5.88,0,0,1,.59.2c1,.37,2.26,1.09,3.36.92,1.33-.19,1.53-1.33,2-2.41C111.87,359.89,114.93,365.16,115.16,367.23Z" transform="translate(-42.09 -24.14)" style="fill:#a45ee2"/><path d="M153.23,314.89a2,2,0,0,1,.73.35c2.73,2.05,2.07,6.06,2.08,9.47,0,6.3-.49,12.34-4,17.56-.47.68-1.07,1.27-1.87,1.08a1.27,1.27,0,0,1-.83-.38,2,2,0,0,0,1-1.25,55.87,55.87,0,0,0,2.14-6.4,46.64,46.64,0,0,0,1.54-13.74c0-1.48-.15-3-.31-4.47a7.23,7.23,0,0,0-.44-2,.93.93,0,0,0-.1-.2Z" transform="translate(-42.09 -24.14)" style="fill:#fff"/><path d="M141,312.39l4.2,1.92c.57,1,1.35,1.89.67,3.05-.56,1-1.91,1.51-2.81,2.06-.19.12-.37.23-.52.34l-5.75-2.66-1.51-1.16C136.05,314.44,140.36,313.91,141,312.39Z" transform="translate(-42.09 -24.14)" style="fill:#ddbea9"/><path d="M150.92,312.57a5.92,5.92,0,0,1,2.3,2.33.93.93,0,0,1,.1.2,7.15,7.15,0,0,1,.44,2c.16,1.5.27,3,.31,4.47a46.64,46.64,0,0,1-1.54,13.74,55.87,55.87,0,0,1-2.14,6.4,2,2,0,0,1-1,1.25c-1,.38-2.21-1-2.44-2.58a16,16,0,0,1,.3-4.14,15.46,15.46,0,0,0-2-9.5,38.56,38.56,0,0,0-3.24-3.94c-1.08-1.41-.56-2.27.59-3.05.15-.11.33-.22.52-.34.9-.55,2.25-1.09,2.81-2.06.68-1.16-.1-2-.67-3.05C143.13,310.6,149.16,311.46,150.92,312.57Z" transform="translate(-42.09 -24.14)" style="fill:#a45ee2"/><path d="M170.23,146.89c6.13-8.6,7.77-19.51,9.23-30,.44-3.08.13-7.29-2.92-7.89-2.23-.44-4.09,1.54-5.85,3-7.75,6.37-19.37,3.72-28.5-.45s-18.6-9.68-28.5-8a20.82,20.82,0,0,0-12,34.55c5.38,5.9,13.55,8.19,21.28,10.21,5.24,1.38,11.31,2.17,16.23,4.46,2.79,1.31,4.81,3.77,7.81,4.66C154.37,159.58,167.12,154,170.23,146.89Z" transform="translate(-42.09 -24.14)" style="fill:#a45ee2"/><path d="M112.92,162.29a17.82,17.82,0,0,0,9.78.56c3.12-.83,5.94-3.29,5.69-6.51,0,0-4.26-2.3-4.18-5.58l.12-5.26L112,145.21l-.12,5.27c-.37,4-5.88,5-5.88,5C106.06,158.67,110.18,161.39,112.92,162.29Z" transform="translate(-42.09 -24.14)" style="fill:#ddbea9"/><path d="M122.06,146a18,18,0,0,1-4.08.06v0a17.9,17.9,0,0,1-4.07-.25,12.33,12.33,0,0,1-1.94-.51l-.06,2.9a11.79,11.79,0,0,0,1.94.51,17.78,17.78,0,0,0,4.06.26v0l0,0a17.88,17.88,0,0,0,4.07-.07,12.58,12.58,0,0,0,2.25-.5l.06-2.9A13.19,13.19,0,0,1,122.06,146Z" transform="translate(-42.09 -24.14)" style="fill:#ddbea9;opacity:0.5;mix-blend-mode:multiply"/><path d="M134,122.5a2.39,2.39,0,0,0-2.22-.56,2.67,2.67,0,0,0-.4.13c-.77-4-2.37-9.29-5.52-11.15l-.07,0a8.87,8.87,0,0,0-.92-.48l0,0c-.33-.14-.67-.28-1-.4l-.15,0c-.31-.1-.62-.19-1-.27l-.23-.06c-.38-.09-.77-.16-1.17-.22l-.17,0c-.36,0-.72-.09-1.1-.12l-.35,0c-.44,0-.89,0-1.36,0h0c-.47,0-.92,0-1.36,0l-.35,0c-.38,0-.74.07-1.1.12l-.17,0c-.41.06-.8.14-1.17.23l-.23,0c-.33.08-.64.18-1,.28l-.15,0a10.52,10.52,0,0,0-1,.41l0,0c-.32.15-.62.31-.92.48l-.07,0c-3.14,1.88-4.73,7.16-5.48,11.18a3,3,0,0,0-.39-.13,2.4,2.4,0,0,0-2.22.56,3.58,3.58,0,0,0-.63,2.8,34.12,34.12,0,0,0,.53,4.15,7,7,0,0,0,1.27,3.22,3.17,3.17,0,0,0,1,.8c.8,6.83,4.16,10.42,8.65,12.81a.13.13,0,0,1,.06,0c.35.18.7.33,1,.48l.15.05a8,8,0,0,0,1.05.34l.17,0a10,10,0,0,0,1.09.2l.14,0a11.11,11.11,0,0,0,1.16.07h0a9.2,9.2,0,0,0,1.17-.08h.13a10,10,0,0,0,1.09-.21l.17-.05a9.88,9.88,0,0,0,1-.34l.15-.06a10.8,10.8,0,0,0,1-.48l.06,0c4.49-2.42,7.84-6,8.61-12.85a3.17,3.17,0,0,0,1-.8,7,7,0,0,0,1.26-3.23,36.19,36.19,0,0,0,.52-4.15A3.64,3.64,0,0,0,134,122.5Z" transform="translate(-42.09 -24.14)" style="fill:#ddbea9"/><path d="M122.38,139.08a.65.65,0,0,1,.58.9,4.93,4.93,0,0,1-9.34-.21.65.65,0,0,1,.62-.87Z" transform="translate(-42.09 -24.14)" style="fill:#fff"/><path d="M118.71,133.74a4.7,4.7,0,0,1-1.3-.62,2.27,2.27,0,0,1-.94-1.26,2.51,2.51,0,0,1,.19-1.63,8.49,8.49,0,0,1,.76-1.24,10.77,10.77,0,0,0,1.86-5,5.76,5.76,0,0,1,.12,2.86,7,7,0,0,1-1.16,2.68,3.59,3.59,0,0,0-1,2.15C117.29,132.43,118,133.11,118.71,133.74Z" transform="translate(-42.09 -24.14)" style="fill:#9e887a"/><path d="M163.48,100.5" transform="translate(-42.09 -24.14)" style="fill:#ddbea9"/><path d="M179.24,113.62a6.74,6.74,0,0,1-1.79-.27,7.83,7.83,0,0,1-2.32-1,7.74,7.74,0,0,1-2.25-2.9c-.55-1.1-1-2.27-1.55-3.36a13.56,13.56,0,0,0-2.78-3.6,2.45,2.45,0,0,1-1-1.42,1.39,1.39,0,0,1,1.12-1.39,2.29,2.29,0,0,1,1.82.52,6.41,6.41,0,0,1,1.27,1.47c.46.64,1.28,1.84,1.75,2.55a.81.81,0,0,0,1,.27,2.28,2.28,0,0,0,.68-.48,3.2,3.2,0,0,0,.53-1.34c1.21-5.44.36-9.26.76-14.81.05-.71.21-1.55.87-1.82a1.34,1.34,0,0,1,1.57.68,3.63,3.63,0,0,1,.36,1.82,77.59,77.59,0,0,1-.3,8.21c0,.28.5.63.77.52a1.15,1.15,0,0,0,.54-.64c1.61-3.51.28-7,1.54-10.68a2.75,2.75,0,0,1,.59-1.09,1.27,1.27,0,0,1,1.12-.4,1.31,1.31,0,0,1,.9,1,3.56,3.56,0,0,1,0,1.38c-.43,3.8-2.1,10.28-1.94,10.74s1,.4,1.29.14a2.14,2.14,0,0,0,.6-1.08c.9-2.79,1.68-4.85,2.58-7.64a4.65,4.65,0,0,1,1-1.89,1.57,1.57,0,0,1,1.95-.3,1.52,1.52,0,0,1,.53,1.31,4.24,4.24,0,0,1-.39,1.42c-1.31,3.34-2.5,6-3.81,9.3-.14.34-.25.79,0,1a.63.63,0,0,0,.77,0,1.74,1.74,0,0,0,.49-.67c1.17-2.28,2.22-3.84,3.4-6.12a2.63,2.63,0,0,1,.7-1,.93.93,0,0,1,1.12-.06,1.31,1.31,0,0,1,.16,1.37c-.68,2.38-2.09,4.48-3,6.77-1.72,4.26-1.42,7.35-3.84,11.25a6.6,6.6,0,0,1-2,2.18,3.49,3.49,0,0,1-2.87.46c-.33-.1-.64-.27-1-.35A7.38,7.38,0,0,0,179.24,113.62Z" transform="translate(-42.09 -24.14)" style="fill:#ddbea9"/><path d="M191,93.15c-.68,2.38-2.09,4.48-3,6.77-1.72,4.26-1.42,7.35-3.84,11.25a6.6,6.6,0,0,1-2,2.18,4,4,0,0,1-1.33.53,2.09,2.09,0,0,0,.35.13,3.49,3.49,0,0,0,2.87-.46,6.6,6.6,0,0,0,2-2.18c2.42-3.9,2.12-7,3.84-11.25.93-2.29,2.34-4.39,3-6.77a1.31,1.31,0,0,0-.16-1.37.93.93,0,0,0-1.12.06,2.07,2.07,0,0,0-.52.65A3.73,3.73,0,0,1,191,93.15Z" transform="translate(-42.09 -24.14)" style="fill:#ddbea9;opacity:0.5;mix-blend-mode:multiply"/><path d="M169.92,101.1c.63.86,1,1.85,1.63,2.71a3.39,3.39,0,0,0,2.56,1.65,1.43,1.43,0,0,0,1.22-.53,1.72,1.72,0,0,0,.14-1.36,2.22,2.22,0,0,1-.25.42,2.28,2.28,0,0,1-.68.48.81.81,0,0,1-1-.27c-.47-.71-1.29-1.91-1.75-2.55a6.41,6.41,0,0,0-1.27-1.47,2.29,2.29,0,0,0-1.82-.52,1.75,1.75,0,0,0-.32.12A4,4,0,0,1,169.92,101.1Z" transform="translate(-42.09 -24.14)" style="fill:#ddbea9;opacity:0.5;mix-blend-mode:multiply"/><path d="M178.42,95.89a2,2,0,0,0,.64,1,.35.35,0,0,1-.05-.13,77.59,77.59,0,0,0,.3-8.21A3.63,3.63,0,0,0,179,86.7,1.54,1.54,0,0,0,178,86a26.53,26.53,0,0,1,.28,5.77A11.27,11.27,0,0,0,178.42,95.89Z" transform="translate(-42.09 -24.14)" style="fill:#ddbea9;opacity:0.5;mix-blend-mode:multiply"/><path d="M183.06,89.58c-.41,2.28-1.1,4.53-1,6.84a2.05,2.05,0,0,0,.19.92.87.87,0,0,0,.44.36.3.3,0,0,1-.12-.17c-.16-.46,1.51-6.94,1.94-10.74a3.56,3.56,0,0,0,0-1.38,1.31,1.31,0,0,0-.9-1h0A28.56,28.56,0,0,1,183.06,89.58Z" transform="translate(-42.09 -24.14)" style="fill:#ddbea9;opacity:0.5;mix-blend-mode:multiply"/><path d="M185.93,97.78a2.42,2.42,0,0,0-.14,1.19,1,1,0,0,0,.34.58,1.36,1.36,0,0,1,.12-.76c1.31-3.34,2.5-6,3.81-9.3a4.24,4.24,0,0,0,.39-1.42,1.52,1.52,0,0,0-.53-1.31,1.37,1.37,0,0,0-.32-.16,20.48,20.48,0,0,1-1.42,5.3C187.41,93.85,186.53,95.77,185.93,97.78Z" transform="translate(-42.09 -24.14)" style="fill:#ddbea9;opacity:0.5;mix-blend-mode:multiply"/><path d="M137.59,165.3c2.61.47,6-1.47,8.19-2.57a53.11,53.11,0,0,0,9.86-6,45.37,45.37,0,0,0,14.49-20.13c1.64-4.62,2.22-9.51,3.15-14.31.64-3.29,1.47-6.62,1.85-10a7.83,7.83,0,0,0,2.32,1,6.74,6.74,0,0,0,1.79.27,7.38,7.38,0,0,1,.94,0c.34.08.65.25,1,.35a3.24,3.24,0,0,0,2.25-.15l.05,0s-.17,1.41-.45,3.53c-1.14,8.7-1.15,17.09-4,25.51a65.16,65.16,0,0,1-12.53,21.69,56.25,56.25,0,0,1-26.86,17Z" transform="translate(-42.09 -24.14)" style="fill:#ddbea9"/><path d="M72.29,96.21" transform="translate(-42.09 -24.14)" style="fill:#ddbea9"/><path d="M58,110.91a6.27,6.27,0,0,0,1.75-.45,6.36,6.36,0,0,0,4.14-4.37c.43-1.16.73-2.37,1.19-3.51a13.47,13.47,0,0,1,2.38-3.88,2.49,2.49,0,0,0,.84-1.5A1.39,1.39,0,0,0,67,95.93a2.28,2.28,0,0,0-1.76.7,6.63,6.63,0,0,0-1.11,1.6c-.39.68-1.07,2-1.47,2.72a.8.8,0,0,1-1,.37,2,2,0,0,1-.73-.4,3.21,3.21,0,0,1-.67-1.28C58.55,94.36,59,90.47,58,85c-.12-.7-.37-1.52-1-1.72a1.35,1.35,0,0,0-1.5.84A3.86,3.86,0,0,0,55.3,86a79.51,79.51,0,0,0,1.15,8.13c.06.28-.43.68-.7.61a1.19,1.19,0,0,1-.61-.58c-2-3.33-1-7-2.65-10.47a2.66,2.66,0,0,0-.7-1,1.25,1.25,0,0,0-1.16-.29,1.32,1.32,0,0,0-.79,1.06A3.74,3.74,0,0,0,50,84.78c.83,3.74,3.17,10,3.06,10.48s-.92.5-1.27.27a2.17,2.17,0,0,1-.71-1c-1.19-2.67-2.17-4.64-3.36-7.32a4.55,4.55,0,0,0-1.16-1.78,1.56,1.56,0,0,0-2-.1,1.53,1.53,0,0,0-.4,1.36,4.67,4.67,0,0,0,.54,1.38c1.65,3.18,3.11,5.66,4.77,8.84.17.33.33.76.08,1a.63.63,0,0,1-.77,0,1.79,1.79,0,0,1-.55-.61c-1.41-2.15-2.62-3.59-4-5.73a2.78,2.78,0,0,0-.8-.9.91.91,0,0,0-1.12.07c-.34.35-.2.92,0,1.37.92,2.3,2.55,4.23,3.71,6.42,2.16,4.06,2.18,7.15,5,10.78a6.58,6.58,0,0,0,2.24,2,3.51,3.51,0,0,0,2.9.16c.32-.14.61-.34.93-.45A5.76,5.76,0,0,1,58,110.91Z" transform="translate(-42.09 -24.14)" style="fill:#ddbea9"/><path d="M44.14,91.79c.92,2.3,2.55,4.24,3.71,6.42,2.16,4.06,2.18,7.16,5,10.79a6.56,6.56,0,0,0,2.24,2,4.12,4.12,0,0,0,1.38.39l-.34.17a3.51,3.51,0,0,1-2.9-.16,6.58,6.58,0,0,1-2.24-2c-2.82-3.63-2.84-6.72-5-10.78-1.16-2.19-2.79-4.12-3.71-6.42-.18-.45-.32-1,0-1.37a.91.91,0,0,1,1.12-.07,2,2,0,0,1,.58.59A2.15,2.15,0,0,0,44.14,91.79Z" transform="translate(-42.09 -24.14)" style="fill:#ddbea9;opacity:0.5;mix-blend-mode:multiply"/><path d="M66,97.49c-.53.91-.82,2-1.33,2.87a3.46,3.46,0,0,1-2.37,1.91,1.43,1.43,0,0,1-1.27-.4,1.65,1.65,0,0,1-.28-1.34,1.8,1.8,0,0,0,.29.39,2,2,0,0,0,.73.4.8.8,0,0,0,1-.37c.4-.75,1.08-2,1.47-2.72a6.63,6.63,0,0,1,1.11-1.6,2.28,2.28,0,0,1,1.76-.7,2,2,0,0,1,.33.08A4.11,4.11,0,0,0,66,97.49Z" transform="translate(-42.09 -24.14)" style="fill:#ddbea9;opacity:0.5;mix-blend-mode:multiply"/><path d="M57,93.19a2,2,0,0,1-.53,1,.24.24,0,0,0,0-.14A79.51,79.51,0,0,1,55.3,86a3.86,3.86,0,0,1,.16-1.85,1.57,1.57,0,0,1,.87-.81,26.52,26.52,0,0,0,.32,5.77A10.89,10.89,0,0,1,57,93.19Z" transform="translate(-42.09 -24.14)" style="fill:#ddbea9;opacity:0.5;mix-blend-mode:multiply"/><path d="M51.68,87.41c.65,2.22,1.57,4.39,1.74,6.69a2,2,0,0,1-.09.94.93.93,0,0,1-.4.41.39.39,0,0,0,.1-.19c.11-.47-2.23-6.74-3.06-10.48a3.74,3.74,0,0,1-.13-1.37,1.32,1.32,0,0,1,.79-1.06h.06A28.06,28.06,0,0,0,51.68,87.41Z" transform="translate(-42.09 -24.14)" style="fill:#ddbea9;opacity:0.5;mix-blend-mode:multiply"/><path d="M49.69,95.86A2.56,2.56,0,0,1,50,97a1,1,0,0,1-.27.61,1.55,1.55,0,0,0-.2-.74c-1.66-3.18-3.12-5.66-4.77-8.84a4.67,4.67,0,0,1-.54-1.38,1.53,1.53,0,0,1,.4-1.36,1.32,1.32,0,0,1,.29-.19,20.73,20.73,0,0,0,2,5.12C47.8,92.11,48.88,93.92,49.69,95.86Z" transform="translate(-42.09 -24.14)" style="fill:#ddbea9;opacity:0.5;mix-blend-mode:multiply"/><path d="M104.83,157.94c-2.54.75-6.08-.83-8.41-1.69A53.48,53.48,0,0,1,86,151.32a45.33,45.33,0,0,1-16.52-18.5c-2.12-4.43-3.21-9.23-4.64-13.91-1-3.2-2.15-6.43-2.88-9.71a7.83,7.83,0,0,1-2.2,1.26,6.27,6.27,0,0,1-1.75.45,5.76,5.76,0,0,0-.94.15c-.32.11-.61.31-.93.45a3.34,3.34,0,0,1-2.25.09h-.05s.31,1.39.81,3.47c2,8.54,2.94,16.88,6.7,25a65.27,65.27,0,0,0,14.73,20.26,56.41,56.41,0,0,0,28.5,14.06Z" transform="translate(-42.09 -24.14)" style="fill:#ddbea9"/><path d="M105.55,243.37q-5.68,21-10.35,42.21c-1,4.4-1.9,9-.63,13.34,1.22,4.14,4.37,7.5,8,9.83,2.43,1.57,6.44,3,10.05,4.23a46.58,46.58,0,0,0,7.67,1.75,33,33,0,0,1,6.45,1.95c3.54,1.34,7.28,2.67,11.06,1.57a6.78,6.78,0,0,0,4.67-4.16c1.14-3.36-1.15-6.27-3.28-8.73-4.6-5.3-9.41-10.76-15.79-13.71-1.15-.53-2.47-1.11-2.86-2.31a4.21,4.21,0,0,1,.63-3.12c5.57-11.21,12.61-21.81,16.26-33.78s3.29-26.15-4.86-35.65a27,27,0,0,0-26.14-8.52,18.72,18.72,0,0,0-9.69,5.35c-2.39,2.64-3.72,6.07-4.95,9.42-8.14,22.17-14.59,45.66-12.26,69.17,2.12,21.43,13.27,48.11,22.85,68.11a3.58,3.58,0,0,0,6.48,0l0-.07c1-2.29.48-4.9,0-7.33-2.2-10.38-4.7-20.72-6.12-31.23-.57-4.23-.91-9.3-1.11-13.56" transform="translate(-42.09 -24.14)" style="fill:#46cff3"/><path d="M138.69,213.07c-.26-2.74-1.51-5.27-2.53-7.82s-1.81-5.37-1.14-8c.75-3,3.15-5.19,4.4-8,2.56-5.73-.2-12.61,1.7-18.59.79-2.51,2.4-5.12,1.45-7.58-.68-1.74-2.45-2.77-4.1-3.65l-6.05-2a19.64,19.64,0,0,1-4.34-2.07,9.45,9.45,0,0,0-2.23-1.25c-1.59.7-1.88,2.69-2.6,4.24a6.91,6.91,0,0,1-13-1.56,4.69,4.69,0,0,0-.83-2.5c-.17-.17-.69-.07-1.3.13a31.33,31.33,0,0,1-5.34,1.14,4.28,4.28,0,0,0-2.38,1.13,28.74,28.74,0,0,0-4.6,6.41c-2.8,4.79-5.62,9.85-5.93,15.39-.32,5.86,2.21,11.44,4.12,17s3.17,11.89.49,17.11c-.92,1.8-2.34,3.59-.92,5.82a5.36,5.36,0,0,0,3.24,2.25,80.65,80.65,0,0,0,26.72,2C129.79,222.1,139.55,221.91,138.69,213.07Z" transform="translate(-42.09 -24.14)" style="fill:#ffd13d"/><path d="M94.57,298.92c-1.27-4.32-.34-8.94.63-13.34q4.48-20.38,9.91-40.56c-3.18,7.4-7,14.51-10.1,22-3.13,7.67-5.39,15.89-4.88,24.16.49,7.87,3.45,15.33,5.93,22.81,5.16,15.59,8.38,31.74,11.5,47.86a3.43,3.43,0,0,0,1.3-1.52l0-.07c1-2.29.48-4.9,0-7.33-2.2-10.38-4.7-20.72-6.12-31.24-.57-4.22-.91-9.29-1.11-13.55h0A17.75,17.75,0,0,1,94.57,298.92Z" transform="translate(-42.09 -24.14)" style="fill:#46cff3;opacity:0.5;mix-blend-mode:multiply"/><path d="M98.6,221.07c-1.83-.41-3.9-1.19-5-2.57-.63,1.34-1.17,2.72-1.68,4.11a20.28,20.28,0,0,0,8,3,127.44,127.44,0,0,0,21.34,2.29c2.76.07,5.89.2,7.68,2.31,1.37,1.62,1.49,3.94,1.46,6.08a85.5,85.5,0,0,1-13.85,45.37c-2.25,3.43-4.87,7.23-4.08,11.25.68,3.49,3.81,6,7.07,7.41s6.83,2,10.08,3.49a21.26,21.26,0,0,1,11.26,12.63,6.09,6.09,0,0,0,1.54-2.37c1.14-3.36-1.15-6.27-3.28-8.73-4.6-5.3-9.41-10.76-15.79-13.71-1.15-.53-2.47-1.11-2.86-2.31a4.21,4.21,0,0,1,.63-3.12c5.57-11.21,12.61-21.81,16.26-33.78,3.21-10.57,3.3-22.84-2.31-32.11-3.24,1.8-8,2-11.65,2.35A80.58,80.58,0,0,1,98.6,221.07Z" transform="translate(-42.09 -24.14)" style="fill:#46cff3;opacity:0.5;mix-blend-mode:multiply"/><path d="M94.06,170.81q3.8-7.6,7.58-15.23a13.51,13.51,0,0,0-1.29,1.09,28.74,28.74,0,0,0-4.6,6.41c-2.28,3.91-4.56,8-5.5,12.39a5.51,5.51,0,0,0,1.44-1A13,13,0,0,0,94.06,170.81Z" transform="translate(-42.09 -24.14)" style="fill:#fff"/><path d="M142.58,163.12a22.87,22.87,0,0,0-3.87,16.18,7.37,7.37,0,0,0,1.86,4.17c.12-4.25-.74-8.74.55-12.81C141.91,168.16,143.5,165.56,142.58,163.12Z" transform="translate(-42.09 -24.14)" style="fill:#fff"/><path d="M110.69,161a8.22,8.22,0,0,0,6.45,3.38,7.77,7.77,0,0,0,6.43-3.36,13.21,13.21,0,0,0,1.73-6.6c-1.12.87-1.43,2.55-2,3.9a6.91,6.91,0,0,1-13-1.56,4.69,4.69,0,0,0-.83-2.5l-.09-.07A8.66,8.66,0,0,0,110.69,161Z" transform="translate(-42.09 -24.14)" style="fill:#fff"/><path d="M114.83,115.44c1.86,3.14,12.48,15,16.7,11-4.92,0-12.93-9.1-14.52-11.79a8.22,8.22,0,0,1-1.38-5.33c-.22,0-.45.09-.66.15l-.15,0c-.35.1-.68.21-1,.34l0,0c-.09,0-.17.08-.26.12C113.09,111.72,113.85,113.78,114.83,115.44Z" transform="translate(-42.09 -24.14)" style="fill:#fdc6bf;opacity:0.5;mix-blend-mode:multiply"/><path d="M115.4,115.27c-1.43-2.14-2.54-5-1.18-7.2,1.69-2.72,5.84-2.28,8.69-.82,4,2,14.45,12.68,10.92,18.1C130.06,131.16,117.58,118.57,115.4,115.27Z" transform="translate(-42.09 -24.14)" style="fill:#a45ee2"/><path d="M119.36,229.05c.86,2.49,4.9,5.25,7,6.72,1.23.87,7.29,3.22,5.52,4.61s-6.11-2.43-7.38-3.61A19.07,19.07,0,0,1,119.36,229.05Z" transform="translate(-42.09 -24.14)" style="fill:#46cff3;opacity:0.5;mix-blend-mode:multiply"/><path d="M101.34,227.25c-.87,2.5-4.91,5.26-7,6.72-1.22.88-7.29,3.23-5.52,4.61S95,236.15,96.24,235A19.2,19.2,0,0,0,101.34,227.25Z" transform="translate(-42.09 -24.14)" style="fill:#46cff3;opacity:0.5;mix-blend-mode:multiply"/><path d="M105.19,242.11a31.74,31.74,0,0,0-.41,4.13c.27-.5.56-1,.88-1.48l.26-.49c0-.43.08-.86.14-1.29l.19-1.14a29.72,29.72,0,0,1,4.26-10.71l-.83-.54a30.18,30.18,0,0,0-4.17,9.91,8.57,8.57,0,0,1-.39-2.08,32.78,32.78,0,0,1,1-11.2l-1-.26a33.77,33.77,0,0,0-1,11.54A7.35,7.35,0,0,0,105.19,242.11Z" transform="translate(-42.09 -24.14)" style="fill:#46cff3;opacity:0.5;mix-blend-mode:multiply"/><path d="M116.33,166s-6,32-3.51,54.22" transform="translate(-42.09 -24.14)" style="fill:none;stroke:#ffd13d;stroke-linecap:round;stroke-linejoin:round;stroke-width:0.75px;opacity:0.5;mix-blend-mode:multiply"/><path d="M119.66,175.08a1.14,1.14,0,1,1-1.14-1.14A1.14,1.14,0,0,1,119.66,175.08Z" transform="translate(-42.09 -24.14)" style="fill:#ffd13d;opacity:0.5;mix-blend-mode:multiply"/><path d="M118.34,184.61a1.14,1.14,0,1,1-1.14-1.14A1.15,1.15,0,0,1,118.34,184.61Z" transform="translate(-42.09 -24.14)" style="fill:#ffd13d;opacity:0.5;mix-blend-mode:multiply"/><path d="M116.72,212.71a1.14,1.14,0,1,1-1.14-1.14A1.15,1.15,0,0,1,116.72,212.71Z" transform="translate(-42.09 -24.14)" style="fill:#ffd13d;opacity:0.5;mix-blend-mode:multiply"/><path d="M117.36,193.82a1.14,1.14,0,1,1-1.22-1.06A1.13,1.13,0,0,1,117.36,193.82Z" transform="translate(-42.09 -24.14)" style="fill:#ffd13d;opacity:0.5;mix-blend-mode:multiply"/><path d="M116.72,203.43a1.14,1.14,0,1,1-1.22-1.06A1.14,1.14,0,0,1,116.72,203.43Z" transform="translate(-42.09 -24.14)" style="fill:#ffd13d;opacity:0.5;mix-blend-mode:multiply"/><ellipse cx="235.17" cy="349.88" rx="73.69" ry="11.95" style="fill:#0d3d92;opacity:0.2;mix-blend-mode:multiply"/><path d="M240.76,259.52a5.86,5.86,0,0,0-3.19-.48,1,1,0,0,0-.23,0,7.08,7.08,0,0,0-1.85.81c-1.3.75-2.56,1.53-3.76,2.35,4.1,1.16,6.88,3.23,8.14,7.57-.09-1.05-.43-2.44,0-3.44.53-1.23,1.67-1.11,2.82-1.25C246.87,264.6,242.68,260.29,240.76,259.52Z" transform="translate(-42.09 -24.14)" style="fill:#ffd13d"/><path d="M237.56,259a1.7,1.7,0,0,0-.7-.38c-3.22-1-6.05,1.87-8.78,3.84-5,3.65-9.56,7.57-11.69,13.41-.28.77-.4,1.6.22,2.13a1.24,1.24,0,0,0,.79.44,2,2,0,0,1,.38-1.57,54.63,54.63,0,0,1,3.88-5.43,45.82,45.82,0,0,1,10.07-9.23c1.2-.82,2.46-1.6,3.76-2.35a7.08,7.08,0,0,1,1.85-.81,1,1,0,0,1,.23,0Z" transform="translate(-42.09 -24.14)" style="fill:#fff"/><path d="M246.69,267.36l-4-2.24c-1.15.14-2.29,0-2.82,1.25-.45,1-.11,2.39,0,3.44a4.29,4.29,0,0,1,0,.61l3.68,2h0C244.32,270.9,245.83,268.74,246.69,267.36Z" transform="translate(-42.09 -24.14)" style="fill:#cb997e"/><path d="M239.87,269.81c-1.26-4.34-4-6.41-8.14-7.57a45.82,45.82,0,0,0-10.07,9.23,54.63,54.63,0,0,0-3.88,5.43,2,2,0,0,0-.38,1.57c.29,1,2.07,1.18,3.48.44a15.66,15.66,0,0,0,3.12-2.64,15.4,15.4,0,0,1,8.78-3.91,38.17,38.17,0,0,1,5,.3c1.76,0,2.14-.87,2.09-2.24A4.29,4.29,0,0,0,239.87,269.81Z" transform="translate(-42.09 -24.14)" style="fill:#ffd13d"/><path d="M218.82,257.62a5.91,5.91,0,0,0-3.2-.48.93.93,0,0,0-.22,0,7.15,7.15,0,0,0-1.86.81c-1.3.75-2.55,1.53-3.76,2.36,4.11,1.15,6.88,3.22,8.14,7.56-.08-1.05-.43-2.44,0-3.44.53-1.22,1.67-1.11,2.82-1.25C224.93,262.71,220.73,258.39,218.82,257.62Z" transform="translate(-42.09 -24.14)" style="fill:#ffd13d"/><path d="M215.61,257.13a1.66,1.66,0,0,0-.69-.38c-3.22-1-6,1.87-8.78,3.85-5,3.64-9.57,7.56-11.7,13.4-.27.77-.4,1.6.22,2.13a1.27,1.27,0,0,0,.79.44,2,2,0,0,1,.39-1.57,53,53,0,0,1,3.87-5.43,46,46,0,0,1,10.07-9.22c1.21-.83,2.46-1.61,3.76-2.36a7.15,7.15,0,0,1,1.86-.81.93.93,0,0,1,.22,0Z" transform="translate(-42.09 -24.14)" style="fill:#fff"/><path d="M224.74,265.46l-4-2.24c-1.15.14-2.29,0-2.82,1.25-.45,1-.1,2.39,0,3.44a4.35,4.35,0,0,1,0,.61l3.67,2h0C222.38,269,223.88,266.84,224.74,265.46Z" transform="translate(-42.09 -24.14)" style="fill:#cb997e"/><path d="M217.92,267.91c-1.26-4.34-4-6.41-8.14-7.56a46,46,0,0,0-10.07,9.22,53,53,0,0,0-3.87,5.43,2,2,0,0,0-.39,1.57c.29,1.05,2.07,1.18,3.48.45a16.11,16.11,0,0,0,3.13-2.65,15.26,15.26,0,0,1,8.78-3.9,36.62,36.62,0,0,1,5,.29c1.75.05,2.13-.86,2.09-2.24A4.35,4.35,0,0,0,217.92,267.91Z" transform="translate(-42.09 -24.14)" style="fill:#ffd13d"/><path d="M348.26,94.35" transform="translate(-42.09 -24.14)" style="fill:#ffc712"/><path d="M359.71,104.4a4.58,4.58,0,0,1-1.32-.23,4.7,4.7,0,0,1-3.32-3c-.39-.83-.68-1.71-1.09-2.53a10.08,10.08,0,0,0-2-2.73,1.78,1.78,0,0,1-.71-1.07,1,1,0,0,1,.86-1,1.67,1.67,0,0,1,1.34.42,4.69,4.69,0,0,1,.92,1.11l1.25,1.93a.59.59,0,0,0,.75.22,1.55,1.55,0,0,0,.51-.33,2.42,2.42,0,0,0,.43-1c1-4,.44-6.87.85-11,.05-.53.18-1.15.67-1.34a1,1,0,0,1,1.16.54,2.72,2.72,0,0,1,.23,1.36,56.4,56.4,0,0,1-.38,6.09c0,.21.36.48.56.4a.86.86,0,0,0,.42-.46c1.26-2.58.34-5.22,1.35-7.91a2.08,2.08,0,0,1,.46-.79.93.93,0,0,1,.84-.28,1,1,0,0,1,.65.74,2.92,2.92,0,0,1,0,1c-.39,2.82-1.76,7.6-1.65,7.94s.71.32,1,.13a1.66,1.66,0,0,0,.46-.79c.73-2,1.34-3.57,2.07-5.62a3.3,3.3,0,0,1,.75-1.39,1.18,1.18,0,0,1,1.45-.19,1.13,1.13,0,0,1,.37,1,3.27,3.27,0,0,1-.32,1c-1,2.45-2,4.38-3,6.83-.11.26-.2.58,0,.77a.45.45,0,0,0,.57,0,1.28,1.28,0,0,0,.37-.49c.92-1.67,1.73-2.81,2.65-4.48a1.89,1.89,0,0,1,.54-.71.69.69,0,0,1,.83,0c.27.24.2.67.1,1-.56,1.75-1.65,3.29-2.38,5-1.36,3.13-1.2,5.43-3.07,8.28a4.91,4.91,0,0,1-1.55,1.59,2.6,2.6,0,0,1-2.14.28c-.24-.08-.47-.21-.71-.27A5.08,5.08,0,0,0,359.71,104.4Z" transform="translate(-42.09 -24.14)" style="fill:#cb997e"/><path d="M368.86,89.42a52.68,52.68,0,0,1-2.37,5c-1.36,3.13-1.2,5.43-3.07,8.28a5,5,0,0,1-1.55,1.58,2.94,2.94,0,0,1-1,.37l.26.1a2.6,2.6,0,0,0,2.14-.28,4.91,4.91,0,0,0,1.55-1.59c1.87-2.85,1.71-5.15,3.07-8.28.73-1.68,1.82-3.22,2.38-5,.1-.35.17-.78-.1-1a.69.69,0,0,0-.83,0,1.52,1.52,0,0,0-.4.47A1.69,1.69,0,0,1,368.86,89.42Z" transform="translate(-42.09 -24.14)" style="fill:#cb997e;opacity:0.5;mix-blend-mode:multiply"/><path d="M353,94.93c.44.64.72,1.39,1.15,2a2.57,2.57,0,0,0,1.87,1.28,1.12,1.12,0,0,0,.92-.37,1.32,1.32,0,0,0,.13-1,2.14,2.14,0,0,1-.2.32,1.55,1.55,0,0,1-.51.33.59.59,0,0,1-.75-.22l-1.25-1.93a4.69,4.69,0,0,0-.92-1.11,1.67,1.67,0,0,0-1.34-.42l-.24.08A3.1,3.1,0,0,1,353,94.93Z" transform="translate(-42.09 -24.14)" style="fill:#cb997e;opacity:0.5;mix-blend-mode:multiply"/><path d="M359.45,91.21a1.56,1.56,0,0,0,.45.74.38.38,0,0,1,0-.1,56.4,56.4,0,0,0,.38-6.09A2.72,2.72,0,0,0,360,84.4a1.13,1.13,0,0,0-.69-.56,19.34,19.34,0,0,1,.1,4.3A8.33,8.33,0,0,0,359.45,91.21Z" transform="translate(-42.09 -24.14)" style="fill:#cb997e;opacity:0.5;mix-blend-mode:multiply"/><path d="M363,86.62a24.43,24.43,0,0,0-.9,5.06,1.32,1.32,0,0,0,.13.68.57.57,0,0,0,.31.28.2.2,0,0,1-.08-.13c-.11-.34,1.26-5.12,1.65-7.94a2.92,2.92,0,0,0,0-1,1,1,0,0,0-.65-.74h0A22.24,22.24,0,0,1,363,86.62Z" transform="translate(-42.09 -24.14)" style="fill:#cb997e;opacity:0.5;mix-blend-mode:multiply"/><path d="M365,92.76a2,2,0,0,0-.13.89.8.8,0,0,0,.24.43,1,1,0,0,1,.11-.56c1-2.45,2-4.38,3-6.83a3.27,3.27,0,0,0,.32-1,1.13,1.13,0,0,0-.37-1,1,1,0,0,0-.23-.12,15.44,15.44,0,0,1-1.17,3.91C366.17,89.88,365.48,91.28,365,92.76Z" transform="translate(-42.09 -24.14)" style="fill:#cb997e;opacity:0.5;mix-blend-mode:multiply"/><path d="M360.42,104.46a5.08,5.08,0,0,0-.71-.06,4.58,4.58,0,0,1-1.32-.23,5.87,5.87,0,0,1-1.7-.8,4.41,4.41,0,0,1-.87-.91c-.07.24-.37,1.17-.81,2.44a19.88,19.88,0,0,1,3.78,1.37,11.34,11.34,0,0,0,3.65,1c.25-1.58.4-2.62.4-2.62h0a2.49,2.49,0,0,1-1.68.06C360.89,104.65,360.66,104.52,360.42,104.46Z" transform="translate(-42.09 -24.14)" style="fill:#cb997e"/><path d="M362.81,104.67l-.2.06-.29.07-.21,0h-.49a2.16,2.16,0,0,1-.49-.11c-.24-.08-.47-.21-.71-.27a5.08,5.08,0,0,0-.71-.06,4.58,4.58,0,0,1-1.32-.23,5.87,5.87,0,0,1-1.7-.8,3.87,3.87,0,0,1-.47-.43,4.54,4.54,0,0,1-.39-.48h0c0,.11-.11.37-.23.74a4.32,4.32,0,0,0,1,1,5.89,5.89,0,0,0,1.7.81,4.64,4.64,0,0,0,1.33.23,5.23,5.23,0,0,1,.7,0c.25.07.48.2.72.28a2.44,2.44,0,0,0,1.72-.09c.08-.53.12-.84.12-.84Z" transform="translate(-42.09 -24.14)" style="fill:#cb997e;opacity:0.5;mix-blend-mode:multiply"/><path d="M211.77,160.45a4.7,4.7,0,0,0,1.06-.82,5.51,5.51,0,0,0,1.14-1.5,5.73,5.73,0,0,0,.42-2.69c0-.92-.19-1.83-.21-2.75a10.21,10.21,0,0,1,.5-3.34,1.8,1.8,0,0,0,.13-1.28,1,1,0,0,0-1.22-.5,1.69,1.69,0,0,0-1,1,4.93,4.93,0,0,0-.3,1.42c-.06.58-.16,1.66-.21,2.29a.6.6,0,0,1-.56.54,1.67,1.67,0,0,1-.62-.06,2.46,2.46,0,0,1-.83-.68c-2.75-3.1-3.58-5.89-5.84-9.35-.29-.44-.7-.93-1.22-.87a1,1,0,0,0-.78,1,2.75,2.75,0,0,0,.43,1.32,60.25,60.25,0,0,0,3.15,5.22c.12.18-.1.59-.31.62a.86.86,0,0,1-.58-.22c-2.32-1.7-2.72-4.47-4.86-6.39a2.24,2.24,0,0,0-.77-.49.92.92,0,0,0-.88.15,1,1,0,0,0-.23,1,2.73,2.73,0,0,0,.49.9c1.65,2.32,5.08,5.92,5.14,6.28s-.49.6-.79.55a1.6,1.6,0,0,1-.78-.48c-1.59-1.49-2.84-2.55-4.43-4a3.37,3.37,0,0,0-1.31-.88,1.15,1.15,0,0,0-1.37.5,1.13,1.13,0,0,0,.13,1,3.31,3.31,0,0,0,.76.78c2.06,1.7,3.78,3,5.84,4.66.21.18.45.43.36.69a.48.48,0,0,1-.51.26,1.31,1.31,0,0,1-.56-.26c-1.59-1.06-2.83-1.69-4.42-2.75a2.08,2.08,0,0,0-.81-.38.68.68,0,0,0-.74.37c-.13.34.13.69.38.95a55.11,55.11,0,0,0,4.41,3.31c2.66,2.14,3.58,4.25,6.56,5.91a4.83,4.83,0,0,0,2.1.69,2.58,2.58,0,0,0,2-.74c.18-.18.32-.4.51-.58A5.23,5.23,0,0,1,211.77,160.45Z" transform="translate(-42.09 -24.14)" style="fill:#cb997e"/><path d="M196.72,151.42a53.27,53.27,0,0,0,4.41,3.3c2.65,2.15,3.57,4.26,6.56,5.92a5,5,0,0,0,2.1.69,2.87,2.87,0,0,0,1.05-.14,1.81,1.81,0,0,1-.18.21,2.58,2.58,0,0,1-2,.74,4.83,4.83,0,0,1-2.1-.69c-3-1.66-3.9-3.77-6.56-5.91a55.11,55.11,0,0,1-4.41-3.31c-.25-.26-.51-.61-.38-.95a.68.68,0,0,1,.74-.37,1.45,1.45,0,0,1,.57.24Z" transform="translate(-42.09 -24.14)" style="fill:#cb997e;opacity:0.5;mix-blend-mode:multiply"/><path d="M213.3,149c-.1.78,0,1.57-.08,2.35a2.53,2.53,0,0,1-1.07,2,1,1,0,0,1-1,.1,1.23,1.23,0,0,1-.58-.84,1.44,1.44,0,0,0,.31.19,1.67,1.67,0,0,0,.62.06.61.61,0,0,0,.56-.54c0-.63.15-1.71.21-2.29a4.93,4.93,0,0,1,.3-1.42,1.69,1.69,0,0,1,1-1l.25,0A2.91,2.91,0,0,0,213.3,149Z" transform="translate(-42.09 -24.14)" style="fill:#cb997e;opacity:0.5;mix-blend-mode:multiply"/><path d="M205.89,148.64a1.47,1.47,0,0,1-.06.86.18.18,0,0,0,0-.1,60.25,60.25,0,0,1-3.15-5.22,2.75,2.75,0,0,1-.43-1.32,1.12,1.12,0,0,1,.35-.8,19.45,19.45,0,0,0,1.91,3.85A8.14,8.14,0,0,1,205.89,148.64Z" transform="translate(-42.09 -24.14)" style="fill:#cb997e;opacity:0.5;mix-blend-mode:multiply"/><path d="M200.6,146.22a25,25,0,0,1,3.14,4.07,1.46,1.46,0,0,1,.21.67.63.63,0,0,1-.15.39.38.38,0,0,0,0-.15c-.06-.36-3.49-4-5.14-6.28a2.73,2.73,0,0,1-.49-.9,1,1,0,0,1,.23-1l0,0A21.29,21.29,0,0,0,200.6,146.22Z" transform="translate(-42.09 -24.14)" style="fill:#cb997e;opacity:0.5;mix-blend-mode:multiply"/><path d="M201.7,152.58a1.82,1.82,0,0,1,.52.72.78.78,0,0,1,0,.5,1.06,1.06,0,0,0-.35-.45c-2.06-1.69-3.78-3-5.84-4.66a3.31,3.31,0,0,1-.76-.78,1.13,1.13,0,0,1-.13-1,.77.77,0,0,1,.14-.21,15.7,15.7,0,0,0,2.84,2.92C199.32,150.57,200.58,151.49,201.7,152.58Z" transform="translate(-42.09 -24.14)" style="fill:#cb997e;opacity:0.5;mix-blend-mode:multiply"/><path d="M211.17,160.82a5.23,5.23,0,0,1,.6-.37,4.7,4.7,0,0,0,1.06-.82,5.51,5.51,0,0,0,1.14-1.5,4.48,4.48,0,0,0,.35-1.2c.17.18.86.86,1.84,1.79a20.1,20.1,0,0,0-2.71,3,11.35,11.35,0,0,1-2.76,2.6l-1.57-2.13,0,0a2.44,2.44,0,0,0,1.51-.72C210.84,161.22,211,161,211.17,160.82Z" transform="translate(-42.09 -24.14)" style="fill:#cb997e"/><path d="M209.15,162.12l.2,0,.29-.07.2-.07a1.92,1.92,0,0,0,.29-.14l.15-.08a1.66,1.66,0,0,0,.38-.32c.18-.18.32-.4.51-.58a5.23,5.23,0,0,1,.6-.37,4.7,4.7,0,0,0,1.06-.82,5.51,5.51,0,0,0,1.14-1.5,4.19,4.19,0,0,0,.22-.59c.05-.2.09-.4.13-.61h0l.55.55a4.72,4.72,0,0,1-.37,1.37,6.07,6.07,0,0,1-1.14,1.5,5.07,5.07,0,0,1-1.07.82,3.91,3.91,0,0,0-.59.37,5.57,5.57,0,0,0-.51.58,2.47,2.47,0,0,1-1.57.72c-.31-.44-.5-.69-.5-.69Z" transform="translate(-42.09 -24.14)" style="fill:#cb997e;opacity:0.5;mix-blend-mode:multiply"/><path d="M281.81,114.77c-1.36-3.19-5.74-4.15-9-2.85s-5.49,4.18-7.47,7-3.88,5.9-6.78,7.82a12.24,12.24,0,0,1-11,1.18c1.51,5.87,7.33,10.09,13.37,10.55s12.05-2.46,16.14-6.93C280.61,127.8,284,119.93,281.81,114.77Z" transform="translate(-42.09 -24.14)" style="fill:#9d6b53"/><path d="M301.52,149.62s.8,2.56-4.55,3.29a22.67,22.67,0,0,1-9.92-1l-2.34-17.21,14.49-2Z" transform="translate(-42.09 -24.14)" style="fill:#cb997e"/><g style="opacity:0.5;mix-blend-mode:multiply"><path d="M301.21,147.34l-1.45-10.57-13.13,1.81A14.94,14.94,0,0,0,301.21,147.34Z" transform="translate(-42.09 -24.14)" style="fill:#fdc6bf"/></g><path d="M279.8,119.3s.1.76,1.23,9,4.46,12.05,4.46,12.05,10.23,7.39,18.16,1.92a11.8,11.8,0,0,0,4.56-11.36l-2.09-15.2a15.73,15.73,0,0,0-2.68-6.93c-2.82-4.05-7-3.68-11.85-3l-.48.07C284,106.79,278.7,111.32,279.8,119.3Z" transform="translate(-42.09 -24.14)" style="fill:#cb997e"/><path d="M296.13,135.51a2,2,0,0,0-.91,3.5,5.53,5.53,0,0,0,7.5-1,2,2,0,0,0-1.82-3.12Z" transform="translate(-42.09 -24.14)" style="fill:#fff"/><path d="M304.85,153a7.25,7.25,0,0,1-2.88,5.41c-2.66,2-6.47,1.84-9.47.43a24.15,24.15,0,0,1-7.85-5.23l2.4-1.69a22.67,22.67,0,0,0,9.92,1c5.35-.73,4.55-3.29,4.55-3.29l-.15-1.18a7,7,0,0,0,3.08.37C305.11,150,304.91,151.67,304.85,153Z" transform="translate(-42.09 -24.14)" style="fill:#cb997e"/><path d="M245.63,266a13.53,13.53,0,0,0-3.71,8c8,2.63,16.27,4.6,24.13,6.65,6.67,1.73,12.21,5.12,18.88,7.27a2.14,2.14,0,0,0,2.75-2.57c-.23-.84-.46-1.69-.7-2.55-9.08-6.48-14.68-8.91-25.07-13l-11.83-4.62a4.39,4.39,0,0,0-2.78-.43A3.74,3.74,0,0,0,245.63,266Z" transform="translate(-42.09 -24.14)" style="fill:#e35230"/><path d="M306.88,310.31a34.81,34.81,0,0,0,9,3.45c3.62.69,7.63.27,10.54-2a9.84,9.84,0,0,0,3.38-4.94,19.65,19.65,0,0,0,.59-4.91c.5-15.07.92-30.16.37-45.22-.42-11.19-1.78-20.15-4.66-26.11-5.36,3.43-18.21,8-43.58-.32-.38,1.19-2,6.18-2.27,7.39-2.13,8.19-1.06,16.91,1.06,25.11,1.6,6.21,3.8,13.31,5.67,20,.24.86.47,1.71.7,2.55a2.14,2.14,0,0,1-2.75,2.57c-6.67-2.15-12.21-5.54-18.88-7.27-7.86-2.05-16.16-5.8-24.13-8.43a92.24,92.24,0,0,1-16.85-7.28,2,2,0,0,0-2.76.77c-.76,1.46-1.09,3.6-.62,4.65.72,1.62,2.31,2.64,3.81,3.56,22.15,13.64,47.68,31.1,72,40.34a9.3,9.3,0,0,0,8.27-2.63A12.14,12.14,0,0,0,306.88,310.31Z" transform="translate(-42.09 -24.14)" style="fill:#ff7551"/><path d="M331.34,140.83c-8.71,4.81-18.46,8.16-28.4,8-.21,0-.73-.34-.63-.15,0,0-.76,8.59-4,9.25-4,.8-10.69-6.25-11.25-6a65.42,65.42,0,0,0-14.38,9.27c-6.93,5.15-28.39,13.89-32.76,14-3.5.08-10-8.94-21.6-16.5a2.33,2.33,0,0,0-2.94.34l-4.2,4.31a2.31,2.31,0,0,0-.08,3.17A247.05,247.05,0,0,0,233,187.59a12.83,12.83,0,0,0,11.5,2.73c8.53-2.14,23.24-5.95,29.15-8.19a4.52,4.52,0,0,1,5.48,1.84c2.75,3.88,8.66,10.84,7.1,22.82a66,66,0,0,1-3.19,12.06c-1.15,3.47-6.93,9.2-3.48,10.42,1,.35,2,.69,2.95,1,25.37,8.36,38.22,3.75,43.58.32.19-.11.36-.22.52-.33a4.38,4.38,0,0,0,1.62-5.1c-5.65-15.64-7.49-18.37-10.77-34.67a12.63,12.63,0,0,0,6.28-6.16,10.29,10.29,0,0,0,.25-7.93c-.78-2-2.21-3.78-3-5.81l-.15-.42a4.37,4.37,0,0,1,1.74-5.08c7.66-5,15.17-10,22.87-15a33.39,33.39,0,0,0,7.51-6c2-2.38,7.42-19.34,10.54-35.1a2.34,2.34,0,0,0-1.68-2.69l-5.8-1.6a2.34,2.34,0,0,0-2.71,1.2c-6.18,12.37-9.54,25.75-11.66,28.52C339,137.9,335.16,138.72,331.34,140.83Z" transform="translate(-42.09 -24.14)" style="fill:#46cff3"/><path d="M311,288.44q-.48-20-1-40s12.26,51.08,4.15,65a40.45,40.45,0,0,1-7.31-3l-.14.16A17.83,17.83,0,0,0,310,303.7C311.25,298.75,311.14,293.56,311,288.44Z" transform="translate(-42.09 -24.14)" style="fill:#e35230"/><path d="M303,129c.51-.61,1.07-1.27,1-1.86a3.12,3.12,0,0,0-1-1.71,5.46,5.46,0,0,1-1.3-4.7,9.85,9.85,0,0,0,2.06,4.05,8.73,8.73,0,0,1,.76,1,2.18,2.18,0,0,1,.29,1.41,2,2,0,0,1-.72,1.18A3.8,3.8,0,0,1,303,129Z" transform="translate(-42.09 -24.14)" style="fill:#826359"/><path d="M286.79,232.59c-.51.54-1.18.89-1.72,1.41a7.14,7.14,0,0,0-1.56,2.68c-3.51,9.21-3.23,19.36-1.39,29.12-.28-1-.56-2-.81-3-2.12-8.2-3.19-16.92-1.06-25.11.31-1.21,1.89-6.2,2.27-7.39,1.67.55,3.28,1,4.85,1.49A3.88,3.88,0,0,1,286.79,232.59Z" transform="translate(-42.09 -24.14)" style="fill:#e35230"/><path d="M292.39,197c2.43,11-.66,22.49-4.35,33.16a11.26,11.26,0,0,1-.67,1.6c-1.57-.45-3.18-.94-4.85-1.49-1-.31-1.95-.65-2.95-1-3.45-1.22,2.33-7,3.48-10.42a66,66,0,0,0,3.19-12.06c1.56-12-4.35-18.94-7.1-22.82a5.53,5.53,0,0,0-1.1-1.16c3,.22,6,.94,8.28,2.91C289.61,188.56,291.45,192.76,292.39,197Z" transform="translate(-42.09 -24.14)" style="fill:#46cff3;opacity:0.5;mix-blend-mode:multiply"/><path d="M304.25,116.87l4.75,3.85a14.11,14.11,0,0,0-4.31-12.14c-1.56-1.48-7.4-6.28-8-1.63C296.14,111,302,115,304.25,116.87Z" transform="translate(-42.09 -24.14)" style="fill:#9d6b53"/><path d="M279.27,126.51a1.29,1.29,0,0,1-.88-.32,1.67,1.67,0,0,1-.37-.78c-1.78-6.3-.34-13.72,3.56-18.45,3.27-4,12.21-6.65,15.88-1.73,4.41,5.91-3.3,15.12-7.25,18A16.72,16.72,0,0,1,279.27,126.51Z" transform="translate(-42.09 -24.14)" style="fill:#9d6b53"/><path d="M298.47,111.67a7.39,7.39,0,0,0-1-6.4,2.37,2.37,0,0,1,2.23-.06,0,0,0,0,0,0,0c1.8,2.42,1.58,5.38.41,8.24A17.71,17.71,0,0,1,298.47,111.67Z" transform="translate(-42.09 -24.14)" style="fill:#ffd13d;mix-blend-mode:multiply"/><path d="M277.14,128a1.38,1.38,0,0,1-.89-.31,1.85,1.85,0,0,1-.36-.79,21.68,21.68,0,0,1,1.54-15.35,7,7,0,0,1,1.3.39,21.79,21.79,0,0,0-.71,13.5,1.67,1.67,0,0,0,.37.78,1.29,1.29,0,0,0,.88.32c.39,0,.79,0,1.18,0-.22.47-.46.93-.71,1.38A15,15,0,0,1,277.14,128Z" transform="translate(-42.09 -24.14)" style="fill:#ffd13d;mix-blend-mode:multiply"/><path d="M223.22,266.43l1.7,1.07" transform="translate(-42.09 -24.14)" style="fill:none;stroke:#fff;stroke-linecap:round;stroke-linejoin:round"/><path d="M228.36,269.62A327.15,327.15,0,0,0,276,293.46a26.34,26.34,0,0,0,8.17,2.26,9.57,9.57,0,0,0,7.77-2.82c2-2.19,2.53-5.45,2.16-8.43a30.84,30.84,0,0,0-2.76-8.51c-3.18-7.29-6.51-14.64-7.75-22.55a34.1,34.1,0,0,1,.86-15.18" transform="translate(-42.09 -24.14)" style="fill:none;stroke:#fff;stroke-linecap:round;stroke-linejoin:round;stroke-dasharray:4.048649787902832,4.048649787902832"/><path d="M285.09,236.32c.25-.62.52-1.23.82-1.82" transform="translate(-42.09 -24.14)" style="fill:none;stroke:#fff;stroke-linecap:round;stroke-linejoin:round"/><path d="M314.29,175.8h0a4.58,4.58,0,0,0,2.51-6l-1.73-4.26L306.56,169l1.74,4.26A4.59,4.59,0,0,0,314.29,175.8Z" transform="translate(-42.09 -24.14)" style="fill:#46cff3;opacity:0.5;mix-blend-mode:multiply"/><path d="M624.05,171.16s-.76,2.42,4.31,3.12a21.44,21.44,0,0,0,9.41-.94L640,157l-13.74-1.89Z" transform="translate(-42.09 -24.14)" style="fill:#ffb5a7"/><g style="opacity:0.5;mix-blend-mode:multiply"><path d="M624.34,169l1.38-10,12.45,1.71A14.18,14.18,0,0,1,624.34,169Z" transform="translate(-42.09 -24.14)" style="fill:#fdc6bf"/></g><path d="M644.65,142.39l-1.17,8.52c-1.07,7.81-4.23,11.44-4.23,11.44s-9.7,7-17.22,1.82a11.21,11.21,0,0,1-4.33-10.78l2-14.42a14.91,14.91,0,0,1,2.55-6.58c2.67-3.84,6.68-3.48,11.23-2.86l.46.06C640.69,130.52,645.69,134.82,644.65,142.39Z" transform="translate(-42.09 -24.14)" style="fill:#ffb5a7"/><path d="M629.63,157.83a1.65,1.65,0,0,1,1,2.8,5.23,5.23,0,0,1-8.08-1.11,1.64,1.64,0,0,1,1.67-2.43Z" transform="translate(-42.09 -24.14)" style="fill:#fff"/><path d="M620.89,174.38a6.86,6.86,0,0,0,2.73,5.12c2.53,1.88,6.14,1.75,9,.41a22.88,22.88,0,0,0,7.44-5l-2.28-1.61a21.44,21.44,0,0,1-9.41.94c-5.07-.7-4.31-3.12-4.31-3.12l.14-1.12a6.7,6.7,0,0,1-2.92.35C620.64,171.5,620.83,173.1,620.89,174.38Z" transform="translate(-42.09 -24.14)" style="fill:#ffb5a7"/><path d="M644.85,122.86c-4.68-1.08-10,.19-13.22,3.75s-3.86,9.43-1,13.26c2.28,3,6.17,4.38,8.68,7.19s3.39,6.87,3.83,10.69.62,7.77,2.22,11.27,5.11,6.48,8.94,6.08c4.62-.49,7.53-5.4,11.93-6.89,4.14-1.4,8.9.45,13-1.13,4.29-1.67,6.43-6.85,5.79-11.41s-3.48-8.51-6.7-11.8c-5.24-5.37-11.33-8.76-18.09-11.8C654.71,129.57,650.94,124.25,644.85,122.86Z" transform="translate(-42.09 -24.14)" style="fill:#49434f"/><path d="M625.41,153.11a3.79,3.79,0,0,1-1-.57,1.89,1.89,0,0,1-.7-1.12,2.14,2.14,0,0,1,.28-1.36,7.89,7.89,0,0,1,.72-1,9.46,9.46,0,0,0,2-3.82,5.11,5.11,0,0,1-1.21,4.47,3,3,0,0,0-1,1.6C624.41,151.89,624.93,152.52,625.41,153.11Z" transform="translate(-42.09 -24.14)" style="fill:#db7170"/><path d="M613.4,108.77" transform="translate(-42.09 -24.14)" style="fill:#ffb5a7"/><path d="M596.12,106.87a5.68,5.68,0,0,0,1.64.21,5.87,5.87,0,0,0,5-2.33c.76-.85,1.43-1.77,2.21-2.6a12.48,12.48,0,0,1,3.35-2.5,2.25,2.25,0,0,0,1.23-1,1.28,1.28,0,0,0-.65-1.51,2.05,2.05,0,0,0-1.73,0,6.19,6.19,0,0,0-1.5,1c-.56.45-1.58,1.31-2.18,1.82a.74.74,0,0,1-1,0,2,2,0,0,1-.48-.59,2.85,2.85,0,0,1-.14-1.33c.28-5.11,2-8.28,3-13.29.13-.64.2-1.43-.31-1.83a1.23,1.23,0,0,0-1.57.21,3.37,3.37,0,0,0-.76,1.52A74.05,74.05,0,0,0,600.51,92c0,.26-.6.43-.8.27a1,1,0,0,1-.32-.69c-.56-3.52,1.5-6.3,1.29-9.85a2.66,2.66,0,0,0-.26-1.11,1.14,1.14,0,0,0-.89-.63,1.19,1.19,0,0,0-1,.63,3.44,3.44,0,0,0-.36,1.22c-.56,3.48-.69,9.63-.95,10s-1,.1-1.18-.21a2.06,2.06,0,0,1-.26-1.1c-.1-2.69-.28-4.71-.38-7.4a4.31,4.31,0,0,0-.38-1.92,1.45,1.45,0,0,0-1.65-.75,1.42,1.42,0,0,0-.8,1,4.14,4.14,0,0,0,0,1.36c.33,3.28.73,5.89,1.07,9.18,0,.34,0,.76-.28.91a.59.59,0,0,1-.68-.21,1.85,1.85,0,0,1-.27-.72c-.47-2.31-1-4-1.48-6.26a2.51,2.51,0,0,0-.38-1,.85.85,0,0,0-1-.32c-.4.18-.49.72-.48,1.16,0,2.28.74,4.49,1,6.75.46,4.2-.57,6.86.6,10.92a6.12,6.12,0,0,0,1.25,2.43,3.19,3.19,0,0,0,2.42,1.12c.32,0,.64-.08,1-.06A6.34,6.34,0,0,1,596.12,106.87Z" transform="translate(-42.09 -24.14)" style="fill:#ffb5a7"/><path d="M590.77,85.82c0,2.27.74,4.48,1,6.74.46,4.2-.57,6.86.61,10.92a6.1,6.1,0,0,0,1.24,2.43,3.71,3.71,0,0,0,1,.8c-.11,0-.23,0-.35,0a3.19,3.19,0,0,1-2.42-1.12,6.12,6.12,0,0,1-1.25-2.43c-1.17-4.06-.14-6.72-.6-10.92-.25-2.26-1-4.47-1-6.75,0-.44.08-1,.48-1.16a.85.85,0,0,1,1,.32,2,2,0,0,1,.3.7A2.25,2.25,0,0,0,590.77,85.82Z" transform="translate(-42.09 -24.14)" style="fill:#ffb5a7;opacity:0.5;mix-blend-mode:multiply"/><path d="M607.47,98.11c-.76.59-1.36,1.38-2.11,2a3.14,3.14,0,0,1-2.67.83,1.32,1.32,0,0,1-1-.78,1.59,1.59,0,0,1,.22-1.24,2.2,2.2,0,0,0,.12.44,2,2,0,0,0,.48.59.74.74,0,0,0,1,0c.6-.51,1.62-1.37,2.18-1.82a6.19,6.19,0,0,1,1.5-1,2.05,2.05,0,0,1,1.73,0,1.2,1.2,0,0,1,.26.18A3.76,3.76,0,0,0,607.47,98.11Z" transform="translate(-42.09 -24.14)" style="fill:#ffb5a7;opacity:0.5;mix-blend-mode:multiply"/><path d="M601.25,91.37a1.91,1.91,0,0,1-.81.71s.07-.07.07-.11a74.05,74.05,0,0,1,1.79-7.34,3.37,3.37,0,0,1,.76-1.52,1.47,1.47,0,0,1,1-.41,23.9,23.9,0,0,0-1.69,5A10.21,10.21,0,0,1,601.25,91.37Z" transform="translate(-42.09 -24.14)" style="fill:#ffb5a7;opacity:0.5;mix-blend-mode:multiply"/><path d="M598.71,84.64a31,31,0,0,1-.79,6.31,1.74,1.74,0,0,1-.4.76.79.79,0,0,1-.47.22.41.41,0,0,0,.14-.12c.26-.37.39-6.52.95-10a3.44,3.44,0,0,1,.36-1.22,1.19,1.19,0,0,1,1-.63h.05A25.62,25.62,0,0,0,598.71,84.64Z" transform="translate(-42.09 -24.14)" style="fill:#ffb5a7;opacity:0.5;mix-blend-mode:multiply"/><path d="M594.13,91.18a2.24,2.24,0,0,1-.17,1.09,1,1,0,0,1-.45.43,1.28,1.28,0,0,0,.09-.7c-.34-3.29-.74-5.9-1.07-9.18a4.14,4.14,0,0,1,0-1.36,1.42,1.42,0,0,1,.8-1,1.13,1.13,0,0,1,.31-.06,19.32,19.32,0,0,0,0,5C593.79,87.34,594.1,89.25,594.13,91.18Z" transform="translate(-42.09 -24.14)" style="fill:#ffb5a7;opacity:0.5;mix-blend-mode:multiply"/><path d="M599,142.93c-.21-1.27-.37-2.55-.46-3.85-.3-4.5.4-9,.77-13.45.26-3.08.28-15.83.77-18.88a7.1,7.1,0,0,1-2.31.33,5.68,5.68,0,0,1-1.64-.21,6.34,6.34,0,0,0-.85-.19c-.32,0-.64,0-1,.06a3,3,0,0,1-1.95-.69h-.05s-.2,1.29-.48,3.24c-1.14,7.87-3.09,24.79-2.71,32.82A88.15,88.15,0,0,1,599,142.93Z" transform="translate(-42.09 -24.14)" style="fill:#ffb5a7"/><path d="M707.85,133.05" transform="translate(-42.09 -24.14)" style="fill:#ffb5a7"/><path d="M708.08,151.88a5.86,5.86,0,0,1-.88-1.41,5.82,5.82,0,0,1,0-5.53c.45-1,1-2,1.43-3.09a12.46,12.46,0,0,0,.86-4.09,2.28,2.28,0,0,1,.39-1.53,1.28,1.28,0,0,1,1.64,0,2.06,2.06,0,0,1,.73,1.58,5.94,5.94,0,0,1-.27,1.77c-.17.7-.53,2-.74,2.74a.74.74,0,0,0,.42.87,1.88,1.88,0,0,0,.74.19,2.91,2.91,0,0,0,1.26-.43c4.51-2.39,6.67-5.27,10.79-8.3.53-.38,1.21-.77,1.79-.48a1.25,1.25,0,0,1,.47,1.51,3.41,3.41,0,0,1-1.06,1.33c-2.06,1.81-3.7,3.08-5.91,4.69a.63.63,0,0,0,.09.85,1.07,1.07,0,0,0,.77,0c3.41-1,5.07-4,8.38-5.3a2.54,2.54,0,0,1,1.11-.23,1.13,1.13,0,0,1,.95.54,1.19,1.19,0,0,1-.14,1.2,3.38,3.38,0,0,1-1,.84c-2.91,2-8.44,4.66-8.66,5s.3.92.68,1a2,2,0,0,0,1.11-.23c2.48-1,4.38-1.72,6.87-2.75a4.08,4.08,0,0,1,1.89-.45,1.26,1.26,0,0,1,.78,2.33,4.21,4.21,0,0,1-1.23.58c-3.12,1.07-5.65,1.8-8.77,2.88-.32.11-.7.29-.71.63a.58.58,0,0,0,.48.53,2,2,0,0,0,.76-.06c2.29-.54,4-.74,6.3-1.28a2.42,2.42,0,0,1,1.1-.09.85.85,0,0,1,.7.75c0,.44-.45.74-.85.93-2.07.94-4.38,1.2-6.54,1.93-4,1.34-6,3.38-10.14,4a6.13,6.13,0,0,1-2.73-.11,3.24,3.24,0,0,1-2-1.73c-.12-.29-.19-.61-.34-.89A5.37,5.37,0,0,0,708.08,151.88Z" transform="translate(-42.09 -24.14)" style="fill:#ffb5a7"/><path d="M729.41,147.91c-2.07.94-4.38,1.2-6.53,1.93-4,1.34-6,3.38-10.15,4a6.13,6.13,0,0,1-2.73-.11,3.42,3.42,0,0,1-1.16-.62c0,.11.07.22.11.33a3.24,3.24,0,0,0,2,1.73,6.13,6.13,0,0,0,2.73.11c4.17-.64,6.14-2.68,10.14-4,2.16-.73,4.47-1,6.54-1.93.4-.19.85-.49.85-.93a.85.85,0,0,0-.7-.75,1.82,1.82,0,0,0-.77,0A2.77,2.77,0,0,1,729.41,147.91Z" transform="translate(-42.09 -24.14)" style="fill:#ffb5a7;opacity:0.5;mix-blend-mode:multiply"/><path d="M711.27,137.91c-.22.94-.68,1.82-.92,2.75a3.13,3.13,0,0,0,.37,2.77,1.32,1.32,0,0,0,1.1.54,1.55,1.55,0,0,0,1-.72,1.32,1.32,0,0,1-.44.08,1.88,1.88,0,0,1-.74-.19.74.74,0,0,1-.42-.87c.21-.75.57-2,.74-2.74a5.94,5.94,0,0,0,.27-1.77,2.06,2.06,0,0,0-.73-1.58,1.17,1.17,0,0,0-.27-.15A3.63,3.63,0,0,1,711.27,137.91Z" transform="translate(-42.09 -24.14)" style="fill:#ffb5a7;opacity:0.5;mix-blend-mode:multiply"/><path d="M720,140.74a2,2,0,0,0-.3,1,.3.3,0,0,1,.07-.11c2.21-1.61,3.85-2.88,5.91-4.69a3.41,3.41,0,0,0,1.06-1.33,1.47,1.47,0,0,0-.06-1.09,23.82,23.82,0,0,1-3.87,3.64A10.13,10.13,0,0,0,720,140.74Z" transform="translate(-42.09 -24.14)" style="fill:#ffb5a7;opacity:0.5;mix-blend-mode:multiply"/><path d="M727.15,140.22a30.43,30.43,0,0,0-5.39,3.36,1.66,1.66,0,0,0-.52.68.77.77,0,0,0,0,.52.32.32,0,0,1,0-.19c.22-.38,5.75-3.08,8.66-5a3.38,3.38,0,0,0,1-.84,1.19,1.19,0,0,0,.14-1.2l0,0A26.87,26.87,0,0,1,727.15,140.22Z" transform="translate(-42.09 -24.14)" style="fill:#ffb5a7;opacity:0.5;mix-blend-mode:multiply"/><path d="M723.14,147.11a2.32,2.32,0,0,0-.92.61,1,1,0,0,0-.2.58,1.31,1.31,0,0,1,.6-.36c3.12-1.08,5.65-1.81,8.77-2.88a4.21,4.21,0,0,0,1.23-.58,1.45,1.45,0,0,0,.6-1.16,1.09,1.09,0,0,0-.08-.31,18.82,18.82,0,0,1-4.55,2.16C726.77,145.81,724.9,146.33,723.14,147.11Z" transform="translate(-42.09 -24.14)" style="fill:#ffb5a7;opacity:0.5;mix-blend-mode:multiply"/><path d="M677.2,165.25c-.68.27-1.37.5-2.06.73,1.78,3.1,3.47,6.24,5.12,9.41,7.45-3.37,20.68-14,27.55-18.46l3-2,0-.05a3.33,3.33,0,0,1-1.61-1.64c-.14-.33-.21-.68-.38-1a6.11,6.11,0,0,0-.58-.77,6.66,6.66,0,0,1-1-1.56,8.43,8.43,0,0,1-.74-2.47c-2.84,1.91-13.17,9.08-16.14,10.76C686.05,160.68,681.88,163.47,677.2,165.25Z" transform="translate(-42.09 -24.14)" style="fill:#ffb5a7"/><path d="M608.5,386.38a2.29,2.29,0,0,1,.24,1c.2,4.36-4.31,7-7.67,9.76-6.22,5.13-12.6,9.54-20.62,10.3-1.05.1-2.13,0-2.59-1a1.71,1.71,0,0,1-.3-1.14,2.55,2.55,0,0,0,2.1,0,70.1,70.1,0,0,0,8.06-3.09,59.32,59.32,0,0,0,14.85-9.63c1.43-1.24,2.81-2.56,4.17-3.95a8.93,8.93,0,0,0,1.62-2.06.72.72,0,0,0,.12-.27Z" transform="translate(-42.09 -24.14)" style="fill:#fff"/><path d="M601,372.22l1.52,5.72c-.55,1.39-.77,2.86-2.48,3.13-1.4.24-3-.65-4.32-1.1-.26-.09-.51-.18-.76-.24l-1.27-5.25h0C595.81,374,599,372.85,601,372.22Z" transform="translate(-42.09 -24.14)" style="fill:#ffb5a7"/><path d="M602.53,377.94c2-5.06,6.05,1.61,6.39,4.26a7.64,7.64,0,0,1-.44,4.16.72.72,0,0,1-.12.27,8.93,8.93,0,0,1-1.62,2.06c-1.36,1.39-2.74,2.71-4.17,3.95a59.32,59.32,0,0,1-14.85,9.63,70.1,70.1,0,0,1-8.06,3.09,2.55,2.55,0,0,1-2.1,0c-1.22-.7-.81-3,.58-4.51a20.36,20.36,0,0,1,4.33-3.05,19.89,19.89,0,0,0,7.75-9.74c.78-2.13.77-4.25,1.27-6.41s1.78-2.39,3.48-1.89c.25.06.5.15.76.24,1.28.45,2.92,1.34,4.32,1.1C601.76,380.8,602,379.33,602.53,377.94Z" transform="translate(-42.09 -24.14)" style="fill:#d15b29"/><path d="M698.88,266.93a2.35,2.35,0,0,1,1-.35c4.31-.69,7.42,3.49,10.56,6.52,5.8,5.6,10.9,11.45,12.56,19.33.21,1,.22,2.12-.67,2.69a1.66,1.66,0,0,1-1.09.42,2.6,2.6,0,0,0-.21-2.09,73.12,73.12,0,0,0-4-7.66,59.71,59.71,0,0,0-11.24-13.67c-1.39-1.28-2.86-2.5-4.39-3.7a8.73,8.73,0,0,0-2.23-1.38,1.13,1.13,0,0,0-.28-.09Z" transform="translate(-42.09 -24.14)" style="fill:#fff"/><path d="M685.66,276l5.51-2.15c1.44.39,2.93.45,3.39,2.11.39,1.37-.31,3.1-.61,4.42-.06.27-.12.53-.15.78L688.72,283h0C688,280.93,686.5,277.89,685.66,276Z" transform="translate(-42.09 -24.14)" style="fill:#ffb5a7"/><path d="M691.17,273.81c-5.25-1.42.92-6.19,3.51-6.83a7.65,7.65,0,0,1,4.19,0,1.13,1.13,0,0,1,.28.09,8.73,8.73,0,0,1,2.23,1.38c1.53,1.2,3,2.42,4.39,3.7A59.71,59.71,0,0,1,717,285.79a73.12,73.12,0,0,1,4,7.66,2.6,2.6,0,0,1,.21,2.09c-.57,1.29-2.88,1.14-4.55-.06a20.23,20.23,0,0,1-3.52-4,19.81,19.81,0,0,0-10.56-6.6c-2.2-.54-4.3-.29-6.5-.54s-2.58-1.5-2.27-3.25c0-.25.09-.51.15-.78.3-1.32,1-3,.61-4.42C694.1,274.26,692.61,274.2,691.17,273.81Z" transform="translate(-42.09 -24.14)" style="fill:#d15b29"/><path d="M623.69,280.66c4.82,9.71,3.51,9,5.57,19.65,1.16,6,2.32,12.87,8.89,15.07a11.9,11.9,0,0,0,5.4.43c5.29-.74,9.48-3.95,13.55-7.09l28.78-22.23c2-1.57,4.13-3.22,4.83-5.84a4.49,4.49,0,0,0-.55-3.68c-1.84-2.65-5.51-1.8-8.35-.78-8,2.87-16.85,5-25,7.72a2,2,0,0,1-2.7-1.73c-.47-5.35.46-10.78.66-16.18.23-6.26-.79-13.1-5.31-17.43-3.17-3-7.66-4.39-12-4.57s-8.74.68-13,1.54-8.87,1.79-12.92,3.73c-8.55,4.09-14.3,12.25-19.66,20.07-6.25,9.11-12.62,18.52-15,29.31-2.76,12.52.16,25.57,4,37.8,3.51,11.25,7.82,22.41,9.29,34.07a6.6,6.6,0,0,0,8.55,5.55,6.08,6.08,0,0,0,3.54-3.19c1.18-2.55.81-5.52.42-8.3l-5.92-42c-.57-4.07-1.13-8.31.18-12.2s4.23-6.88,7.08-9.76l19.75-19.95" transform="translate(-42.09 -24.14)" style="fill:#49434f"/><path d="M654,277.94c.08-4,.62-8,.77-11.94.23-6.26-.79-13.1-5.31-17.43a13.24,13.24,0,0,0-1.35-1.13,52,52,0,0,1,4.14,13.73C653.11,266.73,653.08,272.42,654,277.94Z" transform="translate(-42.09 -24.14)" style="fill:#49434f;opacity:0.5;mix-blend-mode:multiply"/><path d="M654.5,256a4.74,4.74,0,0,0,2.82-6.26c-1.06-2.52-3-4.88-4.73-7.1a52.29,52.29,0,0,1-9.65-21.14c-1.39-6.7-1.37-14,1.72-20.08,4-7.94,12.46-12.63,20.86-15.58,4.74-1.66,9.67-3,14-5.52,3.86-2.29,9.25-4.78,10.25-9.27.66-3-2.29-12.36-7-11a7,7,0,0,0-2.23,1.3c-4.78,3.67-9.37,6.37-15.29,7.78a74.41,74.41,0,0,1-10.8,1.59c-3.1.27-6.63,0-9.56,1.16-2.08.82-4.25,1.9-6.49,2.76-2.88,1.11-9.91,6.64-9.91,6.64-5.85-2.5-5.43-8.1-5.81-8.93-1.83-3.91-6.91-5.78-9.41-8.06-4-3.68-8.17-7.5-10.44-12.47-1.71-3.76-2.27-8-4.28-11.6a14.13,14.13,0,0,0-3.4-4,4.62,4.62,0,0,0-7.47,3.33,56.27,56.27,0,0,0,2.05,18.93c1.93,6.76,6.47,10.81,9.79,16.69,4.4,7.78,3.72,15.47,4.45,24,1.43,16.61,2.74,34-3.07,49.48l0,0a4.2,4.2,0,0,0,2.82,5.56c6.31,1.69,17.7,4.56,24.92,5.36C637,260.46,646.33,258.83,654.5,256Z" transform="translate(-42.09 -24.14)" style="fill:#d15b29"/><path d="M690,158.46c-1.34.76-2.66,1.55-4,2.33,2.36,1.94,3.81,6.48,3.86,9.11q1.78-1.2,3.57-2.44C693.48,165,692.19,160.64,690,158.46Z" transform="translate(-42.09 -24.14)" style="fill:#fdc6bf;opacity:0.5;mix-blend-mode:multiply"/><path d="M594.93,137.21a11.11,11.11,0,0,1,2.55,2.95c0-.32-.07-.64-.09-1,0-.62-.06-1.25-.06-1.87a11.05,11.05,0,0,0-2.63-3.07,3.65,3.65,0,0,0-5.33.88c-.15,1.38-.26,2.77-.28,4.18A3.66,3.66,0,0,1,594.93,137.21Z" transform="translate(-42.09 -24.14)" style="fill:#fdc6bf;opacity:0.5;mix-blend-mode:multiply"/><path d="M648.7,190c-7.39,6.08-11.57,15.59-12,25.15s2.57,19.08,7.61,27.21c1.61,2.6,3.51,5.6,2.53,8.49-1.15,3.39-5.42,4.36-9,4.63-8.06.6-20.54.17-30.22-.3,6.42,1.65,15.11,3.69,21,4.34,8.37.94,17.72-.69,25.89-3.55a4.74,4.74,0,0,0,2.82-6.26c-1.06-2.52-3-4.88-4.73-7.1a52.29,52.29,0,0,1-9.65-21.14c-1.39-6.7-1.37-14,1.72-20.08,4-7.94,12.46-12.63,20.86-15.58,4.74-1.66,9.67-3,14-5.52,3.21-1.9,7.46-3.94,9.39-7.16C676.53,180.59,660,180.73,648.7,190Z" transform="translate(-42.09 -24.14)" style="fill:#d15b29;opacity:0.5;mix-blend-mode:multiply"/><path d="M654.52,291.73c.83-3.54,3.76-6.72,6.78-8.75.54-.36,1.09-.68,1.65-1-2.07.62-4.12,1.26-6.13,1.93a2.05,2.05,0,0,1-2.43-.89A70.34,70.34,0,0,0,654.52,291.73Z" transform="translate(-42.09 -24.14)" style="fill:#49434f;opacity:0.5;mix-blend-mode:multiply"/><path d="M622.35,277.56a4,4,0,0,0-6.7-1c-7.31,8.46-16.2,15.81-20.31,26.13-4.44,11.16-2.43,23.72-.36,35.55q3,17,6,34.05l.07,0,.48,1.79a6.3,6.3,0,0,0,.69-1.13c1.18-2.55.81-5.52.42-8.3q-3-21-5.92-42c-.57-4.07-1.13-8.31.18-12.2s4.23-6.88,7.08-9.76l19.75-19.95h0Z" transform="translate(-42.09 -24.14)" style="fill:#49434f;opacity:0.5;mix-blend-mode:multiply"/><ellipse cx="595.35" cy="393.37" rx="73.69" ry="11.95" style="fill:#0d3d92;opacity:0.2;mix-blend-mode:multiply"/><path d="M624.32,280.19c-3.89-6-5.16-15-1.61-21.23" transform="translate(-42.09 -24.14)" style="fill:none;stroke:#49434f;stroke-miterlimit:10;opacity:0.5;mix-blend-mode:multiply"/><path d="M646.29,258.39a89.1,89.1,0,0,1,2.56,37.73,10.47,10.47,0,0,0-.11,3.78,3.24,3.24,0,0,0,2.44,2.6c1.82.28,3.21-1.51,4.25-3A47.86,47.86,0,0,1,685.14,280" transform="translate(-42.09 -24.14)" style="fill:none;stroke:#49434f;stroke-miterlimit:10;opacity:0.5;mix-blend-mode:multiply"/><path d="M593.68,371.39c-1-11.81-5-23.13-8.34-34.49s-6.19-23.19-4.86-35c2-17.42,12.75-32.57,24.66-45.43" transform="translate(-42.09 -24.14)" style="fill:none;stroke:#49434f;stroke-miterlimit:10;opacity:0.5;mix-blend-mode:multiply"/><path d="M625.64,140.81c-2.4.66-5,.58-7.34,1.4-1,.34-2.15.81-3,.16s-.68-1.72-.48-2.65a22.13,22.13,0,0,1,7.16-12c2.73-2.35,6.64-4,9.9-2.5a6.15,6.15,0,0,1,3.43,5.65c-.09,2.5-1.83,4.32-3.69,5.77S628.12,140.12,625.64,140.81Z" transform="translate(-42.09 -24.14)" style="fill:#49434f"/><path d="M621.42,170.4a7.17,7.17,0,0,0,2.77-.36l-.14,1.1.77-5.6a10.93,10.93,0,0,1-2.79-1.37,11.21,11.21,0,0,1-4.33-10.78l1.57-11.47c-.32.08-.65.18-1,.29a4.38,4.38,0,0,1-2.5.4c-1.42,3.23-1.35,7.5-.84,10.58.62,3.8,2,7.47,2.26,11.33.06.84.07,1.68.06,2.52A19.23,19.23,0,0,1,621.42,170.4Z" transform="translate(-42.09 -24.14)" style="fill:#28252b"/><path d="M643.19,157.75c-.12-1-.26-2-.46-3a20.18,20.18,0,0,1-3.46,7.6l-1.5,11,1.35.95c2-.8,3.91-1.73,5.76-2.46a11,11,0,0,1,1.91-.54,12.63,12.63,0,0,1-1.38-2.27C643.81,165.52,643.63,161.57,643.19,157.75Z" transform="translate(-42.09 -24.14)" style="fill:#28252b"/><path d="M631.63,126.61a10.26,10.26,0,0,1,1-1,5.48,5.48,0,0,0-.74-.43,6.39,6.39,0,0,0-1.77-.52,11.68,11.68,0,0,0-2.29,1.91c-3.23,3.56-3.86,9.43-1,13.26.08.11.18.2.27.31a14.58,14.58,0,0,0,2.56-1.89A11,11,0,0,1,631.63,126.61Z" transform="translate(-42.09 -24.14)" style="fill:#49434f;opacity:0.5;mix-blend-mode:multiply"/></g></g></svg>