<svg xmlns="http://www.w3.org/2000/svg" width="505.7" height="807.21" viewBox="0 0 505.7 807.21"><title>new-start-interviewer</title><g style="isolation:isolate"><g id="Laag_1" data-name="Laag 1"><path d="M114.28,672.59c43.91-59.43,124.47-112.86,212.23-106C492.1,579.55,603.31,801,556.33,877.5,528.14,923.41,443,917.25,283,905.67,164.38,897.08,96.9,891.25,71.24,843.31,36.34,778.09,105.4,684.62,114.28,672.59Z" transform="translate(-61.46 -139)" style="fill:#a1d8f7;opacity:0.4"/><path d="M221,892C153.92,845.43,92.27,758.17,97,661c8.93-183.36,249.92-313.42,336-264,51.63,29.64,47.59,123.88,40,301-5.63,131.36-9.87,206.09-62,236C340.09,974.68,234.58,901.43,221,892Z" transform="translate(-61.46 -139)" style="fill:#e9f6ff;opacity:0.4"/><ellipse cx="266.79" cy="727.5" rx="119.41" ry="27.5" style="fill:#6b6b6b;opacity:0.6"/><path d="M303.17,836.39s-.07.69-.07,1.84c0,3.45.6,11,5.35,16.66,6.34,7.48,6.38,16.79-.32,18.38s-22.67-.51-22.67-.51-3.61-7.12-1.14-26.13,3.89-39.86,3.89-39.86l18.2-3.22Z" transform="translate(-61.46 -139)" style="fill:#ff7446"/><path d="M306.74,844.47s6.75,10.39,8.33,14.73,1.24,15.11,0,16.23c-10.92,9.77-31.61,1-31.61,1a156.45,156.45,0,0,1-2.15-16c-.71-8.8-.31-17,2.15-17s2.88,4.61,8.48,3.31S301,843.17,306.74,844.47Z" transform="translate(-61.46 -139)" style="fill:#422f7f"/><path d="M281.74,864.82a66.36,66.36,0,0,0,15.23,4.9c5.67.92,13.3-1.94,19.06-4.82.3,4.61-.13,9.78-1,10.53-10.92,9.77-31.61,1-31.61,1S282.48,871.5,281.74,864.82Z" transform="translate(-61.46 -139)" style="fill:#fff"/><path d="M355.69,823.86c-2.36,8.42,0,17.69,6,23.26A31.62,31.62,0,0,0,369,852.2c10.6,5.26,24.33,4.08,26.24,14.88s-67.21-3-67.21-3,4.8-26.27,5.11-30.66-.43-20.56-.43-20.56l26.7-2.17Z" transform="translate(-61.46 -139)" style="fill:#ff7446"/><path d="M330.82,845.46S330,849.63,328,856.7a34.58,34.58,0,0,0-.73,13.73s64.75,3.48,67.37,1.15,1.27-10.79.61-11.54-8.88-3.27-13.09-6.22-18.61-14.11-23.47-13.66-7.11,4.53-16.35,5S333.11,843.43,330.82,845.46Z" transform="translate(-61.46 -139)" style="fill:#422f7f"/><path d="M394.68,871.58c-2.62,2.33-67.37-1.15-67.37-1.15a34.61,34.61,0,0,1-.07-9.79c33.8,7.11,68.05-.6,68.05-.6C396,860.79,397.3,869.26,394.68,871.58Z" transform="translate(-61.46 -139)" style="fill:#fff"/><path d="M327.24,860.64c23.09,5.23,48.67,4.13,68.05-.6-35.24,6-63.66,1.36-61.7,1.58Z" transform="translate(-61.46 -139)" style="fill:#9cb9bd"/><path d="M276.43,565.67l6.08,265.93,29.1-4.18S320.83,614,326.23,607.7s7.56.39,7.56.39,23.21,88.79,18.89,106.5-23.59,112.58-23.59,112.58L357,828.44s31.85-72.74,31.85-123.34-19.68-134.72-19.68-134.72Z" transform="translate(-61.46 -139)" style="fill:#422f7f"/><rect x="327.97" y="820.45" width="33.61" height="7.83" transform="translate(628.1 1509.73) rotate(180)" style="fill:#021753"/><rect x="279.93" y="821.71" width="33.93" height="9.88" transform="translate(532.33 1514.31) rotate(180)" style="fill:#021753"/><path d="M288.76,825.6a.58.58,0,0,0,.19,0,1,1,0,0,0,.66-1.2c-5.38-28.16-5.73-211.15-5.73-213a.94.94,0,0,0-.86-1h0a.94.94,0,0,0-.86,1c0,7.54.35,185,5.76,213.43A.91.91,0,0,0,288.76,825.6Z" transform="translate(-61.46 -139)" style="fill:#021753"/><path d="M333.83,825.6a.86.86,0,0,0,.8-.66c1.31-4.18,32-102.4,30.25-116-1.72-13.37-21.31-97.57-22.14-101.15a.86.86,0,0,0-1.06-.71,1,1,0,0,0-.61,1.24c.21.88,20.41,87.67,22.1,100.92,1.67,13.06-29.83,113.94-30.15,115a1.06,1.06,0,0,0,.51,1.3A.8.8,0,0,0,333.83,825.6Z" transform="translate(-61.46 -139)" style="fill:#021753"/><polygon points="302.55 240.45 343.17 294.04 295.31 311.5 302.55 240.45" style="fill:#ebce9a"/><path d="M258.27,362.14c6.17-6.18,20.54-10.71,29.91-13.14a42.83,42.83,0,0,1,16.49-1l21.08,2.86s27.38,17.6,37.65,27.87S383,453.33,383,453.33l-4.66,24.5,5.36,107.87c-2.36,0-73.06,8.64-112.34-3.14,0,0,0-57.53-1.08-92.48C265.62,463.55,250.1,370.31,258.27,362.14Z" transform="translate(-61.46 -139)" style="fill:#fae0b2"/><path d="M258.7,361.72c3.24-3,8.22-5.45,12.3-7.14h0s7.79-4.27,14.85,24.86S284,444,287.08,447.13s71.91-.41,71.91-.41-40.19,23.09-59.8,39.93c-7.87,6.75-28.73,10.3-28.77,10.08q-.09-3.44-.18-6.65C268,477.27,249.24,370.55,258.7,361.72Z" transform="translate(-61.46 -139)" style="fill:#ebc98d"/><path d="M432.23,423.09l-34.54,65.25a4.39,4.39,0,0,1-4.14,2.35l-41-2.42a4.46,4.46,0,0,1-3.9-6l21.16-59.57a4.44,4.44,0,0,1,3.89-3l54.41-3.26A4.46,4.46,0,0,1,432.23,423.09Z" transform="translate(-61.46 -139)" style="fill:#f7cc7f"/><path d="M345.37,482l21.43-59a4.46,4.46,0,0,1,3.94-2.92l2.13-.13a4.48,4.48,0,0,0-2.7,2.7l-21.43,59.57a4.47,4.47,0,0,0,3.18,5.86l-2.6-.15A4.43,4.43,0,0,1,345.37,482Z" transform="translate(-61.46 -139)" style="fill:#db9044"/><path d="M268.05,441.51l3.26,11.73s69.43-17.92,77.58-21.83c6.6-3.17,32.8-10.18,42.56-9.5a1.39,1.39,0,0,1,.25,2.73c-6.14,1.48-18.36,4.57-18.36,5.79,0,1.63,12.3,4,11.41,6-1.79,4-7.82,6.36-9,10.11s-13.63.81-17.9.81-83.48,48.08-107.44,36.67S241,422,241,422Z" transform="translate(-61.46 -139)" style="fill:#f99662"/><path d="M398.25,466.61c1.59-1.59,1.51-5.5,3.34-7.33s3.83,1.87,4.32-2.28-2.44-10.6.41-10.27,6.76,12.06,6.76,12.06c2.06,4.79-7.17,22.66-12.05,21.44s-6.77-7-6.77-9.7S396.66,468.2,398.25,466.61Z" transform="translate(-61.46 -139)" style="fill:#f99662"/><path d="M325.76,350.9h0l.1.07.05,0,.08.05.05,0,.17.1.07.05.19.13,0,0,.05,0,.05,0,.1.07.06,0,.44.28.08.06c2.6,1.7,8.17,5.38,14.34,9.72h0s2.57,10.3,1.35,16.9-3.79,8.68-7.46,7.21S325,374.49,323.41,375s-12.21,13.87-17.34,11.79c-3.45-1.4-13.81-24.06-19-37.54l1.1-.29a42.83,42.83,0,0,1,16.49-1l21.08,2.86Z" transform="translate(-61.46 -139)" style="fill:#fff"/><path d="M336.81,334.21c-1.65,8.66-2.42,18-.94,23.42,0,0-3.42,14.8-11.94,15.52s-24.69-25.49-24.69-25.49L317,319.76Z" transform="translate(-61.46 -139)" style="fill:#f99662"/><path d="M335.14,347.8a28.11,28.11,0,0,1-22.48-21.25l4.32-6.79,19.83,14.45A96.48,96.48,0,0,0,335.14,347.8Z" transform="translate(-61.46 -139)" style="fill:#f26e5a;opacity:0.4;mix-blend-mode:multiply"/><path d="M355,281.83s8.36,52.42-6.59,58.46-35.15-3.65-36.65-21.43S314,264.81,355,281.83Z" transform="translate(-61.46 -139)" style="fill:#f99662"/><path d="M339.84,271.09s28.48-8.42,30.17-.1-7.7,14.52-14.23,15.07-23.23-.31-28.31,5.7-14.15,33.79-14.15,33.79l-5.13,8.05S306.1,319,298.72,310s-3.24-24.35,3.85-34.88S333.38,271.63,339.84,271.09Z" transform="translate(-61.46 -139)" style="fill:#271798"/><path d="M321.67,306.26S319,298.92,315,300c-9.12,2.37-2.43,18.59.56,19C321.6,319.9,324.06,315.09,321.67,306.26Z" transform="translate(-61.46 -139)" style="fill:#f99662"/><path d="M284,384.64c.3,17.39-9.11,68.69-9.11,68.69s-36.51-.73-39.45-3.67,6.47-80.35,22.6-91.2C277.31,345.5,283.72,367.86,284,384.64Z" transform="translate(-61.46 -139)" style="fill:#fae0b2"/><rect x="333.01" width="170.52" height="87.52" rx="21.88" style="fill:#f7a491"/><polygon points="387.34 75.45 370.74 125.25 419.03 75.45 387.34 75.45" style="fill:#f7a491"/><path d="M444.53,186.1c0,4.4-3.83,8-8.54,8a8,8,0,1,1,8.54-8Z" transform="translate(-61.46 -139)" style="fill:#fff"/><path d="M488.19,186.1c0,4.4-3.83,8-8.55,8s-8.54-3.57-8.54-8a8.57,8.57,0,0,1,17.09,0Z" transform="translate(-61.46 -139)" style="fill:#fff"/><path d="M531.84,186.1a8.56,8.56,0,1,1-8.54-8A8.27,8.27,0,0,1,531.84,186.1Z" transform="translate(-61.46 -139)" style="fill:#fff"/></g></g></svg>