<?xml version="1.0" encoding="utf-8"?>
<!-- Generator: Adobe Illustrator 24.0.1, SVG Export Plug-In . SVG Version: 6.00 Build 0)  -->
<svg version="1.0" id="Laag_1" xmlns="http://www.w3.org/2000/svg" xmlns:xlink="http://www.w3.org/1999/xlink" x="0px" y="0px"
	 viewBox="0 0 3184.7 1223.7" style="enable-background:new 0 0 3184.7 1223.7;" xml:space="preserve">
<style type="text/css">
	.st0{fill:url(#Path_1668-2_1_);}
	.st1{fill:url(#Subtraction_3-2_1_);}
	.st2{fill:url(#Subtraction_5_1_);}
	.st3{fill:url(#Subtraction_6_1_);}
</style>
<g id="Group_279" transform="translate(846.793 -4339.262)">
	<g transform="matrix(1, 0, 0, 1, -846.79, 4339.26)">
		
			<linearGradient id="Path_1668-2_1_" gradientUnits="userSpaceOnUse" x1="1066.7473" y1="1069.0017" x2="1067.3503" y2="1067.7656" gradientTransform="matrix(3184.7314 0 0 -1169.9683 -3396616.5 1250624.75)">
			<stop  offset="0" style="stop-color:#EA00FB"/>
			<stop  offset="1" style="stop-color:#211FFF"/>
		</linearGradient>
		<path id="Path_1668-2" class="st0" d="M1634.8,135.5c-170.2,1.8-180.7-72.2-355.6-68.2s-150.8,123.4-378.3,114.4
			S593.4-87.8,364,30.9S-120.8,478.1,62.7,691.3c79.5,92.3-28.9,342.7,198.6,431.6s356.8,28.9,608.4,3.9s213.9-34.6,423.9-37.5
			s212.9,80.9,397.2,64.2s221.8-96.2,461.4-118.3s213,26.2,496.7,29.8s380.7,93,492.7-84.5s-26.9-557.7-44.8-625.4
			c-1.3-5-2-7.7-2-7.7s-35-215.3-198.9-274.3s-356.4,38.4-542.1,32.5s-200-51.8-393.9-45.5S1804.9,133.8,1634.8,135.5z"/>
	</g>
	<g transform="matrix(1, 0, 0, 1, -846.79, 4339.26)">
		
			<linearGradient id="Subtraction_3-2_1_" gradientUnits="userSpaceOnUse" x1="1065.6115" y1="1068.9686" x2="1065.007" y2="1068.172" gradientTransform="matrix(604.0063 0 0 -604.0037 -640833.3125 646341.6875)">
			<stop  offset="0" style="stop-color:#EF64FF;stop-opacity:0.302"/>
			<stop  offset="1" style="stop-color:#002CA7"/>
		</linearGradient>
		<path id="Subtraction_3-2" class="st1" d="M2619.8,1223.7c-20.4,0-40.8-2.1-60.9-6.1c-38.6-7.9-75.3-23.4-108-45.4
			c-48.6-32.8-86.6-78.9-109.4-132.9c-7.7-18.3-13.6-37.3-17.6-56.7c-8.2-40.2-8.2-81.6,0-121.7c7.9-38.6,23.4-75.3,45.4-108
			c32.8-48.6,78.9-86.6,132.9-109.4c18.3-7.7,37.3-13.6,56.7-17.6c40.2-8.2,81.6-8.2,121.7,0c38.6,7.9,75.3,23.4,108,45.4
			c48.6,32.8,86.6,78.9,109.4,132.9c7.7,18.3,13.6,37.3,17.6,56.7c8.2,40.2,8.2,81.6,0,121.7c-7.9,38.6-23.4,75.3-45.4,108
			c-32.8,48.6-78.9,86.6-132.9,109.4c-18.3,7.7-37.3,13.6-56.7,17.6C2660.6,1221.7,2640.2,1223.8,2619.8,1223.7z M2620.3,719.7
			c-111.7,0-202.5,90.8-202.5,202.5s90.8,202.5,202.5,202.5c111.7,0,202.5-90.8,202.5-202.5S2732,719.7,2620.3,719.7z"/>
	</g>
</g>
<linearGradient id="Subtraction_5_1_" gradientUnits="userSpaceOnUse" x1="1062.6458" y1="1069.405" x2="1062.6458" y2="1068.405" gradientTransform="matrix(268.001 0 0 -268.0005 -283180.3438 286814.8125)">
	<stop  offset="0" style="stop-color:#5400FF;stop-opacity:0.302"/>
	<stop  offset="1" style="stop-color:#BD00FF;stop-opacity:0.502"/>
</linearGradient>
<path id="Subtraction_5" class="st2" d="M1609.8,481.7c-9.1,0-18.1-0.9-27-2.7c-17.1-3.5-33.4-10.4-47.9-20.2
	c-21.5-14.5-38.4-35-48.5-59c-3.4-8.1-6-16.5-7.8-25.2c-3.6-17.8-3.6-36.2,0-54c3.5-17.1,10.4-33.4,20.2-47.9
	c14.5-21.5,35-38.4,59-48.5c8.1-3.4,16.5-6,25.2-7.8c17.8-3.6,36.2-3.6,54,0c17.1,3.5,33.4,10.4,47.9,20.2
	c21.5,14.5,38.4,35,48.5,59c3.4,8.1,6,16.5,7.8,25.2c3.6,17.8,3.6,36.2,0,54c-3.5,17.1-10.4,33.4-20.2,47.9
	c-14.5,21.5-35,38.4-59,48.5c-8.1,3.4-16.5,6-25.2,7.8C1627.9,480.8,1618.9,481.7,1609.8,481.7z M1609.8,246.7
	c-55.8,0-101,45.2-101,101s45.2,101,101,101s101-45.2,101-101C1710.7,292,1665.5,246.8,1609.8,246.7z"/>
<linearGradient id="Subtraction_6_1_" gradientUnits="userSpaceOnUse" x1="1071.2325" y1="1065.8083" x2="1071.2325" y2="1064.8083" gradientTransform="matrix(-229.7217 138.0307 138.0305 229.7213 100784.1641 -392165.25)">
	<stop  offset="0" style="stop-color:#5400FF;stop-opacity:0.302"/>
	<stop  offset="1" style="stop-color:#BD00FF;stop-opacity:0.502"/>
</linearGradient>
<path id="Subtraction_6" class="st3" d="M1674.8,306.9c7.8-4.7,16-8.6,24.6-11.6c16.5-5.8,34-8.3,51.5-7.4c26,1.4,51,10.2,72,25.5
	c7.1,5.2,13.7,11.1,19.6,17.5c12.3,13.4,21.8,29.2,27.8,46.3c5.8,16.5,8.3,34,7.4,51.5c-1.4,26-10.2,51-25.5,72
	c-5.2,7.1-11.1,13.7-17.5,19.6c-13.4,12.3-29.2,21.8-46.3,27.8c-16.5,5.8-34,8.3-51.5,7.4c-26-1.4-51-10.2-72-25.5
	c-7.1-5.2-13.7-11.1-19.6-17.5c-12.3-13.4-21.8-29.2-27.8-46.3c-5.8-16.5-8.3-34-7.4-51.5c1.4-26,10.2-51,25.5-72
	c5.2-7.1,11.1-13.7,17.5-19.6C1659.7,317,1667,311.6,1674.8,306.9z M1795.8,508.3c47.8-28.7,63.3-90.8,34.6-138.6
	s-90.8-63.3-138.6-34.6s-63.3,90.8-34.6,138.6C1686,521.5,1748,537,1795.8,508.3z"/>
</svg>
