<?xml version="1.0" encoding="utf-8"?>
<!-- Generator: Adobe Illustrator 24.0.1, SVG Export Plug-In . SVG Version: 6.00 Build 0)  -->
<svg version="1.1" id="Laag_1" xmlns="http://www.w3.org/2000/svg" xmlns:xlink="http://www.w3.org/1999/xlink" x="0px" y="0px"
	 width="375px" height="1041.95px" viewBox="0 0 375 1041.95" enable-background="new 0 0 375 1041.95" preserveAspectRatio="slice" xml:space="preserve">
<linearGradient id="SVGID_1_" gradientUnits="userSpaceOnUse" x1="-295.1068" y1="1012.8246" x2="-294.5038" y2="1011.5886" gradientTransform="matrix(1708.7959 0 0 -1052.8735 504017.1563 1066294.75)">
	<stop  offset="0" style="stop-color:#EA00FB"/>
	<stop  offset="1" style="stop-color:#211FFF"/>
</linearGradient>
<path fill="url(#SVGID_1_)" d="M270.49,1025.46c45.42-7.24,74.16-27.13,104.51-48.51V0c-60.58,17.51-57.22,63.46-134.37,64.9
	C149.76,66.6,144.13-3.2,50.72,0.55C29.12,1.41,13.21,8.11,0,17.79v949.94c15.02-1.33,33.42-2.25,58.39-2.86
	C170.52,962.1,172.08,1041.15,270.49,1025.46z"/>
<linearGradient id="SVGID_2_" gradientUnits="userSpaceOnUse" x1="-294.9441" y1="1012.6014" x2="-295.5486" y2="1011.8048" gradientTransform="matrix(604.0063 0 0 -604.0037 178278.0781 612247.25)">
	<stop  offset="0" style="stop-color:#EF64FF;stop-opacity:0.302"/>
	<stop  offset="1" style="stop-color:#002CA7"/>
</linearGradient>
<path fill="url(#SVGID_2_)" d="M85.87,957.55c22.09-32.66,37.53-69.36,45.44-107.99c8.18-40.16,8.18-81.56,0-121.73
	c-3.98-19.43-9.88-38.42-17.6-56.69C90.85,617.2,52.84,571.05,4.29,538.27c-1.42-0.96-2.86-1.89-4.29-2.83v135.19
	c24.17,33.35,38.44,74.32,38.44,118.56S24.17,874.4,0,907.75v134.2C33.83,1019.94,63.08,991.3,85.87,957.55z"/>
<linearGradient id="SVGID_3_" gradientUnits="userSpaceOnUse" x1="-296.427" y1="1013.0886" x2="-296.427" y2="1012.0886" gradientTransform="matrix(268.001 0 0 -268.0005 79806.5078 271581.9375)">
	<stop  offset="0" style="stop-color:#5400FF;stop-opacity:0.302"/>
	<stop  offset="1" style="stop-color:#BD00FF;stop-opacity:0.502"/>
</linearGradient>
<path fill="url(#SVGID_3_)" d="M364.55,333.17c1.7-0.64,3.38-1.3,5.05-2c1.82-0.77,3.62-1.6,5.4-2.45v-38.03
	c-6.9,4.79-14.43,8.75-22.43,11.72C354.78,312.99,358.74,323.37,364.55,333.17z"/>
<linearGradient id="SVGID_4_" gradientUnits="userSpaceOnUse" x1="-296.7425" y1="1013.0886" x2="-296.7425" y2="1012.0886" gradientTransform="matrix(268.001 0 0 -268.0005 79806.5078 271581.9375)">
	<stop  offset="0" style="stop-color:#5400FF;stop-opacity:0.302"/>
	<stop  offset="1" style="stop-color:#BD00FF;stop-opacity:0.502"/>
</linearGradient>
<path fill="url(#SVGID_4_)" d="M290.43,76.42c-8.62,1.77-17.05,4.38-25.15,7.81c-23.93,10.14-44.41,27.01-58.96,48.55
	c-9.8,14.49-16.65,30.78-20.16,47.92c-3.63,17.82-3.63,36.19,0,54.01c1.77,8.62,4.38,17.05,7.81,25.15
	c10.14,23.93,27.01,44.41,48.55,58.96c14.49,9.8,30.77,16.65,47.92,20.16c8.89,1.81,17.94,2.72,27.01,2.72
	c4.62,0,9.24-0.24,13.83-0.71c-2.37-4.8-4.47-9.75-6.27-14.82c-2.02-5.73-3.63-11.58-4.85-17.5c-0.9,0.02-1.81,0.04-2.72,0.04
	c-55.78,0-101-45.22-101-101s45.22-101,101-101c21.4,0.02,41.23,6.7,57.56,18.06v-38.1c-9.71-4.62-19.97-8.07-30.55-10.24
	C326.62,72.79,308.26,72.79,290.43,76.42z"/>
<linearGradient id="SVGID_5_" gradientUnits="userSpaceOnUse" x1="-292.4924" y1="1011.1849" x2="-292.4924" y2="1010.1849" gradientTransform="matrix(-229.7217 138.0307 138.0305 229.7213 -206345.7969 -191461.0469)">
	<stop  offset="0" style="stop-color:#5400FF;stop-opacity:0.302"/>
	<stop  offset="1" style="stop-color:#BD00FF;stop-opacity:0.502"/>
</linearGradient>
<path fill="url(#SVGID_5_)" d="M364.55,333.17c-6.54,2.45-13.26,4.4-20.1,5.8c-4.36,0.89-8.75,1.56-13.17,2.01
	c5.65,11.43,12.89,22.03,21.55,31.47c5.95,6.48,12.54,12.36,19.65,17.54c0.83,0.61,1.68,1.19,2.53,1.77V347.7
	c-3.71-4.3-7.11-8.96-10.13-13.98C364.76,333.54,364.66,333.35,364.55,333.17z"/>
<linearGradient id="SVGID_6_" gradientUnits="userSpaceOnUse" x1="-292.6757" y1="1011.1849" x2="-292.6757" y2="1010.1849" gradientTransform="matrix(-229.7217 138.0307 138.0305 229.7213 -206345.7969 -191461.0469)">
	<stop  offset="0" style="stop-color:#5400FF;stop-opacity:0.302"/>
	<stop  offset="1" style="stop-color:#BD00FF;stop-opacity:0.502"/>
</linearGradient>
<path fill="url(#SVGID_6_)" d="M343.14,202.73c-15.29,21.02-24.16,46.02-25.53,71.98c-0.61,11.41,0.26,22.81,2.55,33.95
	c11.37-0.3,22.28-2.48,32.41-6.24c-6.44-30.72,1.87-62.97,22.43-86.76v-44.01c-5.02,3.48-9.81,7.3-14.32,11.43
	C354.2,189.03,348.32,195.62,343.14,202.73z"/>
<linearGradient id="SVGID_7_" gradientUnits="userSpaceOnUse" x1="-296.5069" y1="1013.0886" x2="-296.5069" y2="1012.0886" gradientTransform="matrix(268.001 0 0 -268.0005 79806.5078 271581.9375)">
	<stop  offset="0" style="stop-color:#5400FF;stop-opacity:0.302"/>
	<stop  offset="1" style="stop-color:#BD00FF;stop-opacity:0.502"/>
</linearGradient>
<path fill="url(#SVGID_7_)" d="M364.55,333.17c-5.81-9.8-9.77-20.19-11.98-30.75c-10.14,3.76-21.04,5.94-32.41,6.24
	c1.22,5.92,2.83,11.77,4.85,17.5c1.8,5.07,3.9,10.02,6.27,14.82c4.42-0.45,8.81-1.12,13.17-2.01
	C351.29,337.57,358.01,335.63,364.55,333.17z"/>
<linearGradient id="SVGID_8_" gradientUnits="userSpaceOnUse" x1="-292.5009" y1="1011.1849" x2="-292.5009" y2="1010.1849" gradientTransform="matrix(-229.7217 138.0307 138.0305 229.7213 -206345.7969 -191461.0469)">
	<stop  offset="0" style="stop-color:#5400FF;stop-opacity:0.302"/>
	<stop  offset="1" style="stop-color:#BD00FF;stop-opacity:0.502"/>
</linearGradient>
<path fill="url(#SVGID_8_)" d="M364.55,333.17c-5.81-9.8-9.77-20.19-11.98-30.75c-10.14,3.76-21.04,5.94-32.41,6.24
	c1.22,5.92,2.83,11.77,4.85,17.5c1.8,5.07,3.9,10.02,6.27,14.82c4.42-0.45,8.81-1.12,13.17-2.01
	C351.29,337.57,358.01,335.63,364.55,333.17z"/>
</svg>
