<svg id="Laag_1" data-name="Laag 1" xmlns="http://www.w3.org/2000/svg" xmlns:xlink="http://www.w3.org/1999/xlink" width="368" height="485.99" viewBox="0 0 368 485.99"><defs><linearGradient id="Naamloos_verloop_8" x1="-279.84" y1="557.54" x2="-279.84" y2="556.54" gradientTransform="matrix(486, 0, 0, -486, 136246.71, 270962.58)" gradientUnits="userSpaceOnUse"><stop offset="0" stop-color="#ff9b06"/><stop offset="1" stop-color="#ff2b2b"/></linearGradient></defs><title>new-start-cards-background</title><path d="M367.23,438.68c-107.78,0-195.46-87.69-195.46-195.46S259.45,47.76,367.23,47.76H368V0a247.79,247.79,0,0,0-25.84,1.24C334.06,2.07,326,3.3,318,4.93s-15.67,3.61-23.29,6-15.05,5.1-22.33,8.18-14.35,6.49-21.24,10.23-13.58,7.81-20,12.17-12.74,9.06-18.71,14-11.78,10.21-17.26,15.68-10.74,11.27-15.68,17.26-9.65,12.28-14,18.7-8.46,13.2-12.17,20-7.19,14-10.24,21.24-5.82,14.79-8.17,22.33-4.38,15.46-6,23.29-2.86,16-3.69,24.12a247,247,0,0,0,0,49.69c.83,8.1,2.06,16.16,3.69,24.13s3.61,15.67,6,23.29,5.1,15.05,8.17,22.33,6.5,14.35,10.24,21.24,7.81,13.58,12.17,20,9.06,12.74,14,18.71,10.21,11.78,15.68,17.26,11.29,10.75,17.26,15.68,12.28,9.65,18.71,14,13.19,8.46,20,12.17,14,7.19,21.24,10.23,14.79,5.83,22.33,8.18,15.46,4.38,23.29,6,16,2.86,24.13,3.69A248.15,248.15,0,0,0,367,486h1V438.67Z" style="fill:url(#Naamloos_verloop_8)"/><rect y="131.99" width="5" height="5" style="fill:none"/><rect x="0.5" y="132.49" width="4" height="4" style="fill:none;stroke:#d2d2d2"/><rect x="20" y="131.99" width="5" height="5" style="fill:none"/><rect x="20.5" y="132.49" width="4" height="4" style="fill:none;stroke:#d2d2d2"/><rect x="40" y="131.99" width="5" height="5" style="fill:none"/><rect x="40.5" y="132.49" width="4" height="4" style="fill:none;stroke:#d2d2d2"/><rect x="60" y="131.99" width="5" height="5" style="fill:none"/><rect x="60.5" y="132.49" width="4" height="4" style="fill:none;stroke:#d2d2d2"/><rect x="80" y="131.99" width="5" height="5" style="fill:none"/><rect x="80.5" y="132.49" width="4" height="4" style="fill:none;stroke:#d2d2d2"/><rect x="100" y="131.99" width="5" height="5" style="fill:none"/><rect x="100.5" y="132.49" width="4" height="4" style="fill:none;stroke:#d2d2d2"/><rect x="120" y="131.99" width="5" height="5" style="fill:none"/><rect x="120.5" y="132.49" width="4" height="4" style="fill:none;stroke:#d2d2d2"/><rect x="140" y="131.99" width="5" height="5" style="fill:none"/><rect x="140.5" y="132.49" width="4" height="4" style="fill:none;stroke:#d2d2d2"/><rect x="160" y="131.99" width="5" height="5" style="fill:none"/><rect x="160.5" y="132.49" width="4" height="4" style="fill:none;stroke:#d2d2d2"/><rect x="180" y="131.99" width="5" height="5" style="fill:none"/><rect x="180.5" y="132.49" width="4" height="4" style="fill:none;stroke:#d2d2d2"/><rect x="200" y="131.99" width="5" height="5" style="fill:none"/><rect x="200.5" y="132.49" width="4" height="4" style="fill:none;stroke:#d2d2d2"/><rect y="151.99" width="5" height="5" style="fill:none"/><rect x="0.5" y="152.49" width="4" height="4" style="fill:none;stroke:#d2d2d2"/><rect x="20" y="151.99" width="5" height="5" style="fill:none"/><rect x="20.5" y="152.49" width="4" height="4" style="fill:none;stroke:#d2d2d2"/><rect x="40" y="151.99" width="5" height="5" style="fill:none"/><rect x="40.5" y="152.49" width="4" height="4" style="fill:none;stroke:#d2d2d2"/><rect x="60" y="151.99" width="5" height="5" style="fill:none"/><rect x="60.5" y="152.49" width="4" height="4" style="fill:none;stroke:#d2d2d2"/><rect x="80" y="151.99" width="5" height="5" style="fill:none"/><rect x="80.5" y="152.49" width="4" height="4" style="fill:none;stroke:#d2d2d2"/><rect x="100" y="151.99" width="5" height="5" style="fill:none"/><rect x="100.5" y="152.49" width="4" height="4" style="fill:none;stroke:#d2d2d2"/><rect x="120" y="151.99" width="5" height="5" style="fill:none"/><rect x="120.5" y="152.49" width="4" height="4" style="fill:none;stroke:#d2d2d2"/><rect x="140" y="151.99" width="5" height="5" style="fill:none"/><rect x="140.5" y="152.49" width="4" height="4" style="fill:none;stroke:#d2d2d2"/><rect x="160" y="151.99" width="5" height="5" style="fill:none"/><rect x="160.5" y="152.49" width="4" height="4" style="fill:none;stroke:#d2d2d2"/><rect x="180" y="151.99" width="5" height="5" style="fill:none"/><rect x="180.5" y="152.49" width="4" height="4" style="fill:none;stroke:#d2d2d2"/><rect x="200" y="151.99" width="5" height="5" style="fill:none"/><rect x="200.5" y="152.49" width="4" height="4" style="fill:none;stroke:#d2d2d2"/><rect y="171.99" width="5" height="5" style="fill:none"/><rect x="0.5" y="172.49" width="4" height="4" style="fill:none;stroke:#d2d2d2"/><rect x="20" y="171.99" width="5" height="5" style="fill:none"/><rect x="20.5" y="172.49" width="4" height="4" style="fill:none;stroke:#d2d2d2"/><rect x="40" y="171.99" width="5" height="5" style="fill:none"/><rect x="40.5" y="172.49" width="4" height="4" style="fill:none;stroke:#d2d2d2"/><rect x="60" y="171.99" width="5" height="5" style="fill:none"/><rect x="60.5" y="172.49" width="4" height="4" style="fill:none;stroke:#d2d2d2"/><rect x="80" y="171.99" width="5" height="5" style="fill:none"/><rect x="80.5" y="172.49" width="4" height="4" style="fill:none;stroke:#d2d2d2"/><rect x="100" y="171.99" width="5" height="5" style="fill:none"/><rect x="100.5" y="172.49" width="4" height="4" style="fill:none;stroke:#d2d2d2"/><rect x="120" y="171.99" width="5" height="5" style="fill:none"/><rect x="120.5" y="172.49" width="4" height="4" style="fill:none;stroke:#d2d2d2"/><rect x="140" y="171.99" width="5" height="5" style="fill:none"/><rect x="140.5" y="172.49" width="4" height="4" style="fill:none;stroke:#d2d2d2"/><rect x="160" y="171.99" width="5" height="5" style="fill:none"/><rect x="160.5" y="172.49" width="4" height="4" style="fill:none;stroke:#d2d2d2"/><rect x="180" y="171.99" width="5" height="5" style="fill:none"/><rect x="180.5" y="172.49" width="4" height="4" style="fill:none;stroke:#d2d2d2"/><rect x="200" y="171.99" width="5" height="5" style="fill:none"/><rect x="200.5" y="172.49" width="4" height="4" style="fill:none;stroke:#d2d2d2"/><rect y="191.99" width="5" height="5" style="fill:none"/><rect x="0.5" y="192.49" width="4" height="4" style="fill:none;stroke:#d2d2d2"/><rect x="20" y="191.99" width="5" height="5" style="fill:none"/><rect x="20.5" y="192.49" width="4" height="4" style="fill:none;stroke:#d2d2d2"/><rect x="40" y="191.99" width="5" height="5" style="fill:none"/><rect x="40.5" y="192.49" width="4" height="4" style="fill:none;stroke:#d2d2d2"/><rect x="60" y="191.99" width="5" height="5" style="fill:none"/><rect x="60.5" y="192.49" width="4" height="4" style="fill:none;stroke:#d2d2d2"/><rect x="80" y="191.99" width="5" height="5" style="fill:none"/><rect x="80.5" y="192.49" width="4" height="4" style="fill:none;stroke:#d2d2d2"/><rect x="100" y="191.99" width="5" height="5" style="fill:none"/><rect x="100.5" y="192.49" width="4" height="4" style="fill:none;stroke:#d2d2d2"/><rect x="120" y="191.99" width="5" height="5" style="fill:none"/><rect x="120.5" y="192.49" width="4" height="4" style="fill:none;stroke:#d2d2d2"/><rect x="140" y="191.99" width="5" height="5" style="fill:none"/><rect x="140.5" y="192.49" width="4" height="4" style="fill:none;stroke:#d2d2d2"/><rect x="160" y="191.99" width="5" height="5" style="fill:none"/><rect x="160.5" y="192.49" width="4" height="4" style="fill:none;stroke:#d2d2d2"/><rect x="180" y="191.99" width="5" height="5" style="fill:none"/><rect x="180.5" y="192.49" width="4" height="4" style="fill:none;stroke:#d2d2d2"/><rect x="200" y="191.99" width="5" height="5" style="fill:none"/><rect x="200.5" y="192.49" width="4" height="4" style="fill:none;stroke:#d2d2d2"/><rect y="211.99" width="5" height="5" style="fill:none"/><rect x="0.5" y="212.49" width="4" height="4" style="fill:none;stroke:#d2d2d2"/><rect x="20" y="211.99" width="5" height="5" style="fill:none"/><rect x="20.5" y="212.49" width="4" height="4" style="fill:none;stroke:#d2d2d2"/><rect x="40" y="211.99" width="5" height="5" style="fill:none"/><rect x="40.5" y="212.49" width="4" height="4" style="fill:none;stroke:#d2d2d2"/><rect x="60" y="211.99" width="5" height="5" style="fill:none"/><rect x="60.5" y="212.49" width="4" height="4" style="fill:none;stroke:#d2d2d2"/><rect x="80" y="211.99" width="5" height="5" style="fill:none"/><rect x="80.5" y="212.49" width="4" height="4" style="fill:none;stroke:#d2d2d2"/><rect x="100" y="211.99" width="5" height="5" style="fill:none"/><rect x="100.5" y="212.49" width="4" height="4" style="fill:none;stroke:#d2d2d2"/><rect x="120" y="211.99" width="5" height="5" style="fill:none"/><rect x="120.5" y="212.49" width="4" height="4" style="fill:none;stroke:#d2d2d2"/><rect x="140" y="211.99" width="5" height="5" style="fill:none"/><rect x="140.5" y="212.49" width="4" height="4" style="fill:none;stroke:#d2d2d2"/><rect x="160" y="211.99" width="5" height="5" style="fill:none"/><rect x="160.5" y="212.49" width="4" height="4" style="fill:none;stroke:#d2d2d2"/><rect x="180" y="211.99" width="5" height="5" style="fill:none"/><rect x="180.5" y="212.49" width="4" height="4" style="fill:none;stroke:#d2d2d2"/><rect x="200" y="211.99" width="5" height="5" style="fill:none"/><rect x="200.5" y="212.49" width="4" height="4" style="fill:none;stroke:#d2d2d2"/><rect y="231.99" width="5" height="5" style="fill:none"/><rect x="0.5" y="232.49" width="4" height="4" style="fill:none;stroke:#d2d2d2"/><rect x="20" y="231.99" width="5" height="5" style="fill:none"/><rect x="20.5" y="232.49" width="4" height="4" style="fill:none;stroke:#d2d2d2"/><rect x="40" y="231.99" width="5" height="5" style="fill:none"/><rect x="40.5" y="232.49" width="4" height="4" style="fill:none;stroke:#d2d2d2"/><rect x="60" y="231.99" width="5" height="5" style="fill:none"/><rect x="60.5" y="232.49" width="4" height="4" style="fill:none;stroke:#d2d2d2"/><rect x="80" y="231.99" width="5" height="5" style="fill:none"/><rect x="80.5" y="232.49" width="4" height="4" style="fill:none;stroke:#d2d2d2"/><rect x="100" y="231.99" width="5" height="5" style="fill:none"/><rect x="100.5" y="232.49" width="4" height="4" style="fill:none;stroke:#d2d2d2"/><rect x="120" y="231.99" width="5" height="5" style="fill:none"/><rect x="120.5" y="232.49" width="4" height="4" style="fill:none;stroke:#d2d2d2"/><rect x="140" y="231.99" width="5" height="5" style="fill:none"/><rect x="140.5" y="232.49" width="4" height="4" style="fill:none;stroke:#d2d2d2"/><rect x="160" y="231.99" width="5" height="5" style="fill:none"/><rect x="160.5" y="232.49" width="4" height="4" style="fill:none;stroke:#d2d2d2"/><rect x="180" y="231.99" width="5" height="5" style="fill:none"/><rect x="180.5" y="232.49" width="4" height="4" style="fill:none;stroke:#d2d2d2"/><rect x="200" y="231.99" width="5" height="5" style="fill:none"/><rect x="200.5" y="232.49" width="4" height="4" style="fill:none;stroke:#d2d2d2"/><rect y="251.99" width="5" height="5" style="fill:none"/><rect x="0.5" y="252.49" width="4" height="4" style="fill:none;stroke:#d2d2d2"/><rect x="20" y="251.99" width="5" height="5" style="fill:none"/><rect x="20.5" y="252.49" width="4" height="4" style="fill:none;stroke:#d2d2d2"/><rect x="40" y="251.99" width="5" height="5" style="fill:none"/><rect x="40.5" y="252.49" width="4" height="4" style="fill:none;stroke:#d2d2d2"/><rect x="60" y="251.99" width="5" height="5" style="fill:none"/><rect x="60.5" y="252.49" width="4" height="4" style="fill:none;stroke:#d2d2d2"/><rect x="80" y="251.99" width="5" height="5" style="fill:none"/><rect x="80.5" y="252.49" width="4" height="4" style="fill:none;stroke:#d2d2d2"/><rect x="100" y="251.99" width="5" height="5" style="fill:none"/><rect x="100.5" y="252.49" width="4" height="4" style="fill:none;stroke:#d2d2d2"/><rect x="120" y="251.99" width="5" height="5" style="fill:none"/><rect x="120.5" y="252.49" width="4" height="4" style="fill:none;stroke:#d2d2d2"/><rect x="140" y="251.99" width="5" height="5" style="fill:none"/><rect x="140.5" y="252.49" width="4" height="4" style="fill:none;stroke:#d2d2d2"/><rect x="160" y="251.99" width="5" height="5" style="fill:none"/><rect x="160.5" y="252.49" width="4" height="4" style="fill:none;stroke:#d2d2d2"/><rect x="180" y="251.99" width="5" height="5" style="fill:none"/><rect x="180.5" y="252.49" width="4" height="4" style="fill:none;stroke:#d2d2d2"/><rect x="200" y="251.99" width="5" height="5" style="fill:none"/><rect x="200.5" y="252.49" width="4" height="4" style="fill:none;stroke:#d2d2d2"/><rect y="271.99" width="5" height="5" style="fill:none"/><rect x="0.5" y="272.49" width="4" height="4" style="fill:none;stroke:#d2d2d2"/><rect x="20" y="271.99" width="5" height="5" style="fill:none"/><rect x="20.5" y="272.49" width="4" height="4" style="fill:none;stroke:#d2d2d2"/><rect x="40" y="271.99" width="5" height="5" style="fill:none"/><rect x="40.5" y="272.49" width="4" height="4" style="fill:none;stroke:#d2d2d2"/><rect x="60" y="271.99" width="5" height="5" style="fill:none"/><rect x="60.5" y="272.49" width="4" height="4" style="fill:none;stroke:#d2d2d2"/><rect x="80" y="271.99" width="5" height="5" style="fill:none"/><rect x="80.5" y="272.49" width="4" height="4" style="fill:none;stroke:#d2d2d2"/><rect x="100" y="271.99" width="5" height="5" style="fill:none"/><rect x="100.5" y="272.49" width="4" height="4" style="fill:none;stroke:#d2d2d2"/><rect x="120" y="271.99" width="5" height="5" style="fill:none"/><rect x="120.5" y="272.49" width="4" height="4" style="fill:none;stroke:#d2d2d2"/><rect x="140" y="271.99" width="5" height="5" style="fill:none"/><rect x="140.5" y="272.49" width="4" height="4" style="fill:none;stroke:#d2d2d2"/><rect x="160" y="271.99" width="5" height="5" style="fill:none"/><rect x="160.5" y="272.49" width="4" height="4" style="fill:none;stroke:#d2d2d2"/><rect x="180" y="271.99" width="5" height="5" style="fill:none"/><rect x="180.5" y="272.49" width="4" height="4" style="fill:none;stroke:#d2d2d2"/><rect x="200" y="271.99" width="5" height="5" style="fill:none"/><rect x="200.5" y="272.49" width="4" height="4" style="fill:none;stroke:#d2d2d2"/><rect y="291.99" width="5" height="5" style="fill:none"/><rect x="0.5" y="292.49" width="4" height="4" style="fill:none;stroke:#d2d2d2"/><rect x="20" y="291.99" width="5" height="5" style="fill:none"/><rect x="20.5" y="292.49" width="4" height="4" style="fill:none;stroke:#d2d2d2"/><rect x="40" y="291.99" width="5" height="5" style="fill:none"/><rect x="40.5" y="292.49" width="4" height="4" style="fill:none;stroke:#d2d2d2"/><rect x="60" y="291.99" width="5" height="5" style="fill:none"/><rect x="60.5" y="292.49" width="4" height="4" style="fill:none;stroke:#d2d2d2"/><rect x="80" y="291.99" width="5" height="5" style="fill:none"/><rect x="80.5" y="292.49" width="4" height="4" style="fill:none;stroke:#d2d2d2"/><rect x="100" y="291.99" width="5" height="5" style="fill:none"/><rect x="100.5" y="292.49" width="4" height="4" style="fill:none;stroke:#d2d2d2"/><rect x="120" y="291.99" width="5" height="5" style="fill:none"/><rect x="120.5" y="292.49" width="4" height="4" style="fill:none;stroke:#d2d2d2"/><rect x="140" y="291.99" width="5" height="5" style="fill:none"/><rect x="140.5" y="292.49" width="4" height="4" style="fill:none;stroke:#d2d2d2"/><rect x="160" y="291.99" width="5" height="5" style="fill:none"/><rect x="160.5" y="292.49" width="4" height="4" style="fill:none;stroke:#d2d2d2"/><rect x="180" y="291.99" width="5" height="5" style="fill:none"/><rect x="180.5" y="292.49" width="4" height="4" style="fill:none;stroke:#d2d2d2"/><rect x="200" y="291.99" width="5" height="5" style="fill:none"/><rect x="200.5" y="292.49" width="4" height="4" style="fill:none;stroke:#d2d2d2"/></svg>