<svg id="Laag_1" data-name="Laag 1" xmlns="http://www.w3.org/2000/svg" width="691.13" height="451.71" viewBox="0 0 691.13 451.71"><title>new-start-jumping-people</title><g id="OBJECTS"><g style="opacity:0.75"><path d="M183.26,449.16c-54.56-.47-105.38-28.57-134.12-75l-.52-.85C15.72,319.9-2.2,256,5.62,193.69s43-122.11,97.6-153.1,128-29.25,177.22,9.68c26.84,21.21,45.1,51.1,65.85,78.29S392.74,181.9,426,190c31.07,7.53,63.38-1.92,94.42-9.55s65.25-13.19,93.83,1.13c22.24,11.13,37.77,33.4,43.91,57.5,16.58,65.1-21.86,128-72.5,172.84a159.36,159.36,0,0,1-107,39.83Z" transform="translate(0 -0.01)" style="fill:#f0f7ff"/><path d="M87.61,140.34C128.37,98.58,179,67.86,231.83,43.67,284.83,19.46,340-2.33,399.46.21c54.85,2.37,107.52,25.47,151,59,49.73,38.32,89.15,91.72,104,152.72s3,129.45-37,177.79-107.09,49.74-166.94,30.81C417.9,410.21,388,411.74,359,393.68s-62.34-33.41-96.29-29.15c-31.72,4-58.57,24.27-84.89,42.42s-58.9,24.12-90.67,20.91C62.4,425.33,42.5,421.36,28.21,401c-55.82-79.53-2.4-195.61,56.19-257.28C85.46,142.56,86.54,141.45,87.61,140.34Z" transform="translate(0 -0.01)" style="fill:#f0f7ff;opacity:0.1"/></g><circle cx="186.54" cy="105.08" r="4.19" style="fill:#ff7551"/><circle cx="368.51" cy="212.38" r="4.19" style="fill:#a45ee2"/><path d="M534.56,154.21a4.19,4.19,0,1,1-4.19-4.19,4.2,4.2,0,0,1,4.19,4.19Z" transform="translate(0 -0.01)" style="fill:#a45ee2"/><path d="M108.22,77.77A4.2,4.2,0,1,1,104,73.58h0A4.2,4.2,0,0,1,108.22,77.77Z" transform="translate(0 -0.01)" style="fill:#a45ee2"/><path d="M302.15,154.86l-2.53-2.54,2.53-2.53a.54.54,0,0,0-.77-.77l-2.53,2.53L296.31,149a.54.54,0,0,0-.78.75l0,0,2.53,2.53-2.53,2.54a.53.53,0,0,0,0,.75l0,0a.54.54,0,0,0,.76,0l2.54-2.54,2.53,2.54a.54.54,0,0,0,.77-.77Z" transform="translate(0 -0.01)" style="fill:#ffd13d"/><path d="M619.84,90.86l-2.53-2.53,2.53-2.54a.53.53,0,0,0,0-.75l0,0a.54.54,0,0,0-.76,0l-2.54,2.54L614,85a.54.54,0,0,0-.76,0,.55.55,0,0,0,0,.77l2.53,2.54-2.53,2.53a.55.55,0,0,0,0,.77.54.54,0,0,0,.76,0l2.54-2.54,2.54,2.54a.54.54,0,0,0,.78-.75Z" transform="translate(0 -0.01)" style="fill:#ffd13d"/><path d="M40.26,186.51,37.72,184l2.54-2.54a.54.54,0,0,0-.75-.78l0,0L37,183.2l-2.54-2.53a.53.53,0,0,0-.75,0l0,0a.54.54,0,0,0,0,.76L36.19,184l-2.54,2.53a.54.54,0,0,0,.77.77h0L37,184.74l2.53,2.53a.55.55,0,0,0,.77,0A.54.54,0,0,0,40.26,186.51Z" transform="translate(0 -0.01)" style="fill:#ffd13d"/><path d="M489,229.61l-2.53-2.53,2.53-2.54a.53.53,0,0,0,0-.75h0a.52.52,0,0,0-.73,0l0,0-2.54,2.53-2.54-2.53a.54.54,0,0,0-.76.07.56.56,0,0,0,0,.69l2.53,2.54-2.53,2.53a.53.53,0,0,0,0,.75l0,0a.54.54,0,0,0,.76,0l2.54-2.53,2.54,2.53a.54.54,0,0,0,.76,0A.55.55,0,0,0,489,229.61Z" transform="translate(0 -0.01)" style="fill:#46cff3"/><path d="M270.38,307.72l-2.54-2.54,2.54-2.53a.54.54,0,0,0-.77-.77h0l-2.54,2.53-2.53-2.55a.54.54,0,1,0-.77.77l2.54,2.53-2.54,2.54a.54.54,0,1,0,.77.77l2.53-2.54,2.54,2.54a.54.54,0,1,0,.77-.77h0Z" transform="translate(0 -0.01)" style="fill:#3c3640"/><path d="M455.44,64.73h-3.06l2.17-2.17a.59.59,0,0,0,0-.83.6.6,0,0,0-.84,0l-2.16,2.13v-3a.61.61,0,0,0-.59-.59.58.58,0,0,0-.59.59v3l-2.17-2.17a.59.59,0,1,0-.92.74l.09.09,2.16,2.17h-3.06a.59.59,0,1,0,0,1.18h3.06L447.37,68a.6.6,0,0,0,0,.84.59.59,0,0,0,.42.17.58.58,0,0,0,.41-.17l2.17-2.17v3.06a.58.58,0,0,0,.57.59h0a.58.58,0,0,0,.59-.59v-3l2.16,2.17a.59.59,0,0,0,.84-.84l-2.17-2.16h3.06a.59.59,0,0,0,0-1.18Z" transform="translate(0 -0.01)" style="fill:#ff7551"/><path d="M628.11,203.57h-3.06l2.16-2.16a.6.6,0,0,0,0-.84.59.59,0,0,0-.83,0l-2.17,2.17v-3.06a.58.58,0,0,0-.57-.59h0a.58.58,0,0,0-.59.59h0v3.06l-2.12-2.17a.59.59,0,0,0-.84.84l2.17,2.16h-3.06a.58.58,0,0,0-.59.59h0a.58.58,0,0,0,.57.59h3.08l-2.17,2.17a.6.6,0,0,0,0,.84.61.61,0,0,0,.84,0l2.16-2.17v3.07a.61.61,0,0,0,.59.59.58.58,0,0,0,.59-.59h0v-3.07l2.17,2.17a.58.58,0,0,0,.41.17.59.59,0,0,0,.42-1l-2.16-2.17h3.06a.58.58,0,0,0,.59-.59h0a.6.6,0,0,0-.61-.59Z" transform="translate(0 -0.01)" style="fill:#ff7551"/><path d="M421.76,299.86H418.7l2.17-2.17a.59.59,0,0,0,0-.83.6.6,0,0,0-.84,0l-2.12,2.2V296a.61.61,0,0,0-.59-.59.58.58,0,0,0-.59.59v3.06l-2.21-2.2a.58.58,0,0,0-.83.09.57.57,0,0,0,0,.74l2.22,2.17h-3.07a.58.58,0,0,0-.59.59.61.61,0,0,0,.59.59h3.07l-2.17,2.16a.6.6,0,0,0,0,.84.59.59,0,0,0,.42.17.58.58,0,0,0,.41-.17l2.17-2.17v3.06a.58.58,0,0,0,.57.59h0a.58.58,0,0,0,.59-.59v-3.06l2.16,2.17a.59.59,0,0,0,.84-.84L418.75,301h3.06a.58.58,0,0,0,.59-.59.57.57,0,0,0-.57-.59Z" transform="translate(0 -0.01)" style="fill:#49434f"/><path d="M534.91,327.57h-3.07L534,325.4a.59.59,0,0,0,0-.83.6.6,0,0,0-.84,0L531,326.73v-3.06a.59.59,0,1,0-1.18,0v3.06l-2.16-2.16a.6.6,0,0,0-.84,0,.59.59,0,0,0,0,.83l2.17,2.17h-3.09a.58.58,0,0,0-.59.59h0a.61.61,0,0,0,.59.59h3l-2.17,2.16a.59.59,0,0,0,.84.84l2.16-2.17v3.06a.59.59,0,0,0,1.18,0v-3.06l2.16,2.17a.59.59,0,1,0,.84-.84l-2.17-2.16h3.16a.61.61,0,0,0,.59-.59.58.58,0,0,0-.59-.59Z" transform="translate(0 -0.01)" style="fill:#49434f"/><path d="M111.73,226.56h-3.06l2.17-2.17a.59.59,0,0,0,0-.83.6.6,0,0,0-.84,0l-2.16,2.16v-3.06a.61.61,0,0,0-.59-.59.58.58,0,0,0-.59.59v3.06l-2.17-2.16a.58.58,0,0,0-.83.09.57.57,0,0,0,0,.74l2.16,2.17h-3.06a.58.58,0,0,0-.59.59.61.61,0,0,0,.59.59h3.06l-2.16,2.12a.6.6,0,0,0,0,.84.59.59,0,0,0,.42.17.58.58,0,0,0,.41-.17l2.17-2.17v3.06a.58.58,0,0,0,.57.59h0a.58.58,0,0,0,.59-.59v-3.06L110,230.7a.59.59,0,0,0,.84-.84l-2.17-2.16h3.06a.57.57,0,1,0,0-1.14Z" transform="translate(0 -0.01)" style="fill:#49434f"/><path d="M222.16,226.56h-3.07l2.17-2.17a.58.58,0,0,0-.09-.83.57.57,0,0,0-.74,0l-2.17,2.16v-3.06a.58.58,0,0,0-.59-.59.61.61,0,0,0-.59.59v3.06l-2.17-2.16a.6.6,0,0,0-.84,0,.59.59,0,0,0,0,.83l2.17,2.17h-3.06a.58.58,0,0,0-.59.57v0a.58.58,0,0,0,.59.59h3.06l-2.16,2.12a.59.59,0,0,0,.84.84l2.16-2.17v3.06a.58.58,0,0,0,.59.59h0a.58.58,0,0,0,.59-.57v-3.08l2.17,2.17a.58.58,0,0,0,.41.17.59.59,0,0,0,.42-.17.6.6,0,0,0,0-.84l-2.17-2.16h3.07a.61.61,0,0,0,.59-.59A.59.59,0,0,0,222.16,226.56Z" transform="translate(0 -0.01)" style="fill:#46cff3"/><path d="M88.15,313.13H85.09L87.25,311a.59.59,0,1,0-.74-.92.76.76,0,0,0-.09.09l-2.17,2.17v-3.07a.58.58,0,0,0-.59-.59.61.61,0,0,0-.59.59v3.07l-2.16-2.17a.6.6,0,0,0-.84,0,.59.59,0,0,0,0,.83l2.17,2.17H79.18a.59.59,0,1,0,0,1.18h3.06l-2.17,2.16a.59.59,0,0,0,.84.84l2.16-2.17v3.07a.61.61,0,0,0,.59.59.58.58,0,0,0,.59-.59v-3.07l2.17,2.17a.58.58,0,0,0,.41.17.59.59,0,0,0,.42-.17.6.6,0,0,0,0-.84l-2.16-2.16h3.06a.58.58,0,0,0,.59-.59.59.59,0,0,0-.59-.59Z" transform="translate(0 -0.01)" style="fill:#46cff3"/><ellipse cx="436.16" cy="349.76" rx="73.69" ry="11.95" style="fill:#0d3d92;opacity:0.20000000298023224;isolation:isolate"/><path d="M364.32,77.77" transform="translate(0 -0.01)" style="fill:#f8edeb"/><path d="M352.29,93.12a6.65,6.65,0,0,0,1.61-.6,7.81,7.81,0,0,0,2-1.42A7.42,7.42,0,0,0,357.37,88c.29-1.14.45-2.31.77-3.44A12.91,12.91,0,0,1,360,80.61a2.32,2.32,0,0,0,.64-1.51A1.32,1.32,0,0,0,359.32,78a2.11,2.11,0,0,0-1.59.83,6.17,6.17,0,0,0-.89,1.63c-.29.68-.81,2-1.11,2.72a.77.77,0,0,1-.89.45,2,2,0,0,1-.73-.3,3.11,3.11,0,0,1-.77-1.15c-2.21-4.81-2.18-8.53-3.66-13.61-.19-.65-.5-1.4-1.17-1.53a1.3,1.3,0,0,0-1.33,1,3.54,3.54,0,0,0,0,1.77,72.9,72.9,0,0,0,1.91,7.57c.08.26-.34.68-.61.64a1.1,1.1,0,0,1-.63-.49c-2.2-2.94-1.66-6.48-3.57-9.63a2.91,2.91,0,0,0-.76-.88,1.18,1.18,0,0,0-1.12-.16,1.25,1.25,0,0,0-.64,1.08,3.8,3.8,0,0,0,.26,1.29c1.16,3.45,4,9.14,4,9.6s-.82.56-1.18.38a2.05,2.05,0,0,1-.77-.88c-1.39-2.41-2.53-4.17-3.92-6.58a4.29,4.29,0,0,0-1.24-1.62,1.31,1.31,0,0,0-2.11,1.44,4.15,4.15,0,0,0,.61,1.25c1.89,2.84,3.51,5,5.4,7.88.2.29.39.69.19,1a.59.59,0,0,1-.72.13,1.73,1.73,0,0,1-.59-.52c-1.55-1.89-2.83-3.13-4.38-5a2.59,2.59,0,0,0-.85-.76.87.87,0,0,0-1,.17,1.25,1.25,0,0,0,.12,1.3c1.11,2.08,2.84,3.75,4.16,5.7,2.45,3.62,2.79,6.54,5.82,9.69a6.33,6.33,0,0,0,2.31,1.62,3.29,3.29,0,0,0,2.76-.14c.29-.16.54-.38.84-.52A5.22,5.22,0,0,1,352.29,93.12Z" transform="translate(0 -0.01)" style="fill:#f8edeb"/><path d="M337.25,76.44c1.11,2.08,2.84,3.74,4.16,5.69,2.45,3.62,2.79,6.55,5.82,9.69a6.36,6.36,0,0,0,2.31,1.63,3.81,3.81,0,0,0,1.34.22l-.3.2a3.29,3.29,0,0,1-2.76.14,6.33,6.33,0,0,1-2.31-1.62c-3-3.15-3.37-6.07-5.82-9.69-1.32-2-3-3.62-4.16-5.7a1.25,1.25,0,0,1-.12-1.3.87.87,0,0,1,1-.17,2,2,0,0,1,.61.5A3,3,0,0,0,337.25,76.44Z" transform="translate(0 -0.01)" style="fill:#f8edeb;opacity:0.5;isolation:isolate"/><path d="M358.45,79.62c-.41.92-.58,1.92-1,2.85a3.24,3.24,0,0,1-2.05,2,1.38,1.38,0,0,1-1.24-.25,1.61,1.61,0,0,1-.4-1.24,1.78,1.78,0,0,0,.32.35,2,2,0,0,0,.73.3.77.77,0,0,0,.89-.45c.3-.75.82-2,1.11-2.72a6.17,6.17,0,0,1,.89-1.63,2.11,2.11,0,0,1,1.59-.83.86.86,0,0,1,.32,0A3.91,3.91,0,0,0,358.45,79.62Z" transform="translate(0 -0.01)" style="fill:#f8edeb;opacity:0.5;isolation:isolate"/><path d="M349.51,76.47a2,2,0,0,1-.4,1,.29.29,0,0,0,0-.13,72.9,72.9,0,0,1-1.91-7.57,3.54,3.54,0,0,1,0-1.77,1.49,1.49,0,0,1,.74-.86,24.34,24.34,0,0,0,.89,5.43A10.62,10.62,0,0,1,349.51,76.47Z" transform="translate(0 -0.01)" style="fill:#f8edeb;opacity:0.5;isolation:isolate"/><path d="M343.91,71.53a32.38,32.38,0,0,1,2.32,6.15,2,2,0,0,1,0,.9.86.86,0,0,1-.33.42.4.4,0,0,0,.07-.18c.06-.46-2.79-6.15-4-9.6a3.8,3.8,0,0,1-.26-1.29,1.25,1.25,0,0,1,.64-1.08h0A26.61,26.61,0,0,0,343.91,71.53Z" transform="translate(0 -0.01)" style="fill:#f8edeb;opacity:0.5;isolation:isolate"/><path d="M342.91,79.73a2.4,2.4,0,0,1,.37,1.07,1,1,0,0,1-.2.61,1.4,1.4,0,0,0-.27-.68c-1.89-2.84-3.51-5-5.4-7.88a4.45,4.45,0,0,1-.65-1.24,1.49,1.49,0,0,1,.24-1.34,1,1,0,0,1,.26-.2,19.76,19.76,0,0,0,2.38,4.64C340.74,76.37,341.91,78,342.91,79.73Z" transform="translate(0 -0.01)" style="fill:#f8edeb;opacity:0.5;isolation:isolate"/><path d="M401.33,132.86c-2.33,1-5.83-.17-8.12-.75a51.39,51.39,0,0,1-10.37-3.61,43.12,43.12,0,0,1-17.49-15.82c-2.45-4-4-8.4-5.79-12.68-1.25-2.93-2.69-5.87-3.71-8.89a7.81,7.81,0,0,1-2,1.42,6.65,6.65,0,0,1-1.61.6,5.06,5.06,0,0,0-.87.23c-.3.14-.55.36-.84.52a3.13,3.13,0,0,1-2.12.31h0s.44,1.28,1.12,3.2c2.8,7.86,4.48,15.66,8.85,22.91a62.5,62.5,0,0,0,16,17.67,53.52,53.52,0,0,0,28.37,10.41Z" transform="translate(0 -0.01)" style="fill:#f8edeb"/><path d="M456.76,54" transform="translate(0 -0.01)" style="fill:#f8edeb"/><path d="M475.34,59.86a6.48,6.48,0,0,1-1.67.41,7.79,7.79,0,0,1-2.41-.07,7.38,7.38,0,0,1-3-1.74c-.88-.78-1.67-1.65-2.57-2.41a12.88,12.88,0,0,0-3.78-2.19,2.4,2.4,0,0,1-1.37-.89,1.32,1.32,0,0,1,.48-1.63,2.16,2.16,0,0,1,1.79-.2,6,6,0,0,1,1.65.84c.63.4,1.78,1.17,2.45,1.62a.78.78,0,0,0,1-.13,2.21,2.21,0,0,0,.43-.66,3.21,3.21,0,0,0,0-1.38c-.89-5.22-3-8.28-4.66-13.31-.21-.64-.37-1.44.11-1.92a1.3,1.3,0,0,1,1.64,0,3.54,3.54,0,0,1,1,1.47A74.1,74.1,0,0,1,469.12,45c.08.26.67.37.86.18a1,1,0,0,0,.25-.75c.16-3.68-2.28-6.29-2.48-10a2.69,2.69,0,0,1,.13-1.16,1.19,1.19,0,0,1,.84-.76,1.25,1.25,0,0,1,1.14.53,3.8,3.8,0,0,1,.51,1.21c1,3.51,1.84,9.81,2.14,10.16s1,0,1.19-.35a2,2,0,0,0,.14-1.16c-.21-2.78-.26-4.87-.47-7.65a4.24,4.24,0,0,1,.17-2,1.49,1.49,0,0,1,1.6-1,1.45,1.45,0,0,1,.94,1,4.08,4.08,0,0,1,.17,1.39c.05,3.41-.06,6.14,0,9.56,0,.35.07.78.39.9a.61.61,0,0,0,.68-.3,1.84,1.84,0,0,0,.18-.76c.22-2.43.58-4.18.8-6.61a2.36,2.36,0,0,1,.27-1.11.86.86,0,0,1,1-.45c.44.14.59.68.64,1.14.25,2.34-.24,4.7-.23,7,0,4.37,1.39,7,.66,11.28a6.34,6.34,0,0,1-1,2.65,3.34,3.34,0,0,1-2.36,1.44h-1A7.92,7.92,0,0,0,475.34,59.86Z" transform="translate(0 -0.01)" style="fill:#f8edeb"/><path d="M478.37,37.6c.25,2.34-.24,4.7-.23,7,0,4.37,1.39,7,.66,11.29a6.3,6.3,0,0,1-1,2.64,3.73,3.73,0,0,1-1,.94h.36a3.34,3.34,0,0,0,2.36-1.44,6.34,6.34,0,0,0,1-2.65c.73-4.3-.64-6.91-.66-11.28,0-2.35.48-4.71.23-7,0-.46-.2-1-.64-1.14a.86.86,0,0,0-1,.45,2,2,0,0,0-.23.75A3.26,3.26,0,0,1,478.37,37.6Z" transform="translate(0 -0.01)" style="fill:#f8edeb;opacity:0.5;isolation:isolate"/><path d="M462.65,52.18c.85.53,1.56,1.26,2.4,1.81a3.27,3.27,0,0,0,2.85.53,1.38,1.38,0,0,0,.89-.9,1.62,1.62,0,0,0-.38-1.26,1.84,1.84,0,0,1-.06.47,2.21,2.21,0,0,1-.43.66.78.78,0,0,1-1,.13c-.67-.45-1.82-1.22-2.45-1.62a6,6,0,0,0-1.65-.84,2.16,2.16,0,0,0-1.79.2l-.24.22A4,4,0,0,1,462.65,52.18Z" transform="translate(0 -0.01)" style="fill:#f8edeb;opacity:0.5;isolation:isolate"/><path d="M468.26,44.54a2,2,0,0,0,.91.63s-.08-.06-.09-.1a74.1,74.1,0,0,0-2.69-7.34,3.54,3.54,0,0,0-1-1.47,1.5,1.5,0,0,0-1.1-.3,24.17,24.17,0,0,1,2.32,5A10.52,10.52,0,0,0,468.26,44.54Z" transform="translate(0 -0.01)" style="fill:#f8edeb;opacity:0.5;isolation:isolate"/><path d="M470.08,37.32a31.2,31.2,0,0,0,1.55,6.39,1.71,1.71,0,0,0,.5.74.87.87,0,0,0,.51.17.62.62,0,0,1-.17-.11c-.3-.35-1.16-6.65-2.14-10.16a3.8,3.8,0,0,0-.51-1.21,1.25,1.25,0,0,0-1.14-.53h0A27.69,27.69,0,0,1,470.08,37.32Z" transform="translate(0 -0.01)" style="fill:#f8edeb;opacity:0.5;isolation:isolate"/><path d="M475.55,43.51a2.35,2.35,0,0,0,.3,1.1,1,1,0,0,0,.51.39,1.36,1.36,0,0,1-.17-.71c0-3.42.07-6.15,0-9.56a4.08,4.08,0,0,0-.17-1.39,1.45,1.45,0,0,0-.94-1,.92.92,0,0,0-.33,0,19.23,19.23,0,0,1,.64,5.17C475.45,39.52,475.35,41.52,475.55,43.51Z" transform="translate(0 -0.01)" style="fill:#f8edeb;opacity:0.5;isolation:isolate"/><path d="M457.23,120.32c2.47-.52,4.72-3.43,6.29-5.19a51.82,51.82,0,0,0,6.53-8.83,43.23,43.23,0,0,0,5.53-22.93c-.22-4.66-1.46-9.17-2.37-13.73-.62-3.13-1.08-6.37-1.95-9.44a7.79,7.79,0,0,0,2.41.07,6.48,6.48,0,0,0,1.67-.41,6.61,6.61,0,0,1,.85-.3h1a3.19,3.19,0,0,0,1.93-.94h0s.36,1.3.88,3.28c2.12,8.07,5.12,15.46,5.6,23.91a61.82,61.82,0,0,1-3.24,23.6A53.56,53.56,0,0,1,464.8,134Z" transform="translate(0 -0.01)" style="fill:#f8edeb"/><path d="M419.91,133.93s-.42,2.93,5.57,2.8a25.11,25.11,0,0,0,10.7-2.81l-.44-19.29L419.5,115Z" transform="translate(0 -0.01)" style="fill:#f8edeb"/><g style="opacity:0.5"><path d="M419.83,131.36l-.25-11.84,14.71-.32A16.6,16.6,0,0,1,419.83,131.36Z" transform="translate(0 -0.01)" style="fill:#fdc6bf"/></g><path d="M438.41,96.86s0,.85.22,10.07-2.78,14-2.78,14-9.93,9.9-19.58,5.28c-4.23-2-6.89-6.66-7-11.66l-.37-17a17.64,17.64,0,0,1,1.73-8.08c2.39-4.93,7.08-5.26,12.47-5.38h.54C431.63,83.86,438.21,87.92,438.41,96.86Z" transform="translate(0 -0.01)" style="fill:#f8edeb"/><path d="M424,117.49a1.88,1.88,0,0,1,1.95,1.81,1.82,1.82,0,0,1-.37,1.19,6.15,6.15,0,0,1-9.67.21,1.89,1.89,0,0,1,.42-2.64,1.91,1.91,0,0,1,1-.36Z" transform="translate(0 -0.01)" style="fill:#fff"/><path d="M416.84,138.23a8,8,0,0,0,4.09,5.42c3.28,1.71,7.43.88,10.48-1.19a26.89,26.89,0,0,0,7.69-7.11l-2.94-1.43a25.11,25.11,0,0,1-10.7,2.81c-6,.13-5.57-2.8-5.57-2.8V132.6a13.83,13.83,0,0,1-4.29,1.09C415,135.09,416.53,136.76,416.84,138.23Z" transform="translate(0 -0.01)" style="fill:#f8edeb"/><path d="M490.23,251.32a2.79,2.79,0,0,1,1.18-.42c5.22-.78,8.93,4.31,12.7,8,7,6.84,13.06,14,15,23.53.25,1.25.24,2.56-.84,3.24a2,2,0,0,1-1.32.49,3.13,3.13,0,0,0-.23-2.52,87.62,87.62,0,0,0-4.73-9.32,72.51,72.51,0,0,0-13.45-16.66c-1.67-1.56-3.44-3.06-5.28-4.52a10.58,10.58,0,0,0-2.68-1.7,1.35,1.35,0,0,0-.34-.11Z" transform="translate(0 -0.01)" style="fill:#fff"/><path d="M474.14,262.1l6.69-2.54c1.75.49,3.54.57,4.08,2.59.46,1.66-.4,3.74-.78,5.33a7.63,7.63,0,0,0-.2.95l-6.16,2.19h0C477,268.13,475.14,264.43,474.14,262.1Z" transform="translate(0 -0.01)" style="fill:#f8edeb"/><path d="M485.15,251.33a9.29,9.29,0,0,1,5.07,0,1.35,1.35,0,0,1,.34.11,10.58,10.58,0,0,1,2.68,1.7c1.84,1.46,3.61,3,5.28,4.52A72.51,72.51,0,0,1,512,274.32a87.62,87.62,0,0,1,4.73,9.32,3.13,3.13,0,0,1,.23,2.52c-.7,1.56-3.49,1.35-5.5-.12-1.74-1.27-2.89-3.17-4.22-4.84a24.07,24.07,0,0,0-12.7-8.1c-2.66-.68-5.2-.4-7.86-.73s-3.11-1.84-2.72-3.95a7.63,7.63,0,0,1,.2-.95c.38-1.59,1.24-3.67.78-5.33-.54-2-2.33-2.1-4.08-2.59C474.49,257.78,482,252.08,485.15,251.33Z" transform="translate(0 -0.01)" style="fill:#46cff3"/><path d="M443.75,242.25a7.88,7.88,0,0,1,4.36,0,1,1,0,0,1,.29.1,9,9,0,0,1,2.31,1.51c1.58,1.26,3.1,2.55,4.54,3.89-5.71.72-9.83,2.92-12.39,8.45.33-1.37,1.07-3.16.68-4.59-.47-1.74-2-1.81-3.52-2.23C434.57,247.8,441,242.86,443.75,242.25Z" transform="translate(0 -0.01)" style="fill:#ffd13d"/><path d="M448.12,242.23a2.35,2.35,0,0,1,1-.35c4.5-.68,7.69,3.7,10.94,6.89,6,5.89,11.24,12,12.9,20.26.21,1.08.21,2.21-.73,2.79a1.72,1.72,0,0,1-1.14.43,2.68,2.68,0,0,0-.2-2.18,72.41,72.41,0,0,0-4.07-8,61.64,61.64,0,0,0-11.58-14.35c-1.44-1.34-3-2.63-4.54-3.89a9.12,9.12,0,0,0-2.31-1.46,1,1,0,0,0-.29-.1Z" transform="translate(0 -0.01)" style="fill:#fff"/><path d="M434.26,251.52l5.76-2.19c1.51.42,3.05.49,3.52,2.23.39,1.43-.35,3.22-.68,4.59-.07.29-.13.56-.17.82l-5.3,1.88h0C436.7,256.71,435.13,253.53,434.26,251.52Z" transform="translate(0 -0.01)" style="fill:#fdc6bf"/><path d="M442.91,256.15c2.56-5.53,6.68-7.73,12.39-8.45a61.64,61.64,0,0,1,11.58,14.35,72.41,72.41,0,0,1,4.07,8,2.68,2.68,0,0,1,.2,2.18c-.6,1.34-3,1.16-4.73-.11a21,21,0,0,1-3.64-4.17,20.66,20.66,0,0,0-10.93-7c-2.29-.58-4.48-.33-6.77-.62s-2.67-1.58-2.34-3.4A1.9,1.9,0,0,1,442.91,256.15Z" transform="translate(0 -0.01)" style="fill:#46cff3"/><path d="M397.1,224.71c-8.53,9.08-14.3,17.8-18.75,29.45a34.31,34.31,0,0,0-2.34,8.18,12.47,12.47,0,0,0,1.62,8.23,6.64,6.64,0,0,0,2.21,2.2,9.73,9.73,0,0,0,3.33,1c12.11,1.88,34.71-1.38,34.71-1.38s5.2-.73,7-1.23a183.13,183.13,0,0,1-2-19.41c-3-.15-6.23,0-8.86,0a1.21,1.21,0,0,1-1.23-1.19,1.26,1.26,0,0,1,.23-.73c1.84-2.62,5.58-5.59,7.17-7.48.82-1,1.7-1.91,2.59-2.83A92,92,0,0,1,424,227.13v-.07a122.44,122.44,0,0,1-25-1.74,8.36,8.36,0,0,1-2-.65Z" transform="translate(0 -0.01)" style="fill:#3c3640"/><path d="M457.72,224.64a1.46,1.46,0,0,1-.51,0c-7.57-.85-15.26.77-22.88,1.66-3.4.41-6.83.66-10.26.77v.07a92,92,0,0,0-1.23,12.39c-.15,3.94-.12,8.05.07,12.22a183.13,183.13,0,0,0,2,19.41A149.88,149.88,0,0,0,428.2,287a5.9,5.9,0,0,0,1,2.33,5.37,5.37,0,0,0,2.37,1.38c7.78,2.53,16.05-1.37,23.3-5.18l10.84-5.67c3.86-2,7.89-4.18,10.3-7.82s2.51-9.21-1-11.84c-3.29-2.5-8-1.37-11.9-.13l-8.62,2.71a89.5,89.5,0,0,0,3.21-38.14Z" transform="translate(0 -0.01)" style="fill:#49434f"/><path d="M457.21,224.65a1.46,1.46,0,0,0,.51,0,2.33,2.33,0,0,0,2.09-1.9c2.08-11-6-57.17-5.23-70.3,4.53-5.27,13-13.89,17.51-19.14a2.85,2.85,0,0,0,.82-1.45,2.77,2.77,0,0,0-.4-1.4,33.1,33.1,0,0,0-12.26-13.1,4.22,4.22,0,0,0-2.64-.81,4.42,4.42,0,0,0-2.21,1.32,86.33,86.33,0,0,1-11.23,8.36,21.27,21.27,0,0,0-3.76,2.69c-1.65,1.61-2.65,3.74-4,5.61a14.16,14.16,0,0,1-9.12,6c-3.71.54-7.81-1-9.65-4.3a9.3,9.3,0,0,0-1.82-2.81,5.78,5.78,0,0,0-2.46-1l-18.65-4a21.4,21.4,0,0,1-2.72-.73,2.79,2.79,0,0,0-2.95.8c-4.78,5.38-7.92,12.49-6.35,19.42a2,2,0,0,0,1.5,1.48,31.16,31.16,0,0,1,14.34,7.71c1.36,5.73.4,11.71-.42,17.54a346.12,346.12,0,0,0-3.35,47.05,3,3,0,0,0,1.63,2.67c.24.12.48.23.71.32a8.36,8.36,0,0,0,2,.65,122.44,122.44,0,0,0,25,1.74c3.43-.11,6.86-.36,10.26-.77C441.91,225.42,449.64,223.8,457.21,224.65Z" transform="translate(0 -0.01)" style="fill:#a45ee2"/><path d="M471,134.51l1.07-1.21a2.9,2.9,0,0,0,.82-1.44,2.77,2.77,0,0,0-.4-1.4,33.1,33.1,0,0,0-12.26-13.1,4.22,4.22,0,0,0-2.64-.81,4.42,4.42,0,0,0-2.21,1.32c-.19.17-.4.32-.59.49A44.66,44.66,0,0,1,471,134.51Z" transform="translate(0 -0.01)" style="fill:#cbb0e2"/><path d="M417,110.79a3.78,3.78,0,0,1-1.16-.47,2,2,0,0,1-.88-1.07,2.16,2.16,0,0,1,.11-1.44,7.51,7.51,0,0,1,.62-1.11,9.81,9.81,0,0,0,1.5-4.28,4.79,4.79,0,0,1,.24,2.46,5.77,5.77,0,0,1-.9,2.36,3.18,3.18,0,0,0-.81,1.84C415.81,109.66,416.45,110.24,417,110.79Z" transform="translate(0 -0.01)" style="fill:#d8afaf"/><path d="M436.82,86c-2.24-2.49-5.69-3.54-9-3.81s-6.7.12-10.05,0a8.44,8.44,0,0,1-4-1A3.5,3.5,0,0,1,412,77.7c0,.13-2.35,1-2.64,1.19-3.29,2.09-4.54,6.81-3.8,10.47.66,3.27,2.64,6.49,6.24,6.44a72.41,72.41,0,0,0,10.8-1c3-.49,6.07-1.18,9.07-.62,1.87.35,6.84,4.67,6.84,4.67S438,87.33,436.82,86Z" transform="translate(0 -0.01)" style="fill:#ff7551"/><path d="M427.78,94.08c3.35,3.28,5.06,8.09,5.39,12.82a1.68,1.68,0,0,0,.6,1.5,1.88,1.88,0,0,0,1.28.06,8.21,8.21,0,0,1,3.59.08c-.19-8.74-.23-9.41-.23-9.41v-.27c-.35-.3-5-4.31-6.81-4.64A14,14,0,0,0,427.78,94.08Z" transform="translate(0 -0.01)" style="fill:#ff7551;opacity:0.4000000059604645;isolation:isolate"/><path d="M415.54,247c1.74-1.75,3.68-3.43,4.71-4.66.82-1,1.7-1.91,2.59-2.83a92,92,0,0,1,1.23-12.39v-.07c-2.2.07-4.39.08-6.59,0a70.78,70.78,0,0,0-1.93,16.78C415.53,244.86,415.54,246,415.54,247Z" transform="translate(0 -0.01)" style="fill:#3c3640;opacity:0.5;isolation:isolate"/><path d="M415.61,251.77a168.5,168.5,0,0,0,1.87,20.68h.4s5.2-.73,7-1.23a183.13,183.13,0,0,1-2-19.41C420.51,251.63,417.91,251.74,415.61,251.77Z" transform="translate(0 -0.01)" style="fill:#3c3640;opacity:0.5;isolation:isolate"/><path d="M477.64,264.86a7,7,0,0,0-2.61-4.68c-3.29-2.5-8-1.37-11.9-.13l-8.62,2.71c.13-.45.25-.9.38-1.35a91.31,91.31,0,0,0-3.93,8.38A140.58,140.58,0,0,1,477.64,264.86Z" transform="translate(0 -0.01)" style="fill:#49434f;opacity:0.5;isolation:isolate"/><path d="M470.43,127c-5.81,6.28-12.41,11.88-17.54,18.73a26.89,26.89,0,0,0-4.23,7.58c-2,6-.63,12.58.45,18.84a199.14,199.14,0,0,1,2.07,52.29,42.93,42.93,0,0,1,6,.21,1.46,1.46,0,0,0,.51,0,2.33,2.33,0,0,0,2.09-1.9c2.08-11-6-57.17-5.23-70.3,4.53-5.27,13-13.89,17.51-19.15a2,2,0,0,0,.45-2.84A33.73,33.73,0,0,0,470.43,127Z" transform="translate(0 -0.01)" style="fill:#a45ee2;opacity:0.5;isolation:isolate"/><path d="M392,127.7a2.79,2.79,0,0,0-2.95.8c-4.78,5.38-7.92,12.49-6.35,19.42a2,2,0,0,0,1.5,1.48c.46.12.92.26,1.37.39a34.09,34.09,0,0,1,8.59-21.49A20.34,20.34,0,0,1,392,127.7Z" transform="translate(0 -0.01)" style="fill:#cbb0e2"/><path d="M415.78,137.14a8.68,8.68,0,0,0,3.29,3.68,12.74,12.74,0,0,0,19.75-10c-.84,1.2-1.56,2.5-2.41,3.69a14.16,14.16,0,0,1-9.12,6c-3.71.54-7.81-1-9.65-4.3a9.3,9.3,0,0,0-1.82-2.81l-.25-.16A5.58,5.58,0,0,0,415.78,137.14Z" transform="translate(0 -0.01)" style="fill:#cbb0e2"/><path d="M449.21,235.11a20,20,0,0,1-4.3-10.18c-.76.08-1.52.18-2.29.28a19.72,19.72,0,0,0,15.64,17.27c0-.37.05-.73.07-1.1A20,20,0,0,1,449.21,235.11Z" transform="translate(0 -0.01)" style="fill:#49434f;opacity:0.5;isolation:isolate"/><path d="M414.58,174.52a6.67,6.67,0,0,1-2.27-6.35c.82-3.11,4.62-5.36,4-8.53-.35-1.95-2.24-3.15-3.79-4.39s-3-3.27-2.13-5c1-2,4-1.78,5.95-.62s3.63,3,5.87,3.19c2.69.27,5-1.79,7.13-3.4s5.37-2.81,7.4-1c1.55,1.37,1.49,3.91.52,5.74s-2.62,3.19-4.07,4.68-2.78,3.3-2.83,5.37c-.07,3.44,3.4,6.27,3.1,9.69-.23,2.69-2.84,4.68-5.5,5.12C423.56,179.69,417.84,177.56,414.58,174.52Z" transform="translate(0 -0.01)" style="fill:#fff"/><path d="M351,94.94c.28-.16.54-.38.84-.52a5.06,5.06,0,0,1,.87-.23,6.65,6.65,0,0,0,1.61-.6,7.81,7.81,0,0,0,2-1.42.36.36,0,0,0,.07-.1,9.5,9.5,0,0,1-.45-1,7.81,7.81,0,0,1-2,1.42,6.65,6.65,0,0,1-1.61.6,5.06,5.06,0,0,0-.87.23c-.3.14-.55.36-.84.52a2,2,0,0,1-.59.24h-.07a3.27,3.27,0,0,1-1.46,0h0l.35,1h0A3.12,3.12,0,0,0,351,94.94Z" transform="translate(0 -0.01)" style="fill:#fdc6bf;opacity:0.5;isolation:isolate"/><ellipse cx="76.43" cy="393.13" rx="73.69" ry="11.95" style="fill:#0d3d92;opacity:0.20000000298023224;isolation:isolate"/><path d="M72.67,346.35a1.75,1.75,0,0,1,.18.78c.09,3.41-3.47,5.39-6.14,7.51-4.93,3.91-10,7.26-16.25,7.74-.83.06-1.67,0-2-.79a1.28,1.28,0,0,1-.22-.89,2,2,0,0,0,1.64.05,54.49,54.49,0,0,0,6.34-2.3A46.17,46.17,0,0,0,68,351.15c1.13-1,2.23-2,3.32-3a6.86,6.86,0,0,0,1.3-1.59.72.72,0,0,0,.09-.2Z" transform="translate(0 -0.01)" style="fill:#fff"/><path d="M67,335.18l1.1,4.49c-.45,1.08-.65,2.22-2,2.41-1.1.17-2.37-.55-3.36-.92a5.84,5.84,0,0,0-.59-.2l-1.48-6.16v-1.91C62.37,332.59,65.46,335.64,67,335.18Z" transform="translate(0 -0.01)" style="fill:#ddbea9"/><path d="M73.07,343.09a5.93,5.93,0,0,1-.41,3.25.72.72,0,0,1-.09.2,6.86,6.86,0,0,1-1.3,1.59c-1.09,1.06-2.19,2.07-3.32,3a46.17,46.17,0,0,1-11.74,7.3,54.49,54.49,0,0,1-6.34,2.3,2,2,0,0,1-1.64-.05c-.94-.57-.59-2.35.52-3.52a15.48,15.48,0,0,1,3.43-2.3,15.52,15.52,0,0,0,6.19-7.49,37.13,37.13,0,0,0,1.09-5c.43-1.72,1.42-1.84,2.75-1.42a5.84,5.84,0,0,1,.59.2c1,.37,2.26,1.09,3.36.92,1.33-.19,1.53-1.33,2-2.41C69.78,335.75,72.84,341,73.07,343.09Z" transform="translate(0 -0.01)" style="fill:#a45ee2"/><path d="M111.14,290.75a2.05,2.05,0,0,1,.73.35c2.73,2,2.07,6.06,2.08,9.47,0,6.3-.49,12.34-4,17.56-.47.68-1.07,1.27-1.87,1.08a1.26,1.26,0,0,1-.83-.38,2,2,0,0,0,1-1.25,55.87,55.87,0,0,0,2.14-6.4,46.83,46.83,0,0,0,1.54-13.74,41.78,41.78,0,0,0-.31-4.47,7.24,7.24,0,0,0-.44-2,1.24,1.24,0,0,0-.1-.2Z" transform="translate(0 -0.01)" style="fill:#fff"/><path d="M98.91,288.25l4.2,1.92c.57,1,1.35,1.89.67,3.05-.56,1-1.91,1.51-2.81,2.06-.19.12-.37.23-.52.34L94.7,293l-1.51-1.16C94,290.3,98.27,289.77,98.91,288.25Z" transform="translate(0 -0.01)" style="fill:#ddbea9"/><path d="M108.83,288.43a5.92,5.92,0,0,1,2.3,2.33,1.24,1.24,0,0,1,.1.2,7.24,7.24,0,0,1,.44,2c.16,1.5.27,3,.31,4.47a46.83,46.83,0,0,1-1.54,13.74,55.87,55.87,0,0,1-2.14,6.4,2,2,0,0,1-1,1.25c-1,.38-2.21-1-2.44-2.58a16,16,0,0,1,.3-4.14,15.46,15.46,0,0,0-2-9.5,38.09,38.09,0,0,0-3.24-3.94c-1.08-1.41-.56-2.27.59-3.05.15-.11.33-.22.52-.34.9-.55,2.25-1.09,2.81-2.06.68-1.16-.1-2-.67-3C101,286.46,107.07,287.32,108.83,288.43Z" transform="translate(0 -0.01)" style="fill:#a45ee2"/><path d="M128.14,122.75c6.13-8.6,7.77-19.51,9.23-30,.44-3.08.13-7.29-2.92-7.89-2.23-.44-4.09,1.54-5.85,3-7.75,6.37-19.37,3.72-28.5-.45s-18.6-9.68-28.5-8A20.82,20.82,0,0,0,59.6,114c5.38,5.9,13.55,8.19,21.28,10.21,5.24,1.38,11.31,2.17,16.23,4.46,2.79,1.31,4.81,3.77,7.81,4.66C112.28,135.44,125,129.86,128.14,122.75Z" transform="translate(0 -0.01)" style="fill:#a45ee2"/><path d="M70.83,138.15a17.79,17.79,0,0,0,9.78.56c3.12-.83,5.94-3.29,5.69-6.51,0,0-4.26-2.3-4.18-5.58l.12-5.26-12.33-.29-.12,5.27c-.37,4-5.88,5-5.88,5C64,134.53,68.09,137.25,70.83,138.15Z" transform="translate(0 -0.01)" style="fill:#ddbea9"/><path d="M80,121.86a18.55,18.55,0,0,1-4.08.06h0a17.9,17.9,0,0,1-4.07-.25,12.87,12.87,0,0,1-1.94-.51l-.06,2.9a11.79,11.79,0,0,0,1.94.51,17.82,17.82,0,0,0,4.06.26h0a17.88,17.88,0,0,0,4.07-.07,12.4,12.4,0,0,0,2.25-.5l.06-2.9A13.07,13.07,0,0,1,80,121.86Z" transform="translate(0 -0.01)" style="fill:#ddbea9;opacity:0.5;isolation:isolate"/><path d="M91.91,98.36a2.4,2.4,0,0,0-2.22-.56,2.67,2.67,0,0,0-.4.13c-.77-4-2.37-9.29-5.52-11.15H83.7a8,8,0,0,0-.92-.48h0c-.33-.14-.67-.28-1-.4h-.15a9.51,9.51,0,0,0-1-.27l-.23-.06c-.38-.09-.77-.16-1.17-.22h-.17c-.36,0-.72-.09-1.1-.12H74.54a7.88,7.88,0,0,0-1.1.12h-.17c-.41.06-.8.14-1.17.23h-.23c-.33.08-.64.18-1,.28h-.15c-.34.12-.67.26-1,.41h0c-.32.15-.62.31-.92.48h-.07c-3.14,1.88-4.73,7.16-5.48,11.18a3,3,0,0,0-.39-.13,2.4,2.4,0,0,0-2.22.56,3.58,3.58,0,0,0-.63,2.8,34.12,34.12,0,0,0,.53,4.15,7,7,0,0,0,1.27,3.22,3.36,3.36,0,0,0,1,.8c.8,6.83,4.16,10.42,8.65,12.81h.06c.35.18.7.33,1,.48l.15,0a7.57,7.57,0,0,0,1,.34h.17a10,10,0,0,0,1.09.2h.14a11.28,11.28,0,0,0,1.16.07h0a9.2,9.2,0,0,0,1.17-.08h.13a10,10,0,0,0,1.09-.21l.17,0c.34-.1.67-.21,1-.34l.15-.06a9.18,9.18,0,0,0,1-.48h.06c4.49-2.42,7.84-6,8.61-12.85a3.36,3.36,0,0,0,1-.8,7,7,0,0,0,1.26-3.23,36.19,36.19,0,0,0,.52-4.15A3.59,3.59,0,0,0,91.91,98.36Z" transform="translate(0 -0.01)" style="fill:#ddbea9"/><path d="M80.29,114.94a.65.65,0,0,1,.63.67.59.59,0,0,1,0,.23,4.93,4.93,0,0,1-9.34-.21.65.65,0,0,1,.39-.83.59.59,0,0,1,.23,0Z" transform="translate(0 -0.01)" style="fill:#fff"/><path d="M76.62,109.6a4.86,4.86,0,0,1-1.3-.62,2.25,2.25,0,0,1-.94-1.26,2.55,2.55,0,0,1,.19-1.63,8.76,8.76,0,0,1,.76-1.24,10.72,10.72,0,0,0,1.86-5,5.78,5.78,0,0,1,.12,2.86,7,7,0,0,1-1.16,2.68,3.56,3.56,0,0,0-1,2.15C75.2,108.29,75.91,109,76.62,109.6Z" transform="translate(0 -0.01)" style="fill:#9e887a"/><path d="M121.39,76.36" transform="translate(0 -0.01)" style="fill:#ddbea9"/><path d="M137.15,89.48a6.74,6.74,0,0,1-1.79-.27,6.22,6.22,0,0,1-4.57-3.9c-.55-1.1-1-2.27-1.55-3.36a13.56,13.56,0,0,0-2.78-3.6,2.45,2.45,0,0,1-1-1.42,1.4,1.4,0,0,1,1.12-1.39,2.27,2.27,0,0,1,1.82.52,6.37,6.37,0,0,1,1.27,1.47c.46.64,1.28,1.84,1.75,2.55a.81.81,0,0,0,1,.27,2.47,2.47,0,0,0,.68-.48,3.12,3.12,0,0,0,.53-1.34c1.21-5.44.36-9.26.76-14.81.05-.71.21-1.55.87-1.82a1.34,1.34,0,0,1,1.57.68,3.59,3.59,0,0,1,.36,1.82,77.59,77.59,0,0,1-.3,8.21.7.7,0,0,0,.77.52,1.17,1.17,0,0,0,.54-.64c1.61-3.51.28-7,1.54-10.68a2.7,2.7,0,0,1,.59-1.09,1.27,1.27,0,0,1,1.12-.4,1.31,1.31,0,0,1,.9,1,3.56,3.56,0,0,1,0,1.38c-.43,3.8-2.1,10.28-1.94,10.74s1,.4,1.29.14a2.15,2.15,0,0,0,.6-1.08c.9-2.79,1.68-4.85,2.58-7.64a4.55,4.55,0,0,1,1-1.89,1.57,1.57,0,0,1,2-.3,1.52,1.52,0,0,1,.53,1.31A4.41,4.41,0,0,1,148,65.4c-1.31,3.34-2.5,6-3.81,9.3-.14.34-.25.79,0,1a.62.62,0,0,0,.77,0,1.82,1.82,0,0,0,.49-.67c1.17-2.28,2.22-3.84,3.4-6.12a2.59,2.59,0,0,1,.7-1,.93.93,0,0,1,1.12-.06,1.31,1.31,0,0,1,.16,1.37c-.68,2.38-2.09,4.48-3,6.77-1.72,4.26-1.42,7.35-3.84,11.25a6.63,6.63,0,0,1-2,2.18,3.5,3.5,0,0,1-2.87.46c-.33-.1-.64-.27-1-.35A7.4,7.4,0,0,0,137.15,89.48Z" transform="translate(0 -0.01)" style="fill:#ddbea9"/><path d="M148.91,69c-.68,2.38-2.09,4.48-3,6.77-1.72,4.26-1.42,7.35-3.84,11.25a6.63,6.63,0,0,1-2,2.18,4,4,0,0,1-1.33.53,2.09,2.09,0,0,0,.35.13,3.5,3.5,0,0,0,2.87-.46,6.63,6.63,0,0,0,2-2.18c2.42-3.9,2.12-7,3.84-11.25.93-2.29,2.34-4.39,3-6.77a1.31,1.31,0,0,0-.16-1.37.93.93,0,0,0-1.12.06,2,2,0,0,0-.52.65A3.4,3.4,0,0,1,148.91,69Z" transform="translate(0 -0.01)" style="fill:#ddbea9;opacity:0.5;isolation:isolate"/><path d="M127.83,77c.63.86,1,1.85,1.63,2.71A3.38,3.38,0,0,0,132,81.32a1.43,1.43,0,0,0,1.22-.53,1.74,1.74,0,0,0,.14-1.36,2.22,2.22,0,0,1-.25.42,2.47,2.47,0,0,1-.68.48.81.81,0,0,1-1-.27c-.47-.71-1.29-1.91-1.75-2.55A6.37,6.37,0,0,0,128.43,76a2.27,2.27,0,0,0-1.82-.52,1.75,1.75,0,0,0-.32.12A3.93,3.93,0,0,1,127.83,77Z" transform="translate(0 -0.01)" style="fill:#ddbea9;opacity:0.5;isolation:isolate"/><path d="M136.33,71.75a2,2,0,0,0,.64,1,.29.29,0,0,1-.05-.13,77.59,77.59,0,0,0,.3-8.21,3.68,3.68,0,0,0-.31-1.85,1.54,1.54,0,0,0-1-.7,26.53,26.53,0,0,1,.28,5.77A11.19,11.19,0,0,0,136.33,71.75Z" transform="translate(0 -0.01)" style="fill:#ddbea9;opacity:0.5;isolation:isolate"/><path d="M141,65.44c-.41,2.28-1.1,4.53-1,6.84a2.08,2.08,0,0,0,.19.92.87.87,0,0,0,.44.36.3.3,0,0,1-.12-.17c-.16-.46,1.51-6.94,1.94-10.74a3.56,3.56,0,0,0,0-1.38,1.31,1.31,0,0,0-.9-1h0A28.89,28.89,0,0,1,141,65.44Z" transform="translate(0 -0.01)" style="fill:#ddbea9;opacity:0.5;isolation:isolate"/><path d="M143.84,73.64a2.42,2.42,0,0,0-.14,1.19,1,1,0,0,0,.34.58,1.42,1.42,0,0,1,.12-.76c1.31-3.34,2.5-6,3.81-9.3a4.41,4.41,0,0,0,.39-1.42,1.52,1.52,0,0,0-.53-1.31,1.37,1.37,0,0,0-.32-.16,20.27,20.27,0,0,1-1.42,5.3C145.32,69.71,144.44,71.63,143.84,73.64Z" transform="translate(0 -0.01)" style="fill:#ddbea9;opacity:0.5;isolation:isolate"/><path d="M95.5,141.16c2.61.47,6-1.47,8.19-2.57a53.65,53.65,0,0,0,9.86-6A45.32,45.32,0,0,0,128,112.46c1.64-4.62,2.22-9.51,3.15-14.31.64-3.29,1.47-6.62,1.85-10a7.84,7.84,0,0,0,2.32,1,6.74,6.74,0,0,0,1.79.27,7.37,7.37,0,0,1,.94,0c.34.08.65.25,1,.35a3.24,3.24,0,0,0,2.25-.15h0s-.17,1.41-.45,3.53c-1.14,8.7-1.15,17.09-4,25.51a65.09,65.09,0,0,1-12.53,21.69,56.28,56.28,0,0,1-26.86,17Z" transform="translate(0 -0.01)" style="fill:#ddbea9"/><path d="M30.2,72.07" transform="translate(0 -0.01)" style="fill:#ddbea9"/><path d="M15.91,86.77a6.27,6.27,0,0,0,1.75-.45A6.35,6.35,0,0,0,21.8,82c.43-1.16.73-2.37,1.19-3.51a13.47,13.47,0,0,1,2.38-3.88,2.47,2.47,0,0,0,.84-1.5,1.39,1.39,0,0,0-1.3-1.27,2.29,2.29,0,0,0-1.76.7A6.55,6.55,0,0,0,22,74.09c-.39.68-1.07,2-1.47,2.72a.8.8,0,0,1-1,.37,2,2,0,0,1-.73-.4,3.15,3.15,0,0,1-.67-1.28c-1.71-5.28-1.26-9.17-2.26-14.64-.12-.7-.37-1.52-1-1.72a1.34,1.34,0,0,0-1.5.84,3.88,3.88,0,0,0-.2,1.88A79.51,79.51,0,0,0,14.36,70c.06.28-.43.68-.7.61a1.19,1.19,0,0,1-.61-.58c-2-3.33-1-7-2.65-10.47a2.59,2.59,0,0,0-.7-1,1.23,1.23,0,0,0-1.16-.29,1.32,1.32,0,0,0-.79,1.06,3.69,3.69,0,0,0,.16,1.32c.83,3.74,3.17,10,3.06,10.48s-.92.5-1.27.27a2.22,2.22,0,0,1-.71-1c-1.19-2.67-2.17-4.64-3.36-7.32a4.51,4.51,0,0,0-1.16-1.78,1.56,1.56,0,0,0-2-.1,1.52,1.52,0,0,0-.4,1.36,4.84,4.84,0,0,0,.54,1.38c1.65,3.18,3.11,5.66,4.77,8.84.17.33.33.76.08,1a.62.62,0,0,1-.77,0,1.78,1.78,0,0,1-.55-.61c-1.41-2.15-2.62-3.59-4-5.73a2.87,2.87,0,0,0-.8-.9.9.9,0,0,0-1.12.07c-.34.35-.2.92,0,1.37.92,2.3,2.55,4.23,3.71,6.42,2.16,4.06,2.18,7.15,5,10.78a6.62,6.62,0,0,0,2.24,2,3.5,3.5,0,0,0,2.9.16c.32-.14.61-.34.93-.45A5.52,5.52,0,0,1,15.91,86.77Z" transform="translate(0 -0.01)" style="fill:#ddbea9"/><path d="M2.05,67.65C3,70,4.6,71.89,5.76,74.07c2.16,4.06,2.18,7.16,5,10.79a6.52,6.52,0,0,0,2.24,2,4.12,4.12,0,0,0,1.38.39l-.34.17a3.5,3.5,0,0,1-2.9-.16,6.62,6.62,0,0,1-2.24-2c-2.82-3.63-2.84-6.72-5-10.78C2.74,72.29,1.11,70.36.19,68.06a1.34,1.34,0,0,1,0-1.37.9.9,0,0,1,1.12-.07,2,2,0,0,1,.58.59A2.32,2.32,0,0,0,2.05,67.65Z" transform="translate(0 -0.01)" style="fill:#ddbea9;opacity:0.5;isolation:isolate"/><path d="M23.91,73.35c-.53.91-.82,2-1.33,2.87a3.47,3.47,0,0,1-2.37,1.91,1.45,1.45,0,0,1-1.27-.4,1.64,1.64,0,0,1-.28-1.34,2.19,2.19,0,0,0,.29.39,2,2,0,0,0,.73.4.8.8,0,0,0,1-.37l1.47-2.72a6.55,6.55,0,0,1,1.11-1.6,2.29,2.29,0,0,1,1.76-.7,2,2,0,0,1,.33.08A4.09,4.09,0,0,0,23.91,73.35Z" transform="translate(0 -0.01)" style="fill:#ddbea9;opacity:0.5;isolation:isolate"/><path d="M14.91,69.05a2,2,0,0,1-.53,1,.33.33,0,0,0,0-.14,78,78,0,0,1-1.17-8A3.87,3.87,0,0,1,13.37,60a1.61,1.61,0,0,1,.87-.81A26.55,26.55,0,0,0,14.56,65,11,11,0,0,1,14.91,69.05Z" transform="translate(0 -0.01)" style="fill:#ddbea9;opacity:0.5;isolation:isolate"/><path d="M9.59,63.27c.65,2.22,1.57,4.39,1.74,6.69a2,2,0,0,1-.09.94.93.93,0,0,1-.4.41.35.35,0,0,0,.1-.19c.11-.47-2.23-6.74-3.06-10.48a3.72,3.72,0,0,1-.13-1.37,1.32,1.32,0,0,1,.79-1.06H8.6A28.12,28.12,0,0,0,9.59,63.27Z" transform="translate(0 -0.01)" style="fill:#ddbea9;opacity:0.5;isolation:isolate"/><path d="M7.6,71.72a2.53,2.53,0,0,1,.31,1.14,1,1,0,0,1-.27.61,1.49,1.49,0,0,0-.2-.74c-1.66-3.18-3.12-5.66-4.77-8.84a4.84,4.84,0,0,1-.54-1.38,1.52,1.52,0,0,1,.4-1.36A1.32,1.32,0,0,1,2.82,61a20.87,20.87,0,0,0,2,5.12C5.71,68,6.79,69.78,7.6,71.72Z" transform="translate(0 -0.01)" style="fill:#ddbea9;opacity:0.5;isolation:isolate"/><path d="M62.74,133.8c-2.54.75-6.08-.83-8.41-1.69a53.67,53.67,0,0,1-10.42-4.93,45.34,45.34,0,0,1-16.52-18.5c-2.12-4.43-3.21-9.23-4.64-13.91-1-3.2-2.15-6.43-2.88-9.71a7.76,7.76,0,0,1-2.2,1.26,6.27,6.27,0,0,1-1.75.45,5,5,0,0,0-.94.15c-.32.11-.61.31-.93.45a3.35,3.35,0,0,1-2.25.09h-.05s.31,1.39.81,3.47c2,8.54,2.94,16.88,6.7,25A65.39,65.39,0,0,0,34,136.19a56.45,56.45,0,0,0,28.5,14.06Z" transform="translate(0 -0.01)" style="fill:#ddbea9"/><path d="M63.46,219.23q-5.68,21-10.35,42.21c-1,4.4-1.9,9-.63,13.34,1.22,4.14,4.37,7.5,8,9.83,2.43,1.57,6.44,3,10.05,4.23a46.81,46.81,0,0,0,7.67,1.75,33.07,33.07,0,0,1,6.45,2c3.54,1.34,7.28,2.67,11.06,1.57a6.79,6.79,0,0,0,4.67-4.16c1.14-3.36-1.15-6.27-3.28-8.73-4.6-5.3-9.41-10.76-15.79-13.71-1.15-.53-2.47-1.11-2.86-2.31a4.2,4.2,0,0,1,.63-3.12c5.57-11.21,12.61-21.81,16.26-33.78s3.29-26.15-4.86-35.65a27,27,0,0,0-26.14-8.52,18.74,18.74,0,0,0-9.69,5.35c-2.39,2.64-3.72,6.07-4.95,9.42-8.14,22.17-14.59,45.66-12.26,69.17,2.12,21.43,13.27,48.11,22.85,68.11a3.58,3.58,0,0,0,6.48,0v-.07c1-2.29.48-4.9,0-7.33-2.2-10.38-4.7-20.72-6.12-31.23-.57-4.23-.91-9.3-1.11-13.56" transform="translate(0 -0.01)" style="fill:#46cff3"/><path d="M96.6,188.93c-.26-2.74-1.51-5.27-2.53-7.82s-1.81-5.37-1.14-8c.75-3,3.15-5.19,4.4-8,2.56-5.73-.2-12.61,1.7-18.59.79-2.51,2.4-5.12,1.45-7.58-.68-1.74-2.45-2.77-4.1-3.65l-6-2A19.43,19.43,0,0,1,86,131.22,9.05,9.05,0,0,0,83.76,130c-1.59.7-1.88,2.69-2.6,4.24a6.91,6.91,0,0,1-13-1.56,4.67,4.67,0,0,0-.83-2.5c-.17-.17-.69-.07-1.3.13a31.33,31.33,0,0,1-5.34,1.14,4.28,4.28,0,0,0-2.38,1.13,28.79,28.79,0,0,0-4.6,6.41c-2.8,4.79-5.62,9.85-5.93,15.39-.32,5.86,2.21,11.44,4.12,17s3.17,11.89.49,17.11c-.92,1.8-2.34,3.59-.92,5.82a5.35,5.35,0,0,0,3.24,2.25,80.63,80.63,0,0,0,26.72,2C87.7,198,97.46,197.77,96.6,188.93Z" transform="translate(0 -0.01)" style="fill:#ffd13d"/><path d="M52.48,274.78c-1.27-4.32-.34-8.94.63-13.34Q57.6,241.06,63,220.88c-3.18,7.4-7,14.51-10.1,22C49.79,250.55,47.53,258.77,48,267c.49,7.87,3.45,15.33,5.93,22.81,5.16,15.59,8.38,31.74,11.5,47.86a3.49,3.49,0,0,0,1.3-1.52v-.07c1-2.29.48-4.9,0-7.33-2.2-10.38-4.7-20.72-6.12-31.24-.57-4.22-.91-9.29-1.11-13.55h0A17.71,17.71,0,0,1,52.48,274.78Z" transform="translate(0 -0.01)" style="fill:#46cff3;opacity:0.5;isolation:isolate"/><path d="M56.51,196.93c-1.83-.41-3.9-1.19-5-2.57-.63,1.34-1.17,2.72-1.68,4.11a20.2,20.2,0,0,0,8,3,127.44,127.44,0,0,0,21.34,2.29c2.76.07,5.89.2,7.68,2.31,1.37,1.62,1.49,3.94,1.46,6.08a85.47,85.47,0,0,1-13.85,45.37c-2.25,3.43-4.87,7.23-4.08,11.25.68,3.49,3.81,6,7.07,7.41s6.83,2,10.08,3.49A21.23,21.23,0,0,1,98.79,292.3a6.12,6.12,0,0,0,1.54-2.37c1.14-3.36-1.15-6.27-3.28-8.73-4.6-5.3-9.41-10.76-15.79-13.71-1.15-.53-2.47-1.11-2.86-2.31a4.2,4.2,0,0,1,.63-3.12c5.57-11.21,12.61-21.81,16.26-33.78,3.21-10.57,3.3-22.84-2.31-32.11-3.24,1.8-8,2-11.65,2.35A80.54,80.54,0,0,1,56.51,196.93Z" transform="translate(0 -0.01)" style="fill:#46cff3;opacity:0.5;isolation:isolate"/><path d="M52,146.67q3.8-7.6,7.58-15.23a14.87,14.87,0,0,0-1.29,1.09,28.79,28.79,0,0,0-4.6,6.41c-2.28,3.91-4.56,8-5.5,12.39a5.31,5.31,0,0,0,1.44-1A13.15,13.15,0,0,0,52,146.67Z" transform="translate(0 -0.01)" style="fill:#fff"/><path d="M100.49,139a22.83,22.83,0,0,0-3.87,16.18,7.33,7.33,0,0,0,1.86,4.17c.12-4.25-.74-8.74.55-12.81C99.82,144,101.41,141.42,100.49,139Z" transform="translate(0 -0.01)" style="fill:#fff"/><path d="M68.6,136.86a8.22,8.22,0,0,0,6.45,3.38,7.78,7.78,0,0,0,6.43-3.36,13.28,13.28,0,0,0,1.73-6.6c-1.12.87-1.43,2.55-2,3.9a6.91,6.91,0,0,1-13-1.56,4.67,4.67,0,0,0-.83-2.5l-.09-.07A8.65,8.65,0,0,0,68.6,136.86Z" transform="translate(0 -0.01)" style="fill:#fff"/><path d="M72.74,91.3c1.86,3.14,12.48,15,16.7,11-4.92,0-12.93-9.1-14.52-11.79a8.2,8.2,0,0,1-1.38-5.33,2.53,2.53,0,0,0-.66.15h-.15a9.78,9.78,0,0,0-1,.34h0c-.09,0-.17.08-.26.12C71,87.58,71.76,89.64,72.74,91.3Z" transform="translate(0 -0.01)" style="fill:#fdc6bf;opacity:0.5;isolation:isolate"/><path d="M73.31,91.13c-1.43-2.14-2.54-5-1.18-7.2,1.69-2.72,5.84-2.28,8.69-.82,4,2,14.45,12.68,10.92,18.1C88,107,75.49,94.43,73.31,91.13Z" transform="translate(0 -0.01)" style="fill:#a45ee2"/><path d="M77.27,204.91c.86,2.49,4.9,5.25,7,6.72,1.23.87,7.29,3.22,5.52,4.61s-6.11-2.43-7.38-3.61A19,19,0,0,1,77.27,204.91Z" transform="translate(0 -0.01)" style="fill:#46cff3;opacity:0.5;isolation:isolate"/><path d="M59.25,203.11c-.87,2.5-4.91,5.26-7,6.72-1.22.88-7.29,3.23-5.52,4.61s6.18-2.43,7.42-3.58A19.2,19.2,0,0,0,59.25,203.11Z" transform="translate(0 -0.01)" style="fill:#46cff3;opacity:0.5;isolation:isolate"/><path d="M63.1,218a31.91,31.91,0,0,0-.41,4.13c.27-.5.56-1,.88-1.48l.26-.49a9.42,9.42,0,0,1,.14-1.29l.19-1.14A29.72,29.72,0,0,1,68.42,207l-.83-.54a30.31,30.31,0,0,0-4.17,9.91,8.14,8.14,0,0,1-.39-2.08,32.8,32.8,0,0,1,1-11.2l-1-.26a33.74,33.74,0,0,0-1,11.54A7.41,7.41,0,0,0,63.1,218Z" transform="translate(0 -0.01)" style="fill:#46cff3;opacity:0.5;isolation:isolate"/><path d="M74.24,141.86s-6,32-3.51,54.22" transform="translate(0 -0.01)" style="fill:none;stroke:#ffd13d;stroke-linecap:round;stroke-linejoin:round;stroke-width:0.75px;opacity:0.5;isolation:isolate"/><path d="M77.57,150.94a1.14,1.14,0,1,1-1.14-1.14h0A1.14,1.14,0,0,1,77.57,150.94Z" transform="translate(0 -0.01)" style="fill:#ffd13d;opacity:0.5;isolation:isolate"/><path d="M76.25,160.47a1.14,1.14,0,1,1-1.14-1.14h0A1.15,1.15,0,0,1,76.25,160.47Z" transform="translate(0 -0.01)" style="fill:#ffd13d;opacity:0.5;isolation:isolate"/><path d="M74.63,188.57a1.14,1.14,0,1,1-1.14-1.14h0A1.15,1.15,0,0,1,74.63,188.57Z" transform="translate(0 -0.01)" style="fill:#ffd13d;opacity:0.5;isolation:isolate"/><path d="M75.27,169.68a1.14,1.14,0,1,1-1.22-1.06,1.13,1.13,0,0,1,1.22,1.06Z" transform="translate(0 -0.01)" style="fill:#ffd13d;opacity:0.5;isolation:isolate"/><path d="M74.63,179.29a1.14,1.14,0,1,1-1.22-1.06,1.13,1.13,0,0,1,1.22,1.06Z" transform="translate(0 -0.01)" style="fill:#ffd13d;opacity:0.5;isolation:isolate"/><ellipse cx="235.17" cy="349.87" rx="73.69" ry="11.95" style="fill:#0d3d92;opacity:0.20000000298023224;isolation:isolate"/><path d="M198.67,235.38a5.83,5.83,0,0,0-3.19-.48.89.89,0,0,0-.23,0,6.94,6.94,0,0,0-1.85.81c-1.3.75-2.56,1.53-3.76,2.35,4.1,1.16,6.88,3.23,8.14,7.57-.09-1-.43-2.44,0-3.44.53-1.23,1.67-1.11,2.82-1.25C204.78,240.46,200.59,236.15,198.67,235.38Z" transform="translate(0 -0.01)" style="fill:#ffd13d"/><path d="M195.47,234.86a1.71,1.71,0,0,0-.7-.38c-3.22-1-6.05,1.87-8.78,3.84-5,3.65-9.56,7.57-11.69,13.41-.28.77-.4,1.6.22,2.13a1.24,1.24,0,0,0,.79.44,2,2,0,0,1,.38-1.57,54.63,54.63,0,0,1,3.88-5.43,46,46,0,0,1,10.07-9.23c1.2-.82,2.46-1.6,3.76-2.35a6.94,6.94,0,0,1,1.85-.81h.23Z" transform="translate(0 -0.01)" style="fill:#fff"/><path d="M204.6,243.22l-4-2.24c-1.15.14-2.29,0-2.82,1.25-.45,1-.11,2.39,0,3.44,0,.2,0,.41,0,.61l3.68,2h0C202.23,246.76,203.74,244.6,204.6,243.22Z" transform="translate(0 -0.01)" style="fill:#cb997e"/><path d="M197.78,245.67c-1.26-4.34-4-6.41-8.14-7.57a46,46,0,0,0-10.07,9.23,54.63,54.63,0,0,0-3.88,5.43,2,2,0,0,0-.38,1.57c.29,1,2.07,1.18,3.48.44a15.77,15.77,0,0,0,3.12-2.64,15.34,15.34,0,0,1,8.78-3.91,38,38,0,0,1,5,.3c1.76,0,2.14-.87,2.09-2.24A4.14,4.14,0,0,0,197.78,245.67Z" transform="translate(0 -0.01)" style="fill:#ffd13d"/><path d="M176.73,233.48a6,6,0,0,0-3.2-.48h-.22a7,7,0,0,0-1.86.81c-1.3.75-2.55,1.53-3.76,2.36,4.11,1.15,6.88,3.22,8.14,7.56-.08-1-.43-2.44,0-3.44.53-1.22,1.67-1.11,2.82-1.25C182.84,238.57,178.64,234.25,176.73,233.48Z" transform="translate(0 -0.01)" style="fill:#ffd13d"/><path d="M173.52,233a1.67,1.67,0,0,0-.69-.38c-3.22-1-6,1.87-8.78,3.85-5,3.64-9.57,7.56-11.7,13.4-.27.77-.4,1.6.22,2.13a1.24,1.24,0,0,0,.79.44,2,2,0,0,1,.39-1.57,53,53,0,0,1,3.87-5.43,46,46,0,0,1,10.07-9.22c1.21-.83,2.46-1.61,3.76-2.36a7,7,0,0,1,1.86-.81h.22Z" transform="translate(0 -0.01)" style="fill:#fff"/><path d="M182.65,241.32l-4-2.24c-1.15.14-2.29,0-2.82,1.25-.45,1-.1,2.39,0,3.44,0,.2,0,.41,0,.61l3.67,2h0C180.29,244.86,181.79,242.7,182.65,241.32Z" transform="translate(0 -0.01)" style="fill:#cb997e"/><path d="M175.83,243.77c-1.26-4.34-4-6.41-8.14-7.56a46,46,0,0,0-10.07,9.22,53,53,0,0,0-3.87,5.43,2,2,0,0,0-.39,1.57c.29,1,2.07,1.18,3.48.45a16.53,16.53,0,0,0,3.13-2.65,15.26,15.26,0,0,1,8.78-3.9,36.37,36.37,0,0,1,5,.29c1.75,0,2.13-.86,2.09-2.24A4.14,4.14,0,0,0,175.83,243.77Z" transform="translate(0 -0.01)" style="fill:#ffd13d"/><path d="M306.17,70.21" transform="translate(0 -0.01)" style="fill:#ffc712"/><path d="M317.62,80.26A4.58,4.58,0,0,1,316.3,80,4.71,4.71,0,0,1,313,77c-.39-.83-.68-1.71-1.09-2.53a10,10,0,0,0-2-2.73,1.83,1.83,0,0,1-.71-1.07,1,1,0,0,1,.86-1,1.68,1.68,0,0,1,1.34.42,4.69,4.69,0,0,1,.92,1.11l1.25,1.93a.59.59,0,0,0,.75.22,1.72,1.72,0,0,0,.51-.33,2.48,2.48,0,0,0,.43-1c1-4,.44-6.87.85-11,.05-.53.18-1.15.67-1.34a1,1,0,0,1,1.16.54,2.76,2.76,0,0,1,.23,1.36,56.25,56.25,0,0,1-.38,6.09c0,.21.36.48.56.4a.9.9,0,0,0,.42-.46c1.26-2.58.34-5.22,1.35-7.91a2.11,2.11,0,0,1,.46-.79.93.93,0,0,1,.84-.28,1,1,0,0,1,.65.74,2.8,2.8,0,0,1,0,1c-.39,2.82-1.76,7.6-1.65,7.94s.71.32,1,.13a1.76,1.76,0,0,0,.46-.79c.73-2,1.34-3.57,2.07-5.62a3.25,3.25,0,0,1,.75-1.39,1.18,1.18,0,0,1,1.45-.19,1.15,1.15,0,0,1,.37,1,3.16,3.16,0,0,1-.32,1c-1,2.45-2,4.38-3,6.83-.11.26-.2.58,0,.77a.44.44,0,0,0,.57,0,1.28,1.28,0,0,0,.37-.49c.92-1.67,1.73-2.81,2.65-4.48a1.89,1.89,0,0,1,.54-.71.68.68,0,0,1,.83,0c.27.24.2.67.1,1-.56,1.75-1.65,3.29-2.38,5-1.36,3.13-1.2,5.43-3.07,8.28a4.91,4.91,0,0,1-1.55,1.59,2.6,2.6,0,0,1-2.14.28c-.24-.08-.47-.21-.71-.27A5,5,0,0,0,317.62,80.26Z" transform="translate(0 -0.01)" style="fill:#cb997e"/><path d="M326.77,65.28a50.76,50.76,0,0,1-2.37,5c-1.36,3.13-1.2,5.43-3.07,8.28a4.88,4.88,0,0,1-1.55,1.58,3,3,0,0,1-1,.37l.26.1a2.6,2.6,0,0,0,2.14-.28,4.91,4.91,0,0,0,1.55-1.59c1.87-2.85,1.71-5.15,3.07-8.28a52.06,52.06,0,0,0,2.38-5c.1-.35.17-.78-.1-1a.71.71,0,0,0-.83,0,1.64,1.64,0,0,0-.4.47A1.37,1.37,0,0,1,326.77,65.28Z" transform="translate(0 -0.01)" style="fill:#cb997e;opacity:0.5;isolation:isolate"/><path d="M310.91,70.79c.44.64.72,1.39,1.15,2a2.56,2.56,0,0,0,1.87,1.28,1.1,1.1,0,0,0,.92-.37,1.34,1.34,0,0,0,.13-1,2.14,2.14,0,0,1-.2.32,1.72,1.72,0,0,1-.51.33.59.59,0,0,1-.75-.22l-1.25-1.93a4.69,4.69,0,0,0-.92-1.11,1.68,1.68,0,0,0-1.34-.42l-.24.08A3.16,3.16,0,0,1,310.91,70.79Z" transform="translate(0 -0.01)" style="fill:#cb997e;opacity:0.5;isolation:isolate"/><path d="M317.36,67.07a1.58,1.58,0,0,0,.45.74v-.1a56.25,56.25,0,0,0,.38-6.09,2.67,2.67,0,0,0-.28-1.36,1.11,1.11,0,0,0-.69-.56,19.34,19.34,0,0,1,.1,4.3A8.34,8.34,0,0,0,317.36,67.07Z" transform="translate(0 -0.01)" style="fill:#cb997e;opacity:0.5;isolation:isolate"/><path d="M320.91,62.48a24.19,24.19,0,0,0-.9,5.06,1.34,1.34,0,0,0,.13.68.54.54,0,0,0,.31.28.22.22,0,0,1-.08-.13c-.11-.34,1.26-5.12,1.65-7.94a2.8,2.8,0,0,0,0-1,1,1,0,0,0-.65-.74h0A22,22,0,0,1,320.91,62.48Z" transform="translate(0 -0.01)" style="fill:#cb997e;opacity:0.5;isolation:isolate"/><path d="M322.91,68.62a2.07,2.07,0,0,0-.13.89.77.77,0,0,0,.24.43,1,1,0,0,1,.11-.56c1-2.45,2-4.38,3-6.83a3.16,3.16,0,0,0,.32-1,1.15,1.15,0,0,0-.37-1,1,1,0,0,0-.23-.12,15.73,15.73,0,0,1-1.17,3.91C324.08,65.74,323.39,67.14,322.91,68.62Z" transform="translate(0 -0.01)" style="fill:#cb997e;opacity:0.5;isolation:isolate"/><path d="M318.33,80.32a4.17,4.17,0,0,0-.71-.06A4.58,4.58,0,0,1,316.3,80a5.64,5.64,0,0,1-1.7-.8,4.69,4.69,0,0,1-.87-.91c-.07.24-.37,1.17-.81,2.44a20.33,20.33,0,0,1,3.78,1.37,11.33,11.33,0,0,0,3.65,1c.25-1.58.4-2.62.4-2.62h0a2.49,2.49,0,0,1-1.68.06C318.8,80.51,318.57,80.38,318.33,80.32Z" transform="translate(0 -0.01)" style="fill:#cb997e"/><path d="M320.72,80.53l-.2.06-.29.07h-.7a2,2,0,0,1-.49-.11c-.24-.08-.47-.21-.71-.27a4.17,4.17,0,0,0-.71-.06A4.58,4.58,0,0,1,316.3,80a5.64,5.64,0,0,1-1.7-.8,3.2,3.2,0,0,1-.47-.43,4.54,4.54,0,0,1-.39-.48h0a5,5,0,0,1-.23.74,4.31,4.31,0,0,0,1,1,5.91,5.91,0,0,0,1.7.81,4.64,4.64,0,0,0,1.33.23,4.09,4.09,0,0,1,.7,0c.25.07.48.2.72.28a2.43,2.43,0,0,0,1.72-.09c.08-.53.12-.84.12-.84Z" transform="translate(0 -0.01)" style="fill:#cb997e;opacity:0.5;isolation:isolate"/><path d="M169.68,136.31a4.7,4.7,0,0,0,1.06-.82,5.57,5.57,0,0,0,1.14-1.5,5.75,5.75,0,0,0,.42-2.69c0-.92-.19-1.83-.21-2.75a10.25,10.25,0,0,1,.5-3.34,1.78,1.78,0,0,0,.13-1.28,1,1,0,0,0-1.22-.5,1.7,1.7,0,0,0-1,1,4.93,4.93,0,0,0-.3,1.42c-.06.58-.16,1.66-.21,2.29a.61.61,0,0,1-.56.54,1.62,1.62,0,0,1-.62-.06,2.49,2.49,0,0,1-.83-.68c-2.75-3.1-3.58-5.89-5.84-9.35-.29-.44-.7-.93-1.22-.87a1,1,0,0,0-.78,1,2.83,2.83,0,0,0,.43,1.32,60.25,60.25,0,0,0,3.15,5.22c.12.18-.1.59-.31.62a.89.89,0,0,1-.58-.22c-2.32-1.7-2.72-4.47-4.86-6.39a2.3,2.3,0,0,0-.77-.49.9.9,0,0,0-.88.15,1,1,0,0,0-.23,1,2.82,2.82,0,0,0,.49.9c1.65,2.32,5.08,5.92,5.14,6.28s-.49.6-.79.55a1.63,1.63,0,0,1-.78-.48c-1.59-1.49-2.84-2.55-4.43-4a3.45,3.45,0,0,0-1.31-.88,1.15,1.15,0,0,0-1.37.5,1.11,1.11,0,0,0,.13,1,3.52,3.52,0,0,0,.76.78c2.06,1.7,3.78,3,5.84,4.66.21.18.45.43.36.69a.47.47,0,0,1-.51.26,1.31,1.31,0,0,1-.56-.26c-1.59-1.06-2.83-1.69-4.42-2.75a2.23,2.23,0,0,0-.81-.38.67.67,0,0,0-.74.37c-.13.34.13.69.38,1a54.52,54.52,0,0,0,4.41,3.31c2.66,2.14,3.58,4.25,6.56,5.91a4.79,4.79,0,0,0,2.1.69,2.61,2.61,0,0,0,2-.74c.18-.18.32-.4.51-.58A5.16,5.16,0,0,1,169.68,136.31Z" transform="translate(0 -0.01)" style="fill:#cb997e"/><path d="M154.63,127.28a50.6,50.6,0,0,0,4.41,3.3c2.65,2.15,3.57,4.26,6.56,5.92a5.06,5.06,0,0,0,2.1.69,2.87,2.87,0,0,0,1.05-.14,1.68,1.68,0,0,1-.18.21,2.61,2.61,0,0,1-2,.74,4.79,4.79,0,0,1-2.1-.69c-3-1.66-3.9-3.77-6.56-5.91a54.52,54.52,0,0,1-4.41-3.31c-.25-.26-.51-.61-.38-1a.67.67,0,0,1,.74-.37,1.45,1.45,0,0,1,.57.24Z" transform="translate(0 -0.01)" style="fill:#cb997e;opacity:0.5;isolation:isolate"/><path d="M171.21,124.86c-.1.78,0,1.57-.08,2.35a2.53,2.53,0,0,1-1.07,2,1,1,0,0,1-1,.1,1.21,1.21,0,0,1-.58-.84,1.23,1.23,0,0,0,.31.19,1.62,1.62,0,0,0,.62.06.61.61,0,0,0,.56-.54c0-.63.15-1.71.21-2.29a4.93,4.93,0,0,1,.3-1.42,1.7,1.7,0,0,1,1-1h.25A2.91,2.91,0,0,0,171.21,124.86Z" transform="translate(0 -0.01)" style="fill:#cb997e;opacity:0.5;isolation:isolate"/><path d="M163.8,124.5a1.4,1.4,0,0,1-.06.86.17.17,0,0,0,0-.1,60.25,60.25,0,0,1-3.15-5.22,2.83,2.83,0,0,1-.43-1.32,1.11,1.11,0,0,1,.35-.8,19.18,19.18,0,0,0,1.91,3.85A8,8,0,0,1,163.8,124.5Z" transform="translate(0 -0.01)" style="fill:#cb997e;opacity:0.5;isolation:isolate"/><path d="M158.51,122.08a25.23,25.23,0,0,1,3.14,4.07,1.43,1.43,0,0,1,.21.67.63.63,0,0,1-.15.39.38.38,0,0,0,0-.15c-.06-.36-3.49-4-5.14-6.28a2.82,2.82,0,0,1-.49-.9,1,1,0,0,1,.23-1h0A21.12,21.12,0,0,0,158.51,122.08Z" transform="translate(0 -0.01)" style="fill:#cb997e;opacity:0.5;isolation:isolate"/><path d="M159.61,128.44a1.78,1.78,0,0,1,.52.72.85.85,0,0,1,0,.5,1,1,0,0,0-.35-.45c-2.06-1.69-3.78-3-5.84-4.66a3.52,3.52,0,0,1-.76-.78,1.11,1.11,0,0,1-.13-1,.6.6,0,0,1,.14-.21,16,16,0,0,0,2.84,2.92A45.3,45.3,0,0,1,159.61,128.44Z" transform="translate(0 -0.01)" style="fill:#cb997e;opacity:0.5;isolation:isolate"/><path d="M169.08,136.68a4.6,4.6,0,0,1,.6-.37,4.7,4.7,0,0,0,1.06-.82,5.57,5.57,0,0,0,1.14-1.5,4.59,4.59,0,0,0,.35-1.2c.17.18.86.86,1.84,1.79a20.3,20.3,0,0,0-2.71,3,11.37,11.37,0,0,1-2.76,2.6L167,138.05h0a2.42,2.42,0,0,0,1.51-.72C168.75,137.08,168.91,136.86,169.08,136.68Z" transform="translate(0 -0.01)" style="fill:#cb997e"/><path d="M167.06,138h.2l.29-.07.2-.07.29-.14.15-.08a1.66,1.66,0,0,0,.38-.32c.18-.18.32-.4.51-.58a4.6,4.6,0,0,1,.6-.37,4.7,4.7,0,0,0,1.06-.82,5.57,5.57,0,0,0,1.14-1.5,4.19,4.19,0,0,0,.22-.59c.05-.2.09-.4.13-.61h0l.55.55a4.72,4.72,0,0,1-.37,1.37,6,6,0,0,1-1.14,1.5,5,5,0,0,1-1.07.82,4.49,4.49,0,0,0-.59.37,7,7,0,0,0-.51.58,2.47,2.47,0,0,1-1.57.72c-.31-.44-.5-.69-.5-.69Z" transform="translate(0 -0.01)" style="fill:#cb997e;opacity:0.5;isolation:isolate"/><path d="M239.72,90.63c-1.36-3.19-5.74-4.15-9-2.85s-5.49,4.18-7.47,7-3.88,5.9-6.78,7.82a12.25,12.25,0,0,1-11,1.18c1.51,5.87,7.33,10.09,13.37,10.55s12-2.46,16.14-6.93C238.52,103.66,241.91,95.79,239.72,90.63Z" transform="translate(0 -0.01)" style="fill:#9d6b53"/><path d="M259.43,125.48s.8,2.56-4.55,3.29a22.55,22.55,0,0,1-9.92-1l-2.34-17.21,14.49-2Z" transform="translate(0 -0.01)" style="fill:#cb997e"/><g style="opacity:0.5"><path d="M259.12,123.2l-1.45-10.57-13.13,1.81A14.94,14.94,0,0,0,259.12,123.2Z" transform="translate(0 -0.01)" style="fill:#fdc6bf"/></g><path d="M237.71,95.16s.1.76,1.23,9,4.46,12,4.46,12,10.23,7.39,18.16,1.92a11.79,11.79,0,0,0,4.56-11.36L264,91.57a15.8,15.8,0,0,0-2.68-6.93c-2.82-4-7-3.68-11.85-3l-.48.07C241.91,82.65,236.61,87.18,237.71,95.16Z" transform="translate(0 -0.01)" style="fill:#cb997e"/><path d="M254,111.37a2,2,0,0,0-1.59,2.34,2,2,0,0,0,.68,1.16,5.53,5.53,0,0,0,7.5-1,2,2,0,0,0-.53-2.78,2,2,0,0,0-1.29-.34Z" transform="translate(0 -0.01)" style="fill:#fff"/><path d="M262.76,128.86a7.25,7.25,0,0,1-2.88,5.41c-2.66,2-6.47,1.84-9.47.43a24.26,24.26,0,0,1-7.85-5.23l2.4-1.69a22.55,22.55,0,0,0,9.92,1c5.35-.73,4.55-3.29,4.55-3.29l-.15-1.18a7,7,0,0,0,3.08.37C263,125.86,262.82,127.53,262.76,128.86Z" transform="translate(0 -0.01)" style="fill:#cb997e"/><path d="M203.54,241.86a13.51,13.51,0,0,0-3.71,8c8,2.63,16.27,4.6,24.13,6.65,6.67,1.73,12.21,5.12,18.88,7.27a2.14,2.14,0,0,0,2.71-1.35,2.11,2.11,0,0,0,0-1.22c-.23-.84-.46-1.69-.7-2.55-9.08-6.48-14.68-8.91-25.07-13L208,241a4.38,4.38,0,0,0-2.78-.43A3.76,3.76,0,0,0,203.54,241.86Z" transform="translate(0 -0.01)" style="fill:#e35230"/><path d="M264.79,286.17a35,35,0,0,0,9,3.45c3.62.69,7.63.27,10.54-2a9.89,9.89,0,0,0,3.38-4.94,19.87,19.87,0,0,0,.59-4.91c.5-15.07.92-30.16.37-45.22-.42-11.19-1.78-20.15-4.66-26.11-5.36,3.43-18.21,8-43.58-.32-.38,1.19-2,6.18-2.27,7.39-2.13,8.19-1.06,16.91,1.06,25.11,1.6,6.21,3.8,13.31,5.67,20,.24.86.47,1.71.7,2.55a2.14,2.14,0,0,1-1.53,2.61,2.11,2.11,0,0,1-1.22,0c-6.67-2.15-12.21-5.54-18.88-7.27-7.86-2.05-16.16-5.8-24.13-8.43A92.4,92.4,0,0,1,183,240.76a2,2,0,0,0-2.73.72l0,.05c-.76,1.46-1.09,3.6-.62,4.65.72,1.62,2.31,2.64,3.81,3.56,22.15,13.64,47.68,31.1,72,40.34a9.3,9.3,0,0,0,8.27-2.63A12.27,12.27,0,0,0,264.79,286.17Z" transform="translate(0 -0.01)" style="fill:#ff7551"/><path d="M289.25,116.69c-8.71,4.81-18.46,8.16-28.4,8-.21,0-.73-.34-.63-.15,0,0-.76,8.59-4,9.25-4,.8-10.69-6.25-11.25-6a65.42,65.42,0,0,0-14.38,9.27c-6.93,5.15-28.39,13.89-32.76,14-3.5.08-10-8.94-21.6-16.5a2.33,2.33,0,0,0-2.94.34l-4.2,4.31a2.31,2.31,0,0,0-.08,3.17,246.17,246.17,0,0,0,21.9,21.07,12.81,12.81,0,0,0,11.5,2.73c8.53-2.14,23.24-6,29.15-8.19a4.52,4.52,0,0,1,5.48,1.84c2.75,3.88,8.66,10.84,7.1,22.82A66.15,66.15,0,0,1,241,194.71c-1.15,3.47-6.93,9.2-3.48,10.42,1,.35,2,.69,2.95,1,25.37,8.36,38.22,3.75,43.58.32.19-.11.36-.22.52-.33a4.38,4.38,0,0,0,1.62-5.1c-5.65-15.64-7.49-18.37-10.77-34.67a12.64,12.64,0,0,0,6.28-6.16,10.29,10.29,0,0,0,.25-7.93c-.78-2-2.21-3.78-3-5.81l-.15-.42a4.38,4.38,0,0,1,1.74-5.08c7.66-5,15.17-10,22.87-15a33.49,33.49,0,0,0,7.51-6c2-2.38,7.42-19.34,10.54-35.1a2.34,2.34,0,0,0-1.68-2.69l-5.8-1.6a2.34,2.34,0,0,0-2.71,1.2c-6.18,12.37-9.54,25.75-11.66,28.52C296.91,113.76,293.07,114.58,289.25,116.69Z" transform="translate(0 -0.01)" style="fill:#46cff3"/><path d="M268.91,264.3q-.48-20-1-40c-.52-20,12.26,51.08,4.15,65a40.12,40.12,0,0,1-7.31-3l-.14.16a17.79,17.79,0,0,0,3.3-6.9C269.16,274.61,269.05,269.42,268.91,264.3Z" transform="translate(0 -0.01)" style="fill:#e35230"/><path d="M260.91,104.86c.51-.61,1.07-1.27,1-1.86a3.15,3.15,0,0,0-1-1.71,5.46,5.46,0,0,1-1.3-4.7,9.87,9.87,0,0,0,2.06,4,8.23,8.23,0,0,1,.76,1,2.17,2.17,0,0,1,.29,1.41,2,2,0,0,1-.72,1.18A3.83,3.83,0,0,1,260.91,104.86Z" transform="translate(0 -0.01)" style="fill:#826359"/><path d="M244.7,208.45c-.51.54-1.18.89-1.72,1.41a7.16,7.16,0,0,0-1.56,2.68c-3.51,9.21-3.23,19.36-1.39,29.12-.28-1-.56-2-.81-3-2.12-8.2-3.19-16.92-1.06-25.11.31-1.21,1.89-6.2,2.27-7.39,1.67.55,3.28,1,4.85,1.49A3.8,3.8,0,0,1,244.7,208.45Z" transform="translate(0 -0.01)" style="fill:#e35230"/><path d="M250.3,172.86c2.43,11-.66,22.49-4.35,33.16a11.76,11.76,0,0,1-.67,1.6c-1.57-.45-3.18-.94-4.85-1.49-1-.31-2-.65-3-1-3.45-1.22,2.33-7,3.48-10.42a66.15,66.15,0,0,0,3.19-12.06c1.56-12-4.35-18.94-7.1-22.82a5.51,5.51,0,0,0-1.1-1.16,13.94,13.94,0,0,1,8.28,2.91C247.52,164.42,249.36,168.62,250.3,172.86Z" transform="translate(0 -0.01)" style="fill:#46cff3;opacity:0.5;isolation:isolate"/><path d="M262.16,92.73l4.75,3.85a14.12,14.12,0,0,0-4.31-12.14c-1.56-1.48-7.4-6.28-8-1.63C254.05,86.86,259.91,90.86,262.16,92.73Z" transform="translate(0 -0.01)" style="fill:#9d6b53"/><path d="M237.18,102.37a1.29,1.29,0,0,1-.88-.32,1.62,1.62,0,0,1-.37-.78c-1.78-6.3-.34-13.72,3.56-18.45,3.27-4,12.21-6.65,15.88-1.73,4.41,5.91-3.3,15.12-7.25,18A16.77,16.77,0,0,1,237.18,102.37Z" transform="translate(0 -0.01)" style="fill:#9d6b53"/><path d="M256.38,87.53a7.39,7.39,0,0,0-1-6.4,2.38,2.38,0,0,1,2.23-.06h0c1.8,2.42,1.58,5.38.41,8.24A18.4,18.4,0,0,1,256.38,87.53Z" transform="translate(0 -0.01)" style="fill:#ffd13d"/><path d="M235.05,103.86a1.44,1.44,0,0,1-.89-.31,1.9,1.9,0,0,1-.36-.79,21.65,21.65,0,0,1,1.54-15.35,7.47,7.47,0,0,1,1.3.39,21.81,21.81,0,0,0-.71,13.5,1.62,1.62,0,0,0,.37.78,1.29,1.29,0,0,0,.88.32h1.18c-.22.47-.46.93-.71,1.38A15,15,0,0,1,235.05,103.86Z" transform="translate(0 -0.01)" style="fill:#ffd13d"/><path d="M181.13,242.29l1.7,1.07" transform="translate(0 -0.01)" style="fill:none;stroke:#fff;stroke-linecap:round;stroke-linejoin:round"/><path d="M186.27,245.48a327.48,327.48,0,0,0,47.64,23.84,26.35,26.35,0,0,0,8.17,2.26,9.58,9.58,0,0,0,7.77-2.82c2-2.19,2.53-5.45,2.16-8.43a30.73,30.73,0,0,0-2.76-8.51c-3.18-7.29-6.51-14.64-7.75-22.55a34,34,0,0,1,.86-15.18" transform="translate(0 -0.01)" style="fill:none;stroke:#fff;stroke-linecap:round;stroke-linejoin:round;stroke-dasharray:4.048649787902832,4.048649787902832"/><path d="M243,212.18c.25-.62.52-1.23.82-1.82" transform="translate(0 -0.01)" style="fill:none;stroke:#fff;stroke-linecap:round;stroke-linejoin:round"/><path d="M272.2,151.66h0a4.58,4.58,0,0,0,2.52-6v0L273,141.4l-8.51,3.46,1.74,4.26a4.6,4.6,0,0,0,6,2.55Z" transform="translate(0 -0.01)" style="fill:#46cff3;opacity:0.5;isolation:isolate"/><path d="M582,147s-.76,2.42,4.31,3.12a21.45,21.45,0,0,0,9.41-.94l2.23-16.34L584.17,131Z" transform="translate(0 -0.01)" style="fill:#ffb5a7"/><g style="opacity:0.5"><path d="M582.25,144.86l1.38-10,12.45,1.71A14.18,14.18,0,0,1,582.25,144.86Z" transform="translate(0 -0.01)" style="fill:#fdc6bf"/></g><path d="M602.56,118.25l-1.17,8.52c-1.07,7.81-4.23,11.44-4.23,11.44s-9.7,7-17.22,1.82a11.2,11.2,0,0,1-4.33-10.78l2-14.42a14.94,14.94,0,0,1,2.55-6.58c2.67-3.84,6.68-3.48,11.23-2.86l.46.06C598.6,106.38,603.6,110.68,602.56,118.25Z" transform="translate(0 -0.01)" style="fill:#ffb5a7"/><path d="M587.54,133.69A1.66,1.66,0,0,1,589,135.5a1.67,1.67,0,0,1-.47,1,5.23,5.23,0,0,1-7.39-.2,5.59,5.59,0,0,1-.69-.91,1.64,1.64,0,0,1,.62-2.24,1.67,1.67,0,0,1,1-.19Z" transform="translate(0 -0.01)" style="fill:#fff"/><path d="M578.8,150.24a6.87,6.87,0,0,0,2.73,5.12c2.53,1.88,6.14,1.75,9,.41a22.89,22.89,0,0,0,7.44-5l-2.28-1.61a21.45,21.45,0,0,1-9.41.94C581.21,149.4,582,147,582,147l.14-1.12a6.74,6.74,0,0,1-2.92.35C578.55,147.36,578.74,149,578.8,150.24Z" transform="translate(0 -0.01)" style="fill:#ffb5a7"/><path d="M602.76,98.72c-4.68-1.08-10,.19-13.22,3.75s-3.86,9.43-1,13.26c2.28,3,6.17,4.38,8.68,7.19s3.39,6.87,3.83,10.69.62,7.77,2.22,11.27,5.11,6.48,8.94,6.08c4.62-.49,7.53-5.4,11.93-6.89,4.14-1.4,8.9.45,13-1.13,4.29-1.67,6.43-6.85,5.79-11.41s-3.48-8.51-6.7-11.8c-5.24-5.37-11.33-8.76-18.09-11.8C612.62,105.43,608.85,100.11,602.76,98.72Z" transform="translate(0 -0.01)" style="fill:#49434f"/><path d="M583.32,129a3.81,3.81,0,0,1-1-.57,1.88,1.88,0,0,1-.7-1.12,2.16,2.16,0,0,1,.28-1.36,7,7,0,0,1,.72-1,9.42,9.42,0,0,0,2-3.82,5.13,5.13,0,0,1-1.21,4.47,3,3,0,0,0-1,1.6C582.32,127.75,582.84,128.38,583.32,129Z" transform="translate(0 -0.01)" style="fill:#db7170"/><path d="M571.31,84.63" transform="translate(0 -0.01)" style="fill:#ffb5a7"/><path d="M554,82.73a5.68,5.68,0,0,0,1.64.21,5.89,5.89,0,0,0,5-2.33c.76-.85,1.43-1.77,2.21-2.6a12.43,12.43,0,0,1,3.35-2.5,2.25,2.25,0,0,0,1.23-1,1.28,1.28,0,0,0-.65-1.51,2,2,0,0,0-1.73,0,6.33,6.33,0,0,0-1.5,1c-.56.45-1.58,1.31-2.18,1.82a.74.74,0,0,1-1,0,1.84,1.84,0,0,1-.48-.59,2.87,2.87,0,0,1-.14-1.33c.28-5.11,2-8.28,3-13.29.13-.64.2-1.43-.31-1.83a1.23,1.23,0,0,0-1.57.21,3.37,3.37,0,0,0-.76,1.52,73.93,73.93,0,0,0-1.72,7.35c0,.26-.6.43-.8.27a1,1,0,0,1-.32-.69c-.56-3.52,1.5-6.3,1.29-9.85a2.69,2.69,0,0,0-.26-1.11,1.15,1.15,0,0,0-.89-.63,1.2,1.2,0,0,0-1,.63,3.44,3.44,0,0,0-.36,1.22c-.56,3.48-.69,9.63-1,10s-1,.1-1.18-.21a2,2,0,0,1-.26-1.1c-.1-2.69-.28-4.71-.38-7.4a4.37,4.37,0,0,0-.38-1.92,1.44,1.44,0,0,0-1.65-.75,1.42,1.42,0,0,0-.8,1,3.88,3.88,0,0,0,0,1.36c.33,3.28.73,5.89,1.07,9.18,0,.34,0,.76-.28.91a.59.59,0,0,1-.68-.21,1.85,1.85,0,0,1-.27-.72c-.47-2.31-1-4-1.48-6.26a2.39,2.39,0,0,0-.38-1,.85.85,0,0,0-1-.32c-.4.18-.49.72-.48,1.16,0,2.28.74,4.49,1,6.75.46,4.2-.57,6.86.6,10.92a6.26,6.26,0,0,0,1.25,2.43,3.17,3.17,0,0,0,2.42,1.12c.32,0,.64-.08,1-.06A5.36,5.36,0,0,1,554,82.73Z" transform="translate(0 -0.01)" style="fill:#ffb5a7"/><path d="M548.68,61.68c0,2.27.74,4.48,1,6.74.46,4.2-.57,6.86.61,10.92a6.11,6.11,0,0,0,1.24,2.43,3.71,3.71,0,0,0,1,.8h-.35a3.17,3.17,0,0,1-2.42-1.12A6.26,6.26,0,0,1,548.51,79c-1.17-4.06-.14-6.72-.6-10.92-.25-2.26-1-4.47-1-6.75,0-.44.08-1,.48-1.16a.85.85,0,0,1,1,.32,2,2,0,0,1,.3.7A2.46,2.46,0,0,0,548.68,61.68Z" transform="translate(0 -0.01)" style="fill:#ffb5a7;opacity:0.5;isolation:isolate"/><path d="M565.38,74c-.76.59-1.36,1.38-2.11,2a3.13,3.13,0,0,1-2.67.83,1.33,1.33,0,0,1-1-.78,1.6,1.6,0,0,1,.22-1.24,1.69,1.69,0,0,0,.12.44,1.84,1.84,0,0,0,.48.59.74.74,0,0,0,1,0c.6-.51,1.62-1.37,2.18-1.82a6.33,6.33,0,0,1,1.5-1,2,2,0,0,1,1.73,0,1.51,1.51,0,0,1,.26.18A3.75,3.75,0,0,0,565.38,74Z" transform="translate(0 -0.01)" style="fill:#ffb5a7;opacity:0.5;isolation:isolate"/><path d="M559.16,67.23a1.92,1.92,0,0,1-.81.71s.07-.07.07-.11a73.38,73.38,0,0,1,1.79-7.34A3.37,3.37,0,0,1,561,59a1.45,1.45,0,0,1,1-.41,24,24,0,0,0-1.69,5A10.3,10.3,0,0,1,559.16,67.23Z" transform="translate(0 -0.01)" style="fill:#ffb5a7;opacity:0.5;isolation:isolate"/><path d="M556.62,60.5a31.22,31.22,0,0,1-.79,6.31,1.86,1.86,0,0,1-.4.76.82.82,0,0,1-.47.22.41.41,0,0,0,.14-.12c.26-.37.39-6.52.95-10a3.44,3.44,0,0,1,.36-1.22,1.2,1.2,0,0,1,1-.63h.05A25.66,25.66,0,0,0,556.62,60.5Z" transform="translate(0 -0.01)" style="fill:#ffb5a7;opacity:0.5;isolation:isolate"/><path d="M552,67a2.15,2.15,0,0,1-.17,1.09,1,1,0,0,1-.45.43,1.2,1.2,0,0,0,.09-.7c-.34-3.29-.74-5.9-1.07-9.18a4.43,4.43,0,0,1,0-1.36,1.42,1.42,0,0,1,.8-1,1.55,1.55,0,0,1,.31-.06,19,19,0,0,0,0,5C551.7,63.2,552,65.11,552,67Z" transform="translate(0 -0.01)" style="fill:#ffb5a7;opacity:0.5;isolation:isolate"/><path d="M556.91,118.79c-.21-1.27-.37-2.55-.46-3.85-.3-4.5.4-9,.77-13.45.26-3.08.28-15.83.77-18.88a7,7,0,0,1-2.31.33,5.68,5.68,0,0,1-1.64-.21,6.14,6.14,0,0,0-.85-.19,5.82,5.82,0,0,0-1,.06,3,3,0,0,1-2-.69h0s-.2,1.29-.48,3.24C548.57,93,546.62,109.94,547,118A88.86,88.86,0,0,1,556.91,118.79Z" transform="translate(0 -0.01)" style="fill:#ffb5a7"/><path d="M665.76,108.91" transform="translate(0 -0.01)" style="fill:#ffb5a7"/><path d="M666,127.74a5.75,5.75,0,0,1-.88-1.41,5.83,5.83,0,0,1,0-5.53c.45-1,1-2,1.43-3.09a12.51,12.51,0,0,0,.86-4.09,2.25,2.25,0,0,1,.39-1.53,1.27,1.27,0,0,1,1.64,0,2.08,2.08,0,0,1,.73,1.58,5.89,5.89,0,0,1-.27,1.77c-.17.7-.53,2-.74,2.74a.74.74,0,0,0,.42.87,1.88,1.88,0,0,0,.74.19,2.83,2.83,0,0,0,1.26-.43c4.51-2.39,6.67-5.27,10.79-8.3.53-.38,1.21-.77,1.79-.48a1.25,1.25,0,0,1,.47,1.51,3.45,3.45,0,0,1-1.06,1.33c-2.06,1.81-3.7,3.08-5.91,4.69a.62.62,0,0,0,.09.85,1,1,0,0,0,.77,0c3.41-1,5.07-4,8.38-5.3a2.51,2.51,0,0,1,1.11-.23,1.12,1.12,0,0,1,1,.54,1.2,1.2,0,0,1-.14,1.2,3.5,3.5,0,0,1-1,.84c-2.91,2-8.44,4.66-8.66,5s.3.92.68,1a2,2,0,0,0,1.11-.23c2.48-1,4.38-1.72,6.87-2.75a4.11,4.11,0,0,1,1.89-.45,1.26,1.26,0,0,1,.78,2.33,4.33,4.33,0,0,1-1.23.58c-3.12,1.07-5.65,1.8-8.77,2.88-.32.11-.7.29-.71.63a.58.58,0,0,0,.48.53,2,2,0,0,0,.76-.06c2.29-.54,4-.74,6.3-1.28a2.41,2.41,0,0,1,1.1-.09.86.86,0,0,1,.7.75c0,.44-.45.74-.85.93-2.07.94-4.38,1.2-6.54,1.93-4,1.34-6,3.38-10.14,4a6.14,6.14,0,0,1-2.73-.11,3.27,3.27,0,0,1-2-1.73c-.12-.29-.19-.61-.34-.89A5.67,5.67,0,0,0,666,127.74Z" transform="translate(0 -0.01)" style="fill:#ffb5a7"/><path d="M687.32,123.77c-2.07.94-4.38,1.2-6.53,1.93-4,1.34-6,3.38-10.15,4a6.14,6.14,0,0,1-2.73-.11,3.42,3.42,0,0,1-1.16-.62,1.07,1.07,0,0,0,.11.33,3.27,3.27,0,0,0,2,1.73,6.14,6.14,0,0,0,2.73.11c4.17-.64,6.14-2.68,10.14-4,2.16-.73,4.47-1,6.54-1.93.4-.19.85-.49.85-.93a.86.86,0,0,0-.7-.75,2,2,0,0,0-.77,0A2,2,0,0,1,687.32,123.77Z" transform="translate(0 -0.01)" style="fill:#ffb5a7;opacity:0.5;isolation:isolate"/><path d="M669.18,113.77c-.22.94-.68,1.82-.92,2.75a3.13,3.13,0,0,0,.37,2.77,1.33,1.33,0,0,0,1.1.54,1.54,1.54,0,0,0,1-.72,1.32,1.32,0,0,1-.44.08,1.88,1.88,0,0,1-.74-.19.74.74,0,0,1-.42-.87c.21-.75.57-2,.74-2.74a5.89,5.89,0,0,0,.27-1.77,2.08,2.08,0,0,0-.73-1.58,1.17,1.17,0,0,0-.27-.15A3.63,3.63,0,0,1,669.18,113.77Z" transform="translate(0 -0.01)" style="fill:#ffb5a7;opacity:0.5;isolation:isolate"/><path d="M677.91,116.6a2,2,0,0,0-.3,1,.41.41,0,0,1,.07-.11c2.21-1.61,3.85-2.88,5.91-4.69a3.45,3.45,0,0,0,1.06-1.33,1.47,1.47,0,0,0-.06-1.09,24.26,24.26,0,0,1-3.87,3.64A10,10,0,0,0,677.91,116.6Z" transform="translate(0 -0.01)" style="fill:#ffb5a7;opacity:0.5;isolation:isolate"/><path d="M685.06,116.08a30.58,30.58,0,0,0-5.39,3.36,1.66,1.66,0,0,0-.52.68.77.77,0,0,0,0,.52.31.31,0,0,1,0-.19c.22-.38,5.75-3.08,8.66-5a3.5,3.5,0,0,0,1-.84,1.2,1.2,0,0,0,.14-1.2h0A27.08,27.08,0,0,1,685.06,116.08Z" transform="translate(0 -0.01)" style="fill:#ffb5a7;opacity:0.5;isolation:isolate"/><path d="M681.05,123a2.39,2.39,0,0,0-.92.61,1,1,0,0,0-.2.58,1.28,1.28,0,0,1,.6-.36c3.12-1.08,5.65-1.81,8.77-2.88a4.33,4.33,0,0,0,1.23-.58,1.44,1.44,0,0,0,.6-1.16,1.09,1.09,0,0,0-.08-.31A18.62,18.62,0,0,1,686.5,121C684.68,121.67,682.81,122.19,681.05,123Z" transform="translate(0 -0.01)" style="fill:#ffb5a7;opacity:0.5;isolation:isolate"/><path d="M635.11,141.11c-.68.27-1.37.5-2.06.73,1.78,3.1,3.47,6.24,5.12,9.41,7.45-3.37,20.68-14,27.55-18.46l3-2v0a3.38,3.38,0,0,1-1.61-1.64c-.14-.33-.21-.68-.38-1a6.2,6.2,0,0,0-.58-.77,6.91,6.91,0,0,1-1-1.56,8.49,8.49,0,0,1-.74-2.47c-2.84,1.91-13.17,9.08-16.14,10.76C644,136.54,639.79,139.33,635.11,141.11Z" transform="translate(0 -0.01)" style="fill:#ffb5a7"/><path d="M566.41,362.24a2.3,2.3,0,0,1,.24,1c.2,4.36-4.31,7-7.67,9.76-6.22,5.13-12.6,9.54-20.62,10.3-1.05.1-2.13,0-2.59-1a1.71,1.71,0,0,1-.3-1.14,2.56,2.56,0,0,0,2.1,0,70.1,70.1,0,0,0,8.06-3.09,59.52,59.52,0,0,0,14.85-9.63c1.43-1.24,2.81-2.56,4.17-3.95a9,9,0,0,0,1.62-2.06.66.66,0,0,0,.12-.27Z" transform="translate(0 -0.01)" style="fill:#fff"/><path d="M558.91,348.08l1.52,5.72c-.55,1.39-.77,2.86-2.48,3.13-1.4.24-3-.65-4.32-1.1-.26-.09-.51-.18-.76-.24l-1.27-5.25h0C553.72,349.86,556.91,348.71,558.91,348.08Z" transform="translate(0 -0.01)" style="fill:#ffb5a7"/><path d="M560.44,353.8c2-5.06,6,1.61,6.39,4.26a7.68,7.68,0,0,1-.44,4.16.66.66,0,0,1-.12.27,9,9,0,0,1-1.62,2.06c-1.36,1.39-2.74,2.71-4.17,3.95a59.52,59.52,0,0,1-14.85,9.63,70.1,70.1,0,0,1-8.06,3.09,2.56,2.56,0,0,1-2.1,0c-1.22-.7-.81-3,.58-4.51a20.15,20.15,0,0,1,4.33-3,19.85,19.85,0,0,0,7.75-9.74c.78-2.13.77-4.25,1.27-6.41s1.78-2.39,3.48-1.89c.25.06.5.15.76.24,1.28.45,2.92,1.34,4.32,1.1C559.67,356.66,559.91,355.19,560.44,353.8Z" transform="translate(0 -0.01)" style="fill:#d15b29"/><path d="M656.79,242.79a2.35,2.35,0,0,1,1-.35c4.31-.69,7.42,3.49,10.56,6.52,5.8,5.6,10.9,11.45,12.56,19.33.21,1,.22,2.12-.67,2.69a1.63,1.63,0,0,1-1.09.42,2.59,2.59,0,0,0-.21-2.09,73.28,73.28,0,0,0-4-7.66A59.85,59.85,0,0,0,663.7,248c-1.39-1.28-2.86-2.5-4.39-3.7a8.84,8.84,0,0,0-2.23-1.38,1.31,1.31,0,0,0-.28-.09Z" transform="translate(0 -0.01)" style="fill:#fff"/><path d="M643.57,251.86l5.51-2.15c1.44.39,2.93.45,3.39,2.11.39,1.37-.31,3.1-.61,4.42-.06.27-.12.53-.15.78l-5.08,1.84h0C645.91,256.79,644.41,253.75,643.57,251.86Z" transform="translate(0 -0.01)" style="fill:#ffb5a7"/><path d="M649.08,249.67c-5.25-1.42.92-6.19,3.51-6.83a7.65,7.65,0,0,1,4.19,0,1.31,1.31,0,0,1,.28.09,8.84,8.84,0,0,1,2.23,1.38c1.53,1.2,3,2.42,4.39,3.7a59.65,59.65,0,0,1,11.23,13.64,73.28,73.28,0,0,1,4,7.66,2.59,2.59,0,0,1,.21,2.09c-.57,1.29-2.88,1.14-4.55-.06a20.33,20.33,0,0,1-3.52-4,19.81,19.81,0,0,0-10.56-6.6c-2.2-.54-4.3-.29-6.5-.54s-2.58-1.5-2.27-3.25a3.82,3.82,0,0,1,.15-.78c.3-1.32,1-3,.61-4.42C652,250.12,650.52,250.06,649.08,249.67Z" transform="translate(0 -0.01)" style="fill:#d15b29"/><path d="M581.6,256.52c4.82,9.71,3.51,9,5.57,19.65,1.16,6,2.32,12.87,8.89,15.07a11.9,11.9,0,0,0,5.4.43c5.29-.74,9.48-3.95,13.55-7.09l28.78-22.23c2-1.57,4.13-3.22,4.83-5.84a4.47,4.47,0,0,0-.55-3.68c-1.84-2.65-5.51-1.8-8.35-.78-8,2.87-16.85,5-25,7.72a2,2,0,0,1-2.58-1.17A2.15,2.15,0,0,1,612,258c-.47-5.35.46-10.78.66-16.18.23-6.26-.79-13.1-5.31-17.43-3.17-3-7.66-4.39-12-4.57a55,55,0,0,0-13,1.54c-4.26.86-8.87,1.79-12.92,3.73-8.55,4.09-14.3,12.25-19.66,20.07-6.25,9.11-12.62,18.52-15,29.31-2.76,12.52.16,25.57,4,37.8,3.51,11.25,7.82,22.41,9.29,34.07a6.61,6.61,0,0,0,7.3,5.82,6.8,6.8,0,0,0,1.25-.27,6.11,6.11,0,0,0,3.54-3.19c1.18-2.55.81-5.52.42-8.3l-5.92-42c-.57-4.07-1.13-8.31.18-12.2s4.23-6.88,7.08-9.76l19.75-20" transform="translate(0 -0.01)" style="fill:#49434f"/><path d="M611.91,253.8c.08-4,.62-8,.77-11.94.23-6.26-.79-13.1-5.31-17.43A13.24,13.24,0,0,0,606,223.3,51.85,51.85,0,0,1,610.16,237C611,242.59,611,248.28,611.91,253.8Z" transform="translate(0 -0.01)" style="fill:#49434f;opacity:0.5;isolation:isolate"/><path d="M612.41,231.86a4.73,4.73,0,0,0,2.9-6,1.43,1.43,0,0,0-.08-.22,33.65,33.65,0,0,0-4.73-7.1,52.29,52.29,0,0,1-9.65-21.14c-1.39-6.7-1.37-14,1.72-20.08,4-7.94,12.46-12.63,20.86-15.58,4.74-1.66,9.67-3,14-5.52,3.86-2.29,9.25-4.78,10.25-9.27.66-3-2.29-12.36-7-11a7,7,0,0,0-2.23,1.3c-4.78,3.67-9.37,6.37-15.29,7.78a74.41,74.41,0,0,1-10.8,1.59c-3.1.27-6.63,0-9.56,1.16-2.08.82-4.25,1.9-6.49,2.76-2.88,1.11-9.91,6.64-9.91,6.64-5.85-2.5-5.43-8.1-5.81-8.93-1.83-3.91-6.91-5.78-9.41-8.06-4-3.68-8.17-7.5-10.44-12.47-1.71-3.76-2.27-8-4.28-11.6a14.19,14.19,0,0,0-3.4-4,4.62,4.62,0,0,0-7.47,3.33,56.3,56.3,0,0,0,2,18.93c1.93,6.76,6.47,10.81,9.79,16.69,4.4,7.78,3.72,15.47,4.45,24,1.43,16.61,2.74,34-3.07,49.48h0a4.21,4.21,0,0,0,2.41,5.43l.41.13c6.31,1.69,17.7,4.56,24.92,5.36C594.91,236.32,604.24,234.69,612.41,231.86Z" transform="translate(0 -0.01)" style="fill:#d15b29"/><path d="M647.91,134.32c-1.34.76-2.66,1.55-4,2.33,2.36,1.94,3.81,6.48,3.86,9.11q1.79-1.2,3.57-2.44C651.39,140.86,650.1,136.5,647.91,134.32Z" transform="translate(0 -0.01)" style="fill:#fdc6bf;opacity:0.5;isolation:isolate"/><path d="M552.84,113.07a11.08,11.08,0,0,1,2.55,3c0-.32-.07-.64-.09-1,0-.62-.06-1.25-.06-1.87a10.92,10.92,0,0,0-2.63-3.07,3.66,3.66,0,0,0-5.13.6,2.83,2.83,0,0,0-.2.28c-.15,1.38-.26,2.77-.28,4.18a3.66,3.66,0,0,1,5.84-2.07Z" transform="translate(0 -0.01)" style="fill:#fdc6bf;opacity:0.5;isolation:isolate"/><path d="M606.61,165.86c-7.39,6.08-11.57,15.59-12,25.15s2.57,19.08,7.61,27.21c1.61,2.6,3.51,5.6,2.53,8.49-1.15,3.39-5.42,4.36-9,4.63-8.06.6-20.54.17-30.22-.3,6.42,1.65,15.11,3.69,21,4.34,8.37.94,17.72-.69,25.89-3.55a4.73,4.73,0,0,0,2.9-6,1.43,1.43,0,0,0-.08-.22,33.65,33.65,0,0,0-4.73-7.1,52.29,52.29,0,0,1-9.65-21.14c-1.39-6.7-1.37-14,1.72-20.08,4-7.94,12.46-12.63,20.86-15.58,4.74-1.66,9.67-3,14-5.52,3.21-1.9,7.46-3.94,9.39-7.16C634.44,156.45,617.91,156.59,606.61,165.86Z" transform="translate(0 -0.01)" style="fill:#d15b29;opacity:0.5;isolation:isolate"/><path d="M612.43,267.59c.83-3.54,3.76-6.72,6.78-8.75.54-.36,1.09-.68,1.65-1-2.07.62-4.12,1.26-6.13,1.93a2,2,0,0,1-2.43-.89A70.34,70.34,0,0,0,612.43,267.59Z" transform="translate(0 -0.01)" style="fill:#49434f;opacity:0.5;isolation:isolate"/><path d="M580.26,253.42a4,4,0,0,0-5.27-2.06,3.93,3.93,0,0,0-1.43,1.06c-7.31,8.46-16.2,15.81-20.31,26.13-4.44,11.16-2.43,23.72-.36,35.55q3,17,6,34H559l.48,1.79a6.21,6.21,0,0,0,.69-1.13c1.18-2.55.81-5.52.42-8.3q-3-21-5.92-42c-.57-4.07-1.13-8.31.18-12.2s4.23-6.88,7.08-9.76l19.75-19.95h0Z" transform="translate(0 -0.01)" style="fill:#49434f;opacity:0.5;isolation:isolate"/><ellipse cx="595.35" cy="393.36" rx="73.69" ry="11.95" style="fill:#0d3d92;opacity:0.20000000298023224;isolation:isolate"/><path d="M582.23,256.05c-3.89-6-5.16-15-1.61-21.23" transform="translate(0 -0.01)" style="fill:none;stroke:#49434f;stroke-miterlimit:10;opacity:0.5;isolation:isolate"/><path d="M604.2,234.25A89.1,89.1,0,0,1,606.76,272a10.44,10.44,0,0,0-.11,3.78,3.23,3.23,0,0,0,2.44,2.6c1.82.28,3.21-1.51,4.25-3a47.87,47.87,0,0,1,29.71-19.5" transform="translate(0 -0.01)" style="fill:none;stroke:#49434f;stroke-miterlimit:10;opacity:0.5;isolation:isolate"/><path d="M551.59,347.25c-1-11.81-5-23.13-8.34-34.49s-6.19-23.19-4.86-35c2-17.42,12.75-32.57,24.66-45.43" transform="translate(0 -0.01)" style="fill:none;stroke:#49434f;stroke-miterlimit:10;opacity:0.5;isolation:isolate"/><path d="M583.55,116.67c-2.4.66-5,.58-7.34,1.4-1,.34-2.15.81-3,.16s-.68-1.72-.48-2.65a22.13,22.13,0,0,1,7.16-12c2.73-2.35,6.64-4,9.9-2.5a6.16,6.16,0,0,1,3.43,5.65c-.09,2.5-1.83,4.32-3.69,5.77S586,116,583.55,116.67Z" transform="translate(0 -0.01)" style="fill:#49434f"/><path d="M579.33,146.26a7.22,7.22,0,0,0,2.77-.36L582,147l.77-5.6a10.8,10.8,0,0,1-2.79-1.37,11.2,11.2,0,0,1-4.33-10.78l1.57-11.47c-.32.08-.65.18-1,.29a4.33,4.33,0,0,1-2.5.4c-1.42,3.23-1.35,7.5-.84,10.58.62,3.8,2,7.47,2.26,11.33.06.84.07,1.68.06,2.52A19.28,19.28,0,0,1,579.33,146.26Z" transform="translate(0 -0.01)" style="fill:#28252b"/><path d="M601.1,133.61c-.12-1-.26-2-.46-3a20.12,20.12,0,0,1-3.46,7.6l-1.5,11,1.35.95c2-.8,3.91-1.73,5.76-2.46a10.64,10.64,0,0,1,1.91-.54,12.86,12.86,0,0,1-1.38-2.27C601.72,141.38,601.54,137.43,601.1,133.61Z" transform="translate(0 -0.01)" style="fill:#28252b"/><path d="M589.54,102.47a9.44,9.44,0,0,1,1-1,5.48,5.48,0,0,0-.74-.43,6.44,6.44,0,0,0-1.77-.52,12,12,0,0,0-2.29,1.91c-3.23,3.56-3.86,9.43-1,13.26.08.11.18.2.27.31a14.35,14.35,0,0,0,2.56-1.89A11,11,0,0,1,589.54,102.47Z" transform="translate(0 -0.01)" style="fill:#49434f;opacity:0.5;isolation:isolate"/></g></svg>