<svg id="Laag_1" data-name="Laag 1" xmlns="http://www.w3.org/2000/svg" xmlns:xlink="http://www.w3.org/1999/xlink" width="375.75" height="919.11" viewBox="0 0 375.75 919.11"><defs><linearGradient id="Naamloos_verloop_10" x1="1.2" y1="1000.26" x2="2.01" y2="1001.04" gradientTransform="matrix(375.75, 0, 0, -919.11, -172.38, 920107.87)" gradientUnits="userSpaceOnUse"><stop offset="0" stop-color="#5300fb"/><stop offset="1" stop-color="#ea00fb"/></linearGradient><linearGradient id="Naamloos_verloop_2" x1="1.57" y1="1001.09" x2="1.57" y2="1000.09" gradientTransform="matrix(316.47, 0, 0, -593.86, -53.86, 594701.95)" gradientUnits="userSpaceOnUse"><stop offset="0" stop-color="#ffd711" stop-opacity="0"/><stop offset="0.5" stop-color="#ff4e03" stop-opacity="0.5"/><stop offset="1" stop-color="#ffd711" stop-opacity="0"/></linearGradient></defs><title>new-start-title-background</title><path id="Path_1782" data-name="Path 1782" d="M601.49,776.27l-.17-576.71-.05-171.64L226.15,28,225.77,947s38.32,2.49,80.59-43.39c24.79-26.9,51.47-60.91,109.09-74s82.2,22.5,128.72,31.88,57.35,5.62,57.35,5.62Z" transform="translate(-225.77 -27.92)" style="fill:url(#Naamloos_verloop_10)"/><path id="Path_1783" data-name="Path 1783" d="M530.06,464.4c-68.93,110.51-281.93,33.89-239.5,119.1,32.73,65.74,186.92,160.17,310.93,201.32L601.32,191C572.52,266.63,582,381,530.06,464.4Z" transform="translate(-225.77 -27.92)" style="fill:url(#Naamloos_verloop_2)"/></svg>