<?xml version="1.0" encoding="utf-8"?>
<!-- Generator: Adobe Illustrator 24.0.1, SVG Export Plug-In . SVG Version: 6.00 Build 0)  -->
<svg version="1.1" id="Laag_1" xmlns="http://www.w3.org/2000/svg" xmlns:xlink="http://www.w3.org/1999/xlink" x="0px" y="0px"
	 width="1708.8px" height="1102.64px" viewBox="0 0 1708.8 1102.64" enable-background="new 0 0 1708.8 1102.64"
	 xml:space="preserve">
<g transform="matrix(1, 0, 0, 1, 0, 0)">
	
		<linearGradient id="Path_1668-2_1_" gradientUnits="userSpaceOnUse" x1="641.7098" y1="723.3605" x2="642.3127" y2="722.1246" gradientTransform="matrix(1708.7959 0 0 -1052.8735 -1096163.125 761535.4375)">
		<stop  offset="0" style="stop-color:#EA00FB"/>
		<stop  offset="1" style="stop-color:#211FFF"/>
	</linearGradient>
	<path id="Path_1668-2" fill="url(#Path_1668-2_1_)" d="M881.04,76.85c-90.87,1.7-96.5-68.11-189.91-64.36
		S610.62,128.95,489.1,120.44S259.43-55.22,147.52,64.98S-56.54,400.07,41.47,601.23c42.44,87.1-15.43,323.31,106.05,407.27
		s190.58,27.29,324.92,3.68s114.23-32.61,226.36-35.37s113.69,76.29,212.1,60.6s118.48-90.74,246.4-111.62
		s113.76,24.72,265.28,28.09s203.32,87.73,263.13-79.73s-14.34-526.21-23.9-590.12c-0.7-4.68-1.09-7.24-1.09-7.24
		s-18.67-203.14-106.23-258.81s-190.32,36.28-289.51,30.67S1158.15-0.28,1054.61,5.71S971.91,75.15,881.04,76.85z"/>
</g>
<g id="Group_344" transform="translate(876.851 -2865.357)">
	
		<linearGradient id="Subtraction_5_1_" gradientUnits="userSpaceOnUse" x1="-237.5719" y1="3588.1418" x2="-237.5719" y2="3587.1418" gradientTransform="matrix(268.001 0 0 -268.0005 63750.5039 964574.75)">
		<stop  offset="0" style="stop-color:#5400FF;stop-opacity:0.302"/>
		<stop  offset="1" style="stop-color:#BD00FF;stop-opacity:0.502"/>
	</linearGradient>
	<path id="Subtraction_5" fill="url(#Subtraction_5_1_)" d="M81,3219c-9.07,0-18.12-0.91-27.01-2.72
		c-17.14-3.51-33.42-10.36-47.92-20.16c-21.54-14.54-38.41-35.02-48.55-58.96c-3.43-8.11-6.04-16.53-7.81-25.15
		c-3.63-17.82-3.63-36.19,0-54.01c3.51-17.14,10.36-33.42,20.16-47.92c14.54-21.54,35.02-38.41,58.96-48.55
		c8.11-3.43,16.53-6.04,25.15-7.81c17.82-3.63,36.19-3.63,54.01,0c17.14,3.51,33.42,10.36,47.92,20.16
		c21.54,14.54,38.41,35.02,48.55,58.96c3.43,8.11,6.04,16.53,7.81,25.15c3.63,17.82,3.63,36.19,0,54.01
		c-3.51,17.14-10.36,33.42-20.16,47.92c-14.54,21.54-35.02,38.41-58.96,48.55c-8.11,3.43-16.53,6.04-25.15,7.81
		C99.12,3218.09,90.07,3219.01,81,3219z M81,2984c-55.78,0-101,45.22-101,101s45.22,101,101,101s101-45.22,101-101
		C181.94,3029.25,136.75,2984.07,81,2984z"/>
	
		<linearGradient id="Subtraction_6_1_" gradientUnits="userSpaceOnUse" x1="-231.2662" y1="3587.7549" x2="-231.2662" y2="3586.7549" gradientTransform="matrix(-229.7217 138.0307 138.0305 229.7213 -548062.25 -788987.875)">
		<stop  offset="0" style="stop-color:#5400FF;stop-opacity:0.302"/>
		<stop  offset="1" style="stop-color:#BD00FF;stop-opacity:0.502"/>
	</linearGradient>
	<path id="Subtraction_6" fill="url(#Subtraction_6_1_)" d="M145.98,3044.14c7.77-4.67,16-8.55,24.55-11.58
		c16.5-5.82,33.98-8.33,51.46-7.4c25.96,1.37,50.96,10.24,71.98,25.53c7.11,5.18,13.69,11.06,19.65,17.54
		c12.29,13.41,21.75,29.15,27.82,46.3c5.82,16.5,8.33,33.99,7.4,51.46c-1.37,25.96-10.24,50.96-25.53,71.98
		c-5.18,7.11-11.06,13.69-17.54,19.65c-13.41,12.29-29.15,21.75-46.3,27.82c-16.5,5.82-33.98,8.33-51.46,7.4
		c-25.96-1.37-50.96-10.24-71.98-25.53c-7.11-5.18-13.69-11.06-19.65-17.54c-12.29-13.41-21.75-29.15-27.82-46.3
		c-5.82-16.5-8.33-33.98-7.39-51.46c1.37-25.96,10.24-50.96,25.53-71.98c5.18-7.11,11.06-13.69,17.54-19.65
		C130.92,3054.26,138.21,3048.81,145.98,3044.14z M267.02,3245.58c47.81-28.73,63.28-90.78,34.56-138.59s-90.78-63.28-138.59-34.56
		c-47.81,28.73-63.28,90.78-34.56,138.59C157.19,3258.78,219.19,3274.24,267.02,3245.58z"/>
</g>
<g transform="matrix(1, 0, 0, 1, 0, 0)">
	
		<linearGradient id="Subtraction_3-2_1_" gradientUnits="userSpaceOnUse" x1="641.3658" y1="723.0628" x2="640.7613" y2="722.2662" gradientTransform="matrix(604.0063 0 0 -604.0037 -386730.2188 437292.1563)">
		<stop  offset="0" style="stop-color:#EF64FF;stop-opacity:0.302"/>
		<stop  offset="1" style="stop-color:#002CA7"/>
	</linearGradient>
	<path id="Subtraction_3-2" fill="url(#Subtraction_3-2_1_)" d="M475.85,1102.64c-20.44,0-40.83-2.05-60.86-6.14
		c-38.63-7.91-75.32-23.35-107.99-45.44c-48.55-32.78-86.56-78.93-109.41-132.87c-7.72-18.27-13.62-37.26-17.6-56.69
		c-8.18-40.16-8.18-81.56,0-121.73c7.91-38.63,23.35-75.32,45.44-107.99c32.78-48.55,78.93-86.56,132.87-109.42
		c18.27-7.72,37.26-13.62,56.69-17.6c40.16-8.18,81.56-8.18,121.73,0c38.63,7.91,75.32,23.35,107.99,45.44
		c48.55,32.78,86.56,78.93,109.42,132.87c7.72,18.27,13.62,37.26,17.6,56.69c8.18,40.16,8.18,81.56,0,121.73
		c-7.91,38.63-23.35,75.32-45.44,107.99c-32.78,48.55-78.93,86.56-132.88,109.42c-18.27,7.72-37.26,13.62-56.69,17.6
		C516.68,1100.6,496.29,1102.65,475.85,1102.64z M476.35,598.64c-111.66,0-202.5,90.84-202.5,202.5s90.84,202.5,202.5,202.5
		s202.5-90.84,202.5-202.5S588.01,598.64,476.35,598.64z"/>
</g>
</svg>
