<svg id="Laag_1" data-name="Laag 1" xmlns="http://www.w3.org/2000/svg" width="761.87" height="590.58" viewBox="0 0 761.87 590.58"><title>new-start-selfiestick</title><ellipse cx="445.87" cy="540.08" rx="312" ry="50.5" style="fill:#d1d1d1;opacity:0.75"/><path d="M661.67,292.57c2.64-.47,9.55,1.95,16.83,13.26,7.81,12.13,8.42,19.8,9.25,23.53s7.09,28,9.32,30.42c5.83,6.26,20.84,23.1,22.2,24.2,2.32,1.87,26.57,25.78,26.57,25.78L735.4,425.11s-28.38-26-37.36-33.5a122.71,122.71,0,0,1-20.54-22c-7.09-10.12-18.71-36.16-19.28-38.56S642.16,296.08,661.67,292.57Z" transform="translate(-68.13 -165.42)" style="fill:#dbdff0"/><path d="M703.94,677.74s2.37,21.25.68,28.07-3.89,14.83-10.44,15.65-10.91-7-10.52-14.12c.37-6.86,2.55-11.45,5-16.77a46.42,46.42,0,0,0,3.27-11.66Z" transform="translate(-68.13 -165.42)" style="fill:#122936"/><path d="M739.39,682.39s4.78,12.68,7.78,14.73,16,4.36,16.4,7.36-1.27,7.91-8.22,8.32-16.91,1.09-21-2.59-6.27-15.68-9.41-16.23c0,0-3.68,5-3.68,10.09,0,0-1.77.82-2.18-.82s1-22.63,8.87-33.54S739.39,682.39,739.39,682.39Z" transform="translate(-68.13 -165.42)" style="fill:#122936"/><path d="M729.58,497.9s-11.7,31.91-10.86,38.25-.39,27-3.05,36.61.82,28.63-3.68,45.2-8.19,57.48-8.19,62.79-11.25,9-11.86-1.84-10.63-64-8.59-78.33,7.77-32.32,4.91-43.16-6.34-24.34-6.34-31.5S729.58,497.9,729.58,497.9Z" transform="translate(-68.13 -165.42)" style="fill:#eea987"/><path d="M733.26,498.72s30.47,47,32.72,51.95,2,15.34,0,18.82-23.11,33.13-26,44-9.82,49.7-11.46,53.79.48,12.55,3.75,14.19a12.83,12.83,0,0,0,7.09.95s12.51-36.85,19.66-49.15c5.76-9.92,29.64-48.82,32.5-51.48s8.39-20.25,7.57-23.73-10.43-53.18-10.43-53.18S792.38,484.6,733.26,498.72Z" transform="translate(-68.13 -165.42)" style="fill:#eea987"/><path d="M685.4,429.18s-15.75,30.27-11.25,56.65,6.54,47.25,2,54.82c0,0,33.95,1,64.84-11.25s52.16-19.23,52.16-19.23-11.66-52.77-16.57-65.45-8.65-26.93-9-32.59S685.4,429.18,685.4,429.18Z" transform="translate(-68.13 -165.42)" style="fill:#1c4054"/><path d="M671.23,330.15s-23.74,15.71-26.47,16.53-38.59-24.82-45.68-27.95-6.83,11.59-6.83,11.59,43.92,37.63,48.42,38.59,9-.55,22.09-7.78,21.82-11.86,21.82-11.86S687.21,333.87,671.23,330.15Z" transform="translate(-68.13 -165.42)" style="fill:#eea987"/><path d="M780.49,348.09s22.45,29.13,22.45,31.45-25.5,26.73-28.5,29l4.5,11.59s48.54-26.32,50.86-32.73-15.69-34.13-32.32-56.34S772.63,339.14,780.49,348.09Z" transform="translate(-68.13 -165.42)" style="fill:#eea987"/><path d="M798.3,330.18c0,.84-2.63,2.43-3.12,2.81-1.26,1-2.55,1.94-3.83,2.88-2.8,2.06-5.63,4.07-8.47,6.07a13.39,13.39,0,0,0-2.77,1.95c-.69.87-.18,1.6.09,2.87.9,4.11,1,2.69,1.32,6.89.63,8.8-4,21.59-8.44,28.78-1.76,2.85-4.12,5.84-5.08,9.09-1.16,3.94-.92,8.47-.82,12.53.05,2,.15,4,.28,6,0,.37.37,1.83.15,2.1s-1.13.13-1.31.15c-3.11.4-6.21,1-9.27,1.67-15,3.25-29.23,9-44.17,12.27-8.86,2-18.34,3.57-27.46,3a58.19,58.19,0,0,0,5.2-13,219.53,219.53,0,0,0,4.93-23.7c1.18-7.68,1.8-16-1-23.43-1.43-3.79-3.84-6.95-6-10.32-2.34-3.59-3.34-7.07-4.26-11.17-1.69-7.44-6.67-14.74-13.85-17.81a18.52,18.52,0,0,1,4.14-3.33c2.26-1.6,4.57-3.12,6.88-4.63s4.66-3.6,7.14-4.48a36.24,36.24,0,0,1,5.4-1c3.82-.72,7.63-1.41,11.46-2.08,10.6-1.86,21.23-3.57,31.91-5,9.79-1.29,19.76-2.56,29.67-2.4,4,.07,7.56.43,11.08,2.41C786.45,314,793.26,322.13,798.3,330.18Z" transform="translate(-68.13 -165.42)" style="fill:#1c4054"/><path d="M732,219.05s18.77-.51,23.31,17.18c4,15.7,1.63,29.32,1.5,40.23s11.2,28.61,11.2,28.61-18.84-1.89-20.61-7.75-36,8.45-36,8.45,11.32-7.36.82-28.09-10.59-29.82-10.91-36.54C701.14,236.78,705.74,219.19,732,219.05Z" transform="translate(-68.13 -165.42)" style="fill:#1c4054"/><path d="M603.42,321.72s-4.89-3-5.58-5-1-7.81-3.08-10-6.08-6.2-8-6.29-16.92,5.54-15.63,7.11,7.48,2.64,11.74-.15,4.74,1.07,4.74,1.07-2.29,16.73-.29,19,9.51,4.28,9.51,4.28S605.42,328,603.42,321.72Z" transform="translate(-68.13 -165.42)" style="fill:#eea987"/><path d="M571.64,308.06s-2.65,3.18.56,8.18,12,12.57,14.26,12,6.93-3.45,7.4-4.67-3.17-17.34-5.6-17.7S579.69,309.19,571.64,308.06Z" transform="translate(-68.13 -165.42)" style="fill:#db9c7c"/><path d="M716.62,224.37s-19,13.77-10.63,41,13.77,25.64,27.27,19.5,18.13-22.77,18.68-31.09S752.76,209.78,716.62,224.37Z" transform="translate(-68.13 -165.42)" style="fill:#eea987"/><path d="M773.44,307.4c-10.42,7.54-90.27,14.75-85,10,4.7-4.3,28-14.18,34.08-17.72a10.33,10.33,0,0,0,4.37-5.43h0a18.9,18.9,0,0,0,1.11-7h0c.14-.34,15.37-37.15,17.45-13.33,1.8,20.59,9,24.29,9,24.29C768.64,305.77,773.44,307.4,773.44,307.4Z" transform="translate(-68.13 -165.42)" style="fill:#eea987"/><path d="M713.76,234.73s3.65-.48,6.71,12.92c1.34,5.84,4.81,13.91,15.79,22,11.91,8.77,13.91,9.41,13.91,9.41s15.12-55.3-16.52-58.32-31.36,22.3-31.09,28.44,1.38,5.16,1.38,5.16S704.36,235.49,713.76,234.73Z" transform="translate(-68.13 -165.42)" style="fill:#1c4054"/><path d="M774.44,408.59a5.24,5.24,0,0,1-3.2.69c-2.76-.48-5.36-3.81-8.73-1.75s.61,13.91,2.55,15.54,7.4,2.25,13.88-2.86S774.44,408.59,774.44,408.59Z" transform="translate(-68.13 -165.42)" style="fill:#eea987"/><path d="M763.84,406.9s-5.93.9-12.43,2.62c-5.7,1.51-12,4.28-12.17,5.47s6-.7,11.71-1.84c5.3-1,10.25-1.67,10.25-1.67a94.63,94.63,0,0,0-11.12,3.57c-6,2.37-11.81,5.36-11.81,6.8,0,.69,2.26.43,5.38-.26-2.38.88-3.95,1.68-3.75,2.2,1.07,2.69,17.06-1.16,20.77-2-2.84.68-11.51,3.13-9.72,4.38,2,1.43,14.15-1.95,19-1.89S763.84,406.9,763.84,406.9Z" transform="translate(-68.13 -165.42)" style="fill:#eea987"/><path d="M588.2,305.11a4,4,0,0,1,2.69,3.31c.57,2.84.4,2.36.4,2.36s1.29-.17,1.73,1.69a3.55,3.55,0,0,1-.27,2.83s.93.28,1.42,2.08a3.24,3.24,0,0,1-.19,2.69s.6.1.82,1.28a5.27,5.27,0,0,1-.45,2.62Z" transform="translate(-68.13 -165.42)" style="fill:#db9c7c"/><path d="M742.1,278.3s-1.87,9.11-15.24,15.91a18.9,18.9,0,0,0,1.11-7h0C728.15,287.11,739.44,282.76,742.1,278.3Z" transform="translate(-68.13 -165.42)" style="fill:#a87860"/><path d="M529.51,325.27a23,23,0,0,0-3.2-.8c-.84-.05-5.94,1.77-12.84,4.42C495.72,335.69,466,348,466,348s-2.86,12.77-5.87,21.69h0c-.64,1.9-1.46,5.61-1.79,5.91-1.9,1.71-25.35,9.29-42.93,11.85s-20,4.73-20,4.73-7.42-9-1.16-10.29,33.76-11.59,39.45-13c4.52-1.1,8.64-1.95,10-6.5.7-2.39,2.08-10.7,3.7-18.84.67-3.4,1.39-6.77,2.12-9.67h0a33.18,33.18,0,0,1,2.53-7.51c2.09-3.57,11.34-12.28,18.17-18.45h0c3.67-3.32,6.65-5.91,7.44-6.57,2.24-1.9,20.15-7,20.15-7s11.48,2.68,18.53,4.21c1.71.37,3.16.68,4.12.86,1.53.3,5.24,1.51,9.77,3.06h0C531.94,306.27,531,316.05,529.51,325.27Z" transform="translate(-68.13 -165.42)" style="fill:#eea886"/><path d="M395.61,382.16a56.76,56.76,0,0,0-5.87-1c-1.64-.11-4-.64-5.48-.79s-8-.07-9.49.38c-.62.18-4,3-5.27,3.18s-4,.32-3.78,1.55,2.76,1.85,2.76,1.85a1.67,1.67,0,0,0-1.25,1.43c-.14,2.21,1,3,1,3a3.23,3.23,0,0,0-.83,2.09,4.09,4.09,0,0,0,1.44,2.8,3.85,3.85,0,0,0,.14,2.45,3.16,3.16,0,0,0,2.36,2s.38,2.35,1.59,2.65,2.2-.17,3.18-.21,9-2.74,13.82-7.49c3.88-3.86,11.07-6.37,11.07-6.37Z" transform="translate(-68.13 -165.42)" style="fill:#eea886"/><path d="M472.06,360.09s-19.12,2.23-20.2,3.45-.82,2.26,1,2.13,18.58-1.62,18.58-1.62-21.92,6.48-23,7.27c-.65.47-.27,2.5.7,2.52s23.16-5.13,23.16-5.13-20.45,6.08-21.16,7a1.58,1.58,0,0,0,1.73,2.3c1.56-.35,20.94-4.9,20.94-4.9s-14.54,5.39-14.64,6.58c-.06.74.18,2.5,3.88,1s12.87-4.13,12.87-4.13Z" transform="translate(-68.13 -165.42)" style="fill:#eea886"/><path d="M494.67,361s-6.36.33-8.31-2.89c-1.65-2.74-5.7-5.22-6.94-6-1.66-1-5.72-6-6.9-4s6.32,8.48,7.64,10.13-7.86,1.05-9.53,2.26-.76,16.39,5.53,16.08,12.53-4.81,13.67-4.64a39.6,39.6,0,0,0,4.6-.05Z" transform="translate(-68.13 -165.42)" style="fill:#eea886"/><path d="M492,376s46.91-6.56,57.32-9.13c4.82-1.18,11.16-7.82,17.18-15.64,2-2.57,3.93-5.27,5.79-7.94h0c7.39-10.67,13.19-20.9,13.19-20.9s21.84-25.6,4.31-37c0,0-5.32-.9-8.74.09-10.83,3.11-19.71,25-21.24,28.34S542.15,347,541,347.65s-14.6,3.65-22,5.19c-10.7,2.24-30.79,6.41-30.79,6.41Z" transform="translate(-68.13 -165.42)" style="fill:#dbdff0"/><path d="M642.62,690.28s3.86,7.2,6.38,10.06,12.18,8,12.23,16.45c0,9.21-16.28,6.65-22.67,6.32s-6.87-5.26-9.56-10.47-5.4-4.33-5.9-8.53,2.6-13.83,2.6-13.83Z" transform="translate(-68.13 -165.42)" style="fill:#202338"/><path d="M545.38,689.44s-7.88,8.79-15.87,10.63-13.58,4.19-13.64,9.23,23,8.37,32.14,3.29c13.65-7.59,15-5.3,16.55-9.1s-1.81-13.93-1.72-15.14C563,686.86,545.38,689.44,545.38,689.44Z" transform="translate(-68.13 -165.42)" style="fill:#202338"/><path d="M546.26,685.24a35.09,35.09,0,0,0-.88,4.2c.15.09,18,2.22,17.46-1.09-.43-2.68-1.06-5.59-1.06-5.59Z" transform="translate(-68.13 -165.42)" style="fill:#81807e"/><path d="M625.92,687.5a36.31,36.31,0,0,0-.6,4c.14.1,18.1,3.31,18,0a15.78,15.78,0,0,0-1.65-5.61Z" transform="translate(-68.13 -165.42)" style="fill:#81807e"/><path d="M562.49,438.77s-6.49,63.05-9.87,84.64c-4,25.24-5.28,46.09-6.38,59.16-1.39,16.43-1.66,97.25-2.63,102.06S565.12,686,565.12,686s11.06-105.6,15.18-123.1c3.84-16.29,18.1-86.44,21.6-82s7.85,81.86,10.45,94.71S622.84,689,622.84,689s17.89,3.57,22.65-.46c0,0,2.16-86.7.51-110.8-.63-9.18,10.76-110.08-3.85-150.71C634.44,405.58,562.49,438.77,562.49,438.77Z" transform="translate(-68.13 -165.42)" style="fill:#292c47"/><path d="M563.42,428.14l-1.27,11.6s24.36,11.33,86.53,18l.16-10.48Z" transform="translate(-68.13 -165.42)" style="fill:#dbdff0"/><path d="M608.27,282.71s-7.61,1-25.5,2.4c-3.12,2.18-13,27.92-14,34.65s-1.57,33.24.15,44.07-11.23,58.84-6.72,66.79c0,0,44,18.23,88.5,17.23,0,0-.49-43.91,2.81-58.15,4.24-18.23,14.22-60.23,14.22-60.23s3.6-33-1-35.39c-10.31-5.34-35.54-9.66-35.54-9.66Z" transform="translate(-68.13 -165.42)" style="fill:#dbdff0"/><path d="M624.8,215.1S599.17,202.37,597,238s3.73,39.92,21.82,36.85,21.95-25.3,25.39-35.82S633.36,217.58,624.8,215.1Z" transform="translate(-68.13 -165.42)" style="fill:#eea987"/><path d="M603.28,287.85s6.09,3.51,27.89-3.43c0,0,1-14.34,6.46-27.24S607.78,272,607.78,272c.31.28.24,1.62-.16,3.45a37.65,37.65,0,0,1-1.61,5.4C604.36,285.15,604.72,284.38,603.28,287.85Z" transform="translate(-68.13 -165.42)" style="fill:#eea987"/><path d="M638.66,256.22s1.09-9.46-2.76-10.76-6.46,4-6.46,4l-3.15-.51s3.86-9.3.34-11.9-26.19-3.08-28.66-6.61,3.67-22.29,10-23.52,23.49-3.25,33.1,7.36c0,0,8.71,4.92,8.28,12.49S642.41,251.43,638.66,256.22Z" transform="translate(-68.13 -165.42)" style="fill:#fccca2"/><path d="M606,280.81c21-1.25,25.4-12.69,25.47-12.86-9.15,9.5-23.86,7.46-23.86,7.46A37.65,37.65,0,0,1,606,280.81Z" transform="translate(-68.13 -165.42)" style="fill:#a77860"/><path d="M631.87,241c1.52-3,8.13-1.9,6.92,3s-7.53,11.92-9.59,10.25S629.79,245.1,631.87,241Z" transform="translate(-68.13 -165.42)" style="fill:#eea987"/><path d="M478.64,211.06s-.27-7.09-2.78-9.93a52.24,52.24,0,0,0-9.39-7.85c-1.35-.69-6.76-4.62-4.07-5.17s15,4.25,16.53,6.19,3.52-7.84,5.43-9.18,19.48,4.73,17.28,11.19S492.94,208,492.2,209a12.11,12.11,0,0,0-1.55,2.86Z" transform="translate(-68.13 -165.42)" style="fill:#eea987"/><path d="M483.45,186.46s8.2-19.19,9.95-19.9,2.9-.09,2.22,1.74-7.33,18.83-7.33,18.83,14-20.68,15.27-21.58c.74-.52,3,.55,2.75,1.58s-12.79,22.43-12.79,22.43,13.12-19.29,14.45-19.71c1.17-.37,3.06,1.09,2.2,2.59s-11.86,20.19-11.86,20.19,10.54-13.09,12-13c1.28,0,2.89,1,0,4.38s-8.61,12-8.61,12Z" transform="translate(-68.13 -165.42)" style="fill:#eea987"/><path d="M208,338.74s-.89-.59,1.59-3,10.1-10.85,10.77-9.34S221.79,337.77,208,338.74Z" transform="translate(-68.13 -165.42)" style="fill:#b3c2b6"/><rect y="23.33" width="45.15" height="24.15" rx="4.81" style="fill:#3d74a1"/><polygon points="131.06 144.38 19.85 48.73 24.96 48.73 134.11 143.01 131.06 144.38" style="fill:#5e5c5a"/><path d="M221.09,329.57s-3.92-2.69-4.2-4.76.57-7.83-1-10.38-4.71-7.26-6.6-7.73-17.63,2.08-16.69,3.87,6.79,4.05,11.51,2.17,4.43,2,4.43,2-5.55,15.9-4,18.54,8.44,6.05,8.44,6.05S221.8,336.14,221.09,329.57Z" transform="translate(-68.13 -165.42)" style="fill:#eea987"/><path d="M262.34,690.24s-8.83,4.31-12.45,7.25-19.85,1.43-23.3,9.25,11.86,11.78,28.43,7.58,19.39-7.15,25-9.51c5.87-2.47-.35-15.48-.35-15.48Z" transform="translate(-68.13 -165.42)" style="fill:#3d74a1"/><path d="M430.81,669.61a20.5,20.5,0,0,0-4.21,9.47c-1,5.93-15.88,19.84-15.25,24.58s3.48,10.74,18.33,3,16.91-23.23,19.52-27.18,2.07-12.73-4-18.34S430.81,669.61,430.81,669.61Z" transform="translate(-68.13 -165.42)" style="fill:#3d74a1"/><path d="M308.86,467.55s-43.74,71.95-45.25,82.05-3.2,118.28-5.05,125.35,2.73,10.43,2.73,10.43,14.6,5,19-.68,3-9.08,3-9.08,14.46-87,16.31-101.29,48.46-75.38,52.66-69.82,12,58,15.48,65.61,56,96.24,60.07,96.24,19.18-2,16.82-12.45-36.51-87.32-36.51-96.07-10.69-90.45-13.42-101.42S308.86,467.55,308.86,467.55Z" transform="translate(-68.13 -165.42)" style="fill:#3c3f66"/><path d="M347.48,307.57s-29.25,7.6-35.31,12-45.2,38.7-48,38.81-43.85-31.94-43.85-31.94.09,8.74-12.36,12.33c0,0,45.55,47.77,54.3,47.32s49.46-31.3,49.46-31.3-.67,18.18,3,28.61,3.87,30.28,1.35,39.54-12.28,44.25-12.28,44.25,71.74,17,93.11,1.69c0,0-1.75-52.51-2.26-61.09s13.13-56,16.66-61.74,59.29-66,59-74.77,21.38-60.54,21.38-60.54-7.79-5.75-14.3-4.66c0,0-35.64,55.73-38.22,63.24s-32.42,37.47-37.92,40-25.12,1.57-25.12,1.57Z" transform="translate(-68.13 -165.42)" style="fill:#4183ba"/><path d="M376.11,310.91s-23.89,27.82-26.81,26.69-1.82-30-1.82-30a41.35,41.35,0,0,0,.8-4.23,34.27,34.27,0,0,0,.21-8.62c-.16-1.33,1.41-3,4-4.88,9.32-6.73,31.76-15.47,31.76-15.47S373.78,297.08,376.11,310.91Z" transform="translate(-68.13 -165.42)" style="fill:#eea987"/><path d="M262.42,691.12l-.39-4.5,18-1.24-.45,4.65s-.42,2.54-9,3.07S262.42,691.12,262.42,691.12Z" transform="translate(-68.13 -165.42)" style="fill:#db9c7c"/><path d="M427.82,666.36s1.44,5.3,1.78,6.4,9.15,2.07,12.27-2.83,3.33-5.86,3-8.11a10.13,10.13,0,0,0-1.17-3.19Z" transform="translate(-68.13 -165.42)" style="fill:#db9c7c"/><path d="M193,311.13s-3.23,2.59-1.07,8.11,9.21,14.64,11.56,14.55,7.45-2,8.16-3.11.32-17.57-2-18.4S200.65,313.82,193,311.13Z" transform="translate(-68.13 -165.42)" style="fill:#db9c7c"/><path d="M257.42,685.38s10.81,4.75,25.3,1.34c0,0,2.53-6,.58-11.1,0,0-9.94,4.4-24.5-2.16A22,22,0,0,0,257.42,685.38Z" transform="translate(-68.13 -165.42)" style="fill:#585d96"/><rect x="13.53" y="39.06" width="18.09" height="9.67" style="fill:#5e5c5a"/><path d="M383.3,477.68C383,474.92,383,474,383,474l1.23-.23s.14,1,.4,3.79Z" transform="translate(-68.13 -165.42)" style="fill:#59a9eb"/><path d="M435.35,645.87c-1.26-2.36-2.68-5-4.2-7.87l1.14-.6c1.52,2.85,2.93,5.5,4.2,7.86ZM427,630.13l-4.16-7.89,1.14-.6,4.16,7.88Zm-8.3-15.79c-1.38-2.64-2.75-5.29-4.11-7.91l1.14-.59,4.11,7.91Zm-8.19-15.84c-1.44-2.82-2.79-5.5-4-8l1.16-.58c1.23,2.46,2.58,5.14,4,7.95Zm-8-16c-1.53-3.17-2.81-5.89-3.8-8.09l1.17-.53c1,2.19,2.26,4.9,3.79,8.05ZM395.58,566c-.64-2.37-1.31-5.31-2-8.74l1.27-.25c.67,3.4,1.33,6.31,2,8.65ZM392,548.47c-.45-2.72-.91-5.68-1.38-8.82l1.27-.19c.47,3.13.93,6.09,1.39,8.8Zm-2.64-17.65C389,528,388.59,525,388.2,522l1.28-.16c.39,3,.78,6,1.16,8.83Zm-2.24-17.69c-.34-2.85-.69-5.83-1-8.86l1.28-.14c.34,3,.69,6,1,8.85Zm-2-17.72c-.31-2.92-.62-5.91-.93-8.87l1.29-.13c.3,3,.61,5.94.92,8.86Z" transform="translate(-68.13 -165.42)" style="fill:#59a9eb"/><path d="M441.51,657.34l-2.06-3.83,1.14-.61,2.06,3.83Z" transform="translate(-68.13 -165.42)" style="fill:#59a9eb"/><path d="M424.2,666.87s19.85.17,22.88-11.61c0,0-2.43-6.36-4.66-8.06,0,0-3.34,9.59-21.63,10.51C420.79,657.71,422,663.59,424.2,666.87Z" transform="translate(-68.13 -165.42)" style="fill:#585d96"/><path d="M373.67,290.31a46.67,46.67,0,0,1-25.39,13,34.27,34.27,0,0,0,.21-8.62c-.16-1.33,1.41-3,4-4.88Z" transform="translate(-68.13 -165.42)" style="fill:#a87860"/><path d="M349,239a59.11,59.11,0,0,0-7.4,20.08c-2.24,12.22-1.23,35.38,8.53,36s21.87-1.74,25.23-6.34,15.71-23.33,16.83-36S365.45,215.34,349,239Z" transform="translate(-68.13 -165.42)" style="fill:#eea987"/><path d="M385,272.9s8-11.18,10-21c1.18-5.84,2.38-11.84-1.77-15.09s-7.57-2.52-7.57-2.52-15.34-15.2-27.68-7.91-11.32,16.85-11.32,16.85,11-8.49,27.53-.08c0,0,4.79,7.49-1.83,18.48l8.33-1.32S386.62,266.07,385,272.9Z" transform="translate(-68.13 -165.42)" style="fill:#323657"/><path d="M376.89,261.28c.78-3.48,8.63-5.61,9.19-1.46s-4,13.91-8.07,13.57S376.89,261.28,376.89,261.28Z" transform="translate(-68.13 -165.42)" style="fill:#eea987"/><path d="M209.91,312.42a3.67,3.67,0,0,1,1.74,3.58c-.09,2.71-.14,2.24-.14,2.24s1.21.12,1.21,1.91a3.32,3.32,0,0,1-.85,2.52s.79.45.85,2.19a3,3,0,0,1-.75,2.41s.52.23.47,1.35a4.88,4.88,0,0,1-1,2.28Z" transform="translate(-68.13 -165.42)" style="fill:#db9c7c"/><path d="M499.38,635s6.39,17.7,10.39,19.61,10.07,12,6.53,17-24.14,17.18-25.74,20.63S484,642.85,499.38,635Z" transform="translate(-68.13 -165.42)" style="fill:#d6bab0"/><path d="M493.28,615.49l-7,27.94s-6.49-13.38-13.14-26.53c-1.67-3.3-3.34-6.58-4.93-9.63-3.61-7-6.76-12.73-8.27-14.8-4.82-6.61-20.63-32.83-26.62-40s-1.44-14.87-.56-25.35,14.23-47.72,16.58-59,13-51.76,13-51.76C481.61,425,493.28,615.49,493.28,615.49Z" transform="translate(-68.13 -165.42)" style="fill:#de9d7d"/><path d="M464.8,418.07s.85,20.79.17,26.2-1.57,36.31-2,51.22-4.83,43.75-3,49.81,9,40.63,11.13,51.92,6.37,83.48,6.37,83.48,9.41,2.39,17.52-3c0,0,1.07-31.46,5.51-47.58s4.3-45.25-1.44-63.63,4.86-45.08,12.19-59.83,19-73.16,18.21-80.72-6-23.11-16.26-35.16S464.8,418.07,464.8,418.07Z" transform="translate(-68.13 -165.42)" style="fill:#eea886"/><path d="M495,677.75s-7.78,1.7-11.69,1a12.56,12.56,0,0,0-6.77.52s-8.23,14.66-16.07,18.5-27,10-24.74,17.67,24.39,5.45,32.49,1.57,28.41-4.39,30.55-12.17S494.2,681.59,495,677.75Z" transform="translate(-68.13 -165.42)" style="fill:#d6bab0"/><path d="M459.11,423.11s-3.36,18.8-4.63,23.82-18.92,54.3-18.92,54.3,50.14,36.41,98.53,28.66c0,0,.82-66.78-1.67-96.71-1.8-21.67-11.49-35.1-15.69-41.15S459.11,423.11,459.11,423.11Z" transform="translate(-68.13 -165.42)" style="fill:#fccca2"/><path d="M473.19,616.9h0c-1.67-3.3-3.34-6.58-4.93-9.63.48-3.91-2.07-34.38-2.07-34.38C471.6,589.28,473.19,616.9,473.19,616.9Z" transform="translate(-68.13 -165.42)" style="fill:#c78564"/><path d="M495.57,216.65s9.29-6.15,17.91,4.42,6.77,21.15,4.09,30.54c-5.7,19.92-13.48,41.26-9.71,50.81s2.85,4.82,2.85,4.82-29,7.87-26.23-35.93S495.57,216.65,495.57,216.65Z" transform="translate(-68.13 -165.42)" style="fill:#323657"/><path d="M503.78,284.09s.58,5.27,2.63,7.26,19,5.09,23.25,10.24-1.95,33.68-3.42,41.38-9.06,24-8.57,29.57,3.53,19.95,5.16,24.13,6.74,22.1,7.91,25.52c0,0-42.69,13.57-72.44,5.39,0,0,1.86-27.66,1-33.49s-3.39-27.29-3.47-33.27-9.51-11.44-5.92-22.29c3.16-9.52,18.59-28.34,21.42-32s10-11,10-11,3.7-9.77,2.31-15.77l19.6-10.93S503,280.43,503.78,284.09Z" transform="translate(-68.13 -165.42)" style="fill:#fccca2"/><path d="M516.33,299.13c-1.92.74-10.7.6-9,11.1s8.43,20.35,11.79,24.78,17.58,27,19.71,31,1.47,7.26.76,14.57-.51,51.6-1,54.75l10.6-.86s11.65-52.89,11.17-59.76-2-12.63-7.23-23.5-16.22-38.9-18.79-42.62S526.46,295.22,516.33,299.13Z" transform="translate(-68.13 -165.42)" style="fill:#eea987"/><path d="M519.8,341.26s14.1-11,25.56-13.22c0,0-11-36.58-31.71-30.9C496.74,301.79,514,329.25,519.8,341.26Z" transform="translate(-68.13 -165.42)" style="fill:#fccca2"/><path d="M506.41,291.35s-11.47,19.89-26,20.82.85-16.65.85-16.65a35.54,35.54,0,0,0,1.53-5,36.5,36.5,0,0,0,.77-4.52h0a27.52,27.52,0,0,0,0-6.22l20-14.25S502.55,286.9,506.41,291.35Z" transform="translate(-68.13 -165.42)" style="fill:#eea987"/><path d="M482.07,285.36c-3.49-.08-13.25-1.08-18.39-23.46-6.27-27.34,6.5-41.76,17.58-44.56s21.38.92,27.28,15.17c0,0,4.32,11.12-2.14,31.13S485.81,285.44,482.07,285.36Z" transform="translate(-68.13 -165.42)" style="fill:#eea987"/><path d="M490.26,235s-14.91,1.14-28.48,22.19c0,0-6.86-25,10-36.68s28.83-2,33,2.91c0,0,6,1.27,6.31,12.54s8.08,27.85-8.43,36.16c0,0,1.49-12.58,0-15.5S496.08,255.77,490.26,235Z" transform="translate(-68.13 -165.42)" style="fill:#323657"/><path d="M501.75,251.65c.73-2,2.77-2.78,3.93-.7s-.07,10.2-3.07,11.13S500.29,255.62,501.75,251.65Z" transform="translate(-68.13 -165.42)" style="fill:#eea987"/><path d="M499.29,276S495,289.58,482.85,290.3a49.08,49.08,0,0,0,.68-5h0S491.63,284.2,499.29,276Z" transform="translate(-68.13 -165.42)" style="fill:#a77860"/><path d="M477.53,299.42s-23.37,7.43-28.36,28.07l9,3.33Z" transform="translate(-68.13 -165.42)" style="fill:#fccca2"/><path d="M538.93,424.13s.75,7.71-.47,9.27a44.62,44.62,0,0,0-3.3,5.68c-.87,1.61-4.57,5.21-4.91,7.14-.15.78.67,5.8.23,7.38s-1.69,4.69-.48,4.95,3-2.26,3-2.26-.33,1.46.64,2.06c1.89,1.17,3.11.26,3.11.26s.52,1.64,1.44,1.9a3.67,3.67,0,0,0,3.18-.36,3.14,3.14,0,0,0,2.23,1,3.61,3.61,0,0,0,2.89-1.75s2.26.64,3.12-.59A11.22,11.22,0,0,0,551,455c.3-1.17,1.57-11.78-.4-19.27a37.89,37.89,0,0,1-.79-14.38Z" transform="translate(-68.13 -165.42)" style="fill:#eea886"/></svg>