<svg height="512" viewBox="0 0 512 512" width="512" xmlns="http://www.w3.org/2000/svg"><rect fill="#2dc2b4" height="464" rx="16" width="256" x="128" y="24"/><circle cx="256" cy="208" fill="#35e0d1" r="96"/><rect fill="#2ab3a6" height="32" rx="16" width="128" x="192" y="24"/><path d="m240 296h32v56h-32z" fill="#cbcbcb"/><path d="m272 318.638v-16.167a84.479 84.479 0 0 1 -32 0v16.167a94.66 94.66 0 0 0 32 0z" fill="#b9b9b9"/><path d="m256 312a104 104 0 1 1 104-104 104.12 104.12 0 0 1 -104 104zm0-192a88 88 0 1 0 88 88 88.1 88.1 0 0 0 -88-88z" fill="#217aac"/><path d="m312.008 331.133a8 8 0 0 1 -3.508-15.195 119.782 119.782 0 0 0 22.492-14.258 8 8 0 1 1 10.016 12.484 136.356 136.356 0 0 1 -25.508 16.164 7.975 7.975 0 0 1 -3.492.805z" fill="#2ab3a6"/><g fill="#3e8cc7"><path d="m248 200h-40v-40h40zm-24-16h8v-8h-8z"/><path d="m304 200h-40v-40h40zm-24-16h8v-8h-8z"/><path d="m248 256h-40v-40h40zm-24-16h8v-8h-8z"/><path d="m288 216h24v16h-24z"/><path d="m296 240h16v16h-16z"/><path d="m280 240v-8-16h-16v16 8 8 8h24v-16z"/></g><path d="m256 416a16 16 0 0 1 -16-16v-48h32v48a16 16 0 0 1 -16 16z" fill="#217aac"/></svg>