<?xml version="1.0" encoding="utf-8"?>
<!-- Generator: Adobe Illustrator 24.0.1, SVG Export Plug-In . SVG Version: 6.00 Build 0)  -->
<svg version="1.1" id="Laag_1" xmlns="http://www.w3.org/2000/svg" xmlns:xlink="http://www.w3.org/1999/xlink" x="0px" y="0px"
	 viewBox="0 0 48.5 180.5" style="enable-background:new 0 0 48.5 180.5;" xml:space="preserve">
<style type="text/css">
	.st0{fill:#EA8585;}
	.st1{fill:#FFFFFF;}
</style>
<g>
	<path class="st0" d="M23.1,164c0.4-0.1,0.8,0.2,0.8,0.7c0,0.4,0.2,0.7,0.6,0.7c0.4,0.1,0.8-0.3,0.8-0.7c0-0.9-0.6-1.7-1.4-2v-0.1
		c0-0.4-0.2-0.7-0.6-0.7c-0.4-0.1-0.8,0.2-0.8,0.7v0.1c-1.1,0.4-1.7,1.6-1.3,2.7c0.3,0.9,1.1,1.4,2,1.4c0.4,0,0.7,0.4,0.7,0.8
		c-0.1,0.3-0.2,0.6-0.6,0.6c-0.4,0.1-0.8-0.2-0.8-0.7c0-0.4-0.2-0.7-0.6-0.7c-0.4-0.1-0.8,0.3-0.8,0.7c0,0.9,0.6,1.7,1.4,2v0.1
		c0,0.4,0.2,0.7,0.6,0.7c0.4,0.1,0.8-0.2,0.8-0.7v-0.1c1.1-0.4,1.7-1.6,1.3-2.7c-0.3-0.9-1.1-1.4-2-1.4c-0.4,0-0.7-0.4-0.7-0.8
		C22.6,164.3,22.8,164,23.1,164z"/>
	<path class="st0" d="M23.3,159.1c-3.9,0-7,3.1-7,7c0,3.9,3.1,7,7,7c3.9,0,7-3.1,7-7S27.1,159.1,23.3,159.1z M23.3,171.7
		c-3.1,0-5.6-2.5-5.6-5.6c0-3.1,2.5-5.6,5.6-5.6s5.6,2.5,5.6,5.6C28.9,169.2,26.3,171.7,23.3,171.7z"/>
	<path class="st0" d="M45,152.1c-0.4-0.2-0.9-0.3-1.4-0.1c-2.2,1-4.6,1.5-7.1,1.4c-2.8,0-7-1.1-11-2.2c-3.9-1-7.6-2-10-2
		c-2.9,0-5.7,0.7-8.3,2c-0.5,0.2-0.7,0.7-0.7,1.2v2.1c-0.7,0.2-1.4,0.6-2,0.9c-0.5,0.2-0.7,0.7-0.7,1.2v18c0,0.6,0.3,1.1,0.9,1.3
		c0.4,0.2,0.8,0.1,1.2-0.1c2.2-1,4.6-1.5,7.1-1.4c2.8,0,7,1.1,11,2.2c3.9,1,7.6,2,10,2c2.9,0,5.7-0.7,8.3-2c0.5-0.2,0.7-0.7,0.7-1.2
		v-2.1c0.7-0.2,1.4-0.6,2-0.9c0.5-0.2,0.7-0.7,0.7-1.2v-18C45.7,152.8,45.4,152.3,45,152.1z M33.7,177.3c-2.3,0-5.9-1-9.6-2
		c-4.1-1.1-8.3-2.2-11.4-2.2c-2.7-0.1-5.3,0.5-7.7,1.6v-18c2.4-1.2,5-1.8,7.7-1.8c2.3,0,5.9,0.9,9.6,2c4.1,1.1,8.3,2.2,11.3,2.2
		c2.7,0.1,5.2-0.5,7.7-1.6l0.1,15.3l0,0v2.6C39.1,176.7,36.5,177.3,33.7,177.3z M42.9,171.9v-14.4c0-0.5-0.2-0.9-0.7-1.2
		c-0.4-0.2-0.9-0.3-1.4-0.1c-2.2,1-4.6,1.5-7.1,1.4c-2.8,0-7-1.1-11-2.2c-3.9-1-7.6-2-10-2c-1.7,0-3.3,0.2-4.9,0.7v-1.6
		c2.4-1.2,5-1.8,7.7-1.8c2.3,0,5.9,1,9.7,2c4.1,1.1,8.3,2.2,11.4,2.2c2.7,0.1,5.3-0.5,7.7-1.6v18C43.8,171.5,43.3,171.7,42.9,171.9z
		"/>
	<path class="st0" d="M33.7,165.4h-1.4c-0.4,0-0.7,0.2-0.7,0.6c-0.1,0.4,0.2,0.8,0.7,0.8h1.4c0.4,0,0.7-0.2,0.7-0.6
		C34.5,165.8,34.2,165.4,33.7,165.4z"/>
	<path class="st0" d="M14.1,165.4h-1.4c-0.4,0-0.7,0.2-0.7,0.6c-0.1,0.4,0.2,0.8,0.7,0.8h1.4c0.4,0,0.7-0.2,0.7-0.6
		C14.9,165.8,14.5,165.4,14.1,165.4z"/>
</g>
<g>
	<path class="st0" d="M40.8,56H9c-3.1,0-5.7,2.5-5.7,5.7v56.8c0,3.1,2.5,5.7,5.7,5.7h31.8c3.1,0,5.7-2.5,5.7-5.7V61.6
		C46.4,58.5,43.9,56,40.8,56z M5.6,67.4h38.6v45.4H5.6V67.4z M9,58.4h31.8c1.9,0,3.4,1.5,3.4,3.4v3.4H5.6v-3.4
		C5.6,59.9,7.1,58.4,9,58.4z M40.8,121.9H9c-1.9,0-3.4-1.5-3.4-3.4v-3.4h38.6v3.4C44.2,120.3,42.7,121.9,40.8,121.9z"/>
	<path class="st0" d="M26,117.3h-2.2c-0.6,0-1.1,0.5-1.2,1.1c0,0.7,0.5,1.2,1.1,1.2h2.2c0.6,0,1.1-0.5,1.2-1.1
		C27.1,117.9,26.6,117.3,26,117.3z"/>
	<path class="st0" d="M10.1,62.9h2.2c0.6,0,1.1-0.5,1.2-1.1c0-0.7-0.5-1.2-1.1-1.2h-2.2c-0.6,0-1.1,0.5-1.2,1.1S9.4,62.9,10.1,62.9z
		"/>
	<path class="st0" d="M16.9,62.9h4.5c0.6,0,1.1-0.5,1.2-1.1c0-0.7-0.5-1.2-1.1-1.2h-4.6c-0.6,0-1.1,0.5-1.2,1.1
		C15.7,62.3,16.3,62.9,16.9,62.9z"/>
	<path class="st0" d="M13.5,84.5H18c0.6,0,1.1-0.5,1.1-1.1v-4.5c0-0.6-0.5-1.1-1.1-1.1h-4.5c-0.6,0-1.1,0.5-1.1,1.1v4.4
		C12.4,83.9,12.9,84.5,13.5,84.5z M14.6,79.9h2.3v2.3h-2.3V79.9z"/>
	<path class="st0" d="M36.3,77.7h-4.5c-0.6,0-1.1,0.5-1.1,1.1v4.5c0,0.6,0.5,1.1,1.1,1.1h4.5c0.6,0,1.1-0.5,1.1-1.1v-4.5
		C37.4,78.2,36.9,77.7,36.3,77.7z M35.1,82.2h-2.2v-2.3h2.3L35.1,82.2L35.1,82.2z"/>
	<path class="st0" d="M18,95.8h-4.5c-0.6,0-1.1,0.5-1.1,1.1v4.5c0,0.6,0.5,1.1,1.1,1.1H18c0.6,0,1.1-0.5,1.1-1.1v-4.5
		C19.2,96.3,18.7,95.8,18,95.8z M16.9,100.3h-2.3V98h2.3V100.3z"/>
	<path class="st0" d="M22.6,79.9h4.5c0.6,0,1.1-0.5,1.2-1.1c0-0.7-0.5-1.2-1.1-1.2h-4.5c-0.6,0-1.1,0.5-1.2,1.1
		C21.4,79.4,21.9,79.9,22.6,79.9z"/>
	<path class="st0" d="M13.4,93.4c0.7,0,1.2-0.5,1.2-1.1V90h2.3v1.1c0,0.6,0.4,1.1,1,1.2c0.7,0.1,1.3-0.4,1.3-1.1v-1.1h3.4
		c0.6,0,1.1-0.5,1.2-1.1c0-0.7-0.5-1.2-1.1-1.2h-2.3v-1.1c0-0.6-0.5-1.1-1.1-1.2c-0.7,0-1.2,0.5-1.2,1.1v1.1h-3.5
		c0-0.6-0.5-1.2-1.2-1.1c-0.6,0-1.1,0.6-1.1,1.2v4.5C12.4,92.9,12.8,93.4,13.4,93.4z"/>
	<path class="st0" d="M35.1,99.2v1.1H34c-0.5,0-0.9,0.3-1.1,0.8c-0.2,0.8,0.3,1.5,1.1,1.5h2.3c0.6,0,1.1-0.5,1.1-1.1v-2.3
		c0-0.7-0.7-1.3-1.5-1.1C35.4,98.2,35.1,98.7,35.1,99.2z"/>
	<path class="st0" d="M29.3,100.3h-2.2V98h1.1c0.6,0,1.1-0.5,1.2-1.1c0-0.7-0.5-1.2-1.1-1.2h-1.1v-1c0-0.6-0.4-1.1-1-1.1
		s-1.1,0.5-1.1,1.1h-1c-0.6,0-1.1,0.4-1.1,1s0.5,1.1,1.1,1.1h0.8v3.5h-1.2v-1.1c0-0.5-0.3-0.9-0.8-1.1c-0.8-0.2-1.5,0.3-1.5,1.1v2.3
		c0,0.6,0.5,1.1,1.1,1.1h6.8c0.5,0,0.9-0.3,1.1-0.8C30.7,101,30.1,100.3,29.3,100.3z"/>
	<path class="st0" d="M35.1,87.9v6.7c0,0.6,0.5,1.1,1.1,1.2c0.7,0,1.2-0.5,1.2-1.1v-6.8c0-0.6-0.5-1.2-1.2-1.1
		C35.6,86.7,35.1,87.3,35.1,87.9z"/>
	<path class="st0" d="M29.4,90h1v1.1c0,0.5,0.3,1,0.8,1.1c0.8,0.2,1.6-0.3,1.6-1.1v-2.2c0-0.7-0.5-1.2-1.2-1.2v-1.1
		c0-0.6-0.4-1.1-1-1.2c-0.7-0.1-1.3,0.4-1.3,1.1v1.1c-0.7,0-1.2,0.6-1.1,1.3C28.4,89.6,28.9,90,29.4,90z"/>
	<path class="st0" d="M22.6,85.5h2.3c0.7,0,1.2-0.5,1.2-1.2h0.8c0.6,0,1.1-0.4,1.1-1s-0.5-1.1-1.1-1.1h-1.1c0-0.6-0.5-1.1-1.1-1.1
		s-1,0.5-1,1.1v1h-1.1c-0.6,0-1.1,0.5-1.2,1.1C21.4,85,21.9,85.5,22.6,85.5z"/>
	<path class="st0" d="M22.5,92.3h-2.2c-0.6,0-1.1,0.5-1.2,1.1c0,0.7,0.5,1.2,1.1,1.2h2.3c0.6,0,1.2-0.5,1.1-1.2
		C23.7,92.8,23.1,92.3,22.5,92.3z"/>
	<path class="st0" d="M24.9,89v2.2c0,0.6,0.5,1.1,1.1,1.2c0.7,0,1.2-0.5,1.2-1.1v-2.2c0-0.6-0.5-1.1-1.1-1.2
		C25.4,87.8,24.9,88.3,24.9,89z"/>
	<path class="st0" d="M33.9,98v-2.2c0-0.6-0.5-1.1-1.1-1.2c-0.7,0-1.2,0.5-1.2,1.1v2.2c0,0.6,0.5,1.1,1.1,1.2
		C33.4,99.2,33.9,98.7,33.9,98z"/>
	<path class="st0" d="M30.5,92.3h-2.2c-0.6,0-1.1,0.5-1.2,1.1c0,0.7,0.5,1.2,1.1,1.2h2.2c0.6,0,1.1-0.5,1.2-1.1
		C31.7,92.8,31.2,92.3,30.5,92.3z"/>
</g>
<g>
	<path class="st0" d="M33.9,43.7c0,5-4,9-9,9s-9-4-9-9s4-9,9-9C29.8,34.7,33.8,38.8,33.9,43.7z M17,43.7c0,4.3,3.5,7.9,7.9,7.9
		s7.9-3.5,7.9-7.9c0-4.3-3.5-7.9-7.9-7.9C20.5,35.9,17,39.4,17,43.7z"/>
	<path class="st0" d="M31,42.1c0,0.1-0.1,0.3-0.2,0.4l-5.6,5.6c-0.2,0.2-0.6,0.2-0.8,0l-5.5-5.6c-0.2-0.2-0.2-0.6,0-0.8
		s0.6-0.2,0.8,0l0,0l5.2,5.2l5.2-5.2c0.2-0.2,0.6-0.2,0.8,0C30.9,41.8,31,41.9,31,42.1z"/>
</g>
<g>
	<path class="st0" d="M33.9,136.7c0,5-4,9-9,9s-9-4-9-9s4-9,9-9C29.8,127.8,33.8,131.8,33.9,136.7z M17,136.7c0,4.3,3.5,7.9,7.9,7.9
		s7.9-3.5,7.9-7.9c0-4.3-3.5-7.9-7.9-7.9C20.5,128.9,17,132.4,17,136.7z"/>
	<path class="st0" d="M31,135.1c0,0.1-0.1,0.3-0.2,0.4l-5.6,5.6c-0.2,0.2-0.6,0.2-0.8,0l-5.6-5.6c-0.2-0.2-0.2-0.6,0-0.8
		s0.6-0.2,0.8,0l0,0l5.2,5.2l5.2-5.2c0.2-0.2,0.6-0.2,0.8,0C30.9,134.8,31,134.9,31,135.1z"/>
</g>
<g>
	<g>
		<g>
			<path class="st0" d="M5.3,28.1l0,1.5c0,0.4,0.3,0.7,0.7,0.7l32.6,0c0.4,0,0.7-0.3,0.7-0.7v-1.5c0-0.4-0.3-0.7-0.7-0.7
				c-0.4,0-0.8-0.4-0.7-0.8c0-0.4,0.4-0.6,0.8-0.6c0.4,0,0.7-0.3,0.7-0.7v-2.2c0-0.4-0.3-0.7-0.7-0.7c-0.4,0-0.8-0.4-0.7-0.8
				c0-0.4,0.4-0.6,0.8-0.6c0.4,0,0.7-0.3,0.7-0.7l0-2.2c0-0.4-0.3-0.7-0.7-0.7c-0.4,0-0.8-0.4-0.7-0.8c0-0.4,0.4-0.6,0.8-0.6
				c0.4,0,0.7-0.3,0.7-0.7v-1.5c0-0.4-0.3-0.7-0.7-0.7L6,12.5c-0.4,0-0.7,0.3-0.7,0.7l0,1.5c0,0.4,0.3,0.7,0.7,0.7
				c0.4,0,0.8,0.4,0.7,0.8c0,0.4-0.4,0.6-0.8,0.6c-0.4,0-0.7,0.3-0.7,0.7l0,2.2c0,0.4,0.3,0.7,0.7,0.7c0.4,0,0.8,0.4,0.7,0.8
				c0,0.4-0.4,0.6-0.8,0.6c-0.4,0-0.7,0.3-0.7,0.7l0,2.2c0,0.4,0.3,0.7,0.8,0.7c0.4,0,0.7,0.3,0.7,0.7c0,0.4-0.3,0.7-0.7,0.7
				C5.6,27.3,5.3,27.7,5.3,28.1z M6.8,28.7c1.2-0.4,1.8-1.7,1.4-2.8c-0.2-0.6-0.7-1.1-1.4-1.4l0-1c1.2-0.4,1.8-1.7,1.4-2.8
				c-0.2-0.6-0.7-1.1-1.4-1.4l0-1c1.2-0.4,1.8-1.7,1.4-2.8c-0.2-0.6-0.7-1.1-1.4-1.4V14l31.1,0v0.1c-1.2,0.4-1.8,1.7-1.4,2.8
				c0.2,0.6,0.7,1.1,1.4,1.4v1c-1.2,0.4-1.8,1.7-1.4,2.8c0.2,0.6,0.7,1.1,1.4,1.4v1c-1.2,0.4-1.8,1.7-1.4,2.8
				c0.2,0.6,0.7,1.1,1.4,1.4v0.1l-31.1,0V28.7z"/>
			<path class="st0" d="M34.9,15.5l-16.3,0c-0.4,0-0.7,0.3-0.7,0.7l0,10.4c0,0.4,0.3,0.7,0.7,0.7l16.3,0c0.4,0,0.7-0.3,0.7-0.7
				l0-10.4C35.7,15.8,35.3,15.5,34.9,15.5z M34.2,25.8l-14.8,0l0-8.9l14.8,0L34.2,25.8z"/>
			<path class="st0" d="M26.8,25.1c2,0,3.7-1.7,3.7-3.7c0-2-1.7-3.7-3.7-3.7c-2,0-3.7,1.7-3.7,3.7C23.1,23.4,24.7,25.1,26.8,25.1z
				 M26.8,19.1c1.2,0,2.2,1,2.2,2.2c0,1.2-1,2.2-2.2,2.2c-1.2,0-2.2-1-2.2-2.2C24.5,20.1,25.5,19.1,26.8,19.1z"/>
			<path class="st0" d="M16.4,28.1h-1.5v-1.5l1.5,0V28.1z"/>
			<path class="st0" d="M16.4,25.1l-1.5,0l0-1.5h1.5L16.4,25.1z"/>
			<path class="st0" d="M16.4,22.1h-1.5l0-1.5l1.5,0L16.4,22.1z"/>
			<path class="st0" d="M16.4,19.2l-1.5,0l0-1.5h1.5V19.2z"/>
			<path class="st0" d="M16.4,16.2h-1.5l0-1.5l1.5,0V16.2z"/>
		</g>
	</g>
	<g id="XMLID_1_">
		<g>
			<path class="st0" d="M43.9,18.5c0.1,0.4-0.2,0.8-0.6,0.9l-32.2,5.5c-0.4,0.1-0.8-0.2-0.9-0.6l-0.2-1.5c-0.1-0.4,0.2-0.8,0.6-0.9
				c0.4-0.1,0.7-0.5,0.6-0.9c-0.1-0.4-0.4-0.7-0.8-0.6c-0.4,0.1-0.8-0.2-0.9-0.6l-0.4-2.2c-0.1-0.4,0.2-0.8,0.6-0.9
				c0.4-0.1,0.7-0.4,0.6-0.8c0-0.5-0.4-0.8-0.9-0.7c-0.4,0.1-0.8-0.2-0.9-0.6l-0.4-2.2c-0.1-0.4,0.2-0.8,0.6-0.9
				c0.4-0.1,0.7-0.4,0.6-0.8c0-0.5-0.4-0.8-0.9-0.7C8.3,10.3,7.9,10,7.8,9.6L7.6,8.1C7.5,7.7,7.8,7.3,8.2,7.3l32.2-5.5
				c0.4-0.1,0.8,0.2,0.9,0.6l0.2,1.5c0.1,0.4-0.2,0.8-0.6,0.9c-0.4,0.1-0.7,0.4-0.6,0.8c0,0.5,0.4,0.8,0.9,0.7
				c0.4-0.1,0.8,0.2,0.9,0.6L42.3,9c0.1,0.4-0.2,0.8-0.6,0.9c-0.4,0.1-0.7,0.4-0.6,0.8c0,0.5,0.4,0.8,0.9,0.7
				c0.4-0.1,0.8,0.2,0.9,0.6l0.4,2.2c0.1,0.4-0.2,0.8-0.6,0.9c-0.4,0.1-0.7,0.4-0.6,0.8c0,0.5,0.4,0.8,0.9,0.7
				c0.4-0.1,0.8,0.2,0.9,0.6L43.9,18.5z M42.3,18l0-0.1c-0.7-0.1-1.2-0.5-1.6-1.1c-0.6-1.1-0.2-2.4,0.9-3l-0.2-1
				c-0.7-0.1-1.2-0.5-1.6-1.1c-0.6-1.1-0.2-2.4,0.9-3l-0.2-1c-0.7-0.1-1.2-0.5-1.6-1.1c-0.6-1.1-0.2-2.4,0.9-3l0-0.1L9.1,8.6l0,0.1
				c0.7,0.1,1.2,0.5,1.6,1.1c0.6,1.1,0.2,2.4-0.9,3l0.2,1c0.7,0.1,1.2,0.5,1.6,1.1c0.6,1.1,0.2,2.4-0.9,3l0.2,1
				c0.7,0.1,1.2,0.5,1.6,1.1c0.6,1.1,0.2,2.4-0.9,3l0,0.1L42.3,18z"/>
			<path class="st1" d="M42.3,17.9l0,0.1l-30.7,5.2l0-0.1c1.1-0.6,1.5-2,0.9-3c-0.3-0.6-0.9-1-1.6-1.1l-0.2-1c1.1-0.6,1.5-2,0.9-3
				c-0.3-0.6-0.9-1-1.6-1.1l-0.2-1c1.1-0.6,1.5-2,0.9-3c-0.3-0.6-0.9-1-1.6-1.1l0-0.1l30.7-5.2l0,0.1c-1.1,0.6-1.5,2-0.9,3
				c0.3,0.6,0.9,1,1.6,1.1l0.2,1c-1.1,0.6-1.5,2-0.9,3c0.3,0.6,0.9,1,1.6,1.1l0.2,1c-1.1,0.6-1.5,2-0.9,3
				C41.1,17.3,41.6,17.7,42.3,17.9z M39.2,17c0.4-0.1,0.7-0.5,0.6-0.9L38,5.9c-0.1-0.4-0.5-0.7-0.9-0.6L21.1,8.1
				c-0.4,0.1-0.7,0.5-0.6,0.9l1.7,10.2c0.1,0.4,0.5,0.7,0.9,0.6L39.2,17z M21,20.9l-0.2-1.5l-1.5,0.2l0.2,1.5L21,20.9z M20.5,17.9
				l-0.2-1.5l-1.5,0.2l0.2,1.5L20.5,17.9z M20,15l-0.2-1.5l-1.5,0.2l0.2,1.5L20,15z M19.5,12.1l-0.2-1.5l-1.5,0.2l0.2,1.5L19.5,12.1
				z M19,9.2l-0.2-1.5L17.3,8l0.2,1.5L19,9.2z"/>
			<path class="st0" d="M39.8,16.2c0.1,0.4-0.2,0.8-0.6,0.9l-16.1,2.7c-0.4,0.1-0.8-0.2-0.9-0.6L20.5,8.9c-0.1-0.4,0.2-0.8,0.6-0.9
				l16.1-2.7c0.4-0.1,0.8,0.2,0.9,0.6L39.8,16.2z M38.2,15.7l-1.5-8.8L22.1,9.4l1.5,8.8L38.2,15.7z"/>
			<path class="st1" d="M36.7,6.9l1.5,8.8l-14.6,2.5l-1.5-8.8L36.7,6.9z M30.7,16.2c2-0.3,3.4-2.3,3-4.3c-0.3-2-2.3-3.4-4.3-3
				s-3.4,2.3-3,4.3C26.8,15.2,28.7,16.5,30.7,16.2z"/>
			<path class="st0" d="M33.8,11.9c0.3,2-1,3.9-3,4.3c-2,0.3-3.9-1-4.3-3c-0.3-2,1-3.9,3-4.3S33.4,9.9,33.8,11.9z M30.5,14.7
				c1.2-0.2,2-1.4,1.8-2.6c-0.2-1.2-1.4-2-2.6-1.8c-1.2,0.2-2,1.4-1.8,2.6S29.3,14.9,30.5,14.7z"/>
			<path class="st1" d="M32.3,12.1c0.2,1.2-0.6,2.4-1.8,2.6c-1.2,0.2-2.4-0.6-2.6-1.8s0.6-2.4,1.8-2.6
				C30.9,10.1,32.1,10.9,32.3,12.1z"/>
			<rect x="19.4" y="19.5" transform="matrix(0.9857 -0.1684 0.1684 0.9857 -3.125 3.6844)" class="st0" width="1.5" height="1.5"/>
			
				<rect x="18.9" y="16.6" transform="matrix(0.9857 -0.1686 0.1686 0.9857 -2.6425 3.5627)" class="st0" width="1.5" height="1.5"/>
			
				<rect x="18.4" y="13.7" transform="matrix(0.9857 -0.1686 0.1686 0.9857 -2.1568 3.4366)" class="st0" width="1.5" height="1.5"/>
			
				<rect x="17.9" y="10.8" transform="matrix(0.9859 -0.1673 0.1673 0.9859 -1.6605 3.2842)" class="st0" width="1.5" height="1.5"/>
			<rect x="17.4" y="7.8" transform="matrix(0.9857 -0.1686 0.1686 0.9857 -1.1855 3.1845)" class="st0" width="1.5" height="1.5"/>
		</g>
		<g>
		</g>
	</g>
</g>
</svg>
