<?xml version="1.0" encoding="utf-8"?>
<!-- Generator: Adobe Illustrator 24.0.1, SVG Export Plug-In . SVG Version: 6.00 Build 0)  -->
<svg version="1.1" id="Laag_1" xmlns="http://www.w3.org/2000/svg" xmlns:xlink="http://www.w3.org/1999/xlink" x="0px" y="0px"
	 viewBox="0 0 70 203" style="enable-background:new 0 0 70 203;" xml:space="preserve">
<style type="text/css">
	.st0{fill:url(#SVGID_1_);}
	.st1{fill:url(#SVGID_2_);}
	.st2{fill:url(#SVGID_3_);}
	.st3{fill:url(#SVGID_4_);}
	.st4{fill:url(#SVGID_5_);}
	.st5{fill:url(#SVGID_6_);}
	.st6{fill:url(#SVGID_7_);}
	.st7{fill:url(#SVGID_8_);}
	.st8{fill:url(#SVGID_9_);}
	.st9{fill:url(#SVGID_10_);}
	.st10{fill:url(#SVGID_11_);}
	.st11{fill:url(#SVGID_12_);}
	.st12{fill:url(#SVGID_13_);}
	.st13{fill:url(#SVGID_14_);}
	.st14{fill:url(#SVGID_15_);}
	.st15{fill:url(#SVGID_16_);}
	.st16{fill:url(#SVGID_17_);}
	.st17{fill:url(#SVGID_18_);}
	.st18{fill:url(#SVGID_19_);}
	.st19{fill:url(#SVGID_20_);}
	.st20{fill:url(#SVGID_21_);}
	.st21{fill:url(#SVGID_22_);}
	.st22{fill:url(#SVGID_23_);}
	.st23{fill:url(#SVGID_24_);}
	.st24{fill:url(#SVGID_25_);}
	.st25{fill:url(#SVGID_26_);}
	.st26{fill:url(#SVGID_27_);}
	.st27{fill:url(#SVGID_28_);}
	.st28{fill:url(#SVGID_29_);}
	.st29{fill:url(#SVGID_30_);}
	.st30{fill:url(#SVGID_31_);}
	.st31{fill:url(#SVGID_32_);}
	.st32{fill:url(#SVGID_33_);}
	.st33{fill:url(#SVGID_34_);}
	.st34{fill:url(#SVGID_35_);}
</style>
<g>
	
		<linearGradient id="SVGID_1_" gradientUnits="userSpaceOnUse" x1="-264.0642" y1="-671.2775" x2="-264.0642" y2="-757.3553" gradientTransform="matrix(0.6568 0 0 0.6568 206.1674 644.2623)">
		<stop  offset="0" style="stop-color:#E93E3A"/>
		<stop  offset="0.355" style="stop-color:#ED683C"/>
		<stop  offset="0.705" style="stop-color:#F3903F"/>
		<stop  offset="1" style="stop-color:#FDC70C"/>
	</linearGradient>
	<path class="st0" d="M32.5,178.6c0.7-0.1,1.3,0.4,1.3,1.1c0,0.6,0.4,1.1,1,1.2c0.7,0.1,1.3-0.5,1.3-1.1c0-1.4-0.9-2.7-2.3-3.2v-0.2
		c0-0.6-0.4-1.1-1-1.2c-0.7-0.1-1.3,0.4-1.3,1.1v0.2c-1.8,0.6-2.7,2.6-2.1,4.3c0.5,1.4,1.8,2.3,3.2,2.3c0.7,0,1.2,0.6,1.1,1.3
		c-0.1,0.5-0.4,0.9-0.9,1c-0.7,0.1-1.3-0.4-1.3-1.1c0-0.6-0.4-1.1-1-1.2c-0.7-0.1-1.3,0.5-1.3,1.1c0,1.4,0.9,2.7,2.3,3.2v0.2
		c0,0.6,0.4,1.1,1,1.2c0.7,0.1,1.3-0.4,1.3-1.1v-0.2c1.8-0.6,2.7-2.6,2.1-4.3c-0.5-1.4-1.8-2.3-3.2-2.3c-0.7,0-1.2-0.6-1.1-1.3
		C31.7,179.1,32,178.6,32.5,178.6z"/>
	
		<linearGradient id="SVGID_2_" gradientUnits="userSpaceOnUse" x1="-264.1117" y1="-671.2141" x2="-264.1117" y2="-757.4595" gradientTransform="matrix(0.6568 0 0 0.6568 206.1674 644.2623)">
		<stop  offset="0" style="stop-color:#E93E3A"/>
		<stop  offset="0.355" style="stop-color:#ED683C"/>
		<stop  offset="0.705" style="stop-color:#F3903F"/>
		<stop  offset="1" style="stop-color:#FDC70C"/>
	</linearGradient>
	<path class="st1" d="M32.7,170.6c-6.3,0-11.3,5.1-11.3,11.3c0,6.3,5.1,11.3,11.3,11.3c6.3,0,11.3-5.1,11.3-11.3
		C44,175.7,38.9,170.6,32.7,170.6z M32.7,191c-5,0-9.1-4.1-9.1-9.1c0-5,4.1-9.1,9.1-9.1c5,0,9.1,4.1,9.1,9.1
		C41.8,187,37.7,191,32.7,191z"/>
	
		<linearGradient id="SVGID_3_" gradientUnits="userSpaceOnUse" x1="-260.6194" y1="-671.2133" x2="-260.6194" y2="-757.4605" gradientTransform="matrix(0.6568 0 0 0.6568 206.1674 644.2623)">
		<stop  offset="0" style="stop-color:#E93E3A"/>
		<stop  offset="0.355" style="stop-color:#ED683C"/>
		<stop  offset="0.705" style="stop-color:#F3903F"/>
		<stop  offset="1" style="stop-color:#FDC70C"/>
	</linearGradient>
	<path class="st2" d="M67.9,159.3c-0.7-0.4-1.5-0.5-2.2-0.1c-3.6,1.6-7.5,2.4-11.5,2.3c-4.5,0-11.3-1.8-17.8-3.5
		c-6.3-1.7-12.3-3.3-16.2-3.3c-4.7,0-9.3,1.1-13.5,3.2c-0.8,0.4-1.2,1.2-1.2,2v3.4c-1.1,0.4-2.2,0.9-3.3,1.4c-0.8,0.4-1.2,1.2-1.2,2
		l0,29.1c0,0.9,0.5,1.8,1.4,2.1c0.6,0.3,1.3,0.2,1.9-0.1c3.6-1.6,7.5-2.4,11.5-2.3c4.5,0,11.3,1.8,17.8,3.5
		c6.3,1.7,12.3,3.3,16.2,3.3c4.7,0,9.3-1.1,13.5-3.2c0.8-0.4,1.2-1.2,1.2-2v-3.4c1.1-0.4,2.2-0.9,3.3-1.4c0.8-0.4,1.2-1.2,1.2-2
		v-29.1C69,160.5,68.6,159.7,67.9,159.3z M49.7,200.1c-3.7,0-9.5-1.6-15.6-3.2c-6.7-1.8-13.5-3.6-18.4-3.6
		c-4.3-0.1-8.6,0.8-12.5,2.6l0-29.1c3.9-1.9,8.1-2.9,12.5-2.9c3.7,0,9.5,1.5,15.6,3.2c6.6,1.8,13.5,3.6,18.3,3.6
		c4.3,0.1,8.5-0.8,12.4-2.6l0.1,24.8v0v4.2C58.3,199.1,54.1,200.1,49.7,200.1z M64.5,191.4V168c0-0.8-0.4-1.5-1.1-1.9
		c-0.7-0.4-1.5-0.5-2.2-0.1c-3.6,1.6-7.5,2.4-11.5,2.3c-4.5,0-11.3-1.8-17.8-3.5c-6.3-1.7-12.3-3.3-16.2-3.3c-2.7,0-5.4,0.4-7.9,1.1
		V160c3.9-1.9,8.1-2.9,12.5-2.9c3.7,0,9.5,1.6,15.7,3.2c6.7,1.8,13.5,3.6,18.4,3.6c4.3,0.1,8.6-0.8,12.5-2.6v29.1
		C66,190.7,65.2,191.1,64.5,191.4z"/>
	
		<linearGradient id="SVGID_4_" gradientUnits="userSpaceOnUse" x1="-239.9503" y1="-671.2165" x2="-239.9503" y2="-757.2944" gradientTransform="matrix(0.6568 0 0 0.6568 206.1674 644.2623)">
		<stop  offset="0" style="stop-color:#E93E3A"/>
		<stop  offset="0.355" style="stop-color:#ED683C"/>
		<stop  offset="0.705" style="stop-color:#F3903F"/>
		<stop  offset="1" style="stop-color:#FDC70C"/>
	</linearGradient>
	<path class="st3" d="M49.7,180.9h-2.2c-0.6,0-1.1,0.4-1.2,1c-0.1,0.7,0.4,1.3,1.1,1.3h2.2c0.6,0,1.1-0.4,1.2-1
		C50.9,181.5,50.4,180.9,49.7,180.9z"/>
	
		<linearGradient id="SVGID_5_" gradientUnits="userSpaceOnUse" x1="-288.273" y1="-671.2165" x2="-288.273" y2="-757.2944" gradientTransform="matrix(0.6568 0 0 0.6568 206.1674 644.2623)">
		<stop  offset="0" style="stop-color:#E93E3A"/>
		<stop  offset="0.355" style="stop-color:#ED683C"/>
		<stop  offset="0.705" style="stop-color:#F3903F"/>
		<stop  offset="1" style="stop-color:#FDC70C"/>
	</linearGradient>
	<path class="st4" d="M17.9,180.9h-2.2c-0.6,0-1.1,0.4-1.2,1c-0.1,0.7,0.4,1.3,1.1,1.3h2.2c0.6,0,1.1-0.4,1.2-1
		C19.2,181.5,18.6,180.9,17.9,180.9z"/>
</g>
<g>
	
		<linearGradient id="SVGID_6_" gradientUnits="userSpaceOnUse" x1="-385.2638" y1="-197.5661" x2="-318.156" y2="-197.5661" gradientTransform="matrix(-4.739972e-07 -1 1 -4.739972e-07 232.5467 -335.8383)">
		<stop  offset="0" style="stop-color:#E93E3A"/>
		<stop  offset="0.354" style="stop-color:#ED683C"/>
		<stop  offset="0.707" style="stop-color:#F3903F"/>
		<stop  offset="1" style="stop-color:#FDC70C"/>
	</linearGradient>
	<path class="st5" d="M1,32.8l0,3c0,0.8,0.7,1.5,1.5,1.5l64.9,0c0.8,0,1.5-0.7,1.5-1.5l0-3c0-0.8-0.7-1.5-1.5-1.5
		c-0.9,0-1.6-0.8-1.5-1.7c0.1-0.7,0.8-1.3,1.5-1.3c0.8,0,1.4-0.7,1.4-1.5l0-4.4c0-0.8-0.7-1.5-1.5-1.5c-0.9,0-1.6-0.8-1.5-1.7
		c0.1-0.7,0.8-1.3,1.5-1.3c0.8,0,1.4-0.7,1.4-1.5l0-4.4c0-0.8-0.7-1.5-1.5-1.5c-0.9,0-1.6-0.8-1.5-1.7c0.1-0.7,0.8-1.3,1.5-1.3
		c0.8,0,1.4-0.7,1.4-1.5v-3c0-0.8-0.7-1.5-1.5-1.5l-64.9,0C1.7,1.9,1,2.5,1,3.3l0,3c0,0.8,0.7,1.5,1.5,1.5c0.9,0,1.6,0.8,1.5,1.7
		c-0.1,0.7-0.8,1.3-1.5,1.3c-0.8,0-1.4,0.7-1.4,1.5l0,4.4c0,0.8,0.7,1.5,1.5,1.5c0.9,0,1.6,0.8,1.5,1.7C3.9,20.5,3.2,21,2.5,21
		c-0.8,0-1.4,0.7-1.4,1.5l0,4.4c0,0.8,0.7,1.5,1.5,1.5c0.8,0,1.4,0.7,1.4,1.5c0,0.8-0.6,1.5-1.4,1.5C1.7,31.4,1,32,1,32.8z M4,34.1
		c2.3-0.8,3.5-3.3,2.7-5.6c-0.4-1.3-1.4-2.3-2.7-2.7l0-2c2.3-0.8,3.5-3.3,2.7-5.6c-0.4-1.3-1.4-2.3-2.7-2.7l0-2
		c2.3-0.8,3.5-3.3,2.7-5.6C6.2,6.5,5.3,5.5,4,5.1l0-0.3l62,0v0.3c-2.3,0.8-3.5,3.3-2.7,5.6c0.4,1.3,1.4,2.3,2.7,2.7v2
		c-2.3,0.8-3.5,3.3-2.7,5.6c0.4,1.3,1.4,2.3,2.7,2.7v2c-2.3,0.8-3.5,3.3-2.7,5.6c0.4,1.3,1.4,2.3,2.7,2.7v0.3l-62,0L4,34.1z"/>
	
		<linearGradient id="SVGID_7_" gradientUnits="userSpaceOnUse" x1="-387.6566" y1="-188.7116" x2="-301.9078" y2="-188.7116" gradientTransform="matrix(-4.739972e-07 -1 1 -4.739972e-07 232.5467 -335.8383)">
		<stop  offset="0" style="stop-color:#E93E3A"/>
		<stop  offset="0.354" style="stop-color:#ED683C"/>
		<stop  offset="0.707" style="stop-color:#F3903F"/>
		<stop  offset="1" style="stop-color:#FDC70C"/>
	</linearGradient>
	<path class="st6" d="M60.1,7.8l-32.5,0c-0.8,0-1.5,0.7-1.5,1.5l0,20.7c0,0.8,0.7,1.5,1.5,1.5l32.5,0c0.8,0,1.5-0.7,1.5-1.5l0-20.7
		C61.5,8.4,60.9,7.8,60.1,7.8z M58.6,28.4l-29.5,0l0-17.7l29.5,0L58.6,28.4z"/>
	
		<linearGradient id="SVGID_8_" gradientUnits="userSpaceOnUse" x1="-403.7117" y1="-188.7485" x2="-275.0886" y2="-188.7485" gradientTransform="matrix(-4.739972e-07 -1 1 -4.739972e-07 232.5467 -335.8383)">
		<stop  offset="0" style="stop-color:#E93E3A"/>
		<stop  offset="0.354" style="stop-color:#ED683C"/>
		<stop  offset="0.707" style="stop-color:#F3903F"/>
		<stop  offset="1" style="stop-color:#FDC70C"/>
	</linearGradient>
	<path class="st7" d="M43.8,26.9c4.1,0,7.4-3.3,7.4-7.4s-3.3-7.4-7.4-7.4c-4.1,0-7.4,3.3-7.4,7.4C36.4,23.6,39.7,26.9,43.8,26.9z
		 M43.8,15.1c2.4,0,4.4,2,4.4,4.4c0,2.4-2,4.4-4.4,4.4c-2.4,0-4.4-2-4.4-4.4C39.4,17,41.4,15.1,43.8,15.1z"/>
	
		<linearGradient id="SVGID_9_" gradientUnits="userSpaceOnUse" x1="-73.2301" y1="-562.6047" x2="-57.1522" y2="-562.6047" gradientTransform="matrix(-8 0 0 -8 -493.6203 -4469.4844)">
		<stop  offset="0" style="stop-color:#E93E3A"/>
		<stop  offset="0.354" style="stop-color:#ED683C"/>
		<stop  offset="0.707" style="stop-color:#F3903F"/>
		<stop  offset="1" style="stop-color:#FDC70C"/>
	</linearGradient>
	<path class="st8" d="M23.2,32.8l-3,0l0-3l3,0L23.2,32.8z"/>
	
		<linearGradient id="SVGID_10_" gradientUnits="userSpaceOnUse" x1="-73.2301" y1="-561.8669" x2="-57.1522" y2="-561.8669" gradientTransform="matrix(-8 0 0 -8 -493.6203 -4469.4844)">
		<stop  offset="0" style="stop-color:#E93E3A"/>
		<stop  offset="0.354" style="stop-color:#ED683C"/>
		<stop  offset="0.707" style="stop-color:#F3903F"/>
		<stop  offset="1" style="stop-color:#FDC70C"/>
	</linearGradient>
	<path class="st9" d="M23.2,26.9l-3,0l0-3l3,0L23.2,26.9z"/>
	
		<linearGradient id="SVGID_11_" gradientUnits="userSpaceOnUse" x1="-73.2301" y1="-561.129" x2="-57.1522" y2="-561.129" gradientTransform="matrix(-8 0 0 -8 -493.6203 -4469.4844)">
		<stop  offset="0" style="stop-color:#E93E3A"/>
		<stop  offset="0.354" style="stop-color:#ED683C"/>
		<stop  offset="0.707" style="stop-color:#F3903F"/>
		<stop  offset="1" style="stop-color:#FDC70C"/>
	</linearGradient>
	<path class="st10" d="M23.2,21l-3,0l0-3l3,0L23.2,21z"/>
	
		<linearGradient id="SVGID_12_" gradientUnits="userSpaceOnUse" x1="-73.2301" y1="-560.3911" x2="-57.1522" y2="-560.3911" gradientTransform="matrix(-8 0 0 -8 -493.6203 -4469.4844)">
		<stop  offset="0" style="stop-color:#E93E3A"/>
		<stop  offset="0.354" style="stop-color:#ED683C"/>
		<stop  offset="0.707" style="stop-color:#F3903F"/>
		<stop  offset="1" style="stop-color:#FDC70C"/>
	</linearGradient>
	<path class="st11" d="M23.2,15.1l-3,0l0-3l3,0L23.2,15.1z"/>
	
		<linearGradient id="SVGID_13_" gradientUnits="userSpaceOnUse" x1="-73.2301" y1="-559.6533" x2="-57.1522" y2="-559.6533" gradientTransform="matrix(-8 0 0 -8 -493.6203 -4469.4844)">
		<stop  offset="0" style="stop-color:#E93E3A"/>
		<stop  offset="0.354" style="stop-color:#ED683C"/>
		<stop  offset="0.707" style="stop-color:#F3903F"/>
		<stop  offset="1" style="stop-color:#FDC70C"/>
	</linearGradient>
	<path class="st12" d="M23.2,9.2l-3,0l0-3l3,0L23.2,9.2z"/>
</g>
<g>
	
		<linearGradient id="SVGID_14_" gradientUnits="userSpaceOnUse" x1="-261.8036" y1="-780.7502" x2="-261.8036" y2="-899.4201" gradientTransform="matrix(0.6581 0 0 0.6581 207.2818 644.8087)">
		<stop  offset="0" style="stop-color:#E93E3A"/>
		<stop  offset="0.355" style="stop-color:#ED683C"/>
		<stop  offset="0.705" style="stop-color:#F3903F"/>
		<stop  offset="1" style="stop-color:#FDC70C"/>
	</linearGradient>
	<path class="st13" d="M50.9,61.7H19.1c-3.1,0-5.7,2.5-5.7,5.7v56.8c0,3.1,2.5,5.7,5.7,5.7h31.8c3.1,0,5.7-2.5,5.7-5.7V67.3
		C56.5,64.2,54,61.7,50.9,61.7z M15.7,73.1h38.6v45.4H15.7V73.1z M19.1,64.1h31.8c1.9,0,3.4,1.5,3.4,3.4v3.4H15.7v-3.4
		C15.7,65.6,17.2,64.1,19.1,64.1z M50.9,127.6H19.1c-1.9,0-3.4-1.5-3.4-3.4v-3.4h38.6v3.4C54.3,126,52.8,127.6,50.9,127.6z"/>
	
		<linearGradient id="SVGID_15_" gradientUnits="userSpaceOnUse" x1="-261.8576" y1="-780.757" x2="-261.8576" y2="-898.9652" gradientTransform="matrix(0.6581 0 0 0.6581 207.2818 644.8087)">
		<stop  offset="0" style="stop-color:#E93E3A"/>
		<stop  offset="0.355" style="stop-color:#ED683C"/>
		<stop  offset="0.705" style="stop-color:#F3903F"/>
		<stop  offset="1" style="stop-color:#FDC70C"/>
	</linearGradient>
	<path class="st14" d="M36.1,123h-2.2c-0.6,0-1.1,0.5-1.2,1.1c0,0.7,0.5,1.2,1.1,1.2H36c0.6,0,1.1-0.5,1.2-1.1
		C37.2,123.6,36.7,123,36.1,123z"/>
	
		<linearGradient id="SVGID_16_" gradientUnits="userSpaceOnUse" x1="-282.567" y1="-780.9576" x2="-282.567" y2="-899.1658" gradientTransform="matrix(0.6581 0 0 0.6581 207.2818 644.8087)">
		<stop  offset="0" style="stop-color:#E93E3A"/>
		<stop  offset="0.355" style="stop-color:#ED683C"/>
		<stop  offset="0.705" style="stop-color:#F3903F"/>
		<stop  offset="1" style="stop-color:#FDC70C"/>
	</linearGradient>
	<path class="st15" d="M20.2,68.6h2.2c0.6,0,1.1-0.5,1.2-1.1c0-0.7-0.5-1.2-1.1-1.2h-2.2c-0.6,0-1.1,0.5-1.2,1.1
		C19,68,19.5,68.6,20.2,68.6z"/>
	
		<linearGradient id="SVGID_17_" gradientUnits="userSpaceOnUse" x1="-270.4865" y1="-780.9576" x2="-270.4865" y2="-899.1658" gradientTransform="matrix(0.6581 0 0 0.6581 207.2818 644.8087)">
		<stop  offset="0" style="stop-color:#E93E3A"/>
		<stop  offset="0.355" style="stop-color:#ED683C"/>
		<stop  offset="0.705" style="stop-color:#F3903F"/>
		<stop  offset="1" style="stop-color:#FDC70C"/>
	</linearGradient>
	<path class="st16" d="M27,68.6h4.5c0.6,0,1.1-0.5,1.2-1.1c0-0.7-0.5-1.2-1.1-1.2H27c-0.6,0-1.1,0.5-1.2,1.1
		C25.8,68,26.4,68.6,27,68.6z"/>
	
		<linearGradient id="SVGID_18_" gradientUnits="userSpaceOnUse" x1="-275.6572" y1="-780.857" x2="-275.6572" y2="-899.0651" gradientTransform="matrix(0.6581 0 0 0.6581 207.2818 644.8087)">
		<stop  offset="0" style="stop-color:#E93E3A"/>
		<stop  offset="0.355" style="stop-color:#ED683C"/>
		<stop  offset="0.705" style="stop-color:#F3903F"/>
		<stop  offset="1" style="stop-color:#FDC70C"/>
	</linearGradient>
	<path class="st17" d="M23.6,90.2h4.5c0.6,0,1.1-0.5,1.1-1.1v-4.5c0-0.6-0.5-1.1-1.1-1.1h-4.5c-0.6,0-1.1,0.5-1.1,1.1V89
		C22.5,89.6,23,90.2,23.6,90.2z M24.7,85.6H27v2.3h-2.3V85.6z"/>
	
		<linearGradient id="SVGID_19_" gradientUnits="userSpaceOnUse" x1="-247.9499" y1="-780.857" x2="-247.9499" y2="-899.0651" gradientTransform="matrix(0.6581 0 0 0.6581 207.2818 644.8087)">
		<stop  offset="0" style="stop-color:#E93E3A"/>
		<stop  offset="0.355" style="stop-color:#ED683C"/>
		<stop  offset="0.705" style="stop-color:#F3903F"/>
		<stop  offset="1" style="stop-color:#FDC70C"/>
	</linearGradient>
	<path class="st18" d="M46.4,83.4h-4.5c-0.6,0-1.1,0.5-1.1,1.1V89c0,0.6,0.5,1.1,1.1,1.1h4.5c0.6,0,1.1-0.5,1.1-1.1v-4.5
		C47.5,83.9,47,83.4,46.4,83.4z M45.2,87.9H43v-2.3h2.3V87.9z"/>
	
		<linearGradient id="SVGID_20_" gradientUnits="userSpaceOnUse" x1="-275.6572" y1="-780.8577" x2="-275.6572" y2="-899.0659" gradientTransform="matrix(0.6581 0 0 0.6581 207.2818 644.8087)">
		<stop  offset="0" style="stop-color:#E93E3A"/>
		<stop  offset="0.355" style="stop-color:#ED683C"/>
		<stop  offset="0.705" style="stop-color:#F3903F"/>
		<stop  offset="1" style="stop-color:#FDC70C"/>
	</linearGradient>
	<path class="st19" d="M28.1,101.5h-4.5c-0.6,0-1.1,0.5-1.1,1.1v4.5c0,0.6,0.5,1.1,1.1,1.1h4.5c0.6,0,1.1-0.5,1.1-1.1v-4.5
		C29.3,102,28.8,101.5,28.1,101.5z M27,106h-2.3v-2.3H27V106z"/>
	
		<linearGradient id="SVGID_21_" gradientUnits="userSpaceOnUse" x1="-261.8572" y1="-780.8569" x2="-261.8572" y2="-899.0651" gradientTransform="matrix(0.6581 0 0 0.6581 207.2818 644.8087)">
		<stop  offset="0" style="stop-color:#E93E3A"/>
		<stop  offset="0.355" style="stop-color:#ED683C"/>
		<stop  offset="0.705" style="stop-color:#F3903F"/>
		<stop  offset="1" style="stop-color:#FDC70C"/>
	</linearGradient>
	<path class="st20" d="M32.7,85.6h4.5c0.6,0,1.1-0.5,1.2-1.1c0-0.7-0.5-1.2-1.1-1.2h-4.5c-0.6,0-1.1,0.5-1.2,1.1
		C31.5,85.1,32,85.6,32.7,85.6z"/>
	
		<linearGradient id="SVGID_22_" gradientUnits="userSpaceOnUse" x1="-272.1683" y1="-780.9585" x2="-272.1683" y2="-899.1666" gradientTransform="matrix(0.6581 0 0 0.6581 207.2818 644.8087)">
		<stop  offset="0" style="stop-color:#E93E3A"/>
		<stop  offset="0.355" style="stop-color:#ED683C"/>
		<stop  offset="0.705" style="stop-color:#F3903F"/>
		<stop  offset="1" style="stop-color:#FDC70C"/>
	</linearGradient>
	<path class="st21" d="M23.5,99.1c0.7,0,1.2-0.5,1.2-1.1v-2.3H27v1.1c0,0.6,0.4,1.1,1,1.2c0.7,0.1,1.3-0.4,1.3-1.1v-1.1h3.4
		c0.6,0,1.1-0.5,1.2-1.1c0-0.7-0.5-1.2-1.1-1.2h-2.3v-1.1c0-0.6-0.5-1.1-1.1-1.2c-0.7,0-1.2,0.5-1.2,1.1v1.1h-3.5
		c0-0.6-0.5-1.2-1.2-1.1c-0.6,0-1.1,0.6-1.1,1.2V98C22.5,98.6,22.9,99.1,23.5,99.1z"/>
	
		<linearGradient id="SVGID_23_" gradientUnits="userSpaceOnUse" x1="-246.2309" y1="-780.8577" x2="-246.2309" y2="-899.0659" gradientTransform="matrix(0.6581 0 0 0.6581 207.2818 644.8087)">
		<stop  offset="0" style="stop-color:#E93E3A"/>
		<stop  offset="0.355" style="stop-color:#ED683C"/>
		<stop  offset="0.705" style="stop-color:#F3903F"/>
		<stop  offset="1" style="stop-color:#FDC70C"/>
	</linearGradient>
	<path class="st22" d="M45.2,104.9v1.1h-1.1c-0.5,0-0.9,0.3-1.1,0.8c-0.2,0.8,0.3,1.5,1.1,1.5h2.3c0.6,0,1.1-0.5,1.1-1.1v-2.3
		c0-0.7-0.7-1.3-1.5-1.1C45.5,103.9,45.2,104.4,45.2,104.9z"/>
	
		<linearGradient id="SVGID_24_" gradientUnits="userSpaceOnUse" x1="-260.1856" y1="-781.3647" x2="-260.1856" y2="-897.8314" gradientTransform="matrix(0.6581 0 0 0.6581 207.2818 644.8087)">
		<stop  offset="0" style="stop-color:#E93E3A"/>
		<stop  offset="0.355" style="stop-color:#ED683C"/>
		<stop  offset="0.705" style="stop-color:#F3903F"/>
		<stop  offset="1" style="stop-color:#FDC70C"/>
	</linearGradient>
	<path class="st23" d="M39.4,106h-2.2v-2.3h1.1c0.6,0,1.1-0.5,1.2-1.1c0-0.7-0.5-1.2-1.1-1.2h-1.1v-1c0-0.6-0.4-1.1-1-1.1
		c-0.6,0-1.1,0.5-1.1,1.1h-1c-0.6,0-1.1,0.4-1.1,1c0,0.6,0.5,1.1,1.1,1.1H35v3.5h-1.2v-1.1c0-0.5-0.3-0.9-0.8-1.1
		c-0.8-0.2-1.5,0.3-1.5,1.1v2.3c0,0.6,0.5,1.1,1.1,1.1h6.8c0.5,0,0.9-0.3,1.1-0.8C40.8,106.7,40.2,106,39.4,106z"/>
	
		<linearGradient id="SVGID_25_" gradientUnits="userSpaceOnUse" x1="-244.5118" y1="-780.8708" x2="-244.5118" y2="-899.079" gradientTransform="matrix(0.6581 0 0 0.6581 207.2818 644.8087)">
		<stop  offset="0" style="stop-color:#E93E3A"/>
		<stop  offset="0.355" style="stop-color:#ED683C"/>
		<stop  offset="0.705" style="stop-color:#F3903F"/>
		<stop  offset="1" style="stop-color:#FDC70C"/>
	</linearGradient>
	<path class="st24" d="M45.2,93.6v6.7c0,0.6,0.5,1.1,1.1,1.2c0.7,0,1.2-0.5,1.2-1.1v-6.8c0-0.6-0.5-1.2-1.2-1.1
		C45.7,92.4,45.2,93,45.2,93.6z"/>
	
		<linearGradient id="SVGID_26_" gradientUnits="userSpaceOnUse" x1="-253.1575" y1="-780.7502" x2="-253.1575" y2="-899.4201" gradientTransform="matrix(0.6581 0 0 0.6581 207.2818 644.8087)">
		<stop  offset="0" style="stop-color:#E93E3A"/>
		<stop  offset="0.355" style="stop-color:#ED683C"/>
		<stop  offset="0.705" style="stop-color:#F3903F"/>
		<stop  offset="1" style="stop-color:#FDC70C"/>
	</linearGradient>
	<path class="st25" d="M39.5,95.7h1v1.1c0,0.5,0.3,1,0.8,1.1c0.8,0.2,1.6-0.3,1.6-1.1v-2.2c0-0.7-0.5-1.2-1.2-1.2v-1.1
		c0-0.6-0.4-1.1-1-1.2c-0.7-0.1-1.3,0.4-1.3,1.1v1.1c-0.7,0-1.2,0.6-1.1,1.3C38.5,95.3,39,95.7,39.5,95.7z"/>
	
		<linearGradient id="SVGID_27_" gradientUnits="userSpaceOnUse" x1="-262.1069" y1="-782.7324" x2="-262.1069" y2="-897.4574" gradientTransform="matrix(0.6581 0 0 0.6581 207.2818 644.8087)">
		<stop  offset="0" style="stop-color:#E93E3A"/>
		<stop  offset="0.355" style="stop-color:#ED683C"/>
		<stop  offset="0.705" style="stop-color:#F3903F"/>
		<stop  offset="1" style="stop-color:#FDC70C"/>
	</linearGradient>
	<path class="st26" d="M32.7,91.2h2.3c0.7,0,1.2-0.5,1.2-1.2h0.8c0.6,0,1.1-0.4,1.1-1c0-0.6-0.5-1.1-1.1-1.1h-1.1
		c0-0.6-0.5-1.1-1.1-1.1c-0.6,0-1,0.5-1,1.1v1h-1.1c-0.6,0-1.1,0.5-1.2,1.1C31.5,90.7,32,91.2,32.7,91.2z"/>
	
		<linearGradient id="SVGID_28_" gradientUnits="userSpaceOnUse" x1="-267.0345" y1="-780.9585" x2="-267.0345" y2="-899.1666" gradientTransform="matrix(0.6581 0 0 0.6581 207.2818 644.8087)">
		<stop  offset="0" style="stop-color:#E93E3A"/>
		<stop  offset="0.355" style="stop-color:#ED683C"/>
		<stop  offset="0.705" style="stop-color:#F3903F"/>
		<stop  offset="1" style="stop-color:#FDC70C"/>
	</linearGradient>
	<path class="st27" d="M32.6,98h-2.2c-0.6,0-1.1,0.5-1.2,1.1c0,0.7,0.5,1.2,1.1,1.2h2.3c0.6,0,1.2-0.5,1.1-1.2
		C33.8,98.5,33.2,98,32.6,98z"/>
	
		<linearGradient id="SVGID_29_" gradientUnits="userSpaceOnUse" x1="-260.0845" y1="-780.8776" x2="-260.0845" y2="-899.0858" gradientTransform="matrix(0.6581 0 0 0.6581 207.2818 644.8087)">
		<stop  offset="0" style="stop-color:#E93E3A"/>
		<stop  offset="0.355" style="stop-color:#ED683C"/>
		<stop  offset="0.705" style="stop-color:#F3903F"/>
		<stop  offset="1" style="stop-color:#FDC70C"/>
	</linearGradient>
	<path class="st28" d="M35,94.7v2.2c0,0.6,0.5,1.1,1.1,1.2c0.7,0,1.2-0.5,1.2-1.1v-2.2c0-0.6-0.5-1.1-1.1-1.2
		C35.5,93.5,35,94,35,94.7z"/>
	
		<linearGradient id="SVGID_30_" gradientUnits="userSpaceOnUse" x1="-249.7701" y1="-780.8373" x2="-249.7701" y2="-899.0454" gradientTransform="matrix(0.6581 0 0 0.6581 207.2818 644.8087)">
		<stop  offset="0" style="stop-color:#E93E3A"/>
		<stop  offset="0.355" style="stop-color:#ED683C"/>
		<stop  offset="0.705" style="stop-color:#F3903F"/>
		<stop  offset="1" style="stop-color:#FDC70C"/>
	</linearGradient>
	<path class="st29" d="M44,103.7v-2.2c0-0.6-0.5-1.1-1.1-1.2c-0.7,0-1.2,0.5-1.2,1.1v2.2c0,0.6,0.5,1.1,1.1,1.2
		C43.5,104.9,44,104.4,44,103.7z"/>
	
		<linearGradient id="SVGID_31_" gradientUnits="userSpaceOnUse" x1="-254.9545" y1="-780.9585" x2="-254.9545" y2="-899.1666" gradientTransform="matrix(0.6581 0 0 0.6581 207.2818 644.8087)">
		<stop  offset="0" style="stop-color:#E93E3A"/>
		<stop  offset="0.355" style="stop-color:#ED683C"/>
		<stop  offset="0.705" style="stop-color:#F3903F"/>
		<stop  offset="1" style="stop-color:#FDC70C"/>
	</linearGradient>
	<path class="st30" d="M40.6,98h-2.2c-0.6,0-1.1,0.5-1.2,1.1c0,0.7,0.5,1.2,1.1,1.2l2.2,0c0.6,0,1.1-0.5,1.2-1.1
		C41.8,98.5,41.3,98,40.6,98z"/>
</g>
<g>
	
		<linearGradient id="SVGID_32_" gradientUnits="userSpaceOnUse" x1="367.6916" y1="-98.8192" x2="389.4288" y2="-98.8192" gradientTransform="matrix(2.395602e-07 -1 1 2.395602e-07 133.7999 426.1999)">
		<stop  offset="0" style="stop-color:#E93E3A"/>
		<stop  offset="0.354" style="stop-color:#ED683C"/>
		<stop  offset="0.705" style="stop-color:#F3903F"/>
		<stop  offset="1" style="stop-color:#FDC70C"/>
	</linearGradient>
	<path class="st31" d="M44,49.4c0,5-4,9-9,9c-5,0-9-4-9-9c0-5,4-9,9-9C39.9,40.4,43.9,44.5,44,49.4z M27.1,49.4
		c0,4.3,3.5,7.9,7.9,7.9s7.9-3.5,7.9-7.9c0-4.3-3.5-7.9-7.9-7.9C30.6,41.6,27.1,45.1,27.1,49.4z"/>
	
		<linearGradient id="SVGID_33_" gradientUnits="userSpaceOnUse" x1="596.9655" y1="-1848.6193" x2="629.3652" y2="-1848.6193" gradientTransform="matrix(1.607224e-07 -0.6709 0.6709 1.607224e-07 1275.2269 459.0163)">
		<stop  offset="0" style="stop-color:#E93E3A"/>
		<stop  offset="0.354" style="stop-color:#ED683C"/>
		<stop  offset="0.705" style="stop-color:#F3903F"/>
		<stop  offset="1" style="stop-color:#FDC70C"/>
	</linearGradient>
	<path class="st32" d="M41.1,47.8c0,0.1-0.1,0.3-0.2,0.4l-5.6,5.6c-0.2,0.2-0.6,0.2-0.8,0L29,48.2c-0.2-0.2-0.2-0.6,0-0.8
		c0.2-0.2,0.6-0.2,0.8,0c0,0,0,0,0,0l5.2,5.2l5.2-5.2c0.2-0.2,0.6-0.2,0.8,0C41,47.5,41.1,47.6,41.1,47.8z"/>
</g>
<g>
	
		<linearGradient id="SVGID_34_" gradientUnits="userSpaceOnUse" x1="274.6873" y1="-98.8192" x2="296.4245" y2="-98.8192" gradientTransform="matrix(2.395602e-07 -1 1 2.395602e-07 133.7999 426.1999)">
		<stop  offset="0" style="stop-color:#E93E3A"/>
		<stop  offset="0.354" style="stop-color:#ED683C"/>
		<stop  offset="0.705" style="stop-color:#F3903F"/>
		<stop  offset="1" style="stop-color:#FDC70C"/>
	</linearGradient>
	<path class="st33" d="M44,142.4c0,5-4,9-9,9c-5,0-9-4-9-9c0-5,4-9,9-9C39.9,133.5,43.9,137.5,44,142.4z M27.1,142.4
		c0,4.3,3.5,7.9,7.9,7.9s7.9-3.5,7.9-7.9c0-4.3-3.5-7.9-7.9-7.9C30.6,134.6,27.1,138.1,27.1,142.4z"/>
	
		<linearGradient id="SVGID_35_" gradientUnits="userSpaceOnUse" x1="458.3406" y1="-1848.6193" x2="490.7403" y2="-1848.6193" gradientTransform="matrix(1.607224e-07 -0.6709 0.6709 1.607224e-07 1275.2269 459.0163)">
		<stop  offset="0" style="stop-color:#E93E3A"/>
		<stop  offset="0.354" style="stop-color:#ED683C"/>
		<stop  offset="0.705" style="stop-color:#F3903F"/>
		<stop  offset="1" style="stop-color:#FDC70C"/>
	</linearGradient>
	<path class="st34" d="M41.1,140.8c0,0.1-0.1,0.3-0.2,0.4l-5.6,5.6c-0.2,0.2-0.6,0.2-0.8,0l-5.6-5.6c-0.2-0.2-0.2-0.6,0-0.8
		c0.2-0.2,0.6-0.2,0.8,0c0,0,0,0,0,0l5.2,5.2l5.2-5.2c0.2-0.2,0.6-0.2,0.8,0C41,140.5,41.1,140.6,41.1,140.8z"/>
</g>
</svg>
