<svg id="Laag_1" data-name="Laag 1" xmlns="http://www.w3.org/2000/svg" viewBox="0 0 980.54 284.81"><defs><style>.cls-1{fill:#ea8585;}.cls-2{fill:#fff;}</style></defs><title>sales process</title><path class="cls-1" d="M855.37,149.1A4,4,0,0,1,860.1,153a4.17,4.17,0,0,0,3.58,4.13,4,4,0,0,0,4.5-4,12.1,12.1,0,0,0-8.07-11.37v-.62a4.11,4.11,0,0,0-3.45-4.12,4,4,0,0,0-4.63,4v.75a12.09,12.09,0,0,0,4,23.49,4,4,0,1,1-4,4.16,4.18,4.18,0,0,0-3.58-4.14,4,4,0,0,0-4.5,4A12.11,12.11,0,0,0,852,180.61v.62a4.12,4.12,0,0,0,3.44,4.12,4,4,0,0,0,4.64-4v-.74a12.09,12.09,0,0,0-4-23.49,4,4,0,0,1-.7-8Z" transform="translate(-5 -6.72)"/><path class="cls-1" d="M856,120.69a40.47,40.47,0,1,0,40.46,40.47A40.47,40.47,0,0,0,856,120.69Zm0,72.84a32.38,32.38,0,1,1,32.37-32.37A32.38,32.38,0,0,1,856,193.53Z" transform="translate(-5 -6.72)"/><path class="cls-1" d="M981.75,80.37a8.07,8.07,0,0,0-7.89-.4,94,94,0,0,1-40.93,8.35c-16.19,0-40.22-6.41-63.46-12.61C847,69.7,825.73,64,811.51,64a109.08,109.08,0,0,0-48.19,11.39,8,8,0,0,0-4.42,7.18V94.69a96.5,96.5,0,0,0-11.79,5,8,8,0,0,0-4.37,7.19V210.65a8.21,8.21,0,0,0,5,7.63,8.12,8.12,0,0,0,6.74-.21,93.39,93.39,0,0,1,40.92-8.35c16.19,0,40.22,6.41,63.46,12.61,22.49,6,43.73,11.67,58,11.67A108.74,108.74,0,0,0,965,222.59a8.05,8.05,0,0,0,4.37-7.19V203.35a101.29,101.29,0,0,0,11.74-5,8,8,0,0,0,4.41-7.17V87.23A8,8,0,0,0,981.75,80.37Zm-65,145.54c-13.17,0-33.91-5.54-55.86-11.4-23.76-6.33-48.3-12.89-65.57-12.89a100.69,100.69,0,0,0-44.52,9.2l0-103.88a100.15,100.15,0,0,1,44.46-10.5c13.13,0,33.84,5.52,55.75,11.37,23.69,6.32,48.19,12.86,65.41,12.86a100.4,100.4,0,0,0,44.43-9.18l.47,88.63v15.26A100.25,100.25,0,0,1,916.77,225.91Zm52.62-31.17V111.5a8,8,0,0,0-3.8-6.85,8.12,8.12,0,0,0-7.9-.41,93.41,93.41,0,0,1-40.93,8.36c-16.19,0-40.23-6.41-63.48-12.61-22.49-6-43.74-11.68-58-11.68A108.46,108.46,0,0,0,767,92.15v-9.5A100.56,100.56,0,0,1,811.5,72.13c13.17,0,33.92,5.53,55.89,11.4,23.74,6.33,48.29,12.89,65.55,12.89a101,101,0,0,0,44.53-9.19V191.11A88.58,88.58,0,0,1,969.39,194.74Z" transform="translate(-5 -6.72)"/><path class="cls-1" d="M916.65,157.26H908.7a4.14,4.14,0,0,0-4.13,3.45,4,4,0,0,0,4,4.63h7.95a4.11,4.11,0,0,0,4.12-3.45A4,4,0,0,0,916.65,157.26Z" transform="translate(-5 -6.72)"/><path class="cls-1" d="M803.34,157.26H795.4a4.12,4.12,0,0,0-4.13,3.45,4,4,0,0,0,4,4.63h8a4.13,4.13,0,0,0,4.13-3.45A4,4,0,0,0,803.34,157.26Z" transform="translate(-5 -6.72)"/><path class="cls-1" d="M556.48,6.72H423.68A23.76,23.76,0,0,0,400,30.46V267.8a23.75,23.75,0,0,0,23.72,23.73h132.8a23.74,23.74,0,0,0,23.71-23.73V30.46A23.75,23.75,0,0,0,556.48,6.72ZM409.42,54.56H570.74V244.25H409.42Zm14.24-37.83H556.5A14.25,14.25,0,0,1,570.74,31V45.1H409.42V31A14.24,14.24,0,0,1,423.66,16.73ZM556.5,282.08H423.66a14.24,14.24,0,0,1-14.24-14.24V253.71H570.74v14.13A14.25,14.25,0,0,1,556.5,282.08Z" transform="translate(-5 -6.72)"/><path class="cls-1" d="M494.66,263.16h-9.28a4.85,4.85,0,0,0-4.9,4.44,4.73,4.73,0,0,0,4.72,5h9.28a4.86,4.86,0,0,0,4.9-4.43A4.73,4.73,0,0,0,494.66,263.16Z" transform="translate(-5 -6.72)"/><path class="cls-1" d="M428.24,35.65h9.28a4.84,4.84,0,0,0,4.89-4.43,4.73,4.73,0,0,0-4.72-5h-9.27a4.85,4.85,0,0,0-4.9,4.43A4.73,4.73,0,0,0,428.24,35.65Z" transform="translate(-5 -6.72)"/><path class="cls-1" d="M456.74,35.65h18.73a4.85,4.85,0,0,0,4.9-4.43,4.73,4.73,0,0,0-4.72-5H456.92a4.85,4.85,0,0,0-4.9,4.43A4.73,4.73,0,0,0,456.74,35.65Z" transform="translate(-5 -6.72)"/><path class="cls-1" d="M442.53,125.76h18.88a4.75,4.75,0,0,0,4.75-4.74V102.14a4.75,4.75,0,0,0-4.75-4.75H442.54a4.75,4.75,0,0,0-4.75,4.75V121A4.74,4.74,0,0,0,442.53,125.76Zm4.71-18.91h9.46v9.46h-9.46Z" transform="translate(-5 -6.72)"/><path class="cls-1" d="M537.62,97.39H518.74a4.75,4.75,0,0,0-4.74,4.75V121a4.74,4.74,0,0,0,4.74,4.74h18.88a4.75,4.75,0,0,0,4.75-4.74V102.14A4.75,4.75,0,0,0,537.62,97.39Zm-4.71,18.92h-9.46v-9.46h9.46Z" transform="translate(-5 -6.72)"/><path class="cls-1" d="M461.43,173.05H442.54a4.74,4.74,0,0,0-4.75,4.75v18.87a4.75,4.75,0,0,0,4.75,4.75h18.87a4.75,4.75,0,0,0,4.75-4.75v-18.9A4.72,4.72,0,0,0,461.43,173.05ZM456.7,192h-9.46V182.5h9.46Z" transform="translate(-5 -6.72)"/><path class="cls-1" d="M480.47,106.85h18.74a4.85,4.85,0,0,0,4.9-4.43,4.74,4.74,0,0,0-4.72-5H480.65a4.86,4.86,0,0,0-4.9,4.43A4.73,4.73,0,0,0,480.47,106.85Z" transform="translate(-5 -6.72)"/><path class="cls-1" d="M442.22,163.3a4.72,4.72,0,0,0,5-4.72v-9.45h9.46v4.6a4.82,4.82,0,0,0,4,4.84,4.73,4.73,0,0,0,5.42-4.69v-4.75h14.28a4.85,4.85,0,0,0,4.9-4.43,4.73,4.73,0,0,0-4.72-5h-9.46v-4.55a4.85,4.85,0,0,0-4.43-4.9,4.73,4.73,0,0,0-5,4.72v4.73H447.24a4.73,4.73,0,0,0-5-4.72,4.85,4.85,0,0,0-4.43,4.9V158.4A4.84,4.84,0,0,0,442.22,163.3Z" transform="translate(-5 -6.72)"/><path class="cls-1" d="M532.91,187.23V192h-4.74a4.68,4.68,0,0,0-4.48,3.2,4.75,4.75,0,0,0,4.49,6.26h9.62a4.58,4.58,0,0,0,4.57-4.57v-9.62a4.74,4.74,0,0,0-6.27-4.48A4.68,4.68,0,0,0,532.91,187.23Z" transform="translate(-5 -6.72)"/><path class="cls-1" d="M508.71,192h-9.18V182.5h4.55a4.84,4.84,0,0,0,4.9-4.43,4.73,4.73,0,0,0-4.72-5h-4.73v-4.28a4.55,4.55,0,0,0-4.17-4.61,4.45,4.45,0,0,0-4.73,4.44h-4.27a4.57,4.57,0,0,0-4.62,4.17,4.45,4.45,0,0,0,4.44,4.73h3.9V192h-5v-4.74a4.66,4.66,0,0,0-3.18-4.47,4.75,4.75,0,0,0-6.28,4.48v9.63a4.56,4.56,0,0,0,4.56,4.56h28.56a4.69,4.69,0,0,0,4.47-3.19A4.74,4.74,0,0,0,508.71,192Z" transform="translate(-5 -6.72)"/><path class="cls-1" d="M532.91,140.09v28a4.85,4.85,0,0,0,4.43,4.9,4.73,4.73,0,0,0,5-4.72V139.91a4.73,4.73,0,0,0-5-4.72A4.85,4.85,0,0,0,532.91,140.09Z" transform="translate(-5 -6.72)"/><path class="cls-1" d="M509.16,149.13h4.28v4.57a4.84,4.84,0,0,0,3.4,4.68,5,5,0,0,0,6.61-4.5v-9.15a5,5,0,0,0-5-5V135a4.83,4.83,0,0,0-4-4.84,4.74,4.74,0,0,0-5.42,4.7v4.74a4.75,4.75,0,0,0-4.68,5.45A4.85,4.85,0,0,0,509.16,149.13Z" transform="translate(-5 -6.72)"/><path class="cls-1" d="M480.34,130.21h9.46a5,5,0,0,0,5-5h3.44a4.56,4.56,0,0,0,4.61-4.18,4.44,4.44,0,0,0-4.44-4.72H494a4.44,4.44,0,0,0-4.72-4.44,4.56,4.56,0,0,0-4.18,4.61v4.28h-4.55a4.85,4.85,0,0,0-4.9,4.43A4.73,4.73,0,0,0,480.34,130.21Z" transform="translate(-5 -6.72)"/><path class="cls-1" d="M480.24,158.58h-9.1a4.85,4.85,0,0,0-4.9,4.43,4.73,4.73,0,0,0,4.72,5h9.46a4.73,4.73,0,0,0,4.72-5A4.86,4.86,0,0,0,480.24,158.58Z" transform="translate(-5 -6.72)"/><path class="cls-1" d="M490.08,144.62v9.28a4.85,4.85,0,0,0,4.43,4.9,4.73,4.73,0,0,0,5-4.72V144.8a4.85,4.85,0,0,0-4.43-4.9A4.73,4.73,0,0,0,490.08,144.62Z" transform="translate(-5 -6.72)"/><path class="cls-1" d="M527.9,182.56v-9.28a4.85,4.85,0,0,0-4.43-4.9,4.73,4.73,0,0,0-5,4.72v9.28a4.85,4.85,0,0,0,4.43,4.9A4.73,4.73,0,0,0,527.9,182.56Z" transform="translate(-5 -6.72)"/><path class="cls-1" d="M513.65,158.58h-9.28a4.85,4.85,0,0,0-4.9,4.43,4.73,4.73,0,0,0,4.72,5h9.28a4.84,4.84,0,0,0,4.89-4.43A4.73,4.73,0,0,0,513.65,158.58Z" transform="translate(-5 -6.72)"/><path class="cls-1" d="M318.4,111.53a37.6,37.6,0,1,0,37.6,37.6A37.59,37.59,0,0,0,318.4,111.53Zm0,70.5a32.9,32.9,0,1,1,32.9-32.9A32.9,32.9,0,0,1,318.4,182Z" transform="translate(-5 -6.72)"/><path class="cls-1" d="M310.66,128.67,307.34,132l17.14,17.14-17.14,17.14,3.32,3.32,18.8-18.8a2.34,2.34,0,0,0,0-3.32Z" transform="translate(-5 -6.72)"/><path class="cls-1" d="M661.4,111.53a37.6,37.6,0,1,0,37.6,37.6A37.59,37.59,0,0,0,661.4,111.53Zm0,70.5a32.9,32.9,0,1,1,32.9-32.9A32.9,32.9,0,0,1,661.4,182Z" transform="translate(-5 -6.72)"/><path class="cls-1" d="M653.66,128.67,650.34,132l17.14,17.14-17.14,17.14,3.32,3.32,18.8-18.8a2.34,2.34,0,0,0,0-3.32Z" transform="translate(-5 -6.72)"/><path class="cls-1" d="M5,221.38v8.9a4.45,4.45,0,0,0,4.45,4.45H205.26a4.45,4.45,0,0,0,4.45-4.45v-8.9a4.46,4.46,0,0,0-4.47-4.45,4.46,4.46,0,0,1-4.4-5,4.59,4.59,0,0,1,4.54-3.88,4.46,4.46,0,0,0,4.33-4.45V190.23a4.46,4.46,0,0,0-4.47-4.45,4.46,4.46,0,0,1-4.4-5,4.61,4.61,0,0,1,4.54-3.89,4.45,4.45,0,0,0,4.33-4.44V159.08a4.45,4.45,0,0,0-4.47-4.45,4.46,4.46,0,0,1-4.4-5,4.6,4.6,0,0,1,4.54-3.89,4.45,4.45,0,0,0,4.33-4.45v-8.9a4.45,4.45,0,0,0-4.45-4.45H9.45A4.45,4.45,0,0,0,5,132.37v8.91a4.46,4.46,0,0,0,4.47,4.45,4.45,4.45,0,0,1,4.4,5,4.6,4.6,0,0,1-4.55,3.89A4.44,4.44,0,0,0,5,159.08v13.35a4.46,4.46,0,0,0,4.47,4.45,4.46,4.46,0,0,1,4.4,5,4.59,4.59,0,0,1-4.55,3.89A4.45,4.45,0,0,0,5,190.23v13.35A4.52,4.52,0,0,0,9.54,208a4.45,4.45,0,0,1,0,8.9A4.51,4.51,0,0,0,5,221.38Zm8.9,3.69a13.35,13.35,0,0,0,0-25.18v-6a13.35,13.35,0,0,0,0-25.18v-6a13.34,13.34,0,0,0,0-25.17v-.77H200.81v.77a13.34,13.34,0,0,0,0,25.17v6a13.35,13.35,0,0,0,0,25.18v6a13.35,13.35,0,0,0,0,25.18v.76H13.9Z" transform="translate(-5 -6.72)"/><path class="cls-1" d="M183,145.73H85.1a4.45,4.45,0,0,0-4.45,4.45v62.3a4.45,4.45,0,0,0,4.45,4.45H183a4.45,4.45,0,0,0,4.45-4.45v-62.3A4.45,4.45,0,0,0,183,145.73ZM178.56,208h-89v-53.4h89Z" transform="translate(-5 -6.72)"/><path class="cls-1" d="M133.94,203.36a22.26,22.26,0,1,0-22.25-22.26A22.26,22.26,0,0,0,133.94,203.36Zm0-35.61a13.35,13.35,0,1,1-13.35,13.35A13.35,13.35,0,0,1,133.94,167.75Z" transform="translate(-5 -6.72)"/><path class="cls-1" d="M71.75,221.38h-8.9v-8.9h8.9Z" transform="translate(-5 -6.72)"/><path class="cls-1" d="M71.75,203.58h-8.9v-8.9h8.9Z" transform="translate(-5 -6.72)"/><path class="cls-1" d="M71.75,185.78h-8.9v-8.9h8.9Z" transform="translate(-5 -6.72)"/><path class="cls-1" d="M71.75,168h-8.9v-8.9h8.9Z" transform="translate(-5 -6.72)"/><path class="cls-1" d="M71.75,150.18h-8.9v-8.9h8.9Z" transform="translate(-5 -6.72)"/><path class="cls-1" d="M236.94,163.73a4.45,4.45,0,0,1-3.64,5.14l-193,33a4.47,4.47,0,0,1-5.14-3.64l-1.5-8.77a4.51,4.51,0,0,1,3.73-5.15,4.45,4.45,0,0,0-1.5-8.78,4.51,4.51,0,0,1-5.22-3.62l-2.25-13.16a4.45,4.45,0,0,1,3.51-5.11,4.59,4.59,0,0,0,3.82-4.6,4.45,4.45,0,0,0-5.18-4.2,4.46,4.46,0,0,1-5.15-3.64L23.16,128a4.45,4.45,0,0,1,3.51-5.12,4.59,4.59,0,0,0,3.83-4.59,4.46,4.46,0,0,0-5.19-4.21,4.46,4.46,0,0,1-5.15-3.63l-1.5-8.77a4.45,4.45,0,0,1,3.64-5.14l193-33a4.47,4.47,0,0,1,5.14,3.64L222,76a4.46,4.46,0,0,1-3.52,5.12,4.59,4.59,0,0,0-3.82,4.59,4.45,4.45,0,0,0,5.18,4.2,4.46,4.46,0,0,1,5.15,3.64l2.25,13.16a4.45,4.45,0,0,1-3.51,5.11,4.59,4.59,0,0,0-3.82,4.6,4.45,4.45,0,0,0,5.18,4.2,4.46,4.46,0,0,1,5.15,3.64l2.25,13.15a4.45,4.45,0,0,1-3.51,5.12,4.59,4.59,0,0,0-3.83,4.59,4.46,4.46,0,0,0,5.19,4.21,4.46,4.46,0,0,1,5.15,3.63Zm-9.53-2.88-.12-.75a13.35,13.35,0,0,1-4.24-24.82l-1-5.89a13.35,13.35,0,0,1-4.24-24.82l-1-5.89a13.35,13.35,0,0,1-4.24-24.82l-.13-.75L28.19,104.59l.12.75a13.35,13.35,0,0,1,4.24,24.82l1,5.89a13.35,13.35,0,0,1,4.24,24.82l1,5.89a13.35,13.35,0,0,1,4.24,24.82l.13.75Z" transform="translate(-5 -6.72)"/><path class="cls-2" d="M227.29,160.1l.12.75L43.18,192.33l-.13-.75a13.35,13.35,0,0,0-4.24-24.82l-1-5.89a13.35,13.35,0,0,0-4.24-24.82l-1-5.89a13.35,13.35,0,0,0-4.24-24.82l-.12-.75L212.42,73.11l.13.75a13.35,13.35,0,0,0,4.24,24.82l1,5.89A13.35,13.35,0,0,0,222,129.39l1,5.89a13.35,13.35,0,0,0,4.24,24.82Zm-18.92-5a4.45,4.45,0,0,0,3.64-5.13l-10.5-61.42a4.44,4.44,0,0,0-5.13-3.63L99.87,101.37a4.47,4.47,0,0,0-3.64,5.14l10.5,61.41a4.44,4.44,0,0,0,5.13,3.64ZM99.45,178.2,98,169.42l-8.77,1.5,1.5,8.77Zm-3-17.55L95,151.88l-8.78,1.49,1.5,8.78Zm-3-17.55L92,134.33l-8.78,1.5,1.5,8.77Zm-3-17.54L89,116.78l-8.77,1.5,1.5,8.77Zm-3-17.55L86,99.24l-8.77,1.5,1.5,8.77Z" transform="translate(-5 -6.72)"/><path class="cls-1" d="M212,149.94a4.45,4.45,0,0,1-3.64,5.13l-96.51,16.49a4.44,4.44,0,0,1-5.13-3.64l-10.5-61.41a4.47,4.47,0,0,1,3.64-5.14l96.51-16.48a4.44,4.44,0,0,1,5.13,3.63Zm-9.53-2.89-9-52.64-87.73,15,9,52.64Z" transform="translate(-5 -6.72)"/><path class="cls-2" d="M193.49,94.41l9,52.64-87.73,15-9-52.64ZM157.72,150A22.25,22.25,0,1,0,132,131.77,22.26,22.26,0,0,0,157.72,150Z" transform="translate(-5 -6.72)"/><path class="cls-1" d="M175.91,124.28a22.25,22.25,0,1,1-25.68-18.19A22.26,22.26,0,0,1,175.91,124.28Zm-19.69,16.9a13.35,13.35,0,1,0-15.41-10.91A13.35,13.35,0,0,0,156.22,141.18Z" transform="translate(-5 -6.72)"/><path class="cls-2" d="M167.13,125.77a13.35,13.35,0,1,1-15.41-10.91A13.35,13.35,0,0,1,167.13,125.77Z" transform="translate(-5 -6.72)"/><polygon class="cls-1" points="92.95 162.7 94.45 171.48 85.68 172.97 84.18 164.2 92.95 162.7"/><polygon class="cls-1" points="89.96 145.16 91.45 153.93 82.68 155.43 81.18 146.65 89.96 145.16"/><rect class="cls-1" x="83.87" y="135.02" width="8.91" height="8.9" transform="translate(-27.25 10.16) rotate(-9.71)"/><polygon class="cls-1" points="83.96 110.06 85.46 118.84 76.69 120.33 75.19 111.56 83.96 110.06"/><rect class="cls-1" x="77.88" y="99.93" width="8.9" height="8.9" transform="translate(-21.42 8.65) rotate(-9.71)"/></svg>