<?xml version="1.0" encoding="utf-8"?>
<!-- Generator: Adobe Illustrator 24.0.1, SVG Export Plug-In . SVG Version: 6.00 Build 0)  -->
<svg version="1.1" id="social_media" xmlns="http://www.w3.org/2000/svg" xmlns:xlink="http://www.w3.org/1999/xlink" x="0px"
	 y="0px" viewBox="0 0 350 350" style="enable-background:new 0 0 350 350;" xml:space="preserve">
<style type="text/css">
	.st0{fill:#DFECF6;}
	.st1{fill:#1E70AE;}
	.st2{fill:#EFA0A0;}
	.st3{fill:#C0F5F9;}
	.st4{fill:#EBEBEB;}
	.st5{fill:#DBDBDB;}
	.st6{fill:#EAEAE8;}
	.st7{fill:#F7BA61;}
	.st8{fill:#AAE5C8;}
	.st9{fill:#154E7A;}
</style>
<g id="facebook">
	<path class="st0" d="M350,42.2c0,23.3-18.9,42.2-42.2,42.2c-23.3,0-42.2-18.9-42.2-42.2S284.4,0,307.8,0C331.1,0,350,18.9,350,42.2
		z"/>
	<path class="st1" d="M331.9,36.2v-3c0-8.3-6.8-15.1-15.1-15.1c-8.3,0-15.1,6.8-15.1,15.1v9.1h-12.1v12.1h12.1v12.1h12.1V54.3h12.1
		V42.2h-12.1v-9.1c0-1.7,1.3-3,3-3c1.7,0,3,1.3,3,3v3H331.9z"/>
</g>
<g>
	<path class="st2" d="M199.1,169h12.1V181h-12.1V169z"/>
	<path class="st2" d="M223.3,169h12.1V181h-12.1V169z"/>
	<path class="st2" d="M219,115.4l5.4,10.8c3.8-1.9,7.5-4,11.1-6.3l-6.4-10.2C225.8,111.7,222.4,113.6,219,115.4z"/>
	<path class="st2" d="M197.4,123.6l3.1,11.7c4.1-1.1,8.2-2.4,12.2-3.9l-4.3-11.3C204.8,121.4,201.1,122.6,197.4,123.6z"/>
	<path class="st2" d="M255.6,104.2l-8.4-8.7c-2.8,2.7-5.7,5.2-8.7,7.6l7.4,9.5C249.3,109.9,252.5,107.1,255.6,104.2z"/>
	<path class="st2" d="M271.6,85.4l0.5-0.7l-9.9-6.9l-0.5,0.7c-2.1,2.9-4.3,5.8-6.6,8.5l9.2,7.8C266.9,91.8,269.3,88.7,271.6,85.4z"
		/>
	<path class="st2" d="M197.4,226.4c3.7,1,7.4,2.2,11,3.5l4.3-11.3c-4-1.5-8-2.8-12.2-3.9L197.4,226.4z"/>
	<path class="st2" d="M219,234.6c3.4,1.7,6.8,3.6,10.1,5.7l6.4-10.2c-3.6-2.3-7.3-4.4-11.1-6.3L219,234.6z"/>
	<path class="st2" d="M245.9,237.5l-7.4,9.5c3,2.4,5.9,4.9,8.7,7.6l8.4-8.7C252.5,242.9,249.3,240.1,245.9,237.5z"/>
	<path class="st2" d="M264.3,255.1l-9.2,7.8c2.3,2.7,4.5,5.6,6.6,8.5l0.5,0.7l9.9-6.9l-0.5-0.7C269.3,261.3,266.9,258.2,264.3,255.1
		z"/>
</g>
<g id="twitter">
	<path class="st3" d="M350,175c0,26.7-21.6,48.3-48.3,48.3c-26.7,0-48.3-21.6-48.3-48.3s21.6-48.3,48.3-48.3
		C328.4,126.7,350,148.3,350,175z"/>
	<path class="st1" d="M310.8,156.9c-5,0-9.1,4.1-9.1,9.1v5.3c0,2.1-1.1,4-2.9,5.1c-1.8,1.1-4,1.2-5.9,0.3l-15.4-7.7l2.8,11
		c2,8.2,8.1,14.7,16.1,17.4c3.4,1.1,7.1,1.1,10.6,0l1.4-0.5c6.8-2.3,11.4-8.7,11.4-15.9v-15.1C319.8,160.9,315.8,156.9,310.8,156.9z
		"/>
	<path class="st1" d="M326.9,168l-7.5,4l-2-11.1L326.9,168z"/>
</g>
<g id="insta">
	<path class="st2" d="M337.9,350h-54.3c-6.7,0-12.1-5.4-12.1-12.1v-24.1l78.4-1.5v25.6C350,344.6,344.6,350,337.9,350z"/>
	<path class="st4" d="M283.6,277.6h54.3c6.7,0,12.1,5.4,12.1,12.1v24.1h-78.4v-24.1C271.6,283,277,277.6,283.6,277.6z"/>
	<path class="st5" d="M328.9,313.8c0,10-8.1,18.1-18.1,18.1s-18.1-8.1-18.1-18.1s8.1-18.1,18.1-18.1S328.9,303.8,328.9,313.8z"/>
	<path class="st6" d="M322.8,313.8c0,6.7-5.4,12.1-12.1,12.1s-12.1-5.4-12.1-12.1s5.4-12.1,12.1-12.1S322.8,307.1,322.8,313.8z"/>
</g>
<g id="XMLID_2_">
	<g>
		<path class="st1" d="M78.4,205.2v54.3c0,6.7-5.4,12.1-12.1,12.1s-12.1-5.4-12.1-12.1v-54.3H78.4z"/>
	</g>
	<g>
	</g>
</g>
<g id="XMLID_1_">
	<g>
		<rect x="36.2" y="138.8" class="st1" width="60.3" height="72.4"/>
	</g>
	<g>
	</g>
</g>
<path class="st4" d="M36.2,205.2H24.1C10.8,205.2,0,194.4,0,181V169c0-13.3,10.8-24.1,24.1-24.1h12.1V205.2z"/>
<g id="horn">
	<path class="st4" d="M181,235.3h-24.1l-10.3-7.7c-9.2-6.9-19.4-12.2-30.2-15.8l-19.8-6.6v-60.3l2.5-0.4
		c21.9-3.7,42.1-14.1,57.8-29.8H181V235.3z"/>
	<g id="XMLID_4_">
		<g>
			<path class="st1" d="M181,108.6v132.8c0,6.7-5.4,12.1-12.1,12.1s-12.1-5.4-12.1-12.1V108.6c0-6.7,5.4-12.1,12.1-12.1
				S181,102,181,108.6z"/>
		</g>
		<g>
		</g>
	</g>
</g>
<path class="st7" d="M58.8,156.9h12.1V169H58.8V156.9z"/>
<path class="st8" d="M58.8,181h12.1v12.1H58.8V181z"/>
<g id="XMLID_3_">
	<g>
		<rect x="54.3" y="211.2" class="st9" width="24.1" height="12.1"/>
	</g>
	<g>
	</g>
</g>
</svg>
