<svg height="464pt" viewBox="0 0 464 464" width="464pt" xmlns="http://www.w3.org/2000/svg"><path d="m448 464h-72c-8.835938 0-16-7.164062-16-16v-32l104-2v34c0 8.835938-7.164062 16-16 16zm0 0" fill="#ffb1b5"/><path d="m88 360c-8.835938 0-16-7.164062-16-16v-72h32v72c0 8.835938-7.164062 16-16 16zm0 0" fill="#64a8b2"/><path d="m48 184h80v96h-80zm0 0" fill="#69b0bb"/><path d="m48 272h-16c-17.671875 0-32-14.328125-32-32v-16c0-17.671875 14.328125-32 32-32h16zm0 0" fill="#ebebeb"/><path d="m240 312h-32l-13.671875-10.246094c-12.136719-9.113281-25.667969-16.203125-40.0625-21l-26.265625-8.753906v-80l3.367188-.558594c29.03125-4.84375 55.824218-18.632812 76.632812-39.441406h32zm0 0" fill="#ebebeb"/><path d="m224 128c8.835938 0 16 7.164062 16 16v176c0 8.835938-7.164062 16-16 16s-16-7.164062-16-16v-176c0-8.835938 7.164062-16 16-16zm0 0" fill="#69b0bb"/><path d="m464 56c0 30.929688-25.070312 56-56 56s-56-25.070312-56-56 25.070312-56 56-56 56 25.070312 56 56zm0 0" fill="#fbedbf"/><path d="m464 232c0 35.347656-28.652344 64-64 64s-64-28.652344-64-64 28.652344-64 64-64 64 28.652344 64 64zm0 0" fill="#c0f5f9"/><path d="m440 48v-4c0-11.046875-8.953125-20-20-20s-20 8.953125-20 20v12h-16v16h16v16h16v-16h16v-16h-16v-12c0-2.210938 1.789062-4 4-4s4 1.789062 4 4v4zm0 0" fill="#69b0bb"/><path d="m376 368h72c8.835938 0 16 7.164062 16 16v32h-104v-32c0-8.835938 7.164062-16 16-16zm0 0" fill="#ebebeb"/><g fill="#ffb1b5"><path d="m264 224h16v16h-16zm0 0"/><path d="m296 224h16v16h-16zm0 0"/><path d="m290.3125 152.945312 7.144531 14.3125c5.023438-2.503906 9.984375-5.304687 14.75-8.3125l-8.550781-13.53125c-4.320312 2.730469-8.773438 5.246094-13.34375 7.53125zm0 0"/><path d="m261.695312 163.800781 4.144532 15.457031c5.457031-1.464843 10.871094-3.203124 16.113281-5.203124l-5.671875-14.957032c-4.746094 1.789063-9.648438 3.382813-14.585938 4.703125zm0 0"/><path d="m338.832031 138.078125-11.089843-11.535156c-3.683594 3.539062-7.542969 6.890625-11.566407 10.042969l9.871094 12.589843c4.445313-3.480469 8.714844-7.183593 12.785156-11.097656zm0 0"/><path d="m360.089844 113.246094.613281-.878906-13.085937-9.167969-.625.890625c-2.734376 3.894531-5.671876 7.710937-8.746094 11.316406l12.1875 10.402344c3.398437-4.046875 6.644531-8.257813 9.65625-12.5625zm0 0"/><path d="m261.695312 300.199219c4.9375 1.320312 9.839844 2.914062 14.585938 4.703125l5.671875-14.957032c-5.242187-1.984374-10.65625-3.738281-16.113281-5.203124zm0 0"/><path d="m290.3125 311.054688c4.570312 2.285156 9.023438 4.800781 13.34375 7.53125l8.550781-13.53125c-4.800781-3.007813-9.726562-5.808594-14.75-8.3125zm0 0"/><path d="m326.046875 314.824219-9.871094 12.589843c4.023438 3.152344 7.882813 6.503907 11.566407 10.042969l11.089843-11.535156c-4.070312-3.914063-8.339843-7.617187-12.785156-11.097656zm0 0"/><path d="m350.398438 338.246094-12.183594 10.402344c3.074218 3.609374 6.007812 7.421874 8.753906 11.328124l.617188.878907 13.085937-9.191407-.609375-.871093c-2.984375-4.34375-6.230469-8.554688-9.664062-12.546875zm0 0"/></g><path d="m78 208h16v16h-16zm0 0" fill="#f7ba61"/><path d="m78 240h16v16h-16zm0 0" fill="#aae5c8"/><path d="m412 208c-6.628906 0-12 5.371094-12 12v7.054688c0 2.773437-1.4375 5.347656-3.796875 6.804687-2.355469 1.453125-5.300781 1.585937-7.777344.347656l-20.425781-10.207031 3.65625 14.625c2.703125 10.820312 10.753906 19.511719 21.335938 23.039062 4.546874 1.519532 9.46875 1.519532 14.015624 0l1.816407-.609374c9.0625-3.019532 15.175781-11.5 15.175781-21.054688v-20c0-6.628906-5.371094-12-12-12zm0 0" fill="#69b0bb"/><path d="m433.335938 222.664062-10 5.335938-2.671876-14.664062zm0 0" fill="#69b0bb"/><path d="m436 416c0 13.253906-10.746094 24-24 24s-24-10.746094-24-24 10.746094-24 24-24 24 10.746094 24 24zm0 0" fill="#dbdbdb"/><path d="m428 416c0 8.835938-7.164062 16-16 16s-16-7.164062-16-16 7.164062-16 16-16 16 7.164062 16 16zm0 0" fill="#eaeae8"/><path d="m72 280h32v16h-32zm0 0" fill="#5d9aa4"/></svg>