<?xml version="1.0" encoding="utf-8"?>
<!-- Generator: Adobe Illustrator 24.0.1, SVG Export Plug-In . SVG Version: 6.00 Build 0)  -->
<svg version="1.1" id="Laag_1" xmlns="http://www.w3.org/2000/svg" xmlns:xlink="http://www.w3.org/1999/xlink" x="0px" y="0px"
	 viewBox="0 0 126.1 16" style="enable-background:new 0 0 126.1 16;" xml:space="preserve">
<style type="text/css">
	.st0{enable-background:new    ;}
</style>
<title>Text Only</title>
<g class="st0">
	<path d="M7.8,15.6H5.6V2.3H0V0h13.3v2.3H7.8V15.6z"/>
</g>
<g class="st0">
	<path d="M15.6,4.8h2.1v10.8h-2.1V4.8z"/>
</g>
<g class="st0">
	<path d="M30.1,15.5c-0.8,0.3-1.6,0.4-2.4,0.4c-1.1,0-2.2-0.2-3.1-0.7c-1-0.5-1.8-1.1-2.4-2s-0.9-1.9-0.9-3.1s0.3-2.2,0.9-3.1
		c0.6-0.9,1.4-1.5,2.4-2s2-0.7,3.1-0.7c0.8,0,1.6,0.1,2.3,0.3c0.8,0.2,1.4,0.6,2,1l-1.4,1.7c-0.4-0.3-0.9-0.5-1.4-0.6
		c-0.5-0.1-1-0.2-1.5-0.2c-0.7,0-1.4,0.1-2,0.4c-0.6,0.3-1.1,0.7-1.5,1.2c-0.4,0.5-0.6,1.2-0.6,2s0.2,1.4,0.6,2
		c0.4,0.5,0.9,0.9,1.5,1.2c0.6,0.3,1.3,0.4,2,0.4c0.6,0,1.1-0.1,1.7-0.3s1.1-0.5,1.5-0.9l1.3,1.8C31.6,14.9,30.9,15.3,30.1,15.5z"/>
	<path d="M35.9,15.6V4.8h2.3v6.9l5-6.9h2.8l-3.6,4.9l1.6,2.7c0.3,0.4,0.6,0.7,0.9,0.8c0.3,0.1,0.6,0.2,1,0.2h0.8v2.3h-0.9
		c-0.4,0-0.8,0-1.1-0.1s-0.6-0.2-1-0.5s-0.7-0.6-1.1-1.1l-1.5-2.5l-2.7,4.2L35.9,15.6L35.9,15.6z"/>
	<path d="M59.4,13.4v2.2h-8.9V4.8H59v2.1h-6.4v2.6c0.4-0.3,0.9-0.4,1.5-0.5s1.2-0.1,1.9-0.1h1.6v2.1H56c-1,0-1.7,0-2,0.1
		c-0.4,0.1-0.8,0.3-1.3,0.5v1.7L59.4,13.4L59.4,13.4z"/>
	<path d="M66.5,15.6L61.9,4.8h2.4l3.7,8.6l3.7-8.6h2.4l-4.8,10.8H66.5z"/>
</g>
<g class="st0">
	<path d="M86.4,13.4v2.2h-8.9V4.8H86v2.1h-6.4v2.6c0.4-0.3,0.9-0.4,1.5-0.5s1.2-0.1,1.9-0.1h1.6v2.1H83c-1,0-1.7,0-2.1,0.1
		s-0.8,0.3-1.3,0.5v1.7L86.4,13.4L86.4,13.4z"/>
</g>
<g class="st0">
	<path d="M98.6,12.3V4.8h2.2v10.8h-2.2l-6-7.1v7.1h-2.2V6.4l-1.1-1.6H92L98.6,12.3z"/>
</g>
<g class="st0">
	<path d="M109.5,15.6h-2.2V6.9h-3.9V4.8h10.2v2.1h-4.1C109.5,6.9,109.5,15.6,109.5,15.6z"/>
	<path d="M120.6,6.5c-0.5,0-1.1,0.1-1.5,0.4s-0.7,0.5-0.7,0.8c0,0.3,0.1,0.4,0.2,0.6c0.1,0.1,0.3,0.3,0.7,0.4
		c0.3,0.1,0.8,0.1,1.5,0.1c1.4,0,2.6,0.1,3.4,0.4s1.3,0.7,1.6,1.2c0.3,0.5,0.4,1.1,0.4,1.7c0,1.3-0.5,2.2-1.5,2.9
		c-1,0.7-2.3,1-3.9,1c-0.9,0-1.8-0.2-2.7-0.6c-0.9-0.4-1.6-1-2.2-1.7l1.6-1.6c0.1,0.1,0.2,0.3,0.6,0.6s0.7,0.6,1.2,0.8
		c0.5,0.2,1,0.3,1.6,0.3c1,0,1.8-0.1,2.4-0.5c0.6-0.3,0.9-0.7,0.9-1.3c0-0.5-0.3-0.8-0.8-0.9c-0.5-0.2-1.4-0.2-2.6-0.2
		c-1.4,0-2.5-0.3-3.3-0.8s-1.2-1.3-1.2-2.5c0-0.6,0.2-1.2,0.6-1.7c0.4-0.5,0.9-0.9,1.6-1.2c0.7-0.3,1.4-0.4,2.2-0.4
		c0.9,0,1.7,0.1,2.4,0.3c0.8,0.2,1.5,0.6,2.2,1.1l-1.4,1.7C123.1,6.8,122,6.5,120.6,6.5z"/>
</g>
</svg>
