<?xml version="1.0" encoding="utf-8"?>
<!-- Generator: Adobe Illustrator 24.0.1, SVG Export Plug-In . SVG Version: 6.00 Build 0)  -->
<svg version="1.1" id="Laag_1" xmlns="http://www.w3.org/2000/svg" xmlns:xlink="http://www.w3.org/1999/xlink" x="0px" y="0px"
	 viewBox="0 0 128 111.6" style="enable-background:new 0 0 128 111.6;" xml:space="preserve">
<style type="text/css">
	.st0{fill:#FFFFFF;}
	.st1{display:none;fill:#FFFFFF;}
	.st2{enable-background:new    ;}
</style>
<g>
	<path class="st0" d="M39.8,111.6c-0.6,0-1.3,0-1.9,0c-0.2-0.1-0.3-0.2-0.5-0.3c-0.8-0.3-1.5-0.7-2.2-1.3
		c-3.7-3.7-7.4-7.5-11.1-11.2c-0.1-0.1-0.1-0.1-0.2-0.2c-0.9-0.9-1.1-2.2-0.4-3.4c0.6-1,0.9-2.1,0.7-3.2c-0.2-1.7-1.1-3.1-2.7-3.9
		c-0.8-0.5-1.7-0.7-2.7-0.6c-0.9,0.1-1.8,0.4-2.6,0.8c-0.9,0.5-2.3,0.3-3.1-0.5c-1.5-1.5-3.1-3-4.6-4.6c-2.4-2.3-4.7-4.7-7.1-7.1
		c-0.8-0.8-1.2-1.8-1.3-2.9c0-0.1-0.1-0.2-0.2-0.3C0,73,0,73,0,72.9c0-0.2,0-0.4,0-0.6c0-0.1,0-0.1,0-0.2C0.1,72,0.2,72,0.2,71.9
		c0.1-1.3,0.7-2.3,1.6-3.2C23.2,47.3,44.6,25.8,66.1,4.4c0.2-0.2,0.5-0.4,0.8-0.6c1.1-0.8,2.2-1,3.5-0.9c1.2,0.1,2.3,0.5,3.2,1.3
		c1,0.9,1.9,1.9,2.8,2.8c0.6,0.6,1.1,1.2,1.7,1.8c0.1-0.2,0.2-0.3,0.3-0.4c2.3-2.3,4.5-4.5,6.8-6.8c0.6-0.6,1.3-1,2.1-1.3
		c0.4-0.1,0.9-0.2,1.4-0.3c0.3,0,0.6,0,0.9,0c0.1,0,0.1,0.1,0.2,0.1c1.1,0.2,2.1,0.6,2.9,1.4c3.9,3.9,7.8,7.8,11.7,11.8c0,0,0,0,0,0
		c0.5,0.6,0.8,1.4,0.6,2.2c-0.2,0.5-0.4,1.1-0.6,1.6c-0.4,0.9-0.5,1.9-0.4,2.9c0.2,1.4,1,2.5,2.1,3.4c1.5,1.1,3.9,1.2,5.4,0.3
		c1.1-0.7,2.5-0.6,3.4,0.2c1.6,1.6,3.2,3.2,4.8,4.7c2.3,2.3,4.6,4.6,6.8,6.8c0.6,0.6,1.1,1.4,1.3,2.3c0,0.1,0.1,0.2,0.2,0.3
		c0,0.8,0,1.6,0,2.4c-0.1,0.1-0.1,0.1-0.2,0.2c-0.3,1-0.8,1.9-1.6,2.6c-21.4,21.4-42.8,42.8-64.2,64.2c-0.2,0.2-0.4,0.4-0.6,0.6
		c-2.1,1.7-5.2,1.5-7.1-0.4c-1.4-1.4-2.7-2.7-4.1-4.1c-0.1-0.1-0.2-0.2-0.4-0.3c-0.5,0.5-0.9,1-1.4,1.5c-1.9,1.9-3.9,3.9-5.8,5.8
		c-0.4,0.4-1,0.7-1.5,1C40.8,111.4,40.3,111.5,39.8,111.6z M39.1,106.1c0.2-0.2,0.3-0.3,0.4-0.4c2.3-2.3,4.6-4.6,6.9-6.9
		c0.4-0.4,0.8-0.8,1-1.3c0-0.1,0.2-0.3,0.3-0.4c0.4-0.3,0.9-0.6,1.3-1c1.5-1.4,3-2.9,4.5-4.4c9.3-9.3,18.6-18.6,28-27.9
		c2.9-2.9,5.9-5.9,8.8-8.8c2.6-2.6,5.2-5.2,7.8-7.8c1.7-1.7,3.3-3.4,5-5.1c0.3-0.3,0.3-0.5,0-0.7c-0.1-0.1-0.2-0.2-0.2-0.2
		c-3.2-3.2-6.3-6.3-9.5-9.5c-0.2-0.2-0.3-0.3-0.6-0.3c-0.3,0.1-0.5,0.2-0.8,0.2c-1.4,0.3-2.9,0.4-4.4,0.2c-2.4-0.4-4.3-1.5-5.8-3.4
		c-1.2-1.5-1.9-3.3-2-5.3c-0.1-1.4,0.1-2.8,0.5-4.2c0-0.1,0-0.3-0.1-0.4c-0.9-1-1.8-1.9-2.7-2.8c-0.1-0.1-0.3-0.2-0.5-0.3
		c-0.7-0.3-1.2-0.9-1.5-1.5c-0.1-0.2-0.2-0.3-0.3-0.5c-1.6-1.6-3.2-3.2-4.8-4.9c-0.3-0.3-0.4-0.3-0.7,0c-0.7,0.8-1.5,1.5-2.2,2.3
		c-2.3,2.3-4.6,4.6-7,7c-0.2,0.2-0.3,0.4,0,0.7c0.2,0.2,0.3,0.5,0.3,0.8c0,0.5,0,1.1,0,1.6c0,0.3-0.1,0.6-0.4,0.8
		c-0.5,0.4-1,0.7-1.5,1.1c-0.1,0.1-0.4,0.1-0.5,0c-0.5-0.2-1.1-0.4-1.6-0.6C56.3,22,56.2,22,56,22.2c-16.7,16.7-33.4,33.4-50,50
		c-0.3,0.3-0.3,0.4,0,0.7c3.3,3.3,6.7,6.6,10,9.9C16,82.9,16,83,16.1,83c1.9-0.6,3.8-0.8,5.7-0.4c1.6,0.3,3.1,1,4.4,2.1
		c1.7,1.6,2.8,3.5,3.1,5.8c0.2,1.6,0.1,3.1-0.4,4.7c-0.1,0.4,0,0.6,0.2,0.9c3.2,3.2,6.5,6.4,9.7,9.7C38.9,105.8,39,106,39.1,106.1z
		 M58.1,103.4C79.6,81.9,101,60.4,122.5,39c0,0,0,0-0.1-0.1c-3.4-3.3-6.7-6.7-10.1-10c0,0,0,0,0,0c-0.2,0-0.3-0.1-0.5-0.1
		c-1.7,0.4-3.3,0.6-5,0.4c-2.4-0.4-4.3-1.5-5.8-3.3c-1.4-1.6-2-3.5-2.1-5.6c-0.1-1.3,0.1-2.6,0.5-3.9c0.1-0.2,0.1-0.4-0.1-0.5
		c-1.4-1.4-2.8-2.9-4.2-4.3c-1.9-1.9-3.7-3.7-5.6-5.6c-0.1-0.1-0.2-0.2-0.4-0.4c-2.3,2.4-4.6,4.7-6.9,7c0.1,0.1,0.1,0.1,0.1,0.2
		c1,1,2,2.1,3,3.1c0.1,0.1,0.3,0.3,0.3,0.4c0.5,0.9,0.5,1.9,0,2.8c-0.5,1-0.8,2-0.7,3.2c0.1,1.1,0.6,2.1,1.3,2.9
		c1.7,1.8,4.4,2.2,6.5,0.9c1-0.6,2.4-0.4,3.2,0.4c1.5,1.5,3.1,3,4.6,4.5c2.4,2.3,4.7,4.7,7.1,7c0.6,0.6,1.1,1.4,1.3,2.2
		c0.5,1.7,0.2,3.3-0.9,4.7c-0.8,1-1.8,2-2.8,3c-0.6,0.6-1.2,1.2-1.8,1.8c0.3,0.2,0.5,0.4,0.7,0.7c0.6,0.6,0.9,1.3,0.9,2.1
		c0,1.9-1.9,3.2-3.6,2.6c-0.4-0.1-0.7-0.4-1-0.6c-0.3-0.2-0.6-0.8-0.9-0.8c-0.3,0-0.6,0.5-0.9,0.8C83.8,69.2,69,83.9,54.3,98.6
		c-0.1,0.1-0.3,0.3-0.5,0.4C55.3,100.5,56.7,102,58.1,103.4z"/>
	<path class="st1" d="M88.7,0c-0.5,0.1-0.9,0.2-1.4,0.3c-0.8,0.2-1.5,0.7-2.1,1.3c-2.3,2.3-4.5,4.5-6.8,6.8
		c-0.1,0.1-0.2,0.2-0.3,0.4C77.5,8.2,77,7.6,76.4,7c-0.9-1-1.9-1.9-2.8-2.8c-0.9-0.8-2-1.2-3.2-1.3c-1.3-0.1-2.5,0.2-3.5,0.9
		c-0.3,0.2-0.6,0.4-0.8,0.6C44.6,25.8,23.2,47.3,1.8,68.7c-0.9,0.9-1.5,1.9-1.6,3.2C0.2,72,0.1,72,0,72.1C0,48.1,0,24,0,0
		C29.6,0,59.1,0,88.7,0z"/>
	<path class="st1" d="M39.8,111.6c0.5-0.1,0.9-0.2,1.3-0.4c0.5-0.3,1.1-0.6,1.5-1c2-1.9,3.9-3.9,5.8-5.8c0.5-0.5,0.9-1,1.4-1.5
		c0.1,0.1,0.3,0.2,0.4,0.3c1.4,1.4,2.7,2.7,4.1,4.1c1.9,1.9,5,2.1,7.1,0.4c0.2-0.2,0.4-0.4,0.6-0.6c21.4-21.4,42.8-42.8,64.2-64.2
		c0.7-0.7,1.3-1.6,1.6-2.6c0-0.1,0.1-0.1,0.2-0.2c0,23.8,0,47.6,0,71.4C98.6,111.6,69.2,111.6,39.8,111.6z"/>
	<path class="st1" d="M0,73.1c0.1,0.1,0.2,0.2,0.2,0.3c0.1,1.1,0.6,2.1,1.3,2.9c2.3,2.4,4.7,4.7,7.1,7.1c1.5,1.5,3.1,3,4.6,4.6
		c0.8,0.8,2.1,1,3.1,0.5c0.8-0.5,1.7-0.8,2.6-0.8c0.9-0.1,1.9,0.2,2.7,0.6c1.5,0.9,2.4,2.2,2.7,3.9c0.1,1.1-0.1,2.2-0.7,3.2
		c-0.7,1.1-0.5,2.4,0.4,3.4c0.1,0.1,0.1,0.1,0.2,0.2c3.7,3.7,7.4,7.5,11.1,11.2c0.6,0.6,1.3,1.1,2.2,1.3c0.2,0.1,0.3,0.2,0.5,0.3
		c-12.6,0-25.3,0-38,0C0,98.8,0,85.9,0,73.1z"/>
	<path class="st1" d="M128,37.9c-0.1-0.1-0.1-0.2-0.2-0.3c-0.2-0.9-0.7-1.6-1.3-2.3c-2.3-2.3-4.6-4.6-6.8-6.8
		c-1.6-1.6-3.2-3.2-4.8-4.7c-0.9-0.8-2.3-0.9-3.4-0.2c-1.6,1-3.9,0.8-5.4-0.3c-1.1-0.8-1.9-2-2.1-3.4c-0.1-1-0.1-2,0.4-2.9
		c0.3-0.5,0.5-1,0.6-1.6c0.2-0.8-0.1-1.5-0.6-2.2c0,0,0,0,0,0c-3.9-3.9-7.8-7.8-11.7-11.8c-0.8-0.8-1.8-1.2-2.9-1.4
		c-0.1,0-0.1,0-0.2-0.1c12.8,0,25.7,0,38.5,0C128,12.6,128,25.2,128,37.9z"/>
	<path class="st1" d="M0,72.3c0,0.2,0,0.4,0,0.6C0,72.7,0,72.5,0,72.3z"/>
	<path class="st1" d="M39.1,106.1c-0.1-0.2-0.2-0.3-0.3-0.4c-3.2-3.2-6.4-6.4-9.7-9.7c-0.3-0.3-0.4-0.5-0.2-0.9
		c0.4-1.5,0.5-3.1,0.4-4.7c-0.3-2.3-1.4-4.3-3.1-5.8c-1.2-1.1-2.7-1.8-4.4-2.1c-1.9-0.4-3.8-0.2-5.7,0.4c0,0-0.1-0.1-0.1-0.1
		c-3.3-3.3-6.7-6.6-10-9.9c-0.3-0.3-0.3-0.4,0-0.7c16.7-16.7,33.4-33.4,50.1-50c0.2-0.2,0.4-0.3,0.7-0.1c0.5,0.2,1.1,0.4,1.6,0.6
		c0.2,0,0.4,0,0.5,0c0.5-0.3,1-0.7,1.5-1.1c0.3-0.2,0.4-0.5,0.4-0.8c0-0.5,0-1.1,0-1.6c0-0.3-0.1-0.6-0.3-0.8
		c-0.3-0.3-0.2-0.5,0-0.7c2.3-2.3,4.6-4.6,7-7c0.8-0.8,1.5-1.5,2.2-2.3c0.3-0.3,0.4-0.3,0.7,0c1.6,1.6,3.2,3.2,4.8,4.9
		c0.1,0.1,0.2,0.3,0.3,0.5c0.3,0.7,0.8,1.2,1.5,1.5c0.2,0.1,0.3,0.2,0.5,0.3c0.9,0.9,1.8,1.9,2.7,2.8c0.1,0.1,0.1,0.3,0.1,0.4
		c-0.4,1.4-0.6,2.8-0.5,4.2c0.1,1.9,0.8,3.7,2,5.3c1.5,1.9,3.4,3,5.8,3.4c1.5,0.2,2.9,0.2,4.4-0.2c0.3-0.1,0.5-0.1,0.8-0.2
		c0.3-0.1,0.4,0.1,0.6,0.3c3.2,3.2,6.3,6.3,9.5,9.5c0.1,0.1,0.2,0.2,0.2,0.2c0.3,0.2,0.3,0.4,0,0.7c-1.7,1.7-3.3,3.4-5,5.1
		c-2.6,2.6-5.2,5.2-7.8,7.8c-2.9,2.9-5.9,5.9-8.8,8.8c-9.3,9.3-18.6,18.6-28,27.9c-1.5,1.5-3,2.9-4.5,4.4c-0.4,0.4-0.9,0.7-1.3,1
		c-0.1,0.1-0.2,0.2-0.3,0.4c-0.2,0.5-0.6,0.9-1,1.3c-2.3,2.3-4.6,4.6-6.9,6.9C39.4,105.9,39.3,106,39.1,106.1z M91.4,50.9
		c0-0.2,0-0.5,0-0.7c0.1-0.7-0.3-1.1-0.7-1.5c-0.5-0.5-1-1-1.6-1.5c-0.1-0.1-0.3-0.2-0.4-0.3c-0.6-0.2-1.2-0.4-1.8-0.6
		c-0.2,0-0.5,0-0.7,0.1c-0.5,0.3-0.9,0.6-1.4,0.9c-0.3,0.2-0.4,0.4-0.4,0.8c0,0.5,0,1,0,1.5c0,0.3,0,0.6,0.3,0.8
		c0.3,0.2,0.4,0.6,0.7,0.8c0.8,0.7,1.4,1.6,2.5,1.9c0.9,0.3,1.6,0.4,2.3-0.3c0,0,0.1,0,0.1,0C91.1,52.4,91.7,51.9,91.4,50.9z
		 M69.1,34C69.1,34,69.1,34.1,69.1,34c0,0.3,0,0.6,0.2,0.8c0.8,0.8,1.6,1.6,2.3,2.4c0.1,0.1,0.1,0.1,0.2,0.1
		c0.6,0.2,1.3,0.5,1.9,0.7c0.1,0,0.3,0,0.3,0c0.5-0.4,1-0.8,1.6-1.1c0.3-0.2,0.4-0.5,0.4-0.8c0-0.3,0.1-0.7,0.1-1
		c0-0.4,0.1-0.8-0.1-1.1c-0.7-0.9-1.5-1.7-2.3-2.5c-0.1-0.1-0.2-0.1-0.3-0.2c-0.6-0.2-1.3-0.4-1.9-0.6c-0.1,0-0.3,0-0.4,0
		c-0.6,0.3-1.1,0.7-1.7,1.1c-0.1,0.1-0.2,0.2-0.2,0.3C69.2,32.9,69.2,33.5,69.1,34z M83.7,42.9c0.2-0.9-0.3-1.5-0.9-2.1
		c-0.2-0.2-0.5-0.5-0.7-0.7c-0.6-0.7-1.2-1.1-2.1-1.3c-0.3-0.1-0.6-0.2-0.8-0.3c-0.2,0-0.4,0-0.6,0.1c-0.5,0.3-1,0.7-1.5,1
		c-0.1,0.1-0.2,0.3-0.3,0.5c-0.1,0.6-0.1,1.2-0.1,1.8c0,0.2,0,0.3,0.1,0.4c0.8,0.9,1.6,1.7,2.4,2.6c0.1,0.1,0.2,0.1,0.2,0.1
		c0.6,0.2,1.3,0.4,1.9,0.6c0.1,0,0.3,0,0.3,0c0.5-0.3,1.1-0.7,1.6-1.1c0.1-0.1,0.2-0.2,0.2-0.4C83.7,43.8,83.7,43.4,83.7,42.9z
		 M61.5,26c-0.2,0.9,0.3,1.5,0.9,2c0.2,0.2,0.5,0.4,0.6,0.6c0.6,0.8,1.4,1.3,2.4,1.5c0.2,0,0.4,0.2,0.7,0.2c0.2,0,0.3,0,0.5-0.1
		c0.5-0.3,1-0.7,1.5-1c0.2-0.1,0.3-0.4,0.3-0.6c0.1-0.6,0.1-1.2,0.1-1.8c0-0.1,0-0.3-0.1-0.4c-1-1.3-1.9-2.7-3.7-3.1
		c-0.3-0.1-0.5-0.2-0.8-0.2c-0.1,0-0.3,0-0.4,0c-0.5,0.3-1.1,0.7-1.6,1.1c-0.1,0.1-0.2,0.2-0.2,0.3C61.5,25.1,61.5,25.6,61.5,26z"/>
	<path class="st1" d="M58.1,103.4c-1.3-1.4-2.8-2.8-4.2-4.3c0.2-0.1,0.3-0.2,0.5-0.4C69,83.9,83.8,69.2,98.5,54.5
		c0.3-0.3,0.6-0.8,0.9-0.8c0.3,0,0.6,0.5,0.9,0.8c0.3,0.2,0.7,0.5,1,0.6c1.7,0.6,3.6-0.7,3.6-2.6c0-0.9-0.4-1.5-0.9-2.1
		c-0.2-0.2-0.5-0.4-0.7-0.7c0.6-0.6,1.2-1.2,1.8-1.8c0.9-1,1.9-1.9,2.8-3c1.1-1.4,1.3-3,0.9-4.7c-0.2-0.9-0.7-1.6-1.3-2.2
		c-2.3-2.3-4.7-4.7-7.1-7c-1.5-1.5-3.1-3-4.6-4.5c-0.8-0.8-2.2-0.9-3.2-0.4c-2.1,1.3-4.8,0.9-6.5-0.9c-0.7-0.8-1.2-1.8-1.3-2.9
		c-0.1-1.2,0.2-2.2,0.7-3.2c0.5-1,0.5-1.9,0-2.8c-0.1-0.2-0.2-0.3-0.3-0.4c-1-1-2-2.1-3-3.1c0,0-0.1-0.1-0.1-0.2
		c2.3-2.4,4.6-4.7,6.9-7.1c0.2,0.1,0.3,0.3,0.4,0.4c1.9,1.9,3.7,3.7,5.6,5.6c1.4,1.4,2.8,2.9,4.2,4.3c0.2,0.2,0.2,0.3,0.1,0.5
		c-0.4,1.3-0.6,2.6-0.5,3.9c0.1,2.1,0.8,4,2.1,5.6c1.5,1.8,3.5,2.9,5.8,3.3c1.7,0.3,3.4,0,5-0.4c0.1,0,0.3,0.1,0.5,0.1c0,0,0,0,0,0
		c3.4,3.3,6.7,6.7,10.1,10c0,0,0.1,0.1,0.1,0.1C101,60.4,79.6,81.9,58.1,103.4z"/>
	<path class="st0" d="M91.4,50.9c0.3,1-0.3,1.5-1,2c0,0-0.1,0-0.1,0c-0.7,0.8-1.4,0.6-2.3,0.3c-1.1-0.3-1.8-1.2-2.5-1.9
		c-0.3-0.3-0.4-0.6-0.7-0.8s-0.3-0.5-0.3-0.8c0-0.5,0-1,0-1.5c0-0.3,0.1-0.6,0.4-0.8c0.5-0.3,0.9-0.6,1.4-0.9
		c0.2-0.1,0.5-0.1,0.7-0.1c0.6,0.2,1.2,0.4,1.8,0.6c0.2,0,0.3,0.2,0.4,0.3c0.5,0.5,1.1,1,1.6,1.5c0.4,0.4,0.8,0.9,0.7,1.5
		C91.4,50.4,91.4,50.6,91.4,50.9z"/>
	<path class="st0" d="M69.1,34c0-0.5,0.1-1.1,0.1-1.7c0-0.1,0.1-0.3,0.2-0.3c0.5-0.4,1.1-0.7,1.7-1.1c0.1-0.1,0.3-0.1,0.4,0
		c0.6,0.2,1.3,0.4,1.9,0.6c0.1,0,0.2,0.1,0.3,0.2c0.8,0.8,1.6,1.6,2.3,2.5c0.2,0.2,0.1,0.7,0.1,1.1c0,0.3-0.1,0.7-0.1,1
		c0,0.3,0,0.6-0.4,0.8c-0.5,0.3-1,0.7-1.6,1.1c-0.1,0.1-0.2,0.1-0.3,0c-0.6-0.2-1.3-0.5-1.9-0.7c-0.1,0-0.2-0.1-0.2-0.1
		c-0.8-0.8-1.6-1.6-2.3-2.4C69.1,34.7,69.2,34.3,69.1,34C69.1,34.1,69.1,34.1,69.1,34z"/>
	<path class="st0" d="M83.7,42.9c0,0.5-0.1,0.9-0.1,1.4c0,0.1-0.1,0.3-0.2,0.4c-0.5,0.4-1,0.7-1.6,1.1c-0.1,0-0.2,0.1-0.3,0
		c-0.6-0.2-1.3-0.4-1.9-0.6c-0.1,0-0.2,0-0.2-0.1c-0.8-0.9-1.6-1.7-2.4-2.6c-0.1-0.1-0.1-0.3-0.1-0.4c0-0.6,0-1.2,0.1-1.8
		c0-0.2,0.1-0.4,0.3-0.5c0.5-0.4,1-0.7,1.5-1c0.2-0.1,0.4-0.1,0.6-0.1c0.3,0,0.6,0.2,0.8,0.3c0.8,0.2,1.5,0.6,2.1,1.3
		c0.2,0.3,0.5,0.5,0.7,0.7C83.4,41.4,83.9,42,83.7,42.9z"/>
	<path class="st0" d="M61.5,26c0-0.5,0.1-0.9,0.1-1.4c0-0.1,0.1-0.2,0.2-0.3c0.5-0.4,1-0.8,1.6-1.1c0.1-0.1,0.3-0.1,0.4,0
		c0.3,0.1,0.5,0.2,0.8,0.2c1.8,0.4,2.7,1.8,3.7,3.1c0.1,0.1,0.1,0.2,0.1,0.4c0,0.6,0,1.2-0.1,1.8c0,0.2-0.1,0.4-0.3,0.6
		c-0.5,0.4-1,0.7-1.5,1c-0.1,0.1-0.3,0.1-0.5,0.1c-0.2,0-0.5-0.2-0.7-0.2c-1-0.2-1.7-0.7-2.4-1.5c-0.2-0.2-0.4-0.4-0.6-0.6
		C61.8,27.5,61.3,26.9,61.5,26z"/>
</g>
<g class="st2">
	<path class="st0" d="M51.7,76.3l-2.8,2.8L34.3,64.7l-7.1,7.2l-2.5-2.5l17-17.1l2.5,2.5l-7,7.1L51.7,76.3z"/>
	<path class="st0" d="M75.2,47.7l2.5,2.5L62.5,65.5l-17.1-17l14-14.1l2.5,2.5L50.8,48.1l5.2,5.1c0.3-0.8,0.7-1.6,1.2-2.3
		c0.5-0.7,1.2-1.4,1.9-2.2l4.3-4.4l2.6,2.5l-4.3,4.4c-0.7,0.7-1.4,1.5-1.9,2.2c-0.5,0.7-0.9,1.5-1.2,2.3l4.3,4.3L75.2,47.7z"/>
</g>
</svg>
